<svg id="Layer_1" data-name="Layer 1" xmlns="http://www.w3.org/2000/svg" viewBox="0 0 2369 1150.79"><defs><style>.cls-1{fill:#f1f2f7;}.cls-2{fill:#ffb27d;}.cls-3{fill:#233862;}.cls-4{fill:#ed975d;}.cls-5{fill:#363736;}.cls-6{fill:#ffc933;}.cls-7{fill:#ed7d2b;}.cls-8{fill:#82b378;}.cls-9{fill:#a8d29f;}.cls-10{fill:#edbe9d;}.cls-11{fill:#d3a17f;}.cls-12{fill:#008aff;}.cls-13{fill:#ed985f;}.cls-14{fill:#006fce;}.cls-15{fill:#606060;opacity:0.34;}.cls-16{fill:#fff;opacity:0.7;}.cls-17{fill:#d8772e;}.cls-18{fill:#f1a34f;}.cls-19{fill:#f9ddbf;}.cls-20{fill:#ec9746;}.cls-21{fill:#b24940;}.cls-22{fill:#c65447;}.cls-23{fill:#c95f59;}.cls-24{fill:#2e3552;}</style></defs><title>computer-crash</title><path class="cls-1" d="M2546.89,1216.11c-60.69-141.93-189.15-274-457.4-271.3-297.32,3-429.62-91.6-543.35-180a167.22,167.22,0,0,1-78.32,98.62,174.18,174.18,0,0,1-7.33,179.71,111.37,111.37,0,0,1,38.87,115.77c31.84,6.92,53.8,35.29,55.69,69.14,3.28,58.86-42.77,77.13-67.71,88.07a132.42,132.42,0,0,1,4.33,33.65c0,73-33.88,109-106.92,109a132.22,132.22,0,0,1-115.86-68.44,162.79,162.79,0,0,1-191.65-234.57,103.56,103.56,0,0,1-52.27-76.33c-3.5.33-7.05.51-10.64.51a110.87,110.87,0,0,1-71.07-25.64c48.61,354.78-538,12.31-545.35,505.61H2596.82C2607.51,1457.93,2592.24,1322.05,2546.89,1216.11Z" transform="translate(-307 -417.34)"/><path class="cls-2" d="M2160.54,866.93c-14.05.17-32.15.88-55.42,2.41-18.69,1.24-43.77-4.17-70.32-10.79-28.9-7.21-59.55-15.83-85.6-18.8q2.17-1.5,4-2.94C1972,822.07,2093.57,665.3,2093.57,665.3c16.78-3.86,51.46-41.28,51.46-50.64s16-38,13-42.38-41.6,10.46-51,19.88-24.34,47.38-24.34,47.38-177.49,135.6-196,179.18c-9.52,22.4-.61,47.33.86,51.13a.61.61,0,0,0,0,.12l.15.4h0c8.71,21,69.93,56.66,132.75,82a565.33,565.33,0,0,0,55.5,19.34,3.84,3.84,0,0,0,.46.11c84.39,23.65,133.1-99.86,133.1-99.86S2207.91,866.39,2160.54,866.93Z" transform="translate(-307 -417.34)"/><path class="cls-3" d="M2292.61,547.3c-17.78-7.14-41.52,9-41.52,9,6.79-14,39.94-15.39,39.94-15.39-66.94-2.85-73.5,40.71-74,44.82-54-34.42-113.93,68.48-113.93,68.48L2235,778.87s6-24.39,20.18-19.48c22.12,7.65,53.73-43.72,31.29-100.49a157.77,157.77,0,0,0-7.72-16.71c4.52,1.13,9.53,1.81,14,1.06,11.78-2,24.51-35,25.21-45.56S2310.38,554.45,2292.61,547.3Z" transform="translate(-307 -417.34)"/><path class="cls-2" d="M2274.05,854.36h0c-9.88-.29-32.35-32.31-41.66-88.76l-4.18,1.58L2158,793.8s5.5,22.58,9.18,44.11c1.89,11,3.29,21.7,3.24,29-13.93,2.91-23.29,5.16-23.29,5.16s-48.13,60-48.13,87.67,108,8.56,144.13-1S2274.05,854.36,2274.05,854.36Z" transform="translate(-307 -417.34)"/><path class="cls-4" d="M2158,793.8s5.5,22.58,9.18,44.11c40.45-8,55.68-48.7,61-70.73Z" transform="translate(-307 -417.34)"/><path class="cls-2" d="M2147.87,816.48s96.43-14.63,86.39-74.54-4.34-102.14-66.33-95.33-70.09,31.66-71.61,52.47S2122.53,818.74,2147.87,816.48Z" transform="translate(-307 -417.34)"/><path class="cls-3" d="M2123.89,652.53s38.17,65.83,80.33,69.4,57.86-10.2,57.86-10.2a431.91,431.91,0,0,1-33.87-76.12S2138.11,615.73,2123.89,652.53Z" transform="translate(-307 -417.34)"/><path class="cls-3" d="M2131.37,657.13s-17,19-19.24,35.07.92,47.82-8.41,48.29c0,0-27.89-44.41-10.15-75.19C2112.37,632.66,2131.37,657.13,2131.37,657.13Z" transform="translate(-307 -417.34)"/><path class="cls-3" d="M2128.12,660.12s31.17,70.42,86.12,85.39c0,0-58.6-36.61-71.12-84.46S2128.12,660.12,2128.12,660.12Z" transform="translate(-307 -417.34)"/><path d="M2269.48,1468.27a603.49,603.49,0,0,1-75.81-29.16,578.12,578.12,0,0,1-61.37-32.81c-2-1.28,1.81,37.75-.17,36.47-15.22-9.59-45.06-3.57-58.5-13.75.1-1.48,10-59.09,10.14-60.47,2.57-25.9,5.24-46.26,7.21-60a3.47,3.47,0,0,1,.2-1.09c5.83-3.86,131,54.06,131,54.06S2273.63,1441.68,2269.48,1468.27Z" transform="translate(-307 -417.34)"/><path class="cls-5" d="M2390.54,1559.52H2229.21c-25.08,0-45.08.25-74.08,0-24.15-.21.22-97.34-18.75-109-2-1.28-8.13-46.69-10.11-48-4.05-12-7.51-22.54-10.48-31.33-6-18.39-9.39-29.06-9.39-29.06l54.56-15.52,144.59-41.21a257.68,257.68,0,0,1,33.61,39.24c22.33,32.22,44.57,81,47.73,153.58C2387.09,1483.29,2390.35,1554.48,2390.54,1559.52Z" transform="translate(-307 -417.34)"/><path class="cls-6" d="M2363.88,948.2c5.21-30,3.47-52.42-10-69.63-17.25-22.1-79.85-24.21-79.85-24.21s-19.25,70-33.61,84.19-120,25.85-122.08,8.22,42.17-79.83,42.17-79.83h0c-14.05.17-32.15.88-55.42,2.41-18.69,1.24-43.77-4.17-70.32-10.79,0,0-19.2,48.24-14.3,93.83a117.36,117.36,0,0,0,2.89,16.18s32.69,7.67,32.33,29.15h0c-1.63,48.83,2.87,96.45,3,97.25,5.61,39.32,16.87,80.31,21.58,113.66,8.67,61.44-13.53,121-12.9,150s230,5.64,280.24-40.33c9.46-8.65-35.62-109.6-36.75-125-5.39-72.86,37.1-183.14,37.1-183.14A434.14,434.14,0,0,0,2363.88,948.2Z" transform="translate(-307 -417.34)"/><path class="cls-7" d="M2341.21,1025.94s-41.33,128-27.17,179.48c-121.74-159.79-3.92-238.46,49.84-257.22C2358.19,981.08,2341.21,1025.94,2341.21,1025.94Z" transform="translate(-307 -417.34)"/><path class="cls-2" d="M2502.59,1154.53c-3.66-28.63-39.17-105.56-73-169.59v0c-24.49-46.42-48.06-86.06-57.89-95.58-64.43-62.35-119.54-1-107,35.32,0,0,49.44,55.64,95.33,114.35,38.58,49.37,74.65,100.88,76.72,123.34,2.57,27.8,9.84,98.81,18.31,155.59,0,0-31.21,52.33-29.24,74,0,0,8.46-3.45,14.57-18.72s10.06-6.41,10.06-3-5.91,29.56-2.46,40.89,18.23,25.13,26.11,22.17,22.46-73.84,16.4-86.68C2500.13,1285.64,2506.8,1187.49,2502.59,1154.53Z" transform="translate(-307 -417.34)"/><path class="cls-6" d="M2274.05,854.36s66.24-3,89.83,20.91,47.53,65.22,47.53,65.22,6,92.47-65.11,108.15c0,0-95.86-113.65-88.17-140.35S2274.05,854.36,2274.05,854.36Z" transform="translate(-307 -417.34)"/><path class="cls-8" d="M514.52,1431.34c4,46.19,30.13,60.45,41.59,59.22s78.55-26.83,80-17.44-38.91,40.1-67.18,41.54c0,0,57.85,61.85,93.32,44.86s38.63-39.4,60.75-49.5,36.4-17.58,27.27-7.27-30.62,19.19-43.27,41.57c-3,5.28-5.9,10.15-8.12,14.45l56.16,1c23.68-11.77,43.63-28,45.12-45.5.12-1.34.23-2.61.32-3.83l2.3-26.93s38.36-44.74,18.42-81.86A56.79,56.79,0,0,0,806,1384s-35.75-21.65-64.9-19.88c0,0,22.59,37.88,28.95,60.39,2.25,7.93,2.47,14-1,15.75-3.81,2-8.73-3.75-13.83-12.91-12.78-22.95-26.62-67.58-26.62-67.58s-21.5-2.09-46-2.4c-11-.14-22.54.07-33,1-11.59,1-21.85,2.9-28.53,6.1,0,0,1.47,1.2,3.92,3.25,3.65,3.06,9.49,8,16,13.76,19.29,17.07,44.36,41.13,35,43.29-7.58,1.76-31.4-12.39-52.59-26.43-19.72-13.06-37.17-26-37.17-26S510.49,1385.15,514.52,1431.34Z" transform="translate(-307 -417.34)"/><path class="cls-8" d="M551.72,1432.59s205.65-7.93,251.06,50.89c0,0,10.05,30.08,41,57.47l4.82,13.13s-35.63-37.58-48.38-39.85C800.17,1514.23,820.11,1441.37,551.72,1432.59Z" transform="translate(-307 -417.34)"/><path class="cls-8" d="M835.09,1540.61c1.76,1.93,4.4,4.56,8.18,8.05l.08.08c1.31,1.21,2.59,2.52,3.83,3.91a76.74,76.74,0,0,1,5.48,6.89l9.61,0c-9.89-12.18-18.53-18.57-18.53-18.57l0,0C843,1540.48,825.25,1529.77,835.09,1540.61Z" transform="translate(-307 -417.34)"/><path class="cls-9" d="M1027.28,1407s-83-46.46-44.25-109.51c0,0,17-32.93,50.22-42.88,0,0-3.76,88.23,13.94,90.44s12.17-106.2,12.17-106.2,87.39-42,121.68-38.71c0,0-54.2,91.81-36.5,89.6s78.54-95.13,78.54-95.13,89.61-16.6,104,36.5-8.85,79.65-22.13,83-98.45,2.21-96.24,13.27,59.74,28.77,91.82,18.81c0,0-35.4,87.39-81.86,83s-60.85-33.19-89.61-35.4-49.78,5.53-35.4,13.27,63.06,2.54,86.29,22.29,42,31.92-1.11,40.77-120.58,3.32-136.07-29.87Z" transform="translate(-307 -417.34)"/><path class="cls-8" d="M1286.14,1247.66s-232.31,75.22-258.86,159.29c0,0,1.1,37.61-22.13,80.76v16.59s24.34-56.42,37.61-64.16C1042.76,1440.14,990.77,1367.13,1286.14,1247.66Z" transform="translate(-307 -417.34)"/><path class="cls-8" d="M983.63,1559.36l13.28,0c.41-19.2,2.63-40.76,9.19-57.18h0c.82-2.06,1.7-4,2.66-5.91l0-.06c2.75-5.39,4.62-9.37,5.79-12.25h0c6.8-16.65-9.44,3.8-9.44,3.8S985.68,1517.28,983.63,1559.36Z" transform="translate(-307 -417.34)"/><path class="cls-9" d="M895.28,1342.88s109.37-61.25,58.33-144.37c0,0-40.83-51-84.58-64.16,0,0,23.34,124,0,126.86s-16-140-16-140-115.2-55.42-160.4-51c0,0,71.45,121,48.12,118.11s-103.53-125.4-103.53-125.4S519.06,1041,500.1,1111s11.67,105,29.17,109.36,129.78,2.92,126.86,17.5-78.74,37.92-121,24.79c0,0,46.66,115.2,107.91,109.37s80.2-43.75,118.11-46.66,65.62,7.29,46.67,17.5-83.12,3.34-113.74,29.37-55.42,42.08,1.45,53.74,159,4.38,179.37-39.37Z" transform="translate(-307 -417.34)"/><path class="cls-8" d="M554.06,1132.89s306.22,99.16,341.22,210c0,0-1.46,49.58,29.17,106.45v21.87s-32.08-74.37-49.58-84.58C874.87,1386.62,943.4,1290.38,554.06,1132.89Z" transform="translate(-307 -417.34)"/><path class="cls-8" d="M912,1444.29l0,0c1.55,3.81,4,9.07,7.65,16.19l0,0c1.26,2.47,2.42,5.08,3.5,7.78h0c10.48,26.28,12.56,62.53,12.17,91.11l17.57,0c2.09-63.64-28.49-110.1-28.49-110.1h0C924,1448.73,903.16,1422.63,912,1444.29Z" transform="translate(-307 -417.34)"/><path class="cls-10" d="M1822,970.67h127.18s56.39,3.82,36.15,98.49-86.75,286.54-66.51,344.58H1777.18Z" transform="translate(-307 -417.34)"/><path class="cls-11" d="M1534.75,1317.15c16.83-82.66,43.93-222.08,58.31-296.37a61.86,61.86,0,0,1,60.74-50.11h200a61.87,61.87,0,0,1,61,72.45l-55.4,319.32a61.88,61.88,0,0,1-67.74,50.92L1588.6,1391A61.86,61.86,0,0,1,1534.75,1317.15Z" transform="translate(-307 -417.34)"/><path class="cls-12" d="M1483.44,1058l-33.2,349s37.71,40.26,187,54.07c3.72.36,7.51.71,11.38,1,85.67,6.92,117.48-103.6,128.6-206.76,9.5-88,3.94-170.61,3.94-170.61C1581.13,1000.43,1483.44,1058,1483.44,1058Z" transform="translate(-307 -417.34)"/><path class="cls-12" d="M1157.75,1335.54c29.63,13.75,205.84,25.3,222.77,20.42,8.68-2.5,45-34.5,81.56-73.87l0,0c34.59-37.24,69.46-81.07,81.23-112.61,24.19-64.81,3.39-122.36,3.39-122.36s-45-.19-63.29,10.88-123.14,204.11-137.15,209.2-180,14.61-199,23.63C1147.26,1290.81,1128.15,1321.79,1157.75,1335.54Z" transform="translate(-307 -417.34)"/><path class="cls-2" d="M1587.42,1046.67l0,10.91s-3,34.13,39,39.17,73.88-13.19,72.78-39.53c-3.75-20.39-7.88-34.4-8.14-51.27a119.24,119.24,0,0,1,1.53-20.44l-81.43-1.75-24,3.88Z" transform="translate(-307 -417.34)"/><path class="cls-13" d="M1587.2,987.64l.22,59a68.68,68.68,0,0,0,29.34,6.52c37.43.06,74.68-60.17,75.86-67.68Z" transform="translate(-307 -417.34)"/><path class="cls-2" d="M1582.4,1016.32s104.26,21.23,116.48-43.9,33.91-106.25-32.14-122.56-83.68,6.11-93,26.86S1555.6,1009.12,1582.4,1016.32Z" transform="translate(-307 -417.34)"/><path class="cls-3" d="M1553.49,828.28s29.08-2.19,63.41-17c27.86-12.06,63,1.33,74.35,7.35a16.89,16.89,0,0,0-2.77-6.87s5.12,3.64,5.86,8.72c.53.39.77.66.63.75s5.8-1.06,9.53.63c0,0-2.61-.38-3.54,1.3a1.81,1.81,0,0,1-.42.46c43.4,21,47.3,89.69,33.3,105.55-16.84,19.08-37.07,62.08-37.07,62.08s-7.34-10.18-4.26-27-11.43-16.83-29.77-24.5-3-29.05-19-42.07-74.89-5.46-74.11-15.39C1547.76,874.25,1553.48,830.52,1553.49,828.28Z" transform="translate(-307 -417.34)"/><path class="cls-14" d="M1637.21,1461c3.72.36,7.51.71,11.38,1,85.67,6.92,117.48-103.6,128.6-206.76C1766.83,1260.34,1626.39,1331.82,1637.21,1461Z" transform="translate(-307 -417.34)"/><path class="cls-2" d="M1713.21,1364.73s-30.21-19.61-40.21-17.82-50.89,13.79-56.51,20.48c-8.76,10.43-24.23,27-15.41,28.75s86.59,5.66,95.55,4.89S1726.49,1391.53,1713.21,1364.73Z" transform="translate(-307 -417.34)"/><path class="cls-12" d="M1744.46,1072.55s63,14.11,94.61,50.36c28.69,32.95,111.8,193.83,134.67,251.7,3.65,9.22-6.61,29.27-14.86,34.76-20.65,13.75-63.19,23.73-168.41,6.38L1696.41,1402s-6.86-42.25,13.59-51.06l152.31-2.12s-87.25-90.28-104.1-116.24S1744.46,1072.55,1744.46,1072.55Z" transform="translate(-307 -417.34)"/><path class="cls-14" d="M1157.75,1335.54c29.63,13.75,205.84,25.3,222.77,20.42,8.68-2.5,45-34.5,81.56-73.87-1.8.24-59.31,8.42-94.73,39.05,0,0-20,8.88-74.28,3.91S1169,1318.25,1157.75,1335.54Z" transform="translate(-307 -417.34)"/><path class="cls-15" d="M1555.05,1228c-1.89-33.85-23.85-62.22-55.69-69.14a111.37,111.37,0,0,0-38.87-115.77,174.18,174.18,0,0,0,7.33-179.71,166.79,166.79,0,1,0-213.44-247.76,211.53,211.53,0,0,0-97-23.39c-117.17,0-212.18,94.9-212.38,212A59,59,0,0,0,928.29,898a111.34,111.34,0,0,0,86,182c3.59,0,7.14-.18,10.64-.51a103.56,103.56,0,0,0,52.27,76.33,162.82,162.82,0,0,0,191.65,234.57,132.22,132.22,0,0,0,115.86,68.44c73,0,106.92-36,106.92-109a132.42,132.42,0,0,0-4.33-33.65C1512.28,1305.17,1558.33,1286.9,1555.05,1228Z" transform="translate(-307 -417.34)"/><path class="cls-16" d="M1319,901.77A116.44,116.44,0,0,0,1261,801a104.9,104.9,0,0,1,34.65-59.4,105.41,105.41,0,0,0-51.1,51.5,116.71,116.71,0,0,0-99.33,7.23,125.58,125.58,0,0,1,168.29,136.95A116.32,116.32,0,0,0,1319,901.77Z" transform="translate(-307 -417.34)"/><path class="cls-16" d="M1097.5,1061.88a63.89,63.89,0,0,1,51.5-62.67c-1.49-.13-3-.21-4.5-.21a50,50,0,0,0-46.81,67.59C1097.58,1065,1097.5,1063.47,1097.5,1061.88Z" transform="translate(-307 -417.34)"/><path class="cls-16" d="M1417.25,1200.1a43.75,43.75,0,0,1,38.65,64.25,40,40,0,0,0-39.36-64.23Z" transform="translate(-307 -417.34)"/><path class="cls-17" d="M1330.86,1383.45h201.45a16.06,16.06,0,0,0-16.06-16.06H1330.86Z" transform="translate(-307 -417.34)"/><polygon class="cls-17" points="1024.44 746.71 712.98 746.71 787.69 966.11 1101.17 966.11 1024.44 746.71"/><polygon class="cls-18" points="708.4 746.71 783.1 966.11 1096.58 966.11 1019.85 746.71 708.4 746.71"/><path class="cls-19" d="M1183.32,1271.72c1.93,8.38,10.3,15.18,18.68,15.18s13.61-6.8,11.67-15.18-10.3-15.18-18.68-15.18S1181.38,1263.34,1183.32,1271.72Z" transform="translate(-307 -417.34)"/><polygon class="cls-20" points="708.4 746.71 783.1 966.11 928.93 966.11 754.26 746.71 708.4 746.71"/><path class="cls-21" d="M943.11,1559.52H2195.42l-32.34-89.41a131.32,131.32,0,0,0-123.51-86.66H1062.41a91.28,91.28,0,0,0-87.74,66.09Z" transform="translate(-307 -417.34)"/><path class="cls-22" d="M693,1559.52H1900.8l2.34-45.09a124.5,124.5,0,0,0-124.33-131H812.24a91.26,91.26,0,0,0-87.73,66.09Z" transform="translate(-307 -417.34)"/><path class="cls-23" d="M693,1559.52h737.6c41-71.11,78.31-135.22,102.94-176.07H812.24a91.26,91.26,0,0,0-87.73,66.09Z" transform="translate(-307 -417.34)"/><polygon class="cls-21" points="881.55 702.66 881.55 702.66 857.52 617.18 885.86 625.68 877.33 559.96 877.33 559.96 904.24 649.75 874.63 641.3 881.55 702.66"/><polygon class="cls-21" points="1204.51 800.51 1204.51 800.51 1237.97 762.48 1242.7 778.68 1271.52 754.2 1271.52 754.2 1236.88 794.95 1231.74 778.16 1204.51 800.51"/><polygon class="cls-21" points="1013.84 689.71 1013.84 689.71 1064.56 575.23 1087.72 609.94 1137.53 530.87 1137.53 530.87 1086.05 652.61 1061.47 616.82 1013.84 689.71"/><polygon class="cls-21" points="710.22 726.15 710.22 726.15 623.53 635.81 664.42 627.54 610.14 551.47 610.14 551.47 703.28 645.27 660.84 654.43 710.22 726.15"/><path class="cls-15" d="M1048.42,430.84a64.47,64.47,0,0,0-29.13,6.92,26.4,26.4,0,1,0-30.26,32,64.79,64.79,0,1,0,59.39-38.9Z" transform="translate(-307 -417.34)"/><circle class="cls-15" cx="896.17" cy="761.76" r="20.17" transform="translate(-476.67 -152.94) rotate(-15.35)"/><path class="cls-24" d="M3.39,1142.57H2365.6a3.4,3.4,0,0,1,3.4,3.4v1.43a3.4,3.4,0,0,1-3.4,3.4H3.4a3.4,3.4,0,0,1-3.4-3.4V1146a3.39,3.39,0,0,1,3.39-3.39Z"/></svg>