<svg id="Слой_2" data-name="Слой 2" xmlns="http://www.w3.org/2000/svg" viewBox="0 0 6451.54 6391.27"><defs><style>.cls-1{fill:#f1f2f7;}.cls-2{fill:#010117;}.cls-3{fill:#bed2fa;}.cls-4{fill:#ff9a33;}.cls-5{fill:#060632;}.cls-6{fill:#006fce;}.cls-7{fill:#008aff;}.cls-8{fill:#fc9290;}.cls-19,.cls-9{fill:#e75755;}.cls-10{fill:#ffc933;}.cls-11{fill:#ea8888;}.cls-12{fill:#0b0754;}.cls-13{fill:#fa7269;}.cls-14{fill:#120e59;}.cls-15{fill:#fa3;}.cls-16{fill:#ed6966;}.cls-17{fill:#3662c1;}.cls-18{fill:#6d89cf;}.cls-19{opacity:0.4;}.cls-20{fill:#dee9fd;}.cls-21{fill:#c1d4fa;}.cls-22{fill:#9e332e;}.cls-23{fill:#364aa3;}.cls-24{fill:#fff;}.cls-25{fill:#2196f3;}.cls-26{fill:#fafafa;}.cls-27{fill:#90caf9;}.cls-28{fill:#afb6bb;}.cls-29{fill:#ebba16;}.cls-30{fill:#e7eced;}.cls-31{fill:#dd352e;}.cls-32{fill:#366db6;}</style></defs><title>optimized website-1</title><path class="cls-1" d="M5639.31,6751.84s520.33,40.8,680.58-263.87c238.26-453-224.83-818.15-560.77-752.41-732,143.24-555.75-1437-1730.55-1114.48-330.34,90.68-1222.88-448-1471.8,415.75-59.19,205.4-268.91,228-573.36,358.35-595.82,255.07-323.39,1361,102.35,1365.3S5639.31,6751.84,5639.31,6751.84Z" transform="translate(-649.3 -370.82)"/><path class="cls-2" d="M6294,6762.1H1721.26a4.09,4.09,0,0,1-4.08-4.09h0a4.09,4.09,0,0,1,4.08-4.08H6294a4.1,4.1,0,0,1,4.08,4.08h0A4.1,4.1,0,0,1,6294,6762.1Z" transform="translate(-649.3 -370.82)"/><path class="cls-3" d="M3606.83,4737.35l-72.8-1.67c23.39,30.31,28.64,58.24,14.08,81.87-14.56,24.11-49.41,43.92-101.45,59,39.39-104.79,59.2-215.3,59.2-328.68,0-127-24.83-250.15-74-365.92a938.61,938.61,0,0,0-866.22-574.3c-127,0-250.15,24.83-366.15,73.76-13.85,6-27.69,12.17-41.06,18.62l-.12.06c-40.44-12.34-79.82-22.45-117.83-30.16-191.83-38.93-328-12-383.27,75.77-52.63,83.49-24,209.16,80.45,355.74a.25.25,0,0,0,0,.07c-14.09,26-26.74,52.75-38.43,80.44-8.83,20.77-16.71,41.53-23.87,62.78-196.21,11.69-301.23,46.22-339.42,108.76-44.4,72.81,16.23,170.51,210.29,265.51,26.73,13.13,55.37,26,85.45,38.91a919.37,919.37,0,0,0,67.55,255.88,942.39,942.39,0,0,0,500.3,500.53c116,48.94,239.17,73.76,366.15,73.76a940.21,940.21,0,0,0,862.41-565.46c95.71-19.81,158.73-50.84,183.79-91.9C3629.26,4802.28,3627.11,4770.77,3606.83,4737.35Zm-224.62,154c-63.73,11.46-143.21,18.14-236.06,19.09-144.08,1.76-309.55-9.62-483.93-32.6q22-47.91,43.08-98.34c54.12,18.11,106.63,32.45,156.72,42.61,57.37,11.65,109.73,17.4,156.47,17.4,109.55,0,188-31.63,226.8-93.16a160.92,160.92,0,0,0,15.59-32.24H3205c-.93,1.7-1.91,3.38-2.94,5-28.79,45.71-93.14,69.32-183.48,69.3-43.21,0-92.41-5.4-146.47-16.37-47.12-9.56-96.54-23-147.49-39.9q20.18-50.46,39.14-102.74c34-93.86,63.19-186.9,86.76-276.25,107.44,15.84,222.75,23.79,345.28,23.79q114.43,0,237.1-9.24a890.68,890.68,0,0,1,18.26,180.15C3451.2,4666.94,3428.05,4782.46,3382.21,4891.31ZM2218.74,5357.42c-27.16-9.85-40.95-48.83-47.73-79.8-10.72-48.94-12.66-117.68-5.6-198.79,3.56-41,9.3-84.63,17-130.25a2419.42,2419.42,0,0,1,328.92,113.81c-24.18,41.7-48.63,80.36-73.08,115.41-46.58,66.77-92.13,118.28-131.74,149C2281.48,5346.19,2245.91,5367.27,2218.74,5357.42Zm317.2-338.68a2468.61,2468.61,0,0,0-344.57-119.32q6.16-31.76,13.52-64.59,48.68,11.06,98.67,21.39c97.5,19.94,194.76,36.87,290,50.57Q2565.25,4965.31,2535.94,5018.74ZM2325,4820.89q-56.51-11.62-111.28-24.26c17.18-71.47,38.28-146,62.91-221.9,128,78.71,258.27,142.74,381.57,188.18q-23.2,55.4-47.59,107.79C2517,4857.27,2421.18,4840.6,2325,4820.89ZM2012.3,3856.13a585,585,0,0,0,34.62,60.91c64.73,100,150.22,172.56,210.55,215.78a1031.81,1031.81,0,0,0,110.78,69c-35.76,77.92-69.82,161.09-101.14,247.44q-8.74,24.15-17.06,48.21C2063,4375.69,1904.61,4236,1800.71,4100.75l0-.06A889.91,889.91,0,0,1,1889.9,3975c13.85-16.23,28.17-32,43.21-47.26l6.2-6.2A896.32,896.32,0,0,1,2012.3,3856.13Zm799.88-134.93c27.16,9.85,40.94,48.83,47.73,79.8,10.72,48.94,12.66,117.68,5.6,198.79-7.72,88.78-25.5,189.62-52,297q-47.93-8.25-93.55-18.71c-105-24.15-200.75-57.18-286.24-98.67,51-106.39,105-201.26,158.89-278.57,46.58-66.78,92.13-118.29,131.74-149,20.66-16,48.47-33.15,72.82-33.15A43.62,43.62,0,0,1,2812.18,3721.2Zm-106.75,604.63q46.67,10.83,95.75,19.33c-23,86.4-51.25,176.38-84.2,267.24q-19,52.53-39.38,103.28c-123.79-45.44-255.17-110.45-384.34-190.74q10-29.26,20.68-58.72c30.62-84.41,63.84-165.65,98.68-241.74C2500.42,4267,2598.33,4301,2705.43,4325.83Zm486.31-404.33a882.26,882.26,0,0,1,229.6,397.07c-204.15,14.93-391.22,10.24-558.44-14,26.54-108.42,44.4-210.41,52.24-300.5,8.65-99.49,7.6-217.32-32.74-283.63q14,5.39,27.92,11.25A879.36,879.36,0,0,1,3191.74,3921.5ZM2565.64,3662a887,887,0,0,1,180.68,18.42c-69.57,30.28-140.6,114.58-194.52,191.87-55.19,79.1-110.3,175.92-162.33,284.29a982.89,982.89,0,0,1-99.53-61.82c-103.5-73.43-165.51-150.32-199.3-201.9a522.81,522.81,0,0,1-37.74-67.44,885.65,885.65,0,0,1,114.47-69.07h0q24.39-12.32,49.67-23.09l3.65-1.58.85-.35q5.39-2.28,10.81-4.46l2.9-1.15C2340.08,3683.52,2451.31,3662,2565.64,3662ZM1700.4,3772.88c28.79-45.71,93.14-69.3,183.48-69.3,43.21,0,92.4,5.39,146.47,16.37q30.78,6.23,62.81,14.67h.05a924.38,924.38,0,0,0-192.57,148.44c-12.17,11.93-23.87,24.34-35.32,37.23-14.32,15.76-27.93,32.23-41.06,48.94a948,948,0,0,0-58.24,83.3l0,.07C1686.14,3934.07,1662.14,3833.56,1700.4,3772.88Zm48.91,430.27c7.88-18.14,16-36,24.83-53.46l0,0c109.4,136.74,270.64,276.53,459,397.76-26.71,81.3-49.5,161.21-67.9,237.79-137.06-33.16-264.09-70.69-375.41-110.85-23.39-8.36-46.07-16.95-67.79-25.54-12.89-5-25.54-10.27-37.95-15.52-1.91-19.09-3.34-38.43-3.82-57.76-.24-9.31-.48-18.38-.48-27.69,0-10.74.24-21.72.48-32.46a895.7,895.7,0,0,1,40.58-234.88c4.06-12.89,8.35-25.54,13.13-38.19C1738.81,4229.17,1743.82,4216,1749.31,4203.15Zm-159.68,387.64c-169.24-82.59-246.57-162.31-212-218.88,27.92-45.83,129.61-76.86,285.24-88.32a913.83,913.83,0,0,0-35.33,198.6c-1.43,20.05-2.15,40.1-2.39,60.39v5.25c0,20.29.72,40.58,1.91,60.63C1614.21,4602.73,1601.8,4596.76,1589.63,4590.79ZM1718,4692.24c22.92,8.59,46.31,17.18,70.42,25.54,110.82,38.4,235,74.09,367.93,105.76q-7.23,32.29-13.36,63.63-16.29-3.94-32.6-7.68c-183.71-41.82-321.57-50.33-385.48-51.77a864.7,864.7,0,0,1-34.83-146.22Zm31.27,200.26q-3-7.11-5.84-14.25c68.15,2.74,194.51,13.07,355.91,49.8,11.55,2.63,23.09,5.39,34.62,8.2-8.3,48.45-14.43,94.75-18.22,138.27-7.17,82.45-7.68,177.51,15.32,245.39a890.79,890.79,0,0,1-381.79-427.41Zm1161,471.42c-109.32,46.31-225.09,69.7-344.68,69.7a881.74,881.74,0,0,1-268.56-41.44c65.51-34.34,131.35-113.21,182-185.89,26.15-37.48,52.28-79,78.08-123.73a2502.22,2502.22,0,0,1,426.1,246.51Q2947.75,5348.08,2910.32,5363.92Zm281.42-189.76a879,879,0,0,1-161.1,127.69,2555.1,2555.1,0,0,0-449-262.9c21.6-39.57,42.88-81.36,63.66-125,143.79,19.06,282,30.49,408.23,33.45,32.93,1,64.92,1,95.95.72,80.44-1,152.05-5.73,213.39-14.32A879.89,879.89,0,0,1,3191.74,5174.16Z" transform="translate(-649.3 -370.82)"/><path class="cls-4" d="M4887.88,5184.4s146,143.68,152.67,197.85-66.21,138.93-66.21,138.93Z" transform="translate(-649.3 -370.82)"/><path class="cls-5" d="M4835.19,6676.64s-4.73,76.38-19.51,77.48c-2,.14-75,.14-75,.14l-93.16-.54s.61-22.44,27.84-27.19,72.82-23.88,89.31-59.88C4782.08,6628.78,4835.19,6676.64,4835.19,6676.64Z" transform="translate(-649.3 -370.82)"/><path class="cls-5" d="M5042.7,6676.64s-4.73,76.38-19.51,77.48c-2,.14-74.95.14-74.95.14l-93.16-.54s.61-22.44,27.84-27.19,72.81-23.88,89.31-59.88C4989.59,6628.78,5042.7,6676.64,5042.7,6676.64Z" transform="translate(-649.3 -370.82)"/><path class="cls-6" d="M4732,5855.78s24.36,155.84,115.26,432.48,103.28,396.43,103.28,396.43l97.51-2.73s.84-302.33-41.06-441.45-9-501.51-9-501.51Z" transform="translate(-649.3 -370.82)"/><path class="cls-7" d="M4684.56,5747.54s-3.45,234.84,37.19,523.18,26.85,410.74,26.85,410.74l97.32,3.23s58.16-288.45,41.48-432.77S4967,5756.69,4967,5756.69Z" transform="translate(-649.3 -370.82)"/><path class="cls-8" d="M4873,5198l-45.9,34-66.33-14c.92-6.05,5.3-31.12,9.28-53.83.24-1.34.49-2.68.71-4,3.42-19.32,6.37-35.92,6.37-35.92l61.95-30.88,23.1-11.51c-.06.4-1.79,21.44-2,24.51C4855.77,5160.93,4873,5198,4873,5198Z" transform="translate(-649.3 -370.82)"/><path class="cls-9" d="M4765.36,5180.83c1.45-.62,90.24-26.81,99.88-23.63S4880.6,5179,4880.6,5179l-145.22,32.84S4746.81,5188.64,4765.36,5180.83Z" transform="translate(-649.3 -370.82)"/><path class="cls-10" d="M5004.43,5776.53c-15.05,68.65-265.5,76.79-330.06,14.47-7.34-7.1-7.71-40.15-4.94-84.7,5.42-87.06,22.82-218,23.49-284.92.34-32.31,4.78-65.36,10.69-95.37a774.34,774.34,0,0,1,31.77-114.14s122.33-39.55,145.22-32.82C4990.87,5211.45,5019.48,5707.87,5004.43,5776.53Z" transform="translate(-649.3 -370.82)"/><path class="cls-4" d="M4669.43,5706.3c5.42-87.06,22.82-218,23.49-284.92.34-32.31,4.78-65.36,10.69-95.37l73.59-13S4849.14,5606.9,4669.43,5706.3Z" transform="translate(-649.3 -370.82)"/><path class="cls-8" d="M4709.28,5585s5,12-5.51,20-17.37,21.09-15,30.62,25.52,25.08,33.53,22.58,24.31-15.06,22.56-20.09,11-44.12-8.56-59.17S4709.28,5585,4709.28,5585Z" transform="translate(-649.3 -370.82)"/><path class="cls-10" d="M4791.42,5196.63s-71.62,11.06-128.81,95.33-94.8,146.93-84.27,177.3S4684.9,5605,4701.45,5605s43.27-12,44.77-39.13c0,0-67.6-101.32-54.28-116.49,5.69-6.49,87.76-73.12,99.48-43C4810.81,5456.13,4791.42,5196.63,4791.42,5196.63Z" transform="translate(-649.3 -370.82)"/><path class="cls-11" d="M4855.45,5107.35c-13.6,26-64.3,48.55-85.45,56.83.24-1.34.49-2.68.71-4,3.42-19.32,6.37-35.92,6.37-35.92l61.95-30.88C4852.73,5093.18,4861.06,5096.64,4855.45,5107.35Z" transform="translate(-649.3 -370.82)"/><path class="cls-8" d="M4747,5120.64s111.77,34.87,132.41-35.07,49-112.55-21.51-137.77-92.3-2.64-104.87,19S4718.43,5109.77,4747,5120.64Z" transform="translate(-649.3 -370.82)"/><path class="cls-12" d="M4770.53,4962.76s6.45,84,23.35,80.18,32.22-6.63,29.54,18.72-26.31,54.8,25.64,58.84,127.83-134.71,113.76-160.74C4922.24,4884.66,4711.73,4871.22,4770.53,4962.76Z" transform="translate(-649.3 -370.82)"/><path class="cls-13" d="M5559.28,5730.2s-42.88,11-70.13,2.8-74.16,5.27-81.71,15.21-4.78,13.89,8.7,17.32,61.23,23.79,92.62,12,72.31-12.22,72.31-12.22Z" transform="translate(-649.3 -370.82)"/><path class="cls-6" d="M5929.8,5357.78s-48.17,342.3-127.91,373c-39.35,15.13-213.25,49.42-264.7,52.86,0,0-12.6-10.22-9.53-51.83,0,0,182.2-66.89,208.08-103.27,38.53-54.14-23.91-221.18,24.43-272S5889.92,5283.78,5929.8,5357.78Z" transform="translate(-649.3 -370.82)"/><path class="cls-14" d="M5923.64,6677.32V6602h117.5a5.78,5.78,0,0,0,5.77-5.76v-12a5.78,5.78,0,0,0-5.77-5.76h-117.5V6153.72a21.73,21.73,0,0,0-21.67-21.67h-23.25a21.74,21.74,0,0,0-21.68,21.67v424.84H5739.55a5.78,5.78,0,0,0-5.77,5.76v12a5.78,5.78,0,0,0,5.77,5.76H5857v75.28c-85,6.42-153.12,37.05-172.23,76.59h411.06C6076.77,6714.37,6008.66,6683.74,5923.64,6677.32Z" transform="translate(-649.3 -370.82)"/><path class="cls-15" d="M5913.56,6078.93c-14,23.84-30.29,46.17-47,67.31-51.76,65.35-108.11,119.23-117.93,170.16a228.81,228.81,0,0,1-9.09,32.59c-4.1,11.67-9.17,23.94-15,36.62-22,47.71-54.81,101.17-87.61,149.77-56.69,84-110,154.11-110,154.11l-97.77-4.17c3.92-9.79,46.56-125.79,103.61-267.55,23.16-57.54,47.79-118.75,71.56-177.78l9.46-23.52c7.27-18.06,14.42-35.84,21.4-53.16,53.56-133.11,96.23-239.1,96.23-239.1s214.08-81.09,236.31-28.55C5986,5939,5971.06,5981.44,5913.56,6078.93Z" transform="translate(-649.3 -370.82)"/><path class="cls-5" d="M5523.81,6671.71s-4.79,81.07-20.4,82.22c-2.07.16-178.55,0-178.55,0s1.41-24.51,30.17-29.52,76.91-25.23,94.34-63.25C5467.7,6621.16,5523.81,6671.71,5523.81,6671.71Z" transform="translate(-649.3 -370.82)"/><path class="cls-5" d="M5750.2,6441.23s68,43.7,61.41,57.89c-.88,1.89-38.46,69.2-38.46,69.2L5724.68,6654s-20.39-12.12-10.75-39.68,15.47-79.45-9.23-113.2C5678.71,6465.57,5750.2,6441.23,5750.2,6441.23Z" transform="translate(-649.3 -370.82)"/><path class="cls-10" d="M5659.89,5884.79s-270.41,168.31-300.41,280.8S5716.93,6518,5716.93,6518s42.5-37.49,50-65c0,0-175.14-209.82-213.12-256.85-23.34-28.89,345-100,390-170s28.89-128.88,28.89-128.88Z" transform="translate(-649.3 -370.82)"/><rect class="cls-11" x="4946.06" y="5729.83" width="589.95" height="149.99" rx="20" ry="20"/><path class="cls-13" d="M5912.6,5293.2s-106.71,59.65-171.1,43a152,152,0,0,1,40.95-37.09c-1.41-6.26-2.64-12.16-3.7-17.65-6.16-31.44-7.26-49.72-7.26-49.72l49.16-44.05,33.05,7c.64,3.25,1.34,6.4,2.13,9.49C5871.17,5265.36,5912.6,5293.2,5912.6,5293.2Z" transform="translate(-649.3 -370.82)"/><path class="cls-7" d="M5980.78,5603.06c-9.22,124,2.91,312.63-7.55,345.3-9,28.19-111.9,11.43-153,2-15.2-3.49-33.61-8.46-52.61-14.35-53-16.42-110.82-39.86-117-57.27a14.83,14.83,0,0,1-.56-2v0c-.1-.44-.18-.89-.24-1.31a16.34,16.34,0,0,1,.35-6c2.06-8.87,10-18.47,11-40.44,1.05-24.52.9-53.41,1.82-84.46.05-3.51.09-7.33.47-10.8v-1.27c0-.67,0-1.32.05-2,.9-34.63,2.72-71.06,4.81-107.16,1.33-22.69,2.88-45.16,4.65-66.68,4.63-55.56,10.86-105,19.11-136.19,13.48-50.92,43.2-84.13,70.27-108.47l19.56-16.78c21.84,4.77,47.66,1.6,71-9.46,25.27-12,34-20.6,38.4-17.35C5949.67,5313.46,5991.67,5451.45,5980.78,5603.06Z" transform="translate(-649.3 -370.82)"/><path class="cls-6" d="M5767.66,5936c-53-16.42-110.82-39.86-117-57.27a14.83,14.83,0,0,1-.56-2v0a4.08,4.08,0,0,0-.24-1.31,16.34,16.34,0,0,1,.35-6c2.06-8.87,10-18.47,11-40.44,1.05-24.52.9-53.41,1.82-84.46.05-3.51.09-7.33.47-10.8v-1.27c0-.67,0-1.32.05-2l200.32-90.85S5875.36,5801.1,5767.66,5936Z" transform="translate(-649.3 -370.82)"/><path class="cls-16" d="M5855.83,5204.18c-7.28,18.4-29.07,61.77-77.08,77.28-6.16-31.44-7.26-49.72-7.26-49.72l49.16-44.05,33.05,7C5854.34,5197.94,5855,5201.09,5855.83,5204.18Z" transform="translate(-649.3 -370.82)"/><path class="cls-13" d="M5752,5231.26s105.49,11.9,111.89-53.91,24.32-108.6-42.76-119-82.63,13.46-90.11,34.91S5724.76,5226.47,5752,5231.26Z" transform="translate(-649.3 -370.82)"/><path class="cls-12" d="M5863.48,5181.89s-6.69-87.36-102.72-96.4c-65.78-6.2-29.1-62.81-22.09-71.84,0,0,50.39,6.91,102.05,15.44C5949.13,5047,5874.12,5168.29,5863.48,5181.89Z" transform="translate(-649.3 -370.82)"/><polygon class="cls-17" points="4960.69 5426.5 4699.29 5432.09 4624.97 5203.36 4615.73 5206.36 4694.3 5448.15 4961.03 5442.46 4960.69 5426.5"/><path class="cls-13" d="M5581.34,5782.82s-41.4,15.67-69.39,10.52-73.12,13.42-79.54,24.12-3.22,14.33,10.56,16.26,63.48,16.9,93.37,1.72,70.54-20.11,70.54-20.11Z" transform="translate(-649.3 -370.82)"/><path class="cls-7" d="M5908.54,5371.83s-10.13,345.52-86,384.78c-37.44,19.38-206.5,72.63-257.25,81.73,0,0-13.65-8.78-15.19-50.47,0,0,173.71-86.57,195.43-125.58,32.32-58.06-48.15-217.19-5.72-273.06S5860.75,5302.67,5908.54,5371.83Z" transform="translate(-649.3 -370.82)"/><path class="cls-9" d="M3046.32,5401.64,2939.13,6676.25s-11.24,77.26,46.24,77.4c94.49.23,470.33,0,470.33,0s-71.12-16.08-70.26-52.27c1-42.66,125.29-1311.8,125.29-1311.8Z" transform="translate(-649.3 -370.82)"/><path class="cls-11" d="M3486.19,6730.53c-18.58.05-377.55,1.18-469.58,0-40.1-.5-47.13-35.66-47.47-58.42a114.51,114.51,0,0,1,1.22-19l2.79-33.13,7.11-84.44,6.27-74.6,8.07-95.86,6.79-80.91,76.17-905.7L3542,5366.45s-52.34,531.13-89.37,917.75c-4.13,43.07-8.06,84.38-11.7,122.93q-1.77,18.48-3.41,36.07c-3.43,36.58-6.57,70.17-9.3,99.83-1.44,15.63-2.77,30.15-4,43.46-4.73,52.14-7.49,85.44-7.53,91.77a53.27,53.27,0,0,0,.9,10.31C3425.22,6729.2,3479.22,6730.53,3486.19,6730.53Z" transform="translate(-649.3 -370.82)"/><polygon class="cls-11" points="1269.17 4337.22 1530.29 5386.06 1566.04 5529.71 1687.66 6018.23 3947.07 6018.23 3498.82 4337.22 1269.17 4337.22"/><polygon class="cls-11" points="1269.17 4337.22 1232.98 4349.28 1639.55 6054.72 1687.66 6018.24 1269.17 4337.22"/><polygon class="cls-9" points="1639.55 6054.72 3885.05 6054.72 3947.06 6018.24 1687.66 6018.24 1639.55 6054.72"/><rect class="cls-11" x="2428.1" y="6360.21" width="486.19" height="23.1"/><polygon class="cls-18" points="3837.61 5708.48 3470.99 4359.44 1265.56 4359.44 1265.56 4337.22 3498.82 4337.22 3864.21 5705.48 3837.61 5708.48"/><polygon class="cls-9" points="2790.7 6054.71 2788.18 6072.37 2330.95 6164.75 2337.23 6090.15 2340.22 6054.71 2790.7 6054.71"/><path class="cls-19" d="M3486.19,6730.53c-18.58.05-377.55,1.18-469.58,0-40.1-.5-47.13-35.66-47.47-58.42l455.08-85.62c-4.73,52.14-7.49,85.44-7.53,91.77a53.27,53.27,0,0,0,.9,10.31C3425.22,6729.2,3479.22,6730.53,3486.19,6730.53Z" transform="translate(-649.3 -370.82)"/><polygon class="cls-19" points="2680.18 5677.93 1687.66 6018.24 1566.04 5529.71 2680.18 5677.93"/><polygon class="cls-18" points="1269.17 4337.22 3498.82 4337.22 3860.58 5688.22 1594.02 5688.22 1269.17 4337.22"/><path class="cls-9" d="M3526.57,6229.83c-6.44-33.13-38.53-60-71.66-60s-54.77,26.86-48.33,60,38.52,60,71.65,60S3533,6263,3526.57,6229.83Z" transform="translate(-649.3 -370.82)"/><polygon class="cls-20" points="3755.42 5629.68 1667.8 5629.68 1431.38 4687.86 1413.26 4615.64 1397.79 4554.03 1361.53 4409.58 3419.07 4409.58 3458.88 4554.03 3475.87 4615.64 3495.78 4687.86 3755.42 5629.68"/><polygon class="cls-21" points="3458.88 4554.03 1397.79 4554.03 1361.53 4409.58 3419.07 4409.58 3458.88 4554.03"/><path class="cls-20" d="M2109.51,4827.63c-10,0-16,8.08-13.56,18.06s12.59,18.06,22.56,18.06,16-8.09,13.56-18.06S2119.48,4827.63,2109.51,4827.63Z" transform="translate(-649.3 -370.82)"/><path class="cls-20" d="M2169.51,4827.63c-10,0-16.05,8.08-13.56,18.06s12.59,18.06,22.56,18.06,16-8.09,13.56-18.06S2179.48,4827.63,2169.51,4827.63Z" transform="translate(-649.3 -370.82)"/><path class="cls-20" d="M2256.67,4845.69c-2.48-10-12.58-18.06-22.56-18.06s-16,8.08-13.55,18.06,12.59,18.06,22.56,18.06S2259.16,4855.66,2256.67,4845.69Z" transform="translate(-649.3 -370.82)"/><path class="cls-13" d="M3750.6,5346.8c-15.07-60.45-76.56-109.63-137.07-109.63-29.17,0-54,11.26-70,31.7-16.64,21.29-21.63,49.73-14.07,80.07,15.07,60.45,76.56,109.64,137.07,109.64,29.17,0,54-11.26,70-31.7C3753.17,5405.58,3758.16,5377.15,3750.6,5346.8Zm-21,74.63c-14.26,18.24-36.64,28.29-63,28.29-56.69,0-114.33-46.17-128.47-102.92-6.9-27.64-2.48-53.38,12.44-72.48,14.26-18.24,36.64-28.29,63-28.29,56.69,0,114.33,46.17,128.48,102.91C3748.9,5376.59,3744.48,5402.33,3729.56,5421.43Z" transform="translate(-649.3 -370.82)"/><polygon class="cls-13" points="3004.64 5001.8 2993.62 4924.74 2992.75 4921.26 2961.72 4921.26 2962.58 4924.74 2989.99 5001.8 3004.64 5001.8"/><polygon class="cls-13" points="2986.58 5015.4 2993.54 5043.29 3021.78 5043.29 3014.82 5015.4 2986.58 5015.4"/><path class="cls-13" d="M3818,5608.6c-15.07-60.45-76.56-109.63-137.07-109.63-29.17,0-54,11.25-70,31.69-16.64,21.3-21.63,49.73-14.07,80.08,15.07,60.45,76.56,109.63,137.07,109.63,29.17,0,54-11.26,70-31.7C3820.56,5667.38,3825.56,5638.94,3818,5608.6Zm-21,74.62c-14.26,18.24-36.64,28.29-63,28.29-56.69,0-114.33-46.17-128.47-102.91-6.9-27.65-2.47-53.39,12.45-72.48,14.25-18.25,36.63-28.3,63-28.3,56.7,0,114.33,46.17,128.48,102.92C3816.29,5638.38,3811.87,5664.12,3797,5683.22Z" transform="translate(-649.3 -370.82)"/><polygon class="cls-13" points="3072.03 5263.6 3061.01 5186.54 3060.14 5183.05 3029.11 5183.05 3029.98 5186.54 3057.38 5263.6 3072.03 5263.6"/><polygon class="cls-13" points="3053.97 5277.19 3060.93 5305.09 3089.17 5305.09 3082.22 5277.19 3053.97 5277.19"/><path class="cls-21" d="M4049,5313.14c6.86,0,11.08-5.61,9.37-12.47s-8.73-12.48-15.59-12.48H3820.62c-6.86,0-11.07,5.62-9.36,12.48s8.72,12.47,15.58,12.47Z" transform="translate(-649.3 -370.82)"/><path class="cls-21" d="M4021.51,5135.92c-1.71-6.86-8.72-12.47-15.58-12.47H3783.76c-6.86,0-11.08,5.61-9.37,12.47s8.73,12.48,15.59,12.48h222.17C4019,5148.4,4023.22,5142.79,4021.51,5135.92Z" transform="translate(-649.3 -370.82)"/><path class="cls-21" d="M4060.86,5360.67c6.86,0,11.08-5.62,9.37-12.48s-8.73-12.47-15.59-12.47H3832.47c-6.86,0-11.07,5.61-9.36,12.47s8.72,12.48,15.58,12.48Z" transform="translate(-649.3 -370.82)"/><path class="cls-21" d="M4082.07,5395.71c-1.71-6.86-8.72-12.47-15.58-12.47H3844.32c-6.86,0-11.07,5.61-9.36,12.47s8.72,12.48,15.58,12.48h222.17C4079.57,5408.19,4083.78,5402.57,4082.07,5395.71Z" transform="translate(-649.3 -370.82)"/><path class="cls-21" d="M4116.4,5574.94c6.86,0,11.08-5.62,9.37-12.48S4117,5550,4110.19,5550H3888c-6.86,0-11.08,5.61-9.37,12.47s8.73,12.48,15.59,12.48Z" transform="translate(-649.3 -370.82)"/><path class="cls-21" d="M4128.25,5622.46c6.86,0,11.08-5.61,9.37-12.48s-8.73-12.47-15.59-12.47H3899.86c-6.86,0-11.07,5.61-9.36,12.47s8.72,12.48,15.58,12.48Z" transform="translate(-649.3 -370.82)"/><path class="cls-21" d="M4149.46,5657.51c-1.7-6.87-8.72-12.48-15.58-12.48H3911.71c-6.86,0-11.07,5.61-9.36,12.48s8.72,12.47,15.58,12.47H4140.1C4147,5670,4151.18,5664.37,4149.46,5657.51Z" transform="translate(-649.3 -370.82)"/><path class="cls-21" d="M4012.16,5083.48l-15.51-62.19c-2.84-11.41-14.5-20.74-25.91-20.74H2190c-11.41,0-18.42,9.33-15.57,20.74l15.5,62.19c2.85,11.41,14.51,20.74,25.91,20.74H3996.59C4008,5104.22,4015,5094.89,4012.16,5083.48Z" transform="translate(-649.3 -370.82)"/><path class="cls-13" d="M3452.35,5000.55l25.85,103.67H2215.88c-11.4,0-23.06-9.33-25.91-20.74l-15.5-62.19c-2.85-11.41,4.16-20.74,15.57-20.74Z" transform="translate(-649.3 -370.82)"/><polygon class="cls-17" points="3029.81 4662.5 3031.79 4670.46 3051.49 4670.46 3041.22 4704.41 3051.64 4704.41 3061.72 4669.44 3059.99 4662.5 3029.81 4662.5"/><path class="cls-17" d="M3732.88,5032.6c-11.14,0-16.31,9.52-13.28,21.68s12.77,21.68,24,21.68,16.31-9.52,13.28-21.68S3744,5032.6,3732.88,5032.6Zm8.73,35c-5.57,0-10.64-5.69-12.55-13.35s.27-13.35,5.77-13.35,10.66,5.75,12.56,13.35S3747.18,5067.63,3741.61,5067.63Z" transform="translate(-649.3 -370.82)"/><path class="cls-17" d="M3811.79,5065c-1.49-6-6.75-10.72-12.79-10.72s-9.05,4.79-7.57,10.72,6.74,10.72,12.79,10.72S3813.25,5070.87,3811.79,5065Zm-8.81,5.27c-2.39,0-4.56-2.46-5.26-5.27s0-5.27,2.52-5.27,4.56,2.45,5.26,5.27S3805.5,5070.27,3803,5070.27Z" transform="translate(-649.3 -370.82)"/><polygon class="cls-17" points="3143.27 4662.5 3123.12 4704.41 3130.25 4704.41 3150.39 4662.5 3143.27 4662.5"/><path class="cls-17" d="M3780.69,5043.56c-1.49-6-6.74-10.72-12.79-10.72s-9,4.79-7.57,10.72,6.75,10.72,12.8,10.72S3782.16,5049.43,3780.69,5043.56Zm-14.07,0c-.71-2.88,0-5.27,2.52-5.27s4.56,2.46,5.27,5.27,0,5.27-2.52,5.27S3767.32,5046.37,3766.62,5043.56Z" transform="translate(-649.3 -370.82)"/><path class="cls-21" d="M3368.93,5553.54c12.93,0,20.8-10.49,17.58-23.43h0c-3.22-12.93-16.33-23.42-29.26-23.42H2318.92c-12.94,0-20.81,10.49-17.59,23.42h0c3.23,12.94,16.33,23.43,29.27,23.43Z" transform="translate(-649.3 -370.82)"/><path class="cls-21" d="M3388.32,5631.3c12.93,0,20.8-10.49,17.58-23.42s-16.33-23.43-29.27-23.43H2338.31c-12.94,0-20.81,10.49-17.59,23.43s16.33,23.42,29.27,23.42Z" transform="translate(-649.3 -370.82)"/><path class="cls-21" d="M3426.15,5689.1c-3.22-12.94-16.33-23.43-29.26-23.43H2358.56c-12.94,0-20.81,10.49-17.59,23.43s16.33,23.42,29.27,23.42H3408.57C3421.5,5712.52,3429.38,5702,3426.15,5689.1Z" transform="translate(-649.3 -370.82)"/><path class="cls-21" d="M2800.73,5427.13c4.05,16.26,20.52,29.45,36.78,29.45h115.81c16.26,0,26.16-13.19,22.1-29.45l-56-224.52c-4.05-16.26-20.52-29.44-36.78-29.44H2766.85c-16.26,0-26.16,13.18-22.1,29.44Z" transform="translate(-649.3 -370.82)"/><path class="cls-21" d="M3001.18,5427.13c4.05,16.26,20.52,29.45,36.78,29.45h115.81c16.26,0,26.15-13.19,22.1-29.45l-56-224.52c-4-16.26-20.52-29.44-36.78-29.44H2967.3c-16.26,0-26.16,13.18-22.11,29.44Z" transform="translate(-649.3 -370.82)"/><path class="cls-21" d="M3197.88,5427.13c4,16.26,20.52,29.45,36.78,29.45h115.81c16.26,0,26.15-13.19,22.1-29.45l-56-224.52c-4.05-16.26-20.52-29.44-36.78-29.44H3164c-16.26,0-26.16,13.18-22.1,29.44Z" transform="translate(-649.3 -370.82)"/><path class="cls-21" d="M2761.47,5407.23l-46-184.71c-6.8-27.26-34.4-49.35-61.65-49.35H2261.68c-27.25,0-43.84,22.09-37,49.35l46.05,184.71c6.8,27.25,34.4,49.35,61.65,49.35h392.09C2751.68,5456.58,2768.27,5434.48,2761.47,5407.23Z" transform="translate(-649.3 -370.82)"/><path class="cls-17" d="M2648.82,5244c6.18,0,10-5.06,8.43-11.23h0c-1.54-6.18-7.85-11.23-14-11.23H2276.87c-6.18,0-10,5-8.44,11.23h0c1.54,6.17,7.86,11.23,14,11.23Z" transform="translate(-649.3 -370.82)"/><path class="cls-17" d="M2659.59,5287.22c6.18,0,10-5.05,8.43-11.23h0c-1.54-6.18-7.85-11.23-14-11.23H2287.64c-6.18,0-10,5.05-8.44,11.23h0c1.55,6.18,7.86,11.23,14,11.23Z" transform="translate(-649.3 -370.82)"/><path class="cls-17" d="M2678.8,5319.19c-1.54-6.18-7.86-11.23-14-11.23H2298.41c-6.18,0-10,5.05-8.43,11.23s7.85,11.23,14,11.23h366.35C2676.54,5330.42,2680.34,5325.37,2678.8,5319.19Z" transform="translate(-649.3 -370.82)"/><path class="cls-17" d="M2396.9,5356.34h-86.43c-6.18,0-10,5.06-8.43,11.24s7.86,11.23,14,11.23h86.43c6.18,0,10-5.05,8.44-11.23S2403.08,5356.34,2396.9,5356.34Z" transform="translate(-649.3 -370.82)"/><path class="cls-21" d="M4289.07,5900.41l-24.15-96.89c-3.57-14.29-18.05-25.88-32.34-25.88H4026.92c-14.3,0-23,11.59-19.43,25.88l24.16,96.89c3.56,14.3,18,25.88,32.33,25.88h205.66C4283.94,5926.29,4292.64,5914.71,4289.07,5900.41Z" transform="translate(-649.3 -370.82)"/><path class="cls-17" d="M4230,5814.8c3.24,0,5.23-2.65,4.42-5.89a8.08,8.08,0,0,0-7.36-5.89H4034.88c-3.24,0-5.23,2.65-4.42,5.89a8.08,8.08,0,0,0,7.36,5.89Z" transform="translate(-649.3 -370.82)"/><path class="cls-17" d="M4235.64,5837.46c3.24,0,5.22-2.65,4.42-5.89a8.08,8.08,0,0,0-7.36-5.89H4040.53c-3.24,0-5.23,2.65-4.42,5.89a8.08,8.08,0,0,0,7.36,5.89Z" transform="translate(-649.3 -370.82)"/><path class="cls-17" d="M4245.71,5854.23a8.08,8.08,0,0,0-7.36-5.89H4046.18c-3.24,0-5.23,2.65-4.42,5.89a8.08,8.08,0,0,0,7.36,5.89h192.17C4244.53,5860.12,4246.51,5857.47,4245.71,5854.23Z" transform="translate(-649.3 -370.82)"/><path class="cls-17" d="M4097.85,5873.72h-45.34c-3.24,0-5.23,2.65-4.42,5.89h0a8.08,8.08,0,0,0,7.36,5.89h45.33c3.24,0,5.23-2.65,4.43-5.89A8.08,8.08,0,0,0,4097.85,5873.72Z" transform="translate(-649.3 -370.82)"/><path class="cls-13" d="M2863,5829.51c4.88,0,7.85-3.95,6.63-8.83h0c-1.21-4.88-6.15-8.84-11-8.84H2466.91c-4.87,0-7.84,4-6.63,8.84h0c1.22,4.88,6.16,8.83,11,8.83Z" transform="translate(-649.3 -370.82)"/><path class="cls-13" d="M2870.29,5858.84c4.88,0,7.84-3.95,6.63-8.83h0c-1.22-4.88-6.16-8.84-11-8.84H2474.23c-4.88,0-7.85,4-6.63,8.84h0a12,12,0,0,0,11,8.83Z" transform="translate(-649.3 -370.82)"/><path class="cls-13" d="M2873.52,5871.81H2481.87c-4.88,0-7.85,3.95-6.64,8.83s6.16,8.84,11,8.84h391.65c4.88,0,7.85-4,6.64-8.84S2878.4,5871.81,2873.52,5871.81Z" transform="translate(-649.3 -370.82)"/><path class="cls-13" d="M3368.41,5829.51c4.88,0,7.85-3.95,6.64-8.83h0c-1.22-4.88-6.16-8.84-11-8.84H2972.35c-4.87,0-7.84,4-6.63,8.84h0c1.22,4.88,6.16,8.83,11,8.83Z" transform="translate(-649.3 -370.82)"/><path class="cls-13" d="M3375.72,5858.84c4.88,0,7.85-3.95,6.64-8.83h0c-1.22-4.88-6.16-8.84-11-8.84H2979.67c-4.88,0-7.85,4-6.64,8.84h0c1.22,4.88,6.16,8.83,11,8.83Z" transform="translate(-649.3 -370.82)"/><path class="cls-13" d="M3379,5871.81H2987.31c-4.88,0-7.85,3.95-6.63,8.83s6.15,8.84,11,8.84h391.65c4.88,0,7.85-4,6.64-8.84S3383.84,5871.81,3379,5871.81Z" transform="translate(-649.3 -370.82)"/><path class="cls-13" d="M3858.3,5829.51c4.88,0,7.85-3.95,6.63-8.83h0c-1.21-4.88-6.15-8.84-11-8.84H3462.24c-4.88,0-7.85,4-6.63,8.84h0c1.22,4.88,6.16,8.83,11,8.83Z" transform="translate(-649.3 -370.82)"/><path class="cls-13" d="M3865.61,5858.84c4.88,0,7.85-3.95,6.64-8.83h0c-1.22-4.88-6.16-8.84-11-8.84H3469.56c-4.88,0-7.85,4-6.64,8.84h0c1.22,4.88,6.16,8.83,11,8.83Z" transform="translate(-649.3 -370.82)"/><path class="cls-13" d="M3879.88,5880.64a12,12,0,0,0-11-8.83H3477.2c-4.88,0-7.85,3.95-6.64,8.83s6.16,8.84,11,8.84h391.65C3878.13,5889.48,3881.1,5885.52,3879.88,5880.64Z" transform="translate(-649.3 -370.82)"/><path class="cls-13" d="M3955.65,5939.68H2445.31c-13.35,0-26.9-10.81-30.21-24.09l-30.16-121c-1.72-6.88-.47-13.69,3.42-18.66s9.65-7.57,16.45-7.57H3915.15c13.34,0,26.9,10.8,30.21,24.09l30.16,121c1.72,6.88.47,13.68-3.42,18.66S3962.45,5939.68,3955.65,5939.68ZM2404.81,5777.24a11.63,11.63,0,0,0-9.47,4.17c-2.23,2.85-2.87,6.79-1.8,11.07l30.16,121c2.34,9.42,12.24,17.38,21.61,17.38H3955.65a11.63,11.63,0,0,0,9.47-4.17c2.23-2.86,2.87-6.79,1.8-11.07l-30.15-121c-2.35-9.42-12.25-17.38-21.62-17.38Z" transform="translate(-649.3 -370.82)"/><path class="cls-21" d="M2457,3823.51a3.77,3.77,0,0,0-4.25-3.21l-41.08,5.75a42.85,42.85,0,0,0-21-32.35l-2.49-1.44a42.81,42.81,0,0,0-40.1-1.47l-16.23-40.71a3.77,3.77,0,1,0-7,2.79l16.68,41.82a42,42,0,0,0-7.26,6.61,41.11,41.11,0,0,0-4.64,6.48l-4.51,7.77-37.76-21.93a3.77,3.77,0,0,0-3.79,6.52l37.76,21.93-2.56,4.42a42.58,42.58,0,0,0-5,13.24l-51.62,7.22a3.77,3.77,0,0,0,.51,7.51,4.73,4.73,0,0,0,.53,0l49.8-7a42.94,42.94,0,0,0,21.28,37.6l2.48,1.44a42.9,42.9,0,0,0,41.64.73l17.71,44.4a3.77,3.77,0,0,0,3.5,2.37,3.63,3.63,0,0,0,1.4-.27,3.76,3.76,0,0,0,2.1-4.89L2384.83,3883A42.3,42.3,0,0,0,2395.3,3871l2.57-4.41,37.76,21.94a3.83,3.83,0,0,0,1.89.51,3.77,3.77,0,0,0,1.9-7L2401.65,3860l4.52-7.77a42,42,0,0,0,5.65-18.63l41.94-5.86A3.78,3.78,0,0,0,2457,3823.51Z" transform="translate(-649.3 -370.82)"/><path class="cls-22" d="M2406.17,3852.26,2395.3,3871a43,43,0,0,1-58.56,15.53l-2.48-1.44a43,43,0,0,1-15.53-58.56l10.86-18.71a41.11,41.11,0,0,1,4.64-6.48l75.29,43.72A42.22,42.22,0,0,1,2406.17,3852.26Z" transform="translate(-649.3 -370.82)"/><path class="cls-21" d="M1595.83,4315.65l-47.44-13.45a42.43,42.43,0,0,0-3.17-15.66l-1.93-4.72,40.41-16.55a3.77,3.77,0,0,0-2.86-7l-40.41,16.55-3.41-8.31a41.92,41.92,0,0,0-3.69-7.07,42.56,42.56,0,0,0-7.62-8.78l20.92-36.81a3.77,3.77,0,1,0-6.55-3.72l-20.5,36.06a42.84,42.84,0,0,0-38.44-3.09l-2.66,1.09a42.86,42.86,0,0,0-25.62,30.89l-42.16-12a3.77,3.77,0,1,0-2.06,7.26l43.31,12.28a42.62,42.62,0,0,0,.81,9.78,41,41,0,0,0,2.32,7.63l3.4,8.32L1418.07,4325a3.77,3.77,0,0,0,2.86,7l40.41-16.55,1.93,4.72a42.58,42.58,0,0,0,7.47,12L1445,4377.44a3.77,3.77,0,0,0,1.42,5.14,3.7,3.7,0,0,0,1.86.49,3.77,3.77,0,0,0,3.28-1.9l24.85-43.72a42.92,42.92,0,0,0,42.76,6.06l2.67-1.09a42.9,42.9,0,0,0,26-32.56l46,13.05a3.65,3.65,0,0,0,1,.14,3.77,3.77,0,0,0,1-7.4Z" transform="translate(-649.3 -370.82)"/><path class="cls-22" d="M1537,4266.53l8.2,20a43,43,0,0,1-23.4,55.88l-2.67,1.09a43,43,0,0,1-55.88-23.4l-8.19-20a41,41,0,0,1-2.32-7.63l80.57-33A42.66,42.66,0,0,1,1537,4266.53Z" transform="translate(-649.3 -370.82)"/><path class="cls-21" d="M3214.68,4358.9l-47.44-13.46a42.43,42.43,0,0,0-3.17-15.66l-1.93-4.72,40.41-16.55a3.77,3.77,0,1,0-2.86-7l-40.41,16.55-3.41-8.31a41.92,41.92,0,0,0-3.69-7.07,42.56,42.56,0,0,0-7.62-8.78l20.92-36.81a3.77,3.77,0,1,0-6.55-3.72l-20.5,36.06a42.84,42.84,0,0,0-38.44-3.09l-2.66,1.09a42.86,42.86,0,0,0-25.62,30.89l-42.16-12a3.77,3.77,0,1,0-2.06,7.26l43.32,12.28a42,42,0,0,0,.8,9.78,41,41,0,0,0,2.32,7.63l3.4,8.32-40.41,16.55a3.77,3.77,0,0,0,2.86,7l40.41-16.55,1.93,4.72a42.44,42.44,0,0,0,7.47,12l-25.76,45.32a3.77,3.77,0,0,0,1.42,5.14,3.71,3.71,0,0,0,1.86.5,3.78,3.78,0,0,0,3.28-1.91l24.85-43.72a42.92,42.92,0,0,0,42.76,6.06l2.67-1.09a42.88,42.88,0,0,0,26-32.56l46,13a3.7,3.7,0,0,0,1,.14,3.77,3.77,0,0,0,1-7.39Z" transform="translate(-649.3 -370.82)"/><path class="cls-22" d="M3155.87,4309.77l8.2,20a43,43,0,0,1-23.4,55.88l-2.67,1.09a43,43,0,0,1-55.88-23.4l-8.19-20a41,41,0,0,1-2.32-7.63l80.57-33A42.66,42.66,0,0,1,3155.87,4309.77Z" transform="translate(-649.3 -370.82)"/><path class="cls-23" d="M2139.49,6049.42c-.24.17-.52.4-.87.65-13,10-101.59,70.39-300.56,43.63q-2,11.48-3.81,22.71c-.6,3.75-1.19,7.48-1.74,11.18s-1.09,7.3-1.61,10.92l0,.2c-.52,3.64-1,7.25-1.5,10.86s-1,7.2-1.42,10.8-.87,7.08-1.29,10.61l0,.17c-.4,3.51-.81,7-1.18,10.47s-.74,7-1.09,10.44-.68,6.9-1,10.33-.62,6.81-.89,10.2c-.21,2.47-.42,4.93-.6,7.39-.17,2-.32,4.05-.44,6.07-.13,1.71-.25,3.43-.36,5.15-.06.9-.12,1.8-.17,2.7-.18,2.88-.36,5.73-.52,8.59-.17,3.05-.32,6.11-.48,9.15,0,.59-.05,1.16-.07,1.75-.1,2.27-.21,4.53-.29,6.77-.07,1.79-.15,3.55-.19,5.32-.2,5.7-.34,11.31-.43,16.89,0,2.57-.09,5.11-.11,7.64,0,3,0,6,0,8.91,0,.24,0,.46,0,.69,0,2.89,0,5.76,0,8.61q0,3.57.09,7.08c0,2,.07,4,.12,6,0,.69,0,1.41,0,2.1q.09,3.14.18,6.22c.08,2.23.16,4.42.24,6.61.11,2.37.22,4.73.33,7.06.12,2.75.26,5.47.42,8.19,0,.24,0,.5,0,.74.15,2.67.33,5.32.5,8s.39,5.55.61,8.28.44,5.47.68,8.17.47,5.4.75,8.06.51,5.08.78,7.6c0,.3.07.61.1.91.27,2.46.54,4.88.84,7.31s.62,5.12,1,7.67a1.12,1.12,0,0,1,0,.2c.34,2.51.66,5,1,7.52s.7,5,1.09,7.47a1.12,1.12,0,0,1,0,.2c.38,2.42.75,4.83,1.13,7.23a.25.25,0,0,1,0,.12c.39,2.44.81,4.85,1.22,7.26s.85,4.84,1.29,7.24c.54,2.94,1.08,5.85,1.65,8.74.37,1.8.72,3.6,1.09,5.39.46,2.26.93,4.48,1.4,6.68.07.29.14.58.2.87.44,2.08.92,4.16,1.38,6.2.5,2.27,1,4.5,1.57,6.73,1.1,4.59,2.22,9.1,3.4,13.55.52,2,1.07,4,1.62,6s1.15,4.16,1.75,6.22c.42,1.52.86,3,1.3,4.53s.87,3,1.33,4.45c.35,1.17.71,2.33,1.08,3.5q.93,3,1.88,6c1.29,4,2.62,7.93,4,11.81q1,2.91,2,5.77c.68,1.9,1.37,3.8,2.06,5.67q2.87,7.7,5.85,15.05c.59,1.48,1.2,2.93,1.81,4.38.86,2.1,1.74,4.17,2.63,6.23.7,1.61,1.4,3.22,2.12,4.81q5.76,13,11.86,24.85c.81,1.57,1.6,3.09,2.41,4.62,1.92,3.63,3.85,7.18,5.81,10.68.67,1.23,1.38,2.45,2.07,3.66s1.3,2.25,2,3.35l2.25,3.85c1.76,2.91,3.5,5.75,5.27,8.54.6,1,1.21,1.94,1.82,2.88,1.91,3,3.84,5.91,5.77,8.78.69,1,1.37,2,2.07,3,4.54,6.61,9.08,12.82,13.62,18.69l2.52,3.22q6.59,8.31,13,15.63c1.36,1.55,2.73,3.08,4.08,4.58a4.12,4.12,0,0,1,.35.37c.81.88,1.62,1.78,2.43,2.64,4.85,5.24,9.6,10.05,14.19,14.46.76.73,1.52,1.46,2.28,2.17,1.5,1.44,3,2.81,4.47,4.15s2.79,2.52,4.14,3.71l.2.17,4,3.43c2.23,1.88,4.4,3.68,6.49,5.36l1.75,1.38c3.8,3,7.36,5.68,10.62,8l2.86,2c2.73,1.88,5.2,3.51,7.37,4.87.65.43,1.28.82,1.88,1.19,1.34.81,2.51,1.54,3.55,2.14.23.14.47.27.68.38s.45.28.67.4c2.4,1.38,3.71,2,3.71,2q19.07-6.21,36.93-13.7c75.25-31.5,134.77-79.32,181.88-134.74a4.94,4.94,0,0,0,.35-.45c101.39-119.51,145-274.17,163.6-376.56,2-11.34,3.81-22,5.3-32C2205.61,6150.36,2145.76,6059.78,2139.49,6049.42Z" transform="translate(-649.3 -370.82)"/><path class="cls-7" d="M2371.65,6243.13c-17,93.35-56.72,234.35-149.15,343.3-.1.15-.21.27-.32.41-42.95,50.53-97.21,94.13-165.81,122.84q-16.29,6.84-33.67,12.49s-1.2-.57-3.39-1.83l-.6-.36c-.2-.11-.41-.22-.62-.35-.95-.55-2-1.21-3.24-1.95-.55-.34-1.12-.69-1.72-1.09-2-1.24-4.23-2.73-6.72-4.44l-2.6-1.84c-3-2.12-6.22-4.54-9.69-7.29-.53-.43-1-.84-1.59-1.26q-2.87-2.31-5.92-4.89l-3.6-3.12-.19-.16q-1.85-1.64-3.77-3.39t-4.08-3.78c-.69-.65-1.39-1.31-2.08-2-4.18-4-8.51-8.4-12.93-13.18-.74-.78-1.48-1.6-2.22-2.4a2.61,2.61,0,0,0-.32-.34c-1.23-1.36-2.47-2.76-3.72-4.17q-5.85-6.69-11.85-14.26c-.77-1-1.55-1.95-2.31-2.93-4.14-5.35-8.27-11-12.42-17-.62-.91-1.25-1.83-1.88-2.78q-2.64-3.9-5.26-8c-.55-.86-1.12-1.74-1.66-2.63-1.61-2.54-3.2-5.14-4.8-7.79l-2-3.5c-.6-1-1.19-2-1.78-3.06s-1.28-2.22-1.88-3.34q-2.68-4.77-5.3-9.73c-.74-1.4-1.47-2.79-2.2-4.22q-5.55-10.82-10.81-22.65c-.66-1.45-1.3-2.92-1.94-4.38q-1.21-2.82-2.4-5.68c-.55-1.33-1.11-2.65-1.64-4q-2.74-6.71-5.34-13.72c-.63-1.7-1.25-3.44-1.88-5.17s-1.25-3.49-1.85-5.26q-1.83-5.3-3.61-10.76-.87-2.73-1.72-5.5c-.33-1.07-.66-2.13-1-3.19-.43-1.36-.83-2.69-1.22-4.06s-.8-2.74-1.18-4.13c-.55-1.88-1.08-3.76-1.6-5.67s-1-3.65-1.48-5.5q-1.61-6.08-3.09-12.35c-.5-2-1-4.07-1.44-6.14-.42-1.86-.86-3.76-1.25-5.65-.06-.26-.12-.53-.19-.79-.43-2-.86-4-1.28-6.09-.34-1.63-.65-3.27-1-4.92-.51-2.64-1-5.29-1.5-8-.4-2.18-.8-4.38-1.17-6.59s-.76-4.4-1.12-6.62a.5.5,0,0,0,0-.12c-.34-2.19-.69-4.37-1-6.58a1.11,1.11,0,0,0,0-.19q-.52-3.39-1-6.81c-.33-2.28-.62-4.56-.93-6.86a1,1,0,0,0,0-.18c-.3-2.33-.59-4.65-.87-7s-.52-4.42-.76-6.67c0-.27-.07-.55-.09-.82-.25-2.3-.49-4.6-.72-6.93s-.47-4.88-.67-7.35-.43-4.94-.63-7.45-.38-5-.55-7.55-.32-4.81-.46-7.25c0-.22,0-.46,0-.68-.15-2.48-.28-4.95-.39-7.46-.1-2.13-.2-4.27-.3-6.44-.07-2-.15-4-.21-6s-.12-3.77-.17-5.68l0-1.91c-.06-1.82-.11-3.65-.12-5.49q-.06-3.2-.08-6.45c0-2.6,0-5.22,0-7.85,0-.22,0-.42,0-.63,0-2.69,0-5.39,0-8.13,0-2.3.06-4.62.1-7,.08-5.08.21-10.2.39-15.4,0-1.61.11-3.22.17-4.85.08-2,.18-4.1.27-6.17,0-.54,0-1.06.07-1.59.14-2.78.28-5.56.44-8.35q.21-3.9.47-7.83c0-.82.1-1.64.15-2.46.1-1.57.21-3.13.33-4.7.11-1.84.25-3.69.4-5.53.17-2.25.35-4.48.54-6.74.25-3.09.53-6.2.81-9.3s.59-6.26.91-9.41.63-6.34,1-9.52.71-6.35,1.07-9.55l0-.15c.38-3.22.76-6.43,1.18-9.67s.84-6.56,1.29-9.85.89-6.58,1.37-9.9l0-.18c.47-3.31,1-6.62,1.47-10s1-6.77,1.58-10.19q1.62-10.23,3.47-20.7c181.4,24.39,262.14-30.69,274-39.78.31-.23.56-.44.79-.59,5.71,9.44,60.27,92,242.6,133.51C2375.12,6223,2373.51,6232.79,2371.65,6243.13Z" transform="translate(-649.3 -370.82)"/><path class="cls-6" d="M2134.66,6079.81l-115.35,640.53c-1.19-.69-2.69-1.57-4.46-2.66-.55-.34-1.12-.69-1.72-1.09-2-1.24-4.23-2.73-6.72-4.44l-2.6-1.84c-3-2.12-6.22-4.54-9.69-7.29-.53-.43-1-.84-1.59-1.26q-2.87-2.31-5.92-4.89l-3.6-3.12-.19-.16q-1.85-1.64-3.77-3.39t-4.08-3.78c-.69-.65-1.39-1.31-2.08-2-4.18-4-8.51-8.4-12.93-13.18-.74-.78-1.48-1.6-2.22-2.4a2.61,2.61,0,0,0-.32-.34c-1.23-1.36-2.47-2.76-3.72-4.17q-5.85-6.69-11.85-14.26c-.77-1-1.55-1.95-2.31-2.93-4.14-5.35-8.27-11-12.42-17-.62-.91-1.25-1.83-1.88-2.78q-2.64-3.9-5.26-8c-.55-.86-1.12-1.74-1.66-2.63-1.61-2.54-3.2-5.14-4.8-7.79l-2-3.5c-.6-1-1.19-2-1.78-3.06s-1.28-2.22-1.88-3.34q-2.68-4.77-5.3-9.73c-.74-1.4-1.47-2.79-2.2-4.22q-5.55-10.82-10.81-22.65c-.66-1.45-1.3-2.92-1.94-4.38q-1.21-2.82-2.4-5.68c-.55-1.33-1.11-2.65-1.64-4q-2.74-6.71-5.34-13.72c-.63-1.7-1.25-3.44-1.88-5.17s-1.25-3.49-1.85-5.26q-1.83-5.3-3.61-10.76-.87-2.73-1.72-5.5c-.33-1.07-.66-2.13-1-3.19-.43-1.36-.83-2.69-1.22-4.06s-.8-2.74-1.18-4.13c-.55-1.88-1.08-3.76-1.6-5.67s-1-3.65-1.48-5.5q-1.61-6.08-3.09-12.35c-.5-2-1-4.07-1.44-6.14-.42-1.86-.86-3.76-1.25-5.65-.06-.26-.12-.53-.19-.79-.43-2-.86-4-1.28-6.09-.34-1.63-.65-3.27-1-4.92-.51-2.64-1-5.29-1.5-8-.4-2.18-.8-4.38-1.17-6.59s-.76-4.4-1.12-6.62a.5.5,0,0,0,0-.12c-.34-2.19-.69-4.37-1-6.58a1.11,1.11,0,0,0,0-.19q-.52-3.39-1-6.81c-.33-2.28-.62-4.56-.93-6.86a1,1,0,0,0,0-.18c-.3-2.33-.59-4.65-.87-7s-.52-4.42-.76-6.67c0-.27-.07-.55-.09-.82-.25-2.3-.49-4.6-.72-6.93s-.47-4.88-.67-7.35-.43-4.94-.63-7.45-.38-5-.55-7.55-.32-4.81-.46-7.25c0-.22,0-.46,0-.68-.15-2.48-.28-4.95-.39-7.46-.1-2.13-.2-4.27-.3-6.44-.07-2-.15-4-.21-6s-.12-3.77-.17-5.68l0-1.91c-.06-1.82-.11-3.65-.12-5.49q-.06-3.2-.08-6.45c0-2.6,0-5.22,0-7.85,0-.22,0-.42,0-.63,0-2.69,0-5.39,0-8.13,0-2.3.06-4.62.1-7,.08-5.08.21-10.2.39-15.4,0-1.61.11-3.22.17-4.85.08-2,.18-4.1.27-6.17,0-.54,0-1.06.07-1.59.14-2.78.28-5.56.44-8.35q.21-3.9.47-7.83c0-.82.1-1.64.15-2.46.1-1.57.21-3.13.33-4.7.11-1.84.25-3.69.4-5.53.17-2.25.35-4.48.54-6.74.25-3.09.53-6.2.81-9.3s.59-6.26.91-9.41.63-6.34,1-9.52.71-6.35,1.07-9.55l0-.15c.38-3.22.76-6.43,1.18-9.67s.84-6.56,1.29-9.85.89-6.58,1.37-9.9l0-.18c.47-3.31,1-6.62,1.47-10s1-6.77,1.58-10.19q1.62-10.23,3.47-20.7C2056.47,6147.39,2134.66,6079.81,2134.66,6079.81Z" transform="translate(-649.3 -370.82)"/><path class="cls-24" d="M2257.78,6252.45,2075,6395.22l-77.66-99.43-44.54,34.79,112.44,144L2292.56,6297Z" transform="translate(-649.3 -370.82)"/><path class="cls-3" d="M6583.4,5702.23a18,18,0,0,1-15.41-27.4c20.49-33.87,40.65-68.68,59.87-103.48a18.06,18.06,0,0,1,31.61,17.46c-19.46,35.21-39.85,70.44-60.61,104.71A18,18,0,0,1,6583.4,5702.23Zm-5213.28-3.06a18,18,0,0,1-15.47-8.72c-20.82-34.49-41.17-69.75-60.49-104.8a18.06,18.06,0,1,1,31.63-17.43c19.08,34.65,39.19,69.49,59.76,103.57a18.05,18.05,0,0,1-15.43,27.38Zm5329.61-207.43a18.08,18.08,0,0,1-16.12-26.16c17.72-35.31,35.05-71.6,51.49-107.88a18.06,18.06,0,0,1,32.9,14.9c-16.66,36.72-34.18,73.45-52.12,109.18A18.06,18.06,0,0,1,6699.73,5491.74ZM1254,5488.5a18.08,18.08,0,0,1-16.16-10c-18-35.93-35.47-72.69-52-109.27a18.05,18.05,0,0,1,32.9-14.86c16.33,36.14,33.63,72.47,51.39,108A18.05,18.05,0,0,1,1254,5488.5Zm5545-215.79a18.05,18.05,0,0,1-16.72-24.85c14.88-36.66,29.26-74.21,42.76-111.62a18,18,0,1,1,33.95,12.23c-13.64,37.86-28.19,75.88-43.27,113A18,18,0,0,1,6799,5272.71Zm-5644-3.42a18.06,18.06,0,0,1-16.74-11.3c-15.11-37.33-29.63-75.38-43.15-113.06a18.05,18.05,0,0,1,34-12.19c13.36,37.23,27.71,74.82,42.63,111.72a18.08,18.08,0,0,1-16.72,24.83Zm5725.57-222.78a18.07,18.07,0,0,1-17.21-23.5c12-38,23.35-76.54,33.74-114.66a18.06,18.06,0,0,1,34.85,9.49c-10.53,38.59-22,77.64-34.17,116.05A18,18,0,0,1,6880.55,5046.51Zm-5806.88-3.63a18.06,18.06,0,0,1-17.21-12.64c-12-38.3-23.5-77.38-34-116.14a18.05,18.05,0,1,1,34.85-9.45c10.39,38.3,21.7,76.91,33.62,114.75a18.07,18.07,0,0,1-17.23,23.48Zm5870.19-228.34a18.52,18.52,0,0,1-4.08-.47,18.06,18.06,0,0,1-13.52-21.65c8.87-38.51,17.13-77.86,24.52-117a18,18,0,0,1,35.47,6.7c-7.48,39.59-15.82,79.42-24.83,118.39A18,18,0,0,1,6943.86,4814.54Zm-5933.23-3.82a18.08,18.08,0,0,1-17.58-14c-9-39.14-17.26-79-24.67-118.47a18,18,0,0,1,35.48-6.66c7.32,39,15.53,78.39,24.39,117.06a18.07,18.07,0,0,1-13.56,21.64A18.86,18.86,0,0,1,1010.63,4810.72Zm5977.91-232.45a18.78,18.78,0,0,1-2.68-.19,18.07,18.07,0,0,1-15.2-20.5c5.83-39.23,10.92-79.12,15.18-118.55a18.06,18.06,0,0,1,35.91,3.87c-4.32,39.92-9.48,80.28-15.38,120A18,18,0,0,1,6988.54,4578.27Zm-6022.29-4a18.07,18.07,0,0,1-17.84-15.43c-5.83-39.72-10.95-80.12-15.22-120.06A18.06,18.06,0,0,1,969.1,4435c4.22,39.46,9.27,79.39,15,118.65a18.05,18.05,0,0,1-17.89,20.67Zm6048.13-235c-.41,0-.84,0-1.25,0a18.07,18.07,0,0,1-16.78-19.25c2.72-39.4,4.67-79.58,5.82-119.39a17.79,17.79,0,0,1,18.58-17.52,18.05,18.05,0,0,1,17.52,18.57c-1.17,40.29-3.16,80.94-5.9,120.82A18.06,18.06,0,0,1,7014.38,4339.25Zm-6073.69-4.18a18.06,18.06,0,0,1-18-16.84c-2.68-40-4.62-80.67-5.73-120.89a18.06,18.06,0,0,1,17.53-18.56c10.53.09,18.28,7.59,18.55,17.54,1.11,39.77,3,80,5.67,119.49A18,18,0,0,1,941.93,4335C941.52,4335.06,941.1,4335.07,940.69,4335.07Zm6080.74-236.2a18.05,18.05,0,0,1-18.05-17.88c-.37-39.84-1.52-80-3.44-119.49a18.06,18.06,0,0,1,36.07-1.76c1.93,39.92,3.1,80.6,3.47,120.91a18,18,0,0,1-17.87,18.22ZM934,4094.53h-.2a18,18,0,0,1-17.85-18.24c.43-40.07,1.66-80.74,3.65-120.92a18.05,18.05,0,1,1,36.06,1.79c-2,39.71-3.2,79.91-3.62,119.52A18,18,0,0,1,934,4094.53Zm6075.81-235.82a18.07,18.07,0,0,1-18-16.48c-3.44-39.35-7.74-79.33-12.78-118.85a18.06,18.06,0,0,1,35.83-4.55c5.08,40,9.43,80.43,12.93,120.25a18.06,18.06,0,0,1-16.41,19.56C7010.85,3858.69,7010.32,3858.71,7009.79,3858.71ZM946,3854.35c-.54,0-1.08,0-1.62-.07A18.05,18.05,0,0,1,928,3834.69c3.57-40.05,8-80.51,13.1-120.23a18.05,18.05,0,1,1,35.81,4.61c-5.06,39.27-9.43,79.25-13,118.83A18.06,18.06,0,0,1,946,3854.35Zm6033.39-234.14a18.06,18.06,0,0,1-17.78-15.07c-6.6-39.28-14-78.8-22.15-117.46a18.06,18.06,0,0,1,35.35-7.4c8.19,39.14,15.71,79.13,22.39,118.88a18.05,18.05,0,0,1-14.81,20.8A19.17,19.17,0,0,1,6979.36,3620.21Zm-6002.62-4.33a17.25,17.25,0,0,1-3-.25,18,18,0,0,1-14.79-20.8c6.69-39.56,14.28-79.55,22.55-118.85a18.06,18.06,0,0,1,35.34,7.44c-8.19,38.84-15.68,78.35-22.3,117.42A18.05,18.05,0,0,1,976.74,3615.88Zm5953.43-231a18,18,0,0,1-17.48-13.67c-9.67-38.5-20.24-77.3-31.39-115.33a18.05,18.05,0,0,1,34.65-10.16c11.29,38.47,22,77.74,31.74,116.7a18,18,0,0,1-13.1,21.91A18.64,18.64,0,0,1,6930.17,3384.84Zm-5903.89-4.24a18.09,18.09,0,0,1-17.51-22.47c9.82-38.91,20.57-78.17,31.93-116.68a18.05,18.05,0,1,1,34.63,10.21c-11.24,38.07-21.85,76.86-31.55,115.29A18.08,18.08,0,0,1,1026.28,3380.6Zm5836.13-226.48a18.07,18.07,0,0,1-17.11-12.28c-12.72-37.7-26.36-75.64-40.58-112.77a18.06,18.06,0,0,1,33.72-12.92c14.38,37.6,28.21,76,41.08,114.14a18.07,18.07,0,0,1-17.11,23.83Zm-5768-4.14a17.68,17.68,0,0,1-5.79-1,18,18,0,0,1-11.3-22.88c12.84-37.91,26.67-76.18,41.11-113.78a18.05,18.05,0,1,1,33.7,13c-14.27,37.13-27.93,75-40.63,112.4A18.07,18.07,0,0,1,1094.37,3150Zm5681.91-221A18,18,0,0,1,6759.7,2918c-15.55-36.24-32.18-73-49.4-109.12a18,18,0,1,1,32.58-15.53c17.44,36.59,34.26,73.74,50,110.41a18.06,18.06,0,0,1-16.59,25.18Zm-5595.85-3.14a18.07,18.07,0,0,1-16.57-25.2c15.84-36.8,32.63-73.77,49.9-109.88a18,18,0,1,1,32.56,15.58c-17.06,35.68-33.65,72.21-49.29,108.58A18.07,18.07,0,0,1,1180.43,2925.82ZM6672.56,2711.5a18.06,18.06,0,0,1-16-9.65c-18.52-35.16-38-70.42-57.88-104.8a18,18,0,1,1,31.25-18.07c20.12,34.78,39.83,70.46,58.59,106.05a18.07,18.07,0,0,1-16,26.47Zm-5388.63-2.13a18.06,18.06,0,0,1-15.94-26.48c18.67-35.39,38.34-70.94,58.46-105.66a18,18,0,1,1,31.23,18.1c-19.88,34.31-39.31,69.44-57.76,104.4A18,18,0,0,1,1283.93,2709.37Zm5268-206.31a18.06,18.06,0,0,1-15.27-8.4c-21.1-33.36-43.29-67-65.95-99.86a18,18,0,1,1,29.73-20.47c22.93,33.28,45.38,67.27,66.73,101a18,18,0,0,1-5.61,24.9A17.85,17.85,0,0,1,6552,2503.06Zm-5147.69-1.42a18,18,0,0,1-15.22-27.71c21.43-33.83,43.84-67.73,66.64-100.77a18,18,0,0,1,29.71,20.5c-22.53,32.65-44.68,66.16-65.86,99.59A18.06,18.06,0,0,1,1404.28,2501.64Zm5011.09-196.77a18,18,0,0,1-14.47-7.22c-23.6-31.52-48.37-63.26-73.57-94.31a18,18,0,1,1,28-22.76c25.51,31.43,50.57,63.53,74.46,95.42a18,18,0,0,1-14.44,28.87Zm-4874.66-.94a18.06,18.06,0,0,1-14.44-28.88c24.07-32.09,49.1-64.13,74.41-95.27a18,18,0,0,1,28,22.77c-25,30.77-49.75,62.44-73.53,94.16A18,18,0,0,1,1540.71,2303.93Zm4722.94-185.77a18,18,0,0,1-13.55-6.12c-26.32-29.93-53.49-59.6-80.74-88.2a18.05,18.05,0,0,1,26.14-24.91c27.58,29,55.07,59,81.71,89.25a18.05,18.05,0,0,1-13.56,30Zm-4571.33-.7a18,18,0,0,1-13.54-30c26.48-30.07,54-60.08,81.69-89.18a18,18,0,1,1,26.13,24.9c-27.39,28.77-54.56,58.42-80.72,88.13A18,18,0,0,1,1692.32,2117.46ZM6097.81,1944a18,18,0,0,1-12.58-5.09c-28.5-27.67-57.9-55.12-87.36-81.57a18,18,0,1,1,24.11-26.86c29.83,26.75,59.56,54.52,88.41,82.52a18.05,18.05,0,0,1-12.58,31Zm-4239.65-.57a18,18,0,0,1-12.57-31c28.86-28,58.63-55.78,88.47-82.54a18.05,18.05,0,1,1,24.11,26.88c-29.5,26.44-58.92,53.89-87.44,81.56A17.94,17.94,0,0,1,1858.16,1943.4Zm4060.74-160a18,18,0,0,1-11.53-4.15c-30.33-25.17-61.78-50.2-93.45-74.42a18,18,0,1,1,21.92-28.68c32.05,24.51,63.87,49.84,94.58,75.31a18,18,0,0,1-11.52,31.94Zm-3881.65-.63a18,18,0,0,1-11.52-32c30.88-25.59,62.75-50.94,94.71-75.36a18.05,18.05,0,0,1,21.91,28.7c-31.58,24.12-63.07,49.17-93.59,74.46A18,18,0,0,1,2037.25,1782.79ZM5728,1637.48a18,18,0,0,1-10.37-3.29c-32.43-22.84-65.73-45.31-99-66.81a18.05,18.05,0,0,1,19.61-30.32c33.64,21.75,67.34,44.5,100.15,67.61a18,18,0,0,1-10.41,32.81Zm-3499.53-.78a18.05,18.05,0,0,1-10.41-32.82c32.78-23.06,66.56-45.84,100.39-67.69a18.05,18.05,0,0,1,19.59,30.33c-33.44,21.6-66.81,44.1-99.2,66.89A18,18,0,0,1,2228.48,1636.7Zm3297.86-129.64a18,18,0,0,1-9.18-2.52c-34.08-20.19-69-40-103.86-58.77a18,18,0,0,1,17.15-31.76c35.24,19,70.62,39,105.11,59.47a18.05,18.05,0,0,1-9.22,33.58Zm-3095.66-1a18.05,18.05,0,0,1-9.21-33.59c34.67-20.49,70.16-40.53,105.49-59.57a18.05,18.05,0,0,1,17.13,31.78c-34.92,18.81-70,38.63-104.23,58.87A18.09,18.09,0,0,1,2430.68,1506.08Zm2884.46-113a18.08,18.08,0,0,1-7.93-1.85c-35.61-17.45-72-34.39-108.1-50.33a18.05,18.05,0,0,1,14.57-33c36.57,16.15,73.37,33.29,109.43,51a18.06,18.06,0,0,1-8,34.27Zm-2672.46-1.2a18.05,18.05,0,0,1-7.94-34.27c36.22-17.71,73.21-34.89,109.94-51.06a18.05,18.05,0,0,1,14.56,33c-36.3,16-72.86,33-108.64,50.44A18,18,0,0,1,2642.68,1391.83Zm2453.08-95.71a18.07,18.07,0,0,1-6.64-1.27c-37.1-14.66-74.78-28.68-112-41.69a18.06,18.06,0,0,1,11.91-34.09c37.68,13.18,75.82,27.38,113.38,42.2a18.06,18.06,0,0,1-6.64,34.85Zm-2232.53-1.43a18.06,18.06,0,0,1-6.62-34.86c37.44-14.73,75.69-28.92,113.72-42.16a18.05,18.05,0,0,1,11.88,34.09c-37.58,13.09-75.39,27.1-112.37,41.67A18.11,18.11,0,0,1,2863.23,1294.69Zm2005.54-78a17.94,17.94,0,0,1-5.27-.8c-38-11.62-76.69-22.6-115-32.66a18.05,18.05,0,0,1,9.18-34.92c38.78,10.18,77.92,21.3,116.37,33.05a18.06,18.06,0,0,1-5.28,35.33Zm-1777.83-1.33a18.06,18.06,0,0,1-5.24-35.33c38.45-11.69,77.61-22.75,116.42-32.87a18,18,0,0,1,9.12,34.92c-38.34,10-77,20.94-115,32.49A18.26,18.26,0,0,1,3090.94,1215.39Zm1545.3-59.77a18.08,18.08,0,0,1-3.91-.43c-38.85-8.56-78.27-16.44-117.2-23.42a18,18,0,1,1,6.37-35.53c39.38,7,79.29,15,118.61,23.7a18.05,18.05,0,0,1-3.87,35.68Zm-1312.65-1a18.05,18.05,0,0,1-3.84-35.69c39.32-8.62,79.24-16.53,118.66-23.53a18.05,18.05,0,0,1,6.31,35.55c-38.94,6.92-78.4,14.74-117.25,23.24A17.81,17.81,0,0,1,3323.59,1154.65Zm1076-41.45a17.7,17.7,0,0,1-2.5-.17c-39.34-5.46-79.27-10.2-118.67-14.07a18.05,18.05,0,1,1,3.51-35.93c39.89,3.92,80.31,8.71,120.12,14.23a18.06,18.06,0,0,1-2.46,35.94Zm-839.22-.63a18,18,0,0,1-2.43-35.93c39.82-5.46,80.23-10.19,120.12-14.07a18.06,18.06,0,0,1,3.5,36c-39.43,3.82-79.37,8.49-118.72,13.88A17.29,17.29,0,0,1,3560.35,1112.57Zm600-23c-.35,0-.73,0-1.08,0-39.59-2.33-79.79-3.93-119.49-4.73a18.05,18.05,0,0,1,.38-36.1h.37c40.14.82,80.81,2.43,120.85,4.79a18.05,18.05,0,0,1-1,36.07Zm-360.65-.25a18,18,0,0,1-1-36.07c40-2.32,80.64-3.87,120.85-4.62a18,18,0,0,1,.69,36.09c-39.75.75-80,2.28-119.45,4.57Z" transform="translate(-649.3 -370.82)"/><circle class="cls-24" cx="5826.04" cy="2105.94" r="594.76"/><path class="cls-18" d="M5933.29,2498.8c0,180.55,89.7,340.14,227,436.64,24.18,17,25.47,52.35,2.24,70.64l-.66.51a43.81,43.81,0,0,1-52.24,1.64c-160.24-112.53-265-298.76-265-509.43,0-341.71,282.85-619.11,623.87-622v88.7C6176.4,1968.37,5933.29,2206.05,5933.29,2498.8Z" transform="translate(-649.3 -370.82)"/><path class="cls-18" d="M6484.77,1797.46l163,111.47a15,15,0,0,1,0,24.82l-163,111.47a15,15,0,0,1-23.53-12.4v-223A15,15,0,0,1,6484.77,1797.46Z" transform="translate(-649.3 -370.82)"/><path class="cls-18" d="M7012.18,2496.12c0-180.54-89.71-340.13-227-436.64-24.19-17-25.47-52.34-2.24-70.63l.65-.51a43.83,43.83,0,0,1,52.25-1.64c160.25,112.53,265,298.75,265,509.42,0,341.71-282.36,619.11-623.39,622v-88.7C6769.52,3026.56,7012.18,2788.89,7012.18,2496.12Z" transform="translate(-649.3 -370.82)"/><path class="cls-18" d="M6460.7,3197.47l-163-111.47a15,15,0,0,1,0-24.82l163-111.48a15,15,0,0,1,23.52,12.41v222.94A15,15,0,0,1,6460.7,3197.47Z" transform="translate(-649.3 -370.82)"/><path class="cls-13" d="M6749.36,2428.35l-266.95,221.38-67.3,55.82a88.06,88.06,0,0,1-126.68-15l-103.8-138.37a70.79,70.79,0,0,1,113.26-84.94l70.08,93.44.56-.46L6659,2319.37a70.78,70.78,0,0,1,90.35,109Z" transform="translate(-649.3 -370.82)"/><path class="cls-13" d="M6749.36,2428.35l-266.95,221.38a358.55,358.55,0,0,1-113.88-89.47L6659,2319.37a70.78,70.78,0,0,1,90.35,109Z" transform="translate(-649.3 -370.82)"/><path class="cls-25" d="M4553.36,545.18,3976.23,372a28.82,28.82,0,0,0-16.56,0L3382.53,545.18a28.85,28.85,0,0,0-20.6,27.64v634.85c0,255.15,389.1,482.14,597.45,547a28.88,28.88,0,0,0,17.31,0c208.12-64.87,597.22-291.86,597.22-547V572.82A28.86,28.86,0,0,0,4553.36,545.18Z" transform="translate(-649.3 -370.82)"/><path class="cls-26" d="M3967.92,1634.23a28.86,28.86,0,0,1-28.86-28.86V1034.53a28.86,28.86,0,0,1,28.86-28.86h461.71a28.86,28.86,0,0,1,28.85,28.86v173.14c0,148.21-253.36,342.82-480.81,424.83A29.44,29.44,0,0,1,3967.92,1634.23Z" transform="translate(-649.3 -370.82)"/><path class="cls-27" d="M3967.92,1063.39H3506.21a28.86,28.86,0,0,1-28.85-28.86V658.7a28.85,28.85,0,0,1,20.54-27.65l461.71-138.51a28.86,28.86,0,0,1,37.17,27.65v514.34A28.86,28.86,0,0,1,3967.92,1063.39Z" transform="translate(-649.3 -370.82)"/><path class="cls-28" d="M866.47,2317.15,716.13,2701.36l133.63-100.22,104,20.57c41.59-108.91,89.56-203.83,141.73-286.79Z" transform="translate(-649.3 -370.82)"/><path class="cls-28" d="M1534.65,2985.32l-384.21,150.34L1250.65,3002l-20.57-104c108.91-41.59,203.83-89.55,286.79-141.73Z" transform="translate(-649.3 -370.82)"/><path class="cls-29" d="M1029.35,2849.69l-27.24-27.25c-68.84-52-170.17-21.74-206.26,57.63L649.3,3202.49l322.42-146.55C1051.09,3019.85,1081.35,2918.52,1029.35,2849.69Z" transform="translate(-649.3 -370.82)"/><path class="cls-30" d="M2085.93,1765.87s-801.84-66.83-1152.63,852l117.86,117.87,65,65L1234,2918.52C2152.73,2567.7,2085.93,1765.87,2085.93,1765.87Z" transform="translate(-649.3 -370.82)"/><polygon class="cls-28" points="694.06 2137.61 527.01 2137.61 317.38 2514.28 694.06 2286.33 694.06 2137.61"/><path class="cls-31" d="M1588.66,1870l393.13,393.14c123.2-267.41,104.11-497.27,104.11-497.27S1856.07,1746.81,1588.66,1870Z" transform="translate(-649.3 -370.82)"/><circle class="cls-32" cx="918.63" cy="1912.91" r="188.98"/><path class="cls-24" d="M1568.06,2403a119.22,119.22,0,0,1-84.35-203.56c46.5-46.5,122.2-46.5,168.68,0a24.78,24.78,0,1,1-35.05,35,69.71,69.71,0,1,0,0,98.58,24.78,24.78,0,0,1,35.05,35A118.91,118.91,0,0,1,1568.06,2403Z" transform="translate(-649.3 -370.82)"/></svg>