<svg id="Слой_2" data-name="Слой 2" xmlns="http://www.w3.org/2000/svg" viewBox="0 0 6670.24 8207.21"><defs><style>.cls-1{fill:#f1f2f7;}.cls-2{fill:#010117;}.cls-3{fill:#bed2fa;}.cls-4{fill:#ff9a33;}.cls-5{fill:#060632;}.cls-6{fill:#006fce;}.cls-7{fill:#008aff;}.cls-8{fill:#fc9290;}.cls-19,.cls-9{fill:#e75755;}.cls-10{fill:#ffc933;}.cls-11{fill:#ea8888;}.cls-12{fill:#0b0754;}.cls-13{fill:#fa7269;}.cls-14{fill:#120e59;}.cls-15{fill:#fa3;}.cls-16{fill:#ed6966;}.cls-17{fill:#3662c1;}.cls-18{fill:#6d89cf;}.cls-19{opacity:0.4;isolation:isolate;}.cls-20{fill:#dee9fd;}.cls-21{fill:#c1d4fa;}.cls-22{fill:#9e332e;}.cls-23{fill:#364aa3;}.cls-24{fill:#fff;}.cls-25{fill:#2196f3;}.cls-26{fill:#fafafa;}.cls-27{fill:#90caf9;}.cls-28{fill:#afb6bb;}.cls-29{fill:#ebba16;}.cls-30{fill:#e7eced;}.cls-31{fill:#dd352e;}.cls-32{fill:#366db6;}</style></defs><title>optimized website-2new</title><path class="cls-1" d="M5707.24,8442.32s690.4,59.22,903-382.88C6926.42,7402.1,6312,6872.23,5866.22,6967.62c-971.3,207.86-737.4-2085.18-2296.21-1617.18C3131.7,5482,1947.43,4700.32,1617.14,5953.73c-78.54,298-356.81,330.87-760.76,520C65.8,6843.84,427.29,8448.53,992.18,8454.87S5707.24,8442.32,5707.24,8442.32Z" transform="translate(-27 -248.96)"/><path class="cls-2" d="M5914.7,8451.28H1342a4.1,4.1,0,0,1-4.08-4.09h0a4.1,4.1,0,0,1,4.08-4.08H5914.7a4.1,4.1,0,0,1,4.08,4.08h0A4.11,4.11,0,0,1,5914.7,8451.28Z" transform="translate(-27 -248.96)"/><path class="cls-3" d="M3760.17,6443.18l-98-2.25c31.49,40.81,38.56,78.41,19,110.22-19.6,32.46-66.52,59.13-136.57,79.37,53-141.06,79.69-289.85,79.69-442.48,0-170.95-33.42-336.77-99.62-492.62a1271.67,1271.67,0,0,0-673.53-673.85c-156.17-65.87-322-99.29-492.61-99.29-171,0-336.77,33.42-492.94,99.29-18.64,8-37.27,16.39-55.27,25.07l-.16.08c-54.44-16.61-107.47-30.23-158.63-40.6-258.26-52.41-441.54-16.19-516,102-70.85,112.4-32.28,281.6,108.3,478.93v.09c-19,35-36,71-51.74,108.29-11.89,28-22.49,55.92-32.13,84.52-264.26,15.7-405.61,62.23-457,146.38-59.77,98,21.85,229.54,283.1,357.44,36,17.67,74.55,35,115,52.38A1238.22,1238.22,0,0,0,1192,6680.62a1268.81,1268.81,0,0,0,673.53,673.85c156.17,65.88,322,99.3,492.94,99.3,170.63,0,336.44-33.42,492.61-99.3a1268.55,1268.55,0,0,0,668.39-662c128.86-26.67,213.69-68.44,247.43-123.71C3790.37,6530.56,3787.48,6488.18,3760.17,6443.18Zm-302.39,207.27c-85.79,15.42-192.8,24.42-317.8,25.71-194,2.36-416.73-13-651.49-43.9q29.63-64.5,58-132.38c72.85,24.37,143.55,43.67,211,57.36,77.24,15.68,147.73,23.42,210.65,23.42,147.48,0,253.15-42.58,305.33-125.42a215.81,215.81,0,0,0,21-43.39h-75.18c-1.24,2.28-2.57,4.55-3.95,6.75-38.77,61.53-125.39,93.32-247,93.29-58.17,0-124.4-7.26-197.18-22-63.44-12.87-130-30.94-198.56-53.71q27.17-67.93,52.7-138.31c45.83-126.36,85.06-251.62,116.8-371.9,144.64,21.32,299.87,32,464.83,32q154.05,0,319.19-12.44A1199.17,1199.17,0,0,1,3550.7,6188c0,160.35-31.22,315.88-92.92,462.41ZM1891.46,7278c-36.56-13.26-55.12-65.74-64.26-107.43-14.43-65.88-17-158.43-7.54-267.62,4.8-55.22,12.52-113.94,22.91-175.35a3255.85,3255.85,0,0,1,442.81,153.22c-32.55,56.13-65.47,108.18-98.38,155.36-62.71,89.89-124,159.25-177.35,200.56-33.73,26.12-81.62,54.49-118.19,41.23Zm427-455.94a3321.87,3321.87,0,0,0-463.88-160.64q8.31-42.77,18.2-87,65.54,14.9,132.84,28.8c131.25,26.84,262.2,49.64,390.37,68.08q-38,78.8-77.5,150.73Zm-283.92-266.36Q1958.46,6540,1884.73,6523c23.12-96.21,51.52-196.53,84.69-298.74,172.38,106,347.69,192.17,513.68,253.35q-31.23,74.57-64.06,145.11c-126.05-18.12-255.05-40.53-384.47-67.09Zm-421-1298.8a787.09,787.09,0,0,0,46.6,82c87.15,134.68,202.25,232.31,283.46,290.5a1387.21,1387.21,0,0,0,149.1,92.83c-48.14,104.91-94,216.87-136.16,333.13q-11.79,32.5-23,64.9c-251.84-163.93-465-352-604.92-534.06l-.06-.08a1198.31,1198.31,0,0,1,120.13-169.26c18.64-21.85,37.92-43.06,58.17-63.63l8.35-8.35a1202.75,1202.75,0,0,1,98.33-88Zm1076.83-181.67c36.56,13.26,55.13,65.74,64.26,107.43,14.43,65.89,17,158.43,7.55,267.62-10.4,119.53-34.33,255.28-69.95,399.82q-64.53-11.1-126-25.18c-141.38-32.51-270.26-77-385.35-132.84,68.68-143.22,141.3-270.94,213.9-375,62.71-89.9,124-159.25,177.35-200.57,27.82-21.55,65.26-44.63,98-44.63A58.86,58.86,0,0,1,2690.37,5075.18Zm-143.67,814q62.82,14.58,128.9,26c-30.91,116.31-69,237.45-113.35,359.77q-25.65,70.73-53,139.05c-166.64-61.19-343.52-148.7-517.41-256.79q13.48-39.42,27.84-79.05c41.22-113.64,86-223,132.86-325.44C2270.7,5810,2402.48,5855.67,2546.7,5889.18Zm654.7-544.34C3311,5454.42,3397.09,5582,3457.18,5724a1186.57,1186.57,0,0,1,53.31,155.38c-274.83,20.1-526.67,13.79-751.79-18.79,35.72-146,59.78-283.27,70.32-404.56,11.65-133.92,10.23-292.56-44.07-381.83q18.89,7.24,37.58,15.15a1183.76,1183.76,0,0,1,378.83,255.44Zm-842.88-349.3a1193.66,1193.66,0,0,1,243.23,24.8c-93.66,40.77-189.29,154.25-261.87,258.31-74.3,106.49-148.49,236.83-218.54,382.73a1323.17,1323.17,0,0,1-134-83.23c-139.34-98.86-222.81-202.37-268.31-271.8a703.71,703.71,0,0,1-50.81-90.8,1191.65,1191.65,0,0,1,154.11-93h.05q32.83-16.57,66.87-31.09c1.64-.7,3.27-1.42,4.92-2.12.37-.16.77-.31,1.14-.48q7.26-3.06,14.55-6l3.91-1.56c141-56.87,290.78-85.79,444.71-85.79ZM1193.64,5144.73c38.76-61.54,125.39-93.29,247-93.29,58.17,0,124.39,7.26,197.17,22q41.45,8.39,84.56,19.74h.08A1244.68,1244.68,0,0,0,1463.2,5293c-16.38,16.07-32.13,32.78-47.55,50.13-19.28,21.21-37.6,43.38-55.28,65.88a1277.06,1277.06,0,0,0-78.4,112.15l-.06.09C1174.45,5361.74,1142.14,5226.43,1193.64,5144.73ZM1259.49,5724c10.61-24.42,21.53-48.52,33.42-72v-.06c147.28,184.09,364.36,372.27,618,535.48-36,109.46-66.65,217-91.41,320.12C1635,6462.89,1464,6412.37,1314.1,6358.3c-31.49-11.25-62-22.82-91.26-34.38-17.35-6.75-34.38-13.82-51.09-20.89-2.57-25.71-4.5-51.74-5.14-77.77-.33-12.53-.65-24.74-.65-37.27,0-14.46.32-29.25.65-43.7a1206,1206,0,0,1,54.62-316.2c5.47-17.36,11.25-34.39,17.68-51.42,6.44-17.65,13.19-35.33,20.58-52.68Zm-215,521.86c-227.79-111.19-331.92-218.51-285.32-294.67,37.59-61.7,174.48-103.47,384-118.9a1230.37,1230.37,0,0,0-47.56,267.36c-1.93,27-2.89,54-3.21,81.3V6188c0,27.31,1,54.63,2.57,81.62-17.36-7.71-34.07-15.75-50.45-23.78Zm172.88,136.57c30.85,11.57,62.34,23.14,94.79,34.38,149.2,51.7,316.44,99.75,495.34,142.38q-9.75,43.47-18,85.67-21.93-5.31-43.89-10.35c-247.29-56.32-432.91-67.74-518.91-69.68A1166,1166,0,0,1,1179.8,6368ZM1259.46,6652q-4-9.57-7.87-19.19c91.76,3.69,261.86,17.59,479.15,67q23.33,5.33,46.61,11c-11.18,65.23-19.43,127.56-24.53,186.14-9.65,111-10.34,239,20.62,330.37a1189.89,1189.89,0,0,1-258.16-196.17c-109.58-109.55-195.7-237.12-255.79-379.15Zm1563,634.64c-147.17,62.34-303,93.83-464,93.83-124,0-245.17-18.7-361.56-55.78,88.2-46.24,176.83-152.41,245.08-250.25,35.2-50.47,70.38-106.31,105.11-166.59a3370.55,3370.55,0,0,1,573.64,331.87q-47.86,25.59-98.24,46.92Zm378.9-255.49a1183.44,1183.44,0,0,1-216.88,171.9A3439.56,3439.56,0,0,0,2380,6849.18c29.07-53.28,57.72-109.55,85.7-168.29,193.57,25.66,379.67,41,549.57,45,44.34,1.29,87.4,1.29,129.18,1,108.29-1.29,204.69-7.72,287.28-19.28C3373.92,6827.48,3296.47,6936.09,3201.36,7031.18Z" transform="translate(-27 -248.96)"/><path class="cls-4" d="M4508.58,6873.58s146,143.68,152.67,197.85S4595,7210.36,4595,7210.36Z" transform="translate(-27 -248.96)"/><path class="cls-5" d="M4455.89,8365.82s-4.73,76.38-19.51,77.48c-2,.14-75,.14-75,.14l-93.16-.54s.61-22.44,27.84-27.19,72.82-23.88,89.31-59.88C4402.78,8318,4455.89,8365.82,4455.89,8365.82Z" transform="translate(-27 -248.96)"/><path class="cls-5" d="M4663.4,8365.82s-4.73,76.38-19.51,77.48c-2,.14-75,.14-75,.14l-93.16-.54s.61-22.44,27.84-27.19,72.81-23.88,89.31-59.88C4610.29,8318,4663.4,8365.82,4663.4,8365.82Z" transform="translate(-27 -248.96)"/><path class="cls-6" d="M4352.7,7545s24.36,155.84,115.26,432.48,103.28,396.43,103.28,396.43l97.51-2.73s.84-302.33-41.06-441.45-9-501.51-9-501.51Z" transform="translate(-27 -248.96)"/><path class="cls-7" d="M4305.26,7436.72s-3.45,234.84,37.19,523.18,26.85,410.74,26.85,410.74l97.32,3.23s58.16-288.45,41.48-432.77,79.6-495.23,79.6-495.23Z" transform="translate(-27 -248.96)"/><path class="cls-8" d="M4493.7,6887.18l-45.9,34-66.33-14c.92-6.05,5.3-31.12,9.28-53.83.24-1.34.49-2.68.71-4,3.42-19.32,6.37-35.92,6.37-35.92l61.95-30.88,23.1-11.51c-.06.4-1.79,21.44-2,24.51C4476.47,6850.11,4493.7,6887.18,4493.7,6887.18Z" transform="translate(-27 -248.96)"/><path class="cls-9" d="M4386.06,6870c1.45-.62,90.24-26.81,99.88-23.63s15.36,21.8,15.36,21.8L4356.08,6901S4367.51,6877.82,4386.06,6870Z" transform="translate(-27 -248.96)"/><path class="cls-10" d="M4625.13,7465.71c-15.05,68.65-265.5,76.79-330.06,14.47-7.34-7.1-7.71-40.15-4.94-84.7,5.42-87.06,22.82-218,23.49-284.92.34-32.31,4.78-65.36,10.69-95.37a774.42,774.42,0,0,1,31.77-114.14s122.33-39.55,145.22-32.82C4611.57,6900.63,4640.18,7397.05,4625.13,7465.71Z" transform="translate(-27 -248.96)"/><path class="cls-4" d="M4290.13,7395.48c5.42-87.06,22.82-218,23.49-284.92.34-32.31,4.78-65.36,10.69-95.37l73.59-13S4469.84,7296.08,4290.13,7395.48Z" transform="translate(-27 -248.96)"/><path class="cls-8" d="M4330,7274.18s5,12-5.51,20-17.37,21.09-15,30.62,25.52,25.08,33.53,22.58,24.31-15.06,22.56-20.09,11-44.12-8.56-59.17S4330,7274.18,4330,7274.18Z" transform="translate(-27 -248.96)"/><path class="cls-10" d="M4412.12,6885.81s-71.62,11.06-128.81,95.33-94.8,146.93-84.27,177.3,106.56,135.74,123.11,135.74,43.27-12,44.77-39.13c0,0-67.6-101.32-54.28-116.49,5.69-6.49,87.76-73.12,99.48-43C4431.51,7145.31,4412.12,6885.81,4412.12,6885.81Z" transform="translate(-27 -248.96)"/><path class="cls-11" d="M4476.15,6796.53c-13.6,26-64.3,48.55-85.45,56.83.24-1.34.49-2.68.71-4,3.42-19.32,6.37-35.92,6.37-35.92l61.95-30.88C4473.43,6782.36,4481.76,6785.82,4476.15,6796.53Z" transform="translate(-27 -248.96)"/><path class="cls-8" d="M4367.7,6809.82s111.77,34.87,132.41-35.07,49-112.55-21.51-137.77-92.3-2.64-104.87,19S4339.13,6799,4367.7,6809.82Z" transform="translate(-27 -248.96)"/><path class="cls-12" d="M4391.23,6651.94s6.45,84,23.35,80.18,32.22-6.63,29.54,18.72-26.31,54.8,25.64,58.84,127.83-134.71,113.76-160.74C4542.94,6573.84,4332.43,6560.4,4391.23,6651.94Z" transform="translate(-27 -248.96)"/><path class="cls-13" d="M5180,7419.38s-42.88,11-70.13,2.8-74.16,5.27-81.71,15.21-4.78,13.89,8.7,17.32,61.23,23.79,92.62,12,72.31-12.22,72.31-12.22Z" transform="translate(-27 -248.96)"/><path class="cls-6" d="M5550.5,7047s-48.17,342.3-127.91,373c-39.35,15.13-213.25,49.42-264.7,52.86,0,0-12.6-10.22-9.53-51.83,0,0,182.2-66.89,208.08-103.27,38.53-54.14-23.91-221.18,24.43-272S5510.62,6973,5550.5,7047Z" transform="translate(-27 -248.96)"/><path class="cls-14" d="M5544.34,8366.5v-75.32h117.5a5.78,5.78,0,0,0,5.77-5.76v-12a5.78,5.78,0,0,0-5.77-5.76h-117.5V7842.9a21.73,21.73,0,0,0-21.67-21.67h-23.25a21.73,21.73,0,0,0-21.68,21.67v424.84H5360.25a5.78,5.78,0,0,0-5.77,5.76v12a5.78,5.78,0,0,0,5.77,5.76H5477.7v75.28c-85,6.42-153.12,37-172.23,76.59h411.06C5697.47,8403.55,5629.36,8372.92,5544.34,8366.5Z" transform="translate(-27 -248.96)"/><path class="cls-15" d="M5534.26,7768.11c-14,23.84-30.29,46.17-47,67.31-51.76,65.35-108.11,119.23-117.93,170.16a228.57,228.57,0,0,1-9.09,32.59c-4.1,11.67-9.17,23.94-15,36.62-22,47.71-54.81,101.17-87.61,149.77-56.69,84-110,154.11-110,154.11l-97.77-4.17c3.92-9.79,46.56-125.79,103.61-267.55,23.16-57.54,47.79-118.75,71.56-177.78l9.46-23.52c7.27-18.06,14.42-35.84,21.4-53.16,53.56-133.11,96.23-239.1,96.23-239.1s214.08-81.09,236.31-28.55C5606.7,7628.18,5591.76,7670.62,5534.26,7768.11Z" transform="translate(-27 -248.96)"/><path class="cls-5" d="M5144.51,8360.89s-4.79,81.07-20.4,82.22c-2.07.16-178.55,0-178.55,0s1.41-24.51,30.17-29.52,76.91-25.23,94.34-63.25C5088.4,8310.34,5144.51,8360.89,5144.51,8360.89Z" transform="translate(-27 -248.96)"/><path class="cls-5" d="M5370.9,8130.41s68,43.7,61.41,57.89c-.88,1.89-38.46,69.2-38.46,69.2l-48.47,85.68s-20.39-12.12-10.75-39.68,15.47-79.45-9.23-113.2C5299.41,8154.75,5370.9,8130.41,5370.9,8130.41Z" transform="translate(-27 -248.96)"/><path class="cls-10" d="M5280.59,7574s-270.41,168.31-300.41,280.8,357.45,352.41,357.45,352.41,42.5-37.49,50-65c0,0-175.14-209.82-213.12-256.85-23.34-28.89,345-100,390-170s28.89-128.88,28.89-128.88Z" transform="translate(-27 -248.96)"/><rect class="cls-11" x="5189.06" y="7540.87" width="589.95" height="149.99" rx="20" ry="20"/><path class="cls-13" d="M5533.3,6982.38s-106.71,59.65-171.1,43a152.08,152.08,0,0,1,40.95-37.09c-1.41-6.26-2.64-12.16-3.7-17.65-6.16-31.44-7.26-49.72-7.26-49.72l49.16-44.05,33,7c.64,3.25,1.34,6.4,2.13,9.49C5491.87,6954.54,5533.3,6982.38,5533.3,6982.38Z" transform="translate(-27 -248.96)"/><path class="cls-7" d="M5601.48,7292.24c-9.22,124,2.91,312.63-7.55,345.3-9,28.19-111.9,11.43-153,2-15.2-3.49-33.61-8.46-52.61-14.35-53-16.42-110.82-39.86-117-57.27a15.19,15.19,0,0,1-.56-2h0c-.1-.44-.18-.89-.24-1.31a16.17,16.17,0,0,1,.35-6c2.06-8.87,10-18.47,11-40.44,1.05-24.52.9-53.41,1.82-84.46.05-3.51.09-7.33.47-10.8v-1.27c0-.67,0-1.32.05-2,.9-34.63,2.72-71.06,4.81-107.16,1.33-22.69,2.88-45.16,4.65-66.68,4.63-55.56,10.86-105,19.11-136.19,13.48-50.92,43.2-84.13,70.27-108.47l19.56-16.78c21.84,4.77,47.66,1.6,71-9.46,25.27-12,34-20.6,38.4-17.35C5570.37,7002.64,5612.37,7140.63,5601.48,7292.24Z" transform="translate(-27 -248.96)"/><path class="cls-6" d="M5388.36,7625.18c-53-16.42-110.82-39.86-117-57.27a15.19,15.19,0,0,1-.56-2h0a4.16,4.16,0,0,0-.24-1.31,16.17,16.17,0,0,1,.35-6c2.06-8.87,10-18.47,11-40.44,1.05-24.52.9-53.41,1.82-84.46.05-3.51.09-7.33.47-10.8v-1.27c0-.67,0-1.32.05-2l200.32-90.85S5496.06,7490.28,5388.36,7625.18Z" transform="translate(-27 -248.96)"/><path class="cls-16" d="M5476.53,6893.36c-7.28,18.4-29.07,61.77-77.08,77.28-6.16-31.44-7.26-49.72-7.26-49.72l49.16-44.05,33,7C5475,6887.12,5475.7,6890.27,5476.53,6893.36Z" transform="translate(-27 -248.96)"/><path class="cls-13" d="M5372.7,6920.44s105.49,11.9,111.89-53.91,24.32-108.6-42.76-119-82.63,13.46-90.11,34.91S5345.46,6915.65,5372.7,6920.44Z" transform="translate(-27 -248.96)"/><path class="cls-12" d="M5484.18,6871.07s-6.69-87.36-102.72-96.4c-65.78-6.2-29.1-62.81-22.09-71.84,0,0,50.39,6.91,102.05,15.44C5569.83,6736.18,5494.82,6857.47,5484.18,6871.07Z" transform="translate(-27 -248.96)"/><polygon class="cls-17" points="5203.69 7237.53 4942.29 7243.13 4867.97 7014.4 4858.73 7017.4 4937.3 7259.19 5204.03 7253.49 5203.69 7237.53"/><path class="cls-13" d="M5202,7472s-41.4,15.67-69.39,10.52-73.12,13.42-79.54,24.12-3.22,14.33,10.56,16.26,63.48,16.9,93.37,1.72,70.54-20.11,70.54-20.11Z" transform="translate(-27 -248.96)"/><path class="cls-7" d="M5529.24,7061s-10.13,345.52-86,384.78c-37.44,19.38-206.5,72.63-257.25,81.73,0,0-13.65-8.78-15.19-50.47,0,0,173.71-86.57,195.43-125.58,32.32-58.06-48.15-217.19-5.72-273.06S5481.45,6991.85,5529.24,7061Z" transform="translate(-27 -248.96)"/><path class="cls-9" d="M2667,7090.82,2559.83,8365.43s-11.24,77.26,46.24,77.4c94.49.23,470.33,0,470.33,0s-71.12-16.08-70.26-52.27c1-42.66,125.29-1311.8,125.29-1311.8Z" transform="translate(-27 -248.96)"/><path class="cls-11" d="M3106.89,8419.71c-18.58,0-377.55,1.18-469.58,0-40.1-.5-47.13-35.66-47.47-58.42a115,115,0,0,1,1.22-19l2.79-33.13,7.11-84.44,6.27-74.6,8.07-95.86,6.79-80.91,76.17-905.7,464.44-12s-52.34,531.13-89.37,917.75c-4.13,43.07-8.06,84.38-11.7,122.93q-1.77,18.48-3.41,36.07c-3.43,36.58-6.57,70.17-9.3,99.83-1.44,15.63-2.77,30.15-4,43.46-4.73,52.14-7.49,85.44-7.53,91.77a53.2,53.2,0,0,0,.9,10.31C3045.92,8418.38,3099.92,8419.71,3106.89,8419.71Z" transform="translate(-27 -248.96)"/><polygon class="cls-11" points="1512.17 6148.26 1773.29 7197.1 1809.04 7340.74 1930.66 7829.27 4190.07 7829.27 3741.82 6148.26 1512.17 6148.26"/><polygon class="cls-11" points="1512.17 6148.26 1475.98 6160.31 1882.55 7865.76 1930.66 7829.27 1512.17 6148.26"/><polygon class="cls-9" points="1882.55 7865.76 4128.05 7865.76 4190.06 7829.27 1930.66 7829.27 1882.55 7865.76"/><rect class="cls-11" x="2671.1" y="8171.25" width="486.19" height="23.1"/><polygon class="cls-18" points="4080.61 7519.52 3713.99 6170.48 1508.56 6170.48 1508.56 6148.26 3741.82 6148.26 4107.21 7516.52 4080.61 7519.52"/><polygon class="cls-9" points="3033.7 7865.74 3031.18 7883.4 2573.95 7975.78 2580.23 7901.19 2583.22 7865.74 3033.7 7865.74"/><path class="cls-19" d="M3106.89,8419.71c-18.58,0-377.55,1.18-469.58,0-40.1-.5-47.13-35.66-47.47-58.42l455.08-85.62c-4.73,52.14-7.49,85.44-7.53,91.77a53.2,53.2,0,0,0,.9,10.31C3045.92,8418.38,3099.92,8419.71,3106.89,8419.71Z" transform="translate(-27 -248.96)"/><polygon class="cls-19" points="2923.18 7488.97 1930.66 7829.27 1809.04 7340.74 2923.18 7488.97"/><polygon class="cls-18" points="1512.17 6148.26 3741.82 6148.26 4103.58 7499.26 1837.02 7499.26 1512.17 6148.26"/><path class="cls-9" d="M3147.27,7919c-6.44-33.13-38.53-60-71.66-60s-54.77,26.86-48.33,60,38.52,60,71.65,60S3153.7,7952.18,3147.27,7919Z" transform="translate(-27 -248.96)"/><polygon class="cls-20" points="3998.42 7440.72 1910.8 7440.72 1674.38 6498.9 1656.26 6426.68 1640.79 6365.06 1604.53 6220.61 3662.07 6220.61 3701.88 6365.06 3718.87 6426.68 3738.78 6498.9 3998.42 7440.72"/><polygon class="cls-21" points="3701.88 6365.06 1640.79 6365.06 1604.53 6220.61 3662.07 6220.61 3701.88 6365.06"/><path class="cls-20" d="M1730.21,6516.81c-10,0-16,8.08-13.56,18.06s12.59,18.06,22.56,18.06,16-8.09,13.56-18.06S1740.18,6516.81,1730.21,6516.81Z" transform="translate(-27 -248.96)"/><path class="cls-20" d="M1790.21,6516.81c-10,0-16,8.08-13.56,18.06s12.59,18.06,22.56,18.06,16-8.09,13.56-18.06S1800.18,6516.81,1790.21,6516.81Z" transform="translate(-27 -248.96)"/><path class="cls-20" d="M1877.37,6534.87c-2.48-10-12.58-18.06-22.56-18.06s-16,8.08-13.55,18.06,12.59,18.06,22.56,18.06S1879.86,6544.84,1877.37,6534.87Z" transform="translate(-27 -248.96)"/><path class="cls-13" d="M3371.3,7036c-15.07-60.45-76.56-109.63-137.07-109.63-29.17,0-54,11.26-70,31.7-16.64,21.29-21.63,49.73-14.07,80.07,15.07,60.45,76.56,109.64,137.07,109.64,29.17,0,54-11.26,70-31.7C3373.87,7094.76,3378.86,7066.33,3371.3,7036Zm-21,74.63c-14.26,18.24-36.64,28.29-63,28.29-56.69,0-114.33-46.17-128.47-102.92-6.9-27.64-2.48-53.38,12.44-72.48,14.26-18.24,36.64-28.29,63-28.29,56.69,0,114.33,46.17,128.48,102.91,6.85,27.65,2.43,53.39-12.49,72.49Z" transform="translate(-27 -248.96)"/><polygon class="cls-13" points="3247.64 6812.84 3236.62 6735.77 3235.75 6732.3 3204.72 6732.3 3205.58 6735.77 3232.99 6812.84 3247.64 6812.84"/><polygon class="cls-13" points="3229.58 6826.44 3236.54 6854.32 3264.78 6854.32 3257.82 6826.44 3229.58 6826.44"/><path class="cls-13" d="M3438.7,7297.78c-15.07-60.45-76.56-109.63-137.07-109.63-29.17,0-54,11.25-70,31.69-16.64,21.3-21.63,49.73-14.07,80.08,15.07,60.45,76.56,109.63,137.07,109.63,29.17,0,54-11.26,70-31.7C3441.26,7356.56,3446.26,7328.12,3438.7,7297.78Zm-21,74.62c-14.26,18.24-36.64,28.29-63,28.29-56.69,0-114.33-46.17-128.47-102.91-6.9-27.65-2.47-53.39,12.45-72.48,14.25-18.25,36.63-28.3,63-28.3,56.7,0,114.33,46.17,128.48,102.92C3437,7327.56,3432.57,7353.3,3417.7,7372.4Z" transform="translate(-27 -248.96)"/><polygon class="cls-13" points="3315.03 7074.64 3304.01 6997.57 3303.14 6994.09 3272.11 6994.09 3272.98 6997.57 3300.38 7074.64 3315.03 7074.64"/><polygon class="cls-13" points="3296.97 7088.23 3303.93 7116.13 3332.17 7116.13 3325.22 7088.23 3296.97 7088.23"/><path class="cls-21" d="M3669.7,7002.32c6.86,0,11.08-5.61,9.37-12.47s-8.73-12.48-15.59-12.48H3441.32c-6.86,0-11.07,5.62-9.36,12.48s8.72,12.47,15.58,12.47Z" transform="translate(-27 -248.96)"/><path class="cls-21" d="M3642.21,6825.1c-1.71-6.86-8.72-12.47-15.58-12.47H3404.46c-6.86,0-11.08,5.61-9.37,12.47s8.73,12.48,15.59,12.48h222.17C3639.7,6837.58,3643.92,6832,3642.21,6825.1Z" transform="translate(-27 -248.96)"/><path class="cls-21" d="M3681.56,7049.85c6.86,0,11.08-5.62,9.37-12.48s-8.73-12.47-15.59-12.47H3453.17c-6.86,0-11.07,5.61-9.36,12.47s8.72,12.48,15.58,12.48Z" transform="translate(-27 -248.96)"/><path class="cls-21" d="M3702.77,7084.89c-1.71-6.86-8.72-12.47-15.58-12.47H3465c-6.86,0-11.07,5.61-9.36,12.47s8.72,12.48,15.58,12.48h222.17C3700.27,7097.37,3704.48,7091.75,3702.77,7084.89Z" transform="translate(-27 -248.96)"/><path class="cls-21" d="M3737.1,7264.12c6.86,0,11.08-5.62,9.37-12.48s-8.77-12.46-15.58-12.46H3508.7c-6.86,0-11.08,5.61-9.37,12.47s8.73,12.48,15.59,12.48Z" transform="translate(-27 -248.96)"/><path class="cls-21" d="M3749,7311.64c6.86,0,11.08-5.61,9.37-12.48s-8.73-12.47-15.59-12.47H3520.56c-6.86,0-11.07,5.61-9.36,12.47s8.72,12.48,15.58,12.48Z" transform="translate(-27 -248.96)"/><path class="cls-21" d="M3770.16,7346.69c-1.7-6.87-8.72-12.48-15.58-12.48H3532.41c-6.86,0-11.07,5.61-9.36,12.48s8.72,12.47,15.58,12.47H3760.8C3767.7,7359.18,3771.88,7353.55,3770.16,7346.69Z" transform="translate(-27 -248.96)"/><path class="cls-21" d="M3632.86,6772.66l-15.51-62.19c-2.84-11.41-14.5-20.74-25.91-20.74H1810.7c-11.41,0-18.42,9.33-15.57,20.74l15.5,62.19c2.85,11.41,14.51,20.74,25.91,20.74H3617.29C3628.7,6793.4,3635.7,6784.07,3632.86,6772.66Z" transform="translate(-27 -248.96)"/><path class="cls-13" d="M3073.05,6689.73l25.85,103.67H1836.58c-11.4,0-23.06-9.33-25.91-20.74l-15.5-62.19c-2.85-11.41,4.16-20.74,15.57-20.74Z" transform="translate(-27 -248.96)"/><polygon class="cls-17" points="3272.81 6473.53 3274.79 6481.49 3294.49 6481.49 3284.22 6515.44 3294.64 6515.44 3304.72 6480.48 3302.99 6473.53 3272.81 6473.53"/><path class="cls-17" d="M3353.58,6721.78c-11.14,0-16.31,9.52-13.28,21.68s12.77,21.68,24,21.68,16.31-9.52,13.28-21.68S3364.7,6721.78,3353.58,6721.78Zm8.73,35c-5.57,0-10.64-5.69-12.55-13.35s.27-13.35,5.77-13.35,10.66,5.75,12.56,13.35-.21,13.38-5.78,13.38Z" transform="translate(-27 -248.96)"/><path class="cls-17" d="M3432.49,6754.18c-1.49-6-6.75-10.72-12.79-10.72s-9,4.79-7.57,10.72,6.74,10.72,12.79,10.72S3434,6760.05,3432.49,6754.18Zm-8.81,5.27c-2.39,0-4.56-2.46-5.26-5.27s0-5.27,2.52-5.27,4.56,2.45,5.26,5.27,0,5.27-2.5,5.27Z" transform="translate(-27 -248.96)"/><polygon class="cls-17" points="3386.27 6473.53 3366.12 6515.44 3373.25 6515.44 3393.39 6473.53 3386.27 6473.53"/><path class="cls-17" d="M3401.39,6732.74c-1.49-6-6.74-10.72-12.79-10.72s-9,4.79-7.57,10.72,6.75,10.72,12.8,10.72S3402.86,6738.61,3401.39,6732.74Zm-14.07,0c-.71-2.88,0-5.27,2.52-5.27s4.56,2.46,5.27,5.27,0,5.27-2.52,5.27-4.57-2.46-5.27-5.27Z" transform="translate(-27 -248.96)"/><path class="cls-21" d="M2989.63,7242.72c12.93,0,20.8-10.49,17.58-23.43h0c-3.22-12.93-16.33-23.42-29.26-23.42H1939.62c-12.94,0-20.81,10.49-17.59,23.42h0c3.23,12.94,16.33,23.43,29.27,23.43Z" transform="translate(-27 -248.96)"/><path class="cls-21" d="M3009,7320.48c12.93,0,20.8-10.49,17.58-23.42s-16.33-23.43-29.27-23.43H1959c-12.94,0-20.81,10.49-17.59,23.43s16.33,23.42,29.27,23.42Z" transform="translate(-27 -248.96)"/><path class="cls-21" d="M3046.85,7378.28c-3.22-12.94-16.33-23.43-29.26-23.43H1979.26c-12.94,0-20.81,10.49-17.59,23.43s16.33,23.42,29.27,23.42H3029.27C3042.2,7401.7,3050.08,7391.18,3046.85,7378.28Z" transform="translate(-27 -248.96)"/><path class="cls-21" d="M2421.43,7116.31c4.05,16.26,20.52,29.45,36.78,29.45H2574c16.26,0,26.16-13.19,22.1-29.45l-56-224.52c-4-16.26-20.52-29.44-36.78-29.44H2387.55c-16.26,0-26.16,13.18-22.1,29.44Z" transform="translate(-27 -248.96)"/><path class="cls-21" d="M2621.88,7116.31c4,16.26,20.52,29.45,36.78,29.45h115.81c16.26,0,26.15-13.19,22.1-29.45l-56-224.52c-4-16.26-20.52-29.44-36.78-29.44H2588c-16.26,0-26.16,13.18-22.11,29.44Z" transform="translate(-27 -248.96)"/><path class="cls-21" d="M2818.58,7116.31c4,16.26,20.52,29.45,36.78,29.45h115.81c16.26,0,26.15-13.19,22.1-29.45l-56-224.52c-4.05-16.26-20.52-29.44-36.78-29.44H2784.7c-16.26,0-26.16,13.18-22.1,29.44Z" transform="translate(-27 -248.96)"/><path class="cls-21" d="M2382.17,7096.41l-46-184.71c-6.8-27.26-34.4-49.35-61.65-49.35H1882.38c-27.25,0-43.84,22.09-37,49.35l46,184.71c6.8,27.25,34.4,49.35,61.65,49.35h392.09C2372.38,7145.76,2389,7123.66,2382.17,7096.41Z" transform="translate(-27 -248.96)"/><path class="cls-17" d="M2269.52,6933.18c6.18,0,10-5.06,8.43-11.23h0c-1.54-6.18-7.85-11.23-14-11.23H1897.57c-6.18,0-10,5-8.44,11.23h0c1.54,6.17,7.86,11.23,14,11.23Z" transform="translate(-27 -248.96)"/><path class="cls-17" d="M2280.29,6976.4c6.18,0,10-5,8.43-11.23h0c-1.54-6.18-7.85-11.23-14-11.23H1908.34c-6.18,0-10,5.05-8.44,11.23h0c1.55,6.18,7.86,11.23,14,11.23Z" transform="translate(-27 -248.96)"/><path class="cls-17" d="M2299.5,7008.37c-1.54-6.18-7.86-11.23-14-11.23H1919.11c-6.18,0-10,5-8.43,11.23s7.85,11.23,14,11.23H2291C2297.24,7019.6,2301,7014.55,2299.5,7008.37Z" transform="translate(-27 -248.96)"/><path class="cls-17" d="M2017.6,7045.52h-86.43c-6.18,0-10,5.06-8.43,11.24s7.86,11.23,14,11.23h86.43c6.18,0,10-5.05,8.44-11.23S2023.78,7045.52,2017.6,7045.52Z" transform="translate(-27 -248.96)"/><path class="cls-21" d="M3909.77,7589.59l-24.15-96.89c-3.57-14.29-18-25.88-32.34-25.88H3647.62c-14.3,0-23,11.59-19.43,25.88l24.16,96.89c3.56,14.3,18,25.88,32.33,25.88h205.66C3904.64,7615.47,3913.34,7603.89,3909.77,7589.59Z" transform="translate(-27 -248.96)"/><path class="cls-17" d="M3850.7,7504c3.24,0,5.23-2.65,4.42-5.89a8.09,8.09,0,0,0-7.36-5.89H3655.58c-3.24,0-5.23,2.65-4.42,5.89a8.09,8.09,0,0,0,7.36,5.89Z" transform="translate(-27 -248.96)"/><path class="cls-17" d="M3856.34,7526.64c3.24,0,5.22-2.65,4.42-5.89a8.09,8.09,0,0,0-7.36-5.89H3661.23c-3.24,0-5.23,2.65-4.42,5.89a8.09,8.09,0,0,0,7.36,5.89Z" transform="translate(-27 -248.96)"/><path class="cls-17" d="M3866.41,7543.41a8.09,8.09,0,0,0-7.36-5.89H3666.88c-3.24,0-5.23,2.65-4.42,5.89a8.09,8.09,0,0,0,7.36,5.89H3862C3865.23,7549.3,3867.21,7546.65,3866.41,7543.41Z" transform="translate(-27 -248.96)"/><path class="cls-17" d="M3718.55,7562.9h-45.34c-3.24,0-5.23,2.65-4.42,5.89h0a8.09,8.09,0,0,0,7.36,5.89h45.33c3.24,0,5.23-2.65,4.43-5.89A8.09,8.09,0,0,0,3718.55,7562.9Z" transform="translate(-27 -248.96)"/><path class="cls-13" d="M2483.7,7518.69c4.88,0,7.85-4,6.63-8.83h0c-1.21-4.88-6.15-8.84-11-8.84H2087.61c-4.87,0-7.84,4-6.63,8.84h0c1.22,4.88,6.16,8.83,11,8.83Z" transform="translate(-27 -248.96)"/><path class="cls-13" d="M2491,7548c4.88,0,7.84-4,6.63-8.83h0c-1.22-4.88-6.16-8.84-11-8.84H2094.93c-4.88,0-7.85,4-6.63,8.84h0a12,12,0,0,0,11,8.83Z" transform="translate(-27 -248.96)"/><path class="cls-13" d="M2494.22,7561H2102.57c-4.88,0-7.85,4-6.64,8.83s6.16,8.84,11,8.84h391.65c4.88,0,7.85-4,6.64-8.84S2499.1,7561,2494.22,7561Z" transform="translate(-27 -248.96)"/><path class="cls-13" d="M2989.11,7518.69c4.88,0,7.85-4,6.64-8.83h0c-1.22-4.88-6.16-8.84-11-8.84h-391.7c-4.87,0-7.84,4-6.63,8.84h0c1.22,4.88,6.16,8.83,11,8.83Z" transform="translate(-27 -248.96)"/><path class="cls-13" d="M2996.42,7548c4.88,0,7.85-4,6.64-8.83h0c-1.22-4.88-6.16-8.84-11-8.84H2600.37c-4.88,0-7.85,4-6.64,8.84h0c1.22,4.88,6.16,8.83,11,8.83Z" transform="translate(-27 -248.96)"/><path class="cls-13" d="M2999.7,7561H2608c-4.88,0-7.85,4-6.63,8.83s6.15,8.84,11,8.84H3004c4.88,0,7.85-4,6.64-8.84S3004.54,7561,2999.7,7561Z" transform="translate(-27 -248.96)"/><path class="cls-13" d="M3479,7518.69c4.88,0,7.85-4,6.63-8.83h0c-1.21-4.88-6.15-8.84-11-8.84H3082.94c-4.88,0-7.85,4-6.63,8.84h0c1.22,4.88,6.16,8.83,11,8.83Z" transform="translate(-27 -248.96)"/><path class="cls-13" d="M3486.31,7548c4.88,0,7.85-4,6.64-8.83h0c-1.22-4.88-6.16-8.84-11-8.84H3090.26c-4.88,0-7.85,4-6.64,8.84h0c1.22,4.88,6.16,8.83,11,8.83Z" transform="translate(-27 -248.96)"/><path class="cls-13" d="M3500.58,7569.82a12,12,0,0,0-11-8.83H3097.9c-4.88,0-7.85,4-6.64,8.83s6.16,8.84,11,8.84h391.65C3498.83,7578.66,3501.8,7574.7,3500.58,7569.82Z" transform="translate(-27 -248.96)"/><path class="cls-13" d="M3576.35,7628.86H2066c-13.35,0-26.9-10.81-30.21-24.09l-30.16-121c-1.72-6.88-.47-13.69,3.42-18.66s9.65-7.57,16.45-7.57H3535.85c13.34,0,26.9,10.8,30.21,24.09l30.16,121c1.72,6.88.47,13.68-3.42,18.66S3583.15,7628.86,3576.35,7628.86ZM2025.51,7466.42a11.63,11.63,0,0,0-9.47,4.17c-2.23,2.85-2.87,6.79-1.8,11.07l30.16,121c2.34,9.42,12.24,17.38,21.61,17.38H3576.35a11.6,11.6,0,0,0,9.47-4.17c2.23-2.86,2.87-6.79,1.8-11.07l-30.15-121c-2.35-9.42-12.25-17.38-21.62-17.38Z" transform="translate(-27 -248.96)"/><path class="cls-21" d="M2212.17,5212.9a5.07,5.07,0,0,0-5.72-4.32l-55.3,7.73a57.68,57.68,0,0,0-28.27-43.54l-3.35-2a57.67,57.67,0,0,0-54-2l-21.85-54.8a5.08,5.08,0,0,0-9.43,3.76l22.45,56.3a56.85,56.85,0,0,0-9.77,8.89,55.25,55.25,0,0,0-6.24,8.73l-6.08,10.47-50.84-29.53a5.07,5.07,0,1,0-5.09,8.78l50.83,29.52-3.45,5.94a57.3,57.3,0,0,0-6.69,17.84l-69.5,9.72a5.07,5.07,0,0,0,.7,10.1,5.65,5.65,0,0,0,.71-.05l67-9.38a57.82,57.82,0,0,0,28.64,50.61l3.35,1.94a57.75,57.75,0,0,0,56.06,1l23.83,59.78a5.08,5.08,0,0,0,9.43-3.76h0L2115,5293a57.14,57.14,0,0,0,14.11-16.23l3.45-5.94,50.84,29.53a5.07,5.07,0,0,0,5.09-8.78l-50.79-29.53,6.07-10.46a56.54,56.54,0,0,0,7.62-25.08l56.45-7.89a5.07,5.07,0,0,0,4.33-5.71Z" transform="translate(-27 -248.96)"/><path class="cls-22" d="M2143.78,5251.6l-14.62,25.18a57.84,57.84,0,0,1-78.84,20.9l-3.35-1.94a57.84,57.84,0,0,1-20.9-78.84l14.63-25.18a55.25,55.25,0,0,1,6.24-8.73l101.35,58.87A56.58,56.58,0,0,1,2143.78,5251.6Z" transform="translate(-27 -248.96)"/><path class="cls-21" d="M1052.86,5875.44,989,5857.33a56.92,56.92,0,0,0-4.27-21.08l-2.6-6.36,54.4-22.28a5.09,5.09,0,1,0-3.83-9.43l-54.41,22.28-4.58-11.19a56.62,56.62,0,0,0-15.24-21.33l28.17-49.56a5.07,5.07,0,0,0-8.74-5.15l-.08.15-27.59,48.54a57.66,57.66,0,0,0-51.75-4.15l-3.58,1.47a57.67,57.67,0,0,0-34.5,41.58l-56.76-16.1a5.07,5.07,0,0,0-2.77,9.76L859.18,5831a57,57,0,0,0,1.09,13.16,55.91,55.91,0,0,0,3.12,10.28l4.58,11.19-54.4,22.28a5.08,5.08,0,0,0,1.93,9.78,5.25,5.25,0,0,0,1.92-.38l54.4-22.29,2.6,6.36a57,57,0,0,0,10.06,16.17l-34.68,61a5.07,5.07,0,1,0,8.74,5.14s.05-.09.08-.14l33.46-58.85a57.83,57.83,0,0,0,57.57,8.16l3.59-1.47a57.76,57.76,0,0,0,35-43.83l61.86,17.59a5.08,5.08,0,0,0,2.76-9.77Z" transform="translate(-27 -248.96)"/><path class="cls-22" d="M973.7,5809.31l11,26.94a57.83,57.83,0,0,1-31.5,75.23l-3.59,1.47a57.85,57.85,0,0,1-75.23-31.51l-11-26.94a55.91,55.91,0,0,1-3.12-10.28l108.44-44.43A57.2,57.2,0,0,1,973.7,5809.31Z" transform="translate(-27 -248.96)"/><path class="cls-21" d="M3232.24,5933.66l-63.87-18.12a57.31,57.31,0,0,0-4.26-21.08l-2.61-6.35,54.41-22.29a5.07,5.07,0,1,0-3.85-9.39l-54.4,22.29-4.59-11.2a56.71,56.71,0,0,0-15.23-21.33l28.17-49.56a5.08,5.08,0,0,0-8.83-5l-27.59,48.55a57.66,57.66,0,0,0-51.75-4.15l-3.58,1.47a57.67,57.67,0,0,0-34.49,41.58L2983,5863a5.08,5.08,0,1,0-3.07,9.68c.1,0,.2.06.3.09l58.31,16.54a56.18,56.18,0,0,0,4.2,23.44l4.59,11.2-54.4,22.28a5.07,5.07,0,1,0,3.84,9.39l54.41-22.28,2.6,6.35a57.42,57.42,0,0,0,10,16.18l-34.68,61a5.08,5.08,0,0,0,8.83,5l33.45-58.85a57.8,57.8,0,0,0,57.58,8.16l3.58-1.47a57.72,57.72,0,0,0,35-43.83l61.91,17.56a5,5,0,0,0,6.23-3.35s0-.1,0-.15A5.08,5.08,0,0,0,3232.24,5933.66Z" transform="translate(-27 -248.96)"/><path class="cls-22" d="M3153.07,5867.52l11,26.94a57.84,57.84,0,0,1-31.51,75.23l-3.58,1.47a57.84,57.84,0,0,1-75.23-31.51l-11-26.94a56.84,56.84,0,0,1-3.12-10.27L3148.1,5858A57,57,0,0,1,3153.07,5867.52Z" transform="translate(-27 -248.96)"/><path class="cls-23" d="M1760.19,7738.6c-.24.17-.52.4-.87.65-13,10-101.59,70.39-300.56,43.63q-2,11.47-3.81,22.71c-.6,3.75-1.19,7.48-1.74,11.18s-1.09,7.3-1.61,10.92v.2c-.52,3.64-1,7.25-1.5,10.86s-1,7.2-1.42,10.8-.87,7.08-1.29,10.61v.17c-.4,3.51-.81,7-1.18,10.47s-.74,7-1.09,10.44-.68,6.9-1,10.33-.62,6.81-.89,10.2c-.21,2.47-.42,4.93-.6,7.39-.17,2-.32,4.05-.44,6.07-.13,1.71-.25,3.43-.36,5.15-.06.9-.12,1.8-.17,2.7-.18,2.88-.36,5.73-.52,8.59-.17,3.05-.32,6.11-.48,9.15,0,.59-.05,1.16-.07,1.75-.1,2.27-.21,4.53-.29,6.77-.07,1.79-.15,3.55-.19,5.32-.2,5.7-.34,11.31-.43,16.89,0,2.57-.09,5.11-.11,7.64v18.21q0,3.57.09,7.08c0,2,.07,4,.12,6v2.1c.06,2.09.12,4.17.18,6.22.08,2.23.16,4.42.24,6.61.11,2.37.22,4.73.33,7.06.12,2.75.26,5.47.42,8.19v.74c.15,2.67.33,5.32.5,8s.39,5.55.61,8.28.44,5.47.68,8.17.47,5.4.75,8.06.51,5.08.78,7.6c0,.3.07.61.1.91.27,2.46.54,4.88.84,7.31s.62,5.12,1,7.67a.67.67,0,0,1,0,.2c.34,2.51.66,5,1,7.52s.7,5,1.09,7.47a.67.67,0,0,1,0,.2c.38,2.42.75,4.83,1.13,7.23a.24.24,0,0,1,0,.12c.39,2.44.81,4.85,1.22,7.26s.85,4.84,1.29,7.24c.54,2.94,1.08,5.85,1.65,8.74.37,1.8.72,3.6,1.09,5.39.46,2.26.93,4.48,1.4,6.68.07.29.14.58.2.87.44,2.08.92,4.16,1.38,6.2.5,2.27,1,4.5,1.57,6.73,1.1,4.59,2.22,9.1,3.4,13.55.52,2,1.07,4,1.62,6s1.15,4.16,1.75,6.22c.42,1.52.86,3,1.3,4.53s.87,3,1.33,4.45c.35,1.17.71,2.33,1.08,3.5q.93,3,1.88,6,1.94,6,4,11.81c.67,1.94,1.33,3.86,2,5.77s1.37,3.8,2.06,5.67q2.86,7.69,5.85,15c.59,1.48,1.2,2.93,1.81,4.38.86,2.1,1.74,4.17,2.63,6.23.7,1.61,1.4,3.22,2.12,4.81q5.76,13,11.86,24.85c.81,1.57,1.6,3.09,2.41,4.62,1.92,3.63,3.85,7.18,5.81,10.68.67,1.23,1.38,2.45,2.07,3.66s1.3,2.25,2,3.35l2.25,3.85c1.76,2.91,3.5,5.75,5.27,8.54.6,1,1.21,1.94,1.82,2.88,1.91,3,3.84,5.91,5.77,8.78.69,1,1.37,2,2.07,3,4.54,6.61,9.08,12.82,13.62,18.69l2.52,3.22q6.59,8.31,13,15.63c1.36,1.55,2.73,3.08,4.08,4.58.12.12.24.24.35.37.81.88,1.62,1.78,2.43,2.64,4.85,5.24,9.6,10,14.19,14.46.76.73,1.52,1.46,2.28,2.17,1.5,1.44,3,2.81,4.47,4.15s2.79,2.52,4.14,3.71l.2.17,4,3.43c2.23,1.88,4.4,3.68,6.49,5.36l1.75,1.38c3.8,3,7.36,5.68,10.62,8l2.86,2c2.73,1.88,5.2,3.51,7.37,4.87.65.43,1.28.82,1.88,1.19,1.34.81,2.51,1.54,3.55,2.14.23.14.47.27.68.38s.45.28.67.4c2.4,1.38,3.71,2,3.71,2q19.07-6.21,36.93-13.7c75.25-31.5,134.77-79.32,181.88-134.74a3.87,3.87,0,0,0,.35-.45c101.39-119.51,145-274.17,163.6-376.56,2-11.34,3.81-22,5.3-32C1826.31,7839.54,1766.46,7749,1760.19,7738.6Z" transform="translate(-27 -248.96)"/><path class="cls-7" d="M1992.35,7932.31c-17,93.35-56.72,234.35-149.15,343.3-.1.15-.21.27-.32.41-43,50.53-97.21,94.13-165.81,122.84q-16.29,6.84-33.67,12.49c-17.38,5.65-1.2-.57-3.39-1.83-.2-.11-.39-.24-.6-.36s-.41-.22-.62-.35c-1-.55-2-1.21-3.24-1.95-.55-.34-1.12-.69-1.72-1.09-2-1.24-4.23-2.73-6.72-4.44l-2.6-1.84c-3-2.12-6.22-4.54-9.69-7.29-.53-.43-1-.84-1.59-1.26-1.91-1.54-3.89-3.17-5.92-4.89l-3.6-3.12-.19-.16q-1.85-1.64-3.77-3.39t-4.08-3.78c-.69-.65-1.39-1.31-2.08-2-4.18-4-8.51-8.4-12.93-13.18-.74-.78-1.48-1.6-2.22-2.4a2.58,2.58,0,0,0-.32-.34c-1.23-1.36-2.47-2.76-3.72-4.17q-5.85-6.69-11.85-14.26c-.77-1-1.55-2-2.31-2.93-4.14-5.35-8.27-11-12.42-17-.62-.91-1.25-1.83-1.88-2.78q-2.64-3.9-5.26-8c-.55-.86-1.12-1.74-1.66-2.63-1.61-2.54-3.2-5.14-4.8-7.79l-2-3.5c-.6-1-1.19-2-1.78-3.06s-1.28-2.22-1.88-3.34q-2.68-4.77-5.3-9.73c-.74-1.4-1.47-2.79-2.2-4.22q-5.55-10.82-10.81-22.65c-.66-1.45-1.3-2.92-1.94-4.38q-1.21-2.82-2.4-5.68c-.55-1.33-1.11-2.65-1.64-4q-2.74-6.7-5.34-13.72c-.63-1.7-1.25-3.44-1.88-5.17s-1.25-3.49-1.85-5.26q-1.83-5.3-3.61-10.76-.87-2.73-1.72-5.5c-.33-1.07-.66-2.13-1-3.19-.43-1.36-.83-2.69-1.22-4.06s-.8-2.74-1.18-4.13c-.55-1.88-1.08-3.76-1.6-5.67s-1-3.65-1.48-5.5q-1.61-6.08-3.09-12.35c-.5-2-1-4.07-1.44-6.14-.42-1.86-.86-3.76-1.25-5.65-.06-.26-.12-.53-.19-.79-.43-2-.86-4-1.28-6.09-.34-1.63-.65-3.27-1-4.92-.51-2.64-1-5.29-1.5-8-.4-2.18-.8-4.38-1.17-6.59s-.76-4.4-1.12-6.62a.24.24,0,0,0,0-.12c-.34-2.19-.69-4.37-1-6.58a.6.6,0,0,0,0-.19q-.52-3.39-1-6.81c-.33-2.28-.62-4.56-.93-6.86a.54.54,0,0,0,0-.18c-.3-2.33-.59-4.65-.87-7s-.52-4.42-.76-6.67c0-.27-.07-.55-.09-.82-.25-2.3-.49-4.6-.72-6.93s-.47-4.88-.67-7.35-.43-4.94-.63-7.45-.38-5-.55-7.55-.32-4.81-.46-7.25V8045c-.15-2.48-.28-5-.39-7.46-.1-2.13-.2-4.27-.3-6.44-.07-2-.15-4-.21-6s-.12-3.77-.17-5.68v-1.91c-.06-1.82-.11-3.65-.12-5.49q-.06-3.2-.08-6.45V7989c0-2.3.06-4.62.1-7,.08-5.08.21-10.2.39-15.4,0-1.61.11-3.22.17-4.85.08-2,.18-4.1.27-6.17a12,12,0,0,1,.07-1.59c.14-2.78.28-5.56.44-8.35q.21-3.9.47-7.83c0-.82.1-1.64.15-2.46.1-1.57.21-3.13.33-4.7.11-1.84.25-3.69.4-5.53.17-2.25.35-4.48.54-6.74.25-3.09.53-6.2.81-9.3s.59-6.26.91-9.41.63-6.34,1-9.52.71-6.35,1.07-9.55v-.15c.38-3.22.76-6.43,1.18-9.67s.84-6.56,1.29-9.85.89-6.58,1.37-9.9v-.18c.47-3.31,1-6.62,1.47-10s1-6.77,1.58-10.19q1.62-10.23,3.47-20.7c181.4,24.39,262.14-30.69,274-39.78.31-.23.56-.44.79-.59,5.71,9.44,60.27,92,242.6,133.51C1995.82,7912.18,1994.21,7922,1992.35,7932.31Z" transform="translate(-27 -248.96)"/><path class="cls-6" d="M1755.36,7769,1640,8409.52c-1.19-.69-2.69-1.57-4.46-2.66-.55-.34-1.12-.69-1.72-1.09-2-1.24-4.23-2.73-6.72-4.44l-2.6-1.84c-3-2.12-6.22-4.54-9.69-7.29-.53-.43-1-.84-1.59-1.26-1.91-1.54-3.89-3.17-5.92-4.89l-3.6-3.12-.19-.16q-1.85-1.64-3.77-3.39t-4.08-3.78c-.69-.65-1.39-1.31-2.08-2-4.18-4-8.51-8.4-12.93-13.18-.74-.78-1.48-1.6-2.22-2.4a2.58,2.58,0,0,0-.32-.34c-1.23-1.36-2.47-2.76-3.72-4.17q-5.85-6.69-11.85-14.26c-.77-1-1.55-2-2.31-2.93-4.14-5.35-8.27-11-12.42-17-.62-.91-1.25-1.83-1.88-2.78q-2.64-3.9-5.26-8c-.55-.86-1.12-1.74-1.66-2.63-1.61-2.54-3.2-5.14-4.8-7.79l-2-3.5c-.6-1-1.19-2-1.78-3.06s-1.28-2.22-1.88-3.34q-2.68-4.77-5.3-9.73c-.74-1.4-1.47-2.79-2.2-4.22q-5.55-10.82-10.81-22.65c-.66-1.45-1.3-2.92-1.94-4.38q-1.21-2.82-2.4-5.68c-.55-1.33-1.11-2.65-1.64-4q-2.74-6.7-5.34-13.72c-.63-1.7-1.25-3.44-1.88-5.17s-1.25-3.49-1.85-5.26q-1.83-5.3-3.61-10.76-.87-2.73-1.72-5.5c-.33-1.07-.66-2.13-1-3.19-.43-1.36-.83-2.69-1.22-4.06s-.8-2.74-1.18-4.13c-.55-1.88-1.08-3.76-1.6-5.67s-1-3.65-1.48-5.5q-1.61-6.08-3.09-12.35c-.5-2-1-4.07-1.44-6.14-.42-1.86-.86-3.76-1.25-5.65-.06-.26-.12-.53-.19-.79-.43-2-.86-4-1.28-6.09-.34-1.63-.65-3.27-1-4.92-.51-2.64-1-5.29-1.5-8-.4-2.18-.8-4.38-1.17-6.59s-.76-4.4-1.12-6.62a.24.24,0,0,0,0-.12c-.34-2.19-.69-4.37-1-6.58a.6.6,0,0,0,0-.19q-.52-3.39-1-6.81c-.33-2.28-.62-4.56-.93-6.86a.54.54,0,0,0,0-.18c-.3-2.33-.59-4.65-.87-7s-.52-4.42-.76-6.67c0-.27-.07-.55-.09-.82-.25-2.3-.49-4.6-.72-6.93s-.47-4.88-.67-7.35-.43-4.94-.63-7.45-.38-5-.55-7.55-.32-4.81-.46-7.25V8045c-.15-2.48-.28-5-.39-7.46-.1-2.13-.2-4.27-.3-6.44-.07-2-.15-4-.21-6s-.12-3.77-.17-5.68v-1.91c-.06-1.82-.11-3.65-.12-5.49q-.06-3.2-.08-6.45V7989c0-2.3.06-4.62.1-7,.08-5.08.21-10.2.39-15.4,0-1.61.11-3.22.17-4.85.08-2,.18-4.1.27-6.17a12,12,0,0,1,.07-1.59c.14-2.78.28-5.56.44-8.35q.21-3.9.47-7.83c0-.82.1-1.64.15-2.46.1-1.57.21-3.13.33-4.7.11-1.84.25-3.69.4-5.53.17-2.25.35-4.48.54-6.74.25-3.09.53-6.2.81-9.3s.59-6.26.91-9.41.63-6.34,1-9.52.71-6.35,1.07-9.55v-.15c.38-3.22.76-6.43,1.18-9.67s.84-6.56,1.29-9.85.89-6.58,1.37-9.9v-.18c.47-3.31,1-6.62,1.47-10s1-6.77,1.58-10.19q1.62-10.23,3.47-20.7C1677.17,7836.57,1755.36,7769,1755.36,7769Z" transform="translate(-27 -248.96)"/><path class="cls-24" d="M1875.48,7939.63,1692.7,8082.4,1615,7983l-44.54,34.79,112.44,144,227.32-177.58Z" transform="translate(-27 -248.96)"/><path class="cls-3" d="M5961.1,5580.41a18,18,0,0,1-15.41-27.4c20.49-33.87,40.65-68.68,59.87-103.48a18.06,18.06,0,0,1,31.61,17.46c-19.46,35.21-39.85,70.44-60.61,104.71A18,18,0,0,1,5961.1,5580.41Zm-5213.28-3.06a18,18,0,0,1-15.47-8.72c-20.82-34.49-41.17-69.75-60.49-104.8a18.06,18.06,0,1,1,31.33-18c.1.17.2.36.3.54,19.08,34.65,39.19,69.49,59.76,103.57a18.05,18.05,0,0,1-15.43,27.38Zm5329.61-207.43a18.07,18.07,0,0,1-16.12-26.16c17.72-35.31,35-71.6,51.49-107.88a18.06,18.06,0,0,1,32.9,14.9c-16.66,36.72-34.18,73.45-52.12,109.18a18.07,18.07,0,0,1-16.15,10ZM631.7,5366.68a18.09,18.09,0,0,1-16.16-10c-18-35.93-35.47-72.69-52-109.27a18.05,18.05,0,1,1,32.9-14.86c16.33,36.14,33.63,72.47,51.39,108a18.05,18.05,0,0,1-16.13,26.13Zm5545-215.79A18,18,0,0,1,6160,5126c14.88-36.66,29.26-74.21,42.76-111.62a18,18,0,0,1,33.95,12.23h0c-13.64,37.86-28.19,75.88-43.27,113A18,18,0,0,1,6176.7,5150.89Zm-5644-3.42a18.06,18.06,0,0,1-16.74-11.3c-15.11-37.33-29.63-75.38-43.15-113.06a18.06,18.06,0,1,1,34-12.19h0c13.36,37.23,27.71,74.82,42.63,111.72a18.08,18.08,0,0,1-16.74,24.83Zm5725.57-222.78a18.08,18.08,0,0,1-18.05-18.09,18.35,18.35,0,0,1,.84-5.41c12-38,23.35-76.54,33.74-114.66a18.06,18.06,0,0,1,34.85,9.49c-10.53,38.59-22,77.64-34.17,116a18,18,0,0,1-17.23,12.62Zm-5806.88-3.63a18.05,18.05,0,0,1-17.21-12.64c-12.05-38.3-23.5-77.38-34-116.14a18.05,18.05,0,1,1,34.85-9.45c10.39,38.3,21.7,76.91,33.62,114.75a18.07,18.07,0,0,1-17.23,23.48Zm5870.19-228.34a18.07,18.07,0,0,1-17.6-22.12c8.87-38.51,17.13-77.86,24.52-117a18,18,0,0,1,35.47,6.7h0c-7.48,39.59-15.82,79.42-24.83,118.39a18,18,0,0,1-17.58,14ZM388.35,4688.9a18.09,18.09,0,0,1-17.58-14c-9-39.14-17.26-79-24.67-118.47a18,18,0,1,1,35.48-6.66c7.32,39,15.53,78.39,24.39,117.06a18.07,18.07,0,0,1-13.56,21.64,18.67,18.67,0,0,1-4.08.43Zm5977.91-232.45a18.48,18.48,0,0,1-2.68-.19,18.07,18.07,0,0,1-15.2-20.5c5.83-39.23,10.92-79.12,15.18-118.55a18.06,18.06,0,0,1,35.91,3.87c-4.32,39.92-9.48,80.28-15.38,120a18,18,0,0,1-17.85,15.37Zm-6022.29-4A18.07,18.07,0,0,1,326.13,4437c-5.83-39.72-10.95-80.12-15.22-120.06a18.06,18.06,0,0,1,35.89-3.78c4.22,39.46,9.27,79.39,15,118.65a18,18,0,0,1-17.89,20.67Zm6048.13-235h-1.25a18.07,18.07,0,0,1-16.78-19.25c2.72-39.4,4.67-79.58,5.82-119.39a17.8,17.8,0,0,1,18-17.54l.54,0a18.05,18.05,0,0,1,17.52,18.57h0c-1.17,40.29-3.16,80.94-5.9,120.82a18.06,18.06,0,0,1-18,16.75Zm-6073.69-4.18a18.06,18.06,0,0,1-18-16.84c-2.68-40-4.62-80.67-5.73-120.89A18.07,18.07,0,0,1,312.21,4057c10.53.09,18.28,7.59,18.55,17.54,1.11,39.77,3,80,5.67,119.49a18,18,0,0,1-16.75,19.17h-.05a8.59,8.59,0,0,1-1.24.07Zm6080.74-236.2a18.05,18.05,0,0,1-18-17.88c-.37-39.84-1.52-80.05-3.44-119.49a18.06,18.06,0,0,1,36.07-1.76c1.93,39.92,3.1,80.6,3.47,120.91a18,18,0,0,1-17.78,18.22h-.27ZM311.7,3972.71h-.2a18,18,0,0,1-17.85-18.15v-.09c.43-40.07,1.66-80.74,3.65-120.92a18.05,18.05,0,1,1,36.06,1.79h0c-2,39.71-3.2,79.91-3.62,119.52A18,18,0,0,1,311.7,3972.71Zm6075.81-235.82a18.07,18.07,0,0,1-18-16.48c-3.44-39.35-7.74-79.33-12.78-118.85a18.06,18.06,0,0,1,35.83-4.55c5.08,40,9.43,80.43,12.93,120.25a18.06,18.06,0,0,1-16.41,19.56c-.53,0-1.06.07-1.59.07ZM323.7,3732.53a12.55,12.55,0,0,1-1.62-.07,18.05,18.05,0,0,1-16.38-19.58h0c3.57-40,8-80.51,13.1-120.23a18.05,18.05,0,1,1,35.81,4.61h0c-5.06,39.27-9.43,79.25-13,118.83A18.06,18.06,0,0,1,323.7,3732.53Zm6033.39-234.14a18.06,18.06,0,0,1-17.78-15.07c-6.6-39.28-14-78.8-22.15-117.46a18.06,18.06,0,0,1,35.35-7.4c8.19,39.14,15.71,79.13,22.39,118.88a18.05,18.05,0,0,1-14.8,20.8h0a19.16,19.16,0,0,1-3,.25Zm-6002.62-4.33a17.69,17.69,0,0,1-3-.25,18,18,0,0,1-14.81-20.71l0-.09c6.69-39.56,14.28-79.55,22.55-118.85a18.06,18.06,0,0,1,35.34,7.44c-8.19,38.84-15.68,78.35-22.3,117.42a18,18,0,0,1-17.83,15Zm5953.43-231a18,18,0,0,1-17.48-13.67c-9.67-38.5-20.24-77.3-31.39-115.33a18.05,18.05,0,1,1,34.65-10.16h0c11.29,38.47,22,77.74,31.74,116.7a18,18,0,0,1-13,21.88l-.1,0a18.53,18.53,0,0,1-4.45.51ZM404,3258.78a18.09,18.09,0,0,1-18.05-18.13,18.69,18.69,0,0,1,.54-4.34c9.82-38.91,20.57-78.17,31.93-116.68A18.05,18.05,0,1,1,453,3129.84c-11.24,38.07-21.85,76.86-31.55,115.29A18.07,18.07,0,0,1,404,3258.78ZM6240.11,3032.3A18.06,18.06,0,0,1,6223,3020c-12.72-37.7-26.36-75.64-40.58-112.77a18.06,18.06,0,0,1,33.72-12.92c14.38,37.6,28.21,76,41.08,114.14a18.07,18.07,0,0,1-17.11,23.83Zm-5768-4.14a18.17,18.17,0,0,1-17.12-23.8l0-.08c12.84-37.91,26.67-76.18,41.11-113.78a18.06,18.06,0,0,1,33.7,13h0c-14.27,37.13-27.93,75-40.63,112.4a18.07,18.07,0,0,1-17.13,12.28Zm5681.91-221a18,18,0,0,1-16.62-11c-15.55-36.24-32.18-73-49.4-109.12a18,18,0,0,1,32.58-15.53c17.44,36.59,34.26,73.74,50,110.41a18.06,18.06,0,0,1-16.59,25.18ZM558.17,2804a18.06,18.06,0,0,1-16.57-25.2c15.84-36.8,32.63-73.77,49.9-109.88a18,18,0,1,1,32.56,15.58c-17.1,35.66-33.69,72.19-49.36,108.56A18.06,18.06,0,0,1,558.13,2804Zm5492.09-214.34a18.06,18.06,0,0,1-16-9.65c-18.52-35.16-38-70.42-57.88-104.8a18,18,0,0,1,31.25-18.07c20.12,34.78,39.83,70.46,58.59,106.05a18.07,18.07,0,0,1-16,26.47Zm-5388.63-2.13a18.06,18.06,0,0,1-15.93-26.48c18.67-35.39,38.34-70.94,58.46-105.66a18,18,0,1,1,31.23,18.1h0c-19.88,34.31-39.31,69.44-57.76,104.4a18,18,0,0,1-16,9.64Zm5268-206.31a18.08,18.08,0,0,1-15.27-8.4c-21.1-33.36-43.29-67-65.95-99.86a18,18,0,1,1,29.73-20.47c22.93,33.28,45.38,67.27,66.73,101a18,18,0,0,1-5.53,24.85l-.08,0a17.9,17.9,0,0,1-9.56,2.83Zm-5147.69-1.42a18,18,0,0,1-15.22-27.71c21.43-33.83,43.84-67.73,66.64-100.77a18,18,0,1,1,29.71,20.5h0c-22.53,32.65-44.68,66.16-65.86,99.59a18.06,18.06,0,0,1-15.23,8.39ZM5793,2183.05a18,18,0,0,1-14.47-7.22c-23.6-31.52-48.37-63.26-73.57-94.31a18,18,0,1,1,28-22.76c25.51,31.43,50.57,63.53,74.46,95.42a18,18,0,0,1-14.44,28.87Zm-4874.66-.94a18.06,18.06,0,0,1-14.44-28.88C928,2121.14,953,2089.1,978.34,2058a18,18,0,1,1,28,22.77h0c-25,30.77-49.75,62.44-73.53,94.16a18,18,0,0,1-14.4,7.22Zm4722.94-185.77a18,18,0,0,1-13.55-6.12c-26.32-29.93-53.49-59.6-80.74-88.2a18.05,18.05,0,1,1,26.14-24.91c27.58,29,55.07,59,81.71,89.25a18,18,0,0,1-13.56,30Zm-4571.33-.7a18,18,0,0,1-13.54-30c26.48-30.07,54-60.08,81.69-89.18a18,18,0,1,1,26.13,24.9c-27.39,28.77-54.56,58.42-80.72,88.13a18,18,0,0,1-13.52,6.15Zm4405.53-173.46a18,18,0,0,1-12.58-5.09c-28.5-27.67-57.9-55.12-87.36-81.57a18,18,0,0,1,24.11-26.86c29.83,26.75,59.56,54.52,88.41,82.52a18,18,0,0,1-12.58,31Zm-4239.65-.57a18,18,0,0,1-12.57-31c28.86-28,58.63-55.78,88.47-82.54a18.05,18.05,0,1,1,24.11,26.88c-29.5,26.44-58.92,53.89-87.44,81.56a17.94,17.94,0,0,1-12.57,5.07Zm4060.74-160a18,18,0,0,1-11.53-4.15c-30.33-25.17-61.78-50.2-93.45-74.42a18,18,0,0,1,21.92-28.68c32.05,24.51,63.87,49.84,94.58,75.31a18,18,0,0,1-11.52,31.94ZM1415,1661a18,18,0,0,1-11.52-32c30.88-25.59,62.75-50.94,94.71-75.36a18.05,18.05,0,1,1,21.91,28.7h0c-31.58,24.12-63.07,49.17-93.59,74.46A18,18,0,0,1,1415,1661ZM5105.7,1515.66a18,18,0,0,1-10.37-3.29c-32.43-22.84-65.73-45.31-99-66.81a18.05,18.05,0,1,1,19.61-30.32c33.64,21.75,67.34,44.5,100.15,67.61a18,18,0,0,1-10.41,32.81Zm-3499.53-.78a18.05,18.05,0,0,1-10.41-32.82c32.78-23.06,66.56-45.84,100.39-67.69a18.05,18.05,0,0,1,19.59,30.33h0c-33.44,21.6-66.81,44.1-99.2,66.89a18,18,0,0,1-10.36,3.29ZM4904,1385.24a18,18,0,0,1-9.18-2.52c-34.08-20.19-69-40-103.86-58.77a18,18,0,1,1,17.15-31.76c35.24,19,70.62,39,105.11,59.47a18.05,18.05,0,0,1-9.22,33.58Zm-3095.66-1a18,18,0,0,1-9.21-33.59c34.67-20.49,70.16-40.53,105.49-59.57a18.05,18.05,0,1,1,17.13,31.78c-34.92,18.81-70,38.63-104.23,58.87a18.06,18.06,0,0,1-9.17,2.53Zm2884.46-113a18.17,18.17,0,0,1-7.93-1.85c-35.61-17.45-72-34.39-108.1-50.33a18,18,0,0,1,14.57-33c36.57,16.15,73.37,33.29,109.43,51a18.06,18.06,0,0,1-8,34.27ZM2020.37,1270a18.05,18.05,0,0,1-7.94-34.27c36.22-17.71,73.21-34.89,109.94-51.06a18,18,0,0,1,14.56,33c-36.3,16-72.86,33-108.64,50.44a18.09,18.09,0,0,1-7.91,1.86Zm2453.08-95.71a18,18,0,0,1-6.64-1.27c-37.1-14.66-74.78-28.68-112-41.69a18.06,18.06,0,0,1,11.91-34.09c37.68,13.18,75.82,27.38,113.38,42.2a18.06,18.06,0,0,1-6.64,34.85Zm-2232.53-1.43a18.06,18.06,0,0,1-6.62-34.86c37.44-14.73,75.69-28.92,113.72-42.16A18.05,18.05,0,0,1,2359.9,1130c-37.58,13.09-75.39,27.1-112.37,41.67a18.14,18.14,0,0,1-6.6,1.23Zm2005.54-78a17.77,17.77,0,0,1-5.27-.8c-38-11.62-76.69-22.6-115-32.66a18.05,18.05,0,0,1,9.18-34.92c38.78,10.18,77.92,21.3,116.37,33a18.06,18.06,0,0,1-5.28,35.33Zm-1777.83-1.33a18.06,18.06,0,0,1-5.24-35.33c38.45-11.69,77.61-22.75,116.42-32.87a18,18,0,0,1,9.12,34.92c-38.34,10-77,20.94-115,32.49a18.27,18.27,0,0,1-5.29.79Zm1545.3-59.77a17.68,17.68,0,0,1-3.91-.43c-38.85-8.56-78.27-16.44-117.2-23.42a18,18,0,1,1,6.37-35.53c39.38,7.05,79.29,15,118.61,23.7a18,18,0,0,1-3.87,35.68Zm-1312.65-1a18.05,18.05,0,0,1-3.84-35.69c39.32-8.62,79.24-16.53,118.66-23.53a18.05,18.05,0,1,1,6.31,35.55c-38.94,6.92-78.4,14.74-117.25,23.24a18,18,0,0,1-3.87.46Zm1076-41.45a17.41,17.41,0,0,1-2.5-.17c-39.34-5.46-79.27-10.2-118.67-14.07a18.05,18.05,0,0,1,3.51-35.93h0c39.89,3.92,80.31,8.71,120.12,14.23a18.06,18.06,0,0,1-2.46,35.94Zm-839.22-.63a18,18,0,0,1-2.43-35.93c39.82-5.46,80.23-10.19,120.12-14.07a18.06,18.06,0,0,1,3.5,35.95c-39.43,3.82-79.37,8.49-118.72,13.88a17.16,17.16,0,0,1-2.48.2Zm600-23H3537c-39.59-2.33-79.79-3.93-119.49-4.73a18.05,18.05,0,1,1,.38-36.1h.37c40.14.82,80.81,2.43,120.85,4.79a18.05,18.05,0,0,1-1,36.07Zm-360.65-.25a18,18,0,1,1-1-36.07c40-2.32,80.64-3.87,120.85-4.62a18,18,0,1,1,.69,36.09c-39.75.75-80,2.28-119.45,4.57Z" transform="translate(-27 -248.96)"/><circle class="cls-24" cx="5826.04" cy="2105.98" r="594.76"/><path class="cls-18" d="M5311,2377c0,180.55,89.7,340.14,227,436.64,24.18,17,25.47,52.35,2.24,70.64l-.66.51a43.81,43.81,0,0,1-52.24,1.64c-160.24-112.53-265-298.76-265-509.43,0-341.71,282.85-619.11,623.87-622v88.7C5554.1,1846.55,5311,2084.23,5311,2377Z" transform="translate(-27 -248.96)"/><path class="cls-18" d="M5862.47,1675.64l163,111.47a15,15,0,0,1,0,24.82l-163,111.47a15,15,0,0,1-23.53-12.4V1688a15,15,0,0,1,23.53-12.36Z" transform="translate(-27 -248.96)"/><path class="cls-18" d="M6389.88,2374.3c0-180.54-89.71-340.13-227-436.64-24.19-17-25.47-52.34-2.24-70.63l.65-.51a43.82,43.82,0,0,1,52.25-1.64c160.25,112.53,265,298.75,265,509.42,0,341.71-282.36,619.11-623.39,622v-88.7C6147.22,2904.74,6389.88,2667.07,6389.88,2374.3Z" transform="translate(-27 -248.96)"/><path class="cls-18" d="M5838.4,3075.65l-163-111.47a15,15,0,0,1,0-24.82l163-111.48a15,15,0,0,1,23.52,12.41v222.94a15,15,0,0,1-23.52,12.42Z" transform="translate(-27 -248.96)"/><path class="cls-13" d="M6127.06,2306.53l-267,221.38-67.3,55.82a88.05,88.05,0,0,1-124-11.59c-.93-1.12-1.82-2.25-2.69-3.41l-103.8-138.37a70.79,70.79,0,0,1,113.26-84.94l70.08,93.44.56-.46,290.47-240.85a70.79,70.79,0,1,1,90.35,109h0Z" transform="translate(-27 -248.96)"/><path class="cls-13" d="M6127.06,2306.53l-267,221.38a358.59,358.59,0,0,1-113.88-89.47l290.47-240.89a70.79,70.79,0,1,1,90.35,109h0Z" transform="translate(-27 -248.96)"/><path class="cls-25" d="M3931.06,423.36,3353.93,250.18a28.82,28.82,0,0,0-16.56,0L2760.23,423.32a28.85,28.85,0,0,0-20.6,27.64v634.85c0,255.15,389.1,482.14,597.45,547a28.88,28.88,0,0,0,17.31,0c208.12-64.87,597.22-291.86,597.22-547V451A28.86,28.86,0,0,0,3931.06,423.36Z" transform="translate(-27 -248.96)"/><path class="cls-26" d="M3345.62,1512.41a28.86,28.86,0,0,1-28.86-28.86h0V912.71a28.86,28.86,0,0,1,28.86-28.86h461.71a28.86,28.86,0,0,1,28.85,28.86v173.14c0,148.21-253.36,342.82-480.81,424.83A29.49,29.49,0,0,1,3345.62,1512.41Z" transform="translate(-27 -248.96)"/><path class="cls-27" d="M3345.62,941.57H2883.91a28.86,28.86,0,0,1-28.85-28.86V536.88a28.85,28.85,0,0,1,20.54-27.65l461.71-138.51a28.86,28.86,0,0,1,37.17,27.65V912.71A28.86,28.86,0,0,1,3345.62,941.57Z" transform="translate(-27 -248.96)"/><path class="cls-28" d="M244.17,2195.33,93.83,2579.54l133.63-100.22,104,20.57C373.05,2391,421,2296.06,473.19,2213.1Z" transform="translate(-27 -248.96)"/><path class="cls-28" d="M912.35,2863.5,528.14,3013.84l100.21-133.66-20.57-104c108.91-41.59,203.83-89.55,286.79-141.73Z" transform="translate(-27 -248.96)"/><path class="cls-29" d="M407.05,2727.87l-27.24-27.25c-68.84-52-170.17-21.74-206.26,57.63L27,3080.67l322.42-146.55C428.79,2898,459.05,2796.7,407.05,2727.87Z" transform="translate(-27 -248.96)"/><path class="cls-30" d="M1463.63,1644.05S661.79,1577.18,311,2496l117.86,117.87,65,65L611.7,2796.7C1530.43,2445.88,1463.63,1644.05,1463.63,1644.05Z" transform="translate(-27 -248.96)"/><polygon class="cls-28" points="694.06 2137.64 527.01 2137.64 317.38 2514.32 694.06 2286.36 694.06 2137.64"/><path class="cls-31" d="M966.36,1748.18l393.13,393.14c123.2-267.41,104.11-497.27,104.11-497.27S1233.77,1625,966.36,1748.18Z" transform="translate(-27 -248.96)"/><circle class="cls-32" cx="918.63" cy="1912.95" r="188.98"/><path class="cls-24" d="M945.76,2281.18a119.22,119.22,0,0,1-84.35-203.56c46.5-46.5,122.2-46.5,168.68,0a24.78,24.78,0,0,1-35,35.05,69.71,69.71,0,1,0,0,98.58h0a24.78,24.78,0,0,1,35,35.05h0A118.92,118.92,0,0,1,945.76,2281.18Z" transform="translate(-27 -248.96)"/></svg>