<svg id="Слой_2" data-name="Слой 2" xmlns="http://www.w3.org/2000/svg" viewBox="0 0 2300.91 1438.88"><defs><style>.cls-1{fill:#f1f2f7;}.cls-2{fill:#010117;}.cls-3{fill:#bed2fa;}.cls-4{fill:#ff9a33;}.cls-5{fill:#060632;}.cls-6{fill:#006fce;}.cls-7{fill:#008aff;}.cls-8{fill:#fc9290;}.cls-19,.cls-9{fill:#e75755;}.cls-10{fill:#ffc933;}.cls-11{fill:#ea8888;}.cls-12{fill:#0b0754;}.cls-13{fill:#fa7269;}.cls-14{fill:#120e59;}.cls-15{fill:#fa3;}.cls-16{fill:#ed6966;}.cls-17{fill:#3662c1;}.cls-18{fill:#6d89cf;}.cls-19{opacity:0.4;}.cls-20{fill:#dee9fd;}.cls-21{fill:#c1d4fa;}.cls-22{fill:#9e332e;}.cls-23{fill:#364aa3;}.cls-24{fill:#fff;}</style></defs><title>optimized website</title><path class="cls-1" d="M3048.55,1809.07s242.93,19,317.75-123.19c111.24-211.5-105-382-261.81-351.29-341.77,66.87-259.47-670.91-808-520.34-154.23,42.34-570.93-209.17-687.15,194.11-27.64,95.9-125.55,106.46-267.69,167.31-278.18,119.09-151,635.41,47.78,637.43S3048.55,1809.07,3048.55,1809.07Z" transform="translate(-1095.99 -374.98)"/><path class="cls-2" d="M3354.21,1813.86H1219.28a1.91,1.91,0,0,1-1.9-1.91h0a1.91,1.91,0,0,1,1.9-1.9H3354.21a1.91,1.91,0,0,1,1.9,1.9h0A1.91,1.91,0,0,1,3354.21,1813.86Z" transform="translate(-1095.99 -374.98)"/><path class="cls-3" d="M1975.44,919.2l-28-.64c9,11.67,11,22.42,5.42,31.51-5.6,9.28-19,16.91-39,22.7a362.2,362.2,0,0,0-480.06-460c-5.33,2.3-10.66,4.69-15.81,7.17l0,0c-15.57-4.75-30.73-8.64-45.36-11.61-73.84-15-126.24-4.63-147.53,29.17-20.26,32.13-9.23,80.51,31,136.93l0,0c-5.42,10-10.29,20.3-14.79,31-3.4,8-6.43,16-9.19,24.16-75.52,4.51-116,17.8-130.65,41.87-17.09,28,6.25,65.63,81,102.2,10.29,5,21.31,10,32.89,15a354.12,354.12,0,0,0,26,98.49,362,362,0,0,0,665.48,3.4c36.84-7.63,61.1-19.57,70.74-35.37C1984.08,944.19,1983.25,932.06,1975.44,919.2ZM1889,978.46c-24.54,4.41-55.13,7-90.87,7.35-55.46.68-119.16-3.7-186.28-12.55q8.48-18.43,16.59-37.85a511.64,511.64,0,0,0,60.32,16.4c22.08,4.49,42.24,6.7,60.23,6.7,42.17,0,72.38-12.18,87.3-35.86a61.52,61.52,0,0,0,6-12.41h-21.49c-.36.66-.74,1.3-1.13,1.93-11.09,17.6-35.86,26.68-70.63,26.68-16.63,0-35.57-2.08-56.38-6.3a491.12,491.12,0,0,1-56.77-15.36q7.75-19.43,15.07-39.55c13.1-36.13,24.32-71.94,33.39-106.33q62,9.13,132.91,9.15,44,0,91.26-3.55a342.77,342.77,0,0,1,7,69.34A338.75,338.75,0,0,1,1889,978.46Zm-447.85,179.42c-10.46-3.79-15.76-18.8-18.37-30.72-4.13-18.83-4.88-45.29-2.16-76.51,1.37-15.79,3.58-32.58,6.55-50.14a931,931,0,0,1,126.61,43.81c-9.31,16-18.72,30.93-28.13,44.42-17.93,25.7-35.47,45.53-50.71,57.34C1465.29,1153.56,1451.59,1161.67,1441.14,1157.88Zm122.1-130.36a950.15,950.15,0,0,0-132.64-45.93q2.39-12.23,5.21-24.87,18.74,4.26,38,8.24c37.53,7.67,75,14.19,111.61,19.46Q1574.53,1007,1563.24,1027.52Zm-81.18-76.16q-21.76-4.47-42.84-9.34c6.61-27.51,14.73-56.19,24.22-85.42,49.28,30.3,99.41,54.95,146.87,72.44q-8.93,21.33-18.32,41.49C1555.94,965.36,1519.06,959,1482.06,951.36ZM1361.67,580A225.4,225.4,0,0,0,1375,603.45c24.92,38.5,57.82,66.42,81,83a396.25,396.25,0,0,0,42.65,26.55c-13.77,30-26.88,62-38.93,95.25q-3.37,9.3-6.57,18.56c-72-46.87-133-100.65-173-152.7l0,0a341.85,341.85,0,0,1,34.35-48.4c5.33-6.25,10.84-12.31,16.63-18.19l2.39-2.39A345.47,345.47,0,0,1,1361.67,580Zm307.89-51.94c10.46,3.79,15.77,18.8,18.38,30.72,4.12,18.84,4.87,45.3,2.16,76.52-3,34.17-9.82,73-20,114.32q-18.45-3.18-36-7.2c-40.42-9.3-77.27-22-110.18-38,19.64-40.95,40.4-77.47,61.16-107.22,17.93-25.71,35.47-45.54,50.71-57.35,8-6.16,18.66-12.76,28-12.76A16.87,16.87,0,0,1,1669.56,528.06ZM1628.47,760.8q18,4.17,36.86,7.44c-8.84,33.26-19.73,67.89-32.41,102.87q-7.34,20.22-15.16,39.75c-47.65-17.49-98.22-42.51-147.94-73.42q3.86-11.27,8-22.6c11.79-32.49,24.58-63.77,38-93.05C1549.56,738.17,1587.25,751.23,1628.47,760.8Zm187.2-155.64A339.66,339.66,0,0,1,1904,758c-78.58,5.75-150.58,4-215-5.37,10.21-41.73,17.09-81,20.11-115.67,3.33-38.29,2.92-83.65-12.6-109.18,3.59,1.39,7.18,2.83,10.74,4.34A338.47,338.47,0,0,1,1815.67,605.16Zm-241-99.87a341.22,341.22,0,0,1,69.55,7.09c-26.79,11.66-54.13,44.1-74.88,73.86-21.24,30.44-42.46,67.71-62.49,109.43a380.06,380.06,0,0,1-38.31-23.8c-39.84-28.27-63.7-57.86-76.71-77.71a201.15,201.15,0,0,1-14.53-26,341.51,341.51,0,0,1,44.06-26.58h0q9.39-4.74,19.12-8.89l1.4-.6.33-.14c1.38-.58,2.77-1.15,4.16-1.71l1.12-.45A338.63,338.63,0,0,1,1574.67,505.29ZM1241.62,548c11.08-17.59,35.85-26.67,70.62-26.67,16.64,0,35.57,2.08,56.38,6.3q11.85,2.4,24.18,5.65h0a356.4,356.4,0,0,0-74.13,57.14c-4.68,4.59-9.18,9.37-13.59,14.33-5.52,6.07-10.75,12.4-15.81,18.84a366.24,366.24,0,0,0-22.41,32.06l0,0C1236.13,610,1226.89,571.31,1241.62,548Zm18.82,165.63c3-7,6.16-13.88,9.56-20.58v0c42.11,52.63,104.18,106.44,176.7,153.1-10.29,31.3-19.06,62.06-26.14,91.54-52.76-12.77-101.66-27.21-144.51-42.67-9-3.22-17.73-6.53-26.09-9.83-5-1.93-9.83-4-14.61-6-.73-7.35-1.29-14.79-1.47-22.23-.09-3.59-.18-7.08-.18-10.66,0-4.13.09-8.36.18-12.5a344.85,344.85,0,0,1,15.62-90.4c1.56-5,3.22-9.84,5-14.7C1256.4,723.59,1258.33,718.54,1260.44,713.58ZM1199,862.79c-65.14-31.79-94.91-62.48-81.59-84.25,10.75-17.65,49.89-29.59,109.79-34A351.63,351.63,0,0,0,1213.59,821c-.56,7.72-.83,15.44-.92,23.25v2c0,7.81.27,15.62.73,23.34C1208.44,867.38,1203.66,865.09,1199,862.79Zm49.43,39.05c8.82,3.3,17.82,6.61,27.1,9.83,42.66,14.78,90.48,28.52,141.63,40.71q-2.79,12.42-5.14,24.49-6.27-1.51-12.55-3c-70.72-16.09-123.78-19.37-148.38-19.92a332.18,332.18,0,0,1-13.41-56.29Zm12,77.08q-1.14-2.73-2.25-5.48c26.24,1,74.87,5,137,19.17,4.45,1,8.89,2.07,13.33,3.15-3.2,18.65-5.56,36.47-7,53.22-2.76,31.74-3,68.33,5.89,94.46a342.91,342.91,0,0,1-147-164.52Zm446.9,181.46a342.11,342.11,0,0,1-236,10.88c25.22-13.22,50.56-43.58,70.07-71.55,10.07-14.43,20.13-30.4,30.06-47.63a963.48,963.48,0,0,1,164,94.89Q1721.75,1154.27,1707.34,1160.38Zm108.33-73a338.6,338.6,0,0,1-62,49.15,983.06,983.06,0,0,0-172.83-101.19q12.47-22.86,24.5-48.12c55.35,7.34,108.56,11.74,157.14,12.87,12.68.37,25,.37,36.93.28,31-.37,58.53-2.2,82.14-5.51A338.71,338.71,0,0,1,1815.67,1087.34Z" transform="translate(-1095.99 -374.98)"/><path class="cls-4" d="M2697.72,1077.26s68.16,67.08,71.28,92.37-30.91,64.87-30.91,64.87Z" transform="translate(-1095.99 -374.98)"/><path class="cls-5" d="M2673.12,1774s-2.21,35.66-9.11,36.17c-.91.07-35,.07-35,.07l-43.49-.25s.28-10.48,13-12.7,34-11.15,41.69-28C2648.33,1751.62,2673.12,1774,2673.12,1774Z" transform="translate(-1095.99 -374.98)"/><path class="cls-5" d="M2770,1774s-2.21,35.66-9.11,36.17c-.92.07-35,.07-35,.07l-43.5-.25s.28-10.48,13-12.7,34-11.15,41.69-28C2745.21,1751.62,2770,1774,2770,1774Z" transform="translate(-1095.99 -374.98)"/><path class="cls-6" d="M2625,1390.72s11.38,72.75,53.82,201.91S2727,1777.72,2727,1777.72l45.52-1.28s.39-141.15-19.17-206.1-4.22-234.15-4.22-234.15Z" transform="translate(-1095.99 -374.98)"/><path class="cls-7" d="M2602.8,1340.18s-1.61,109.64,17.36,244.26,12.54,191.77,12.54,191.77l45.43,1.51s27.15-134.67,19.37-202,37.18-231.22,37.18-231.22Z" transform="translate(-1095.99 -374.98)"/><path class="cls-8" d="M2690.75,1083.6l-21.43,15.87-31-6.52c.43-2.82,2.48-14.53,4.34-25.13q.17-.94.33-1.86c1.59-9,3-16.77,3-16.77l28.93-14.42,10.78-5.38c0,.19-.83,10-.95,11.45C2682.73,1066.3,2690.75,1083.6,2690.75,1083.6Z" transform="translate(-1095.99 -374.98)"/><path class="cls-9" d="M2640.52,1075.59c.68-.28,42.13-12.52,46.63-11s7.17,10.2,7.17,10.2l-67.8,15.33S2631.86,1079.24,2640.52,1075.59Z" transform="translate(-1095.99 -374.98)"/><path class="cls-10" d="M2752.14,1353.71c-7,32.06-124,35.86-154.1,6.76-3.43-3.31-3.6-18.74-2.31-39.55,2.53-40.64,10.65-101.78,11-133a248,248,0,0,1,5-44.52,361.5,361.5,0,0,1,14.83-53.3s57.11-18.46,67.8-15.32C2745.81,1089.89,2759.17,1321.66,2752.14,1353.71Z" transform="translate(-1095.99 -374.98)"/><path class="cls-4" d="M2595.73,1320.92c2.53-40.64,10.65-101.78,11-133a248,248,0,0,1,5-44.52l34.36-6.07S2679.64,1274.52,2595.73,1320.92Z" transform="translate(-1095.99 -374.98)"/><path class="cls-8" d="M2614.34,1264.27s2.34,5.6-2.58,9.36-8.11,9.84-7,14.29,11.92,11.71,15.66,10.54,11.35-7,10.53-9.38,5.12-20.59-4-27.62S2614.34,1264.27,2614.34,1264.27Z" transform="translate(-1095.99 -374.98)"/><path class="cls-10" d="M2652.69,1083s-33.44,5.16-60.14,44.51-44.26,68.6-39.34,82.77,49.74,63.37,57.47,63.37,20.2-5.62,20.91-18.27c0,0-31.57-47.31-25.35-54.39,2.66-3,41-34.14,46.45-20.08C2661.74,1204.12,2652.69,1083,2652.69,1083Z" transform="translate(-1095.99 -374.98)"/><path class="cls-11" d="M2682.58,1041.29c-6.35,12.15-30,22.67-39.89,26.53q.17-.94.33-1.86c1.59-9,3-16.77,3-16.77l28.93-14.42C2681.31,1034.67,2685.2,1036.29,2682.58,1041.29Z" transform="translate(-1095.99 -374.98)"/><path class="cls-8" d="M2631.93,1047.49s52.19,16.28,61.83-16.37,22.86-52.55-10.05-64.32-43.09-1.24-49,8.88S2618.61,1042.42,2631.93,1047.49Z" transform="translate(-1095.99 -374.98)"/><path class="cls-12" d="M2642.93,973.78s3,39.2,10.9,37.43,15.05-3.09,13.8,8.75-12.29,25.58,12,27.47,59.68-62.9,53.11-75.05C2713.76,937.32,2615.48,931,2642.93,973.78Z" transform="translate(-1095.99 -374.98)"/><path class="cls-13" d="M3011.19,1332.08s-20,5.14-32.74,1.31-34.63,2.46-38.16,7.1-2.23,6.49,4.07,8.09,28.59,11.11,43.24,5.6,33.76-5.7,33.76-5.7Z" transform="translate(-1095.99 -374.98)"/><path class="cls-6" d="M3184.17,1158.21s-22.48,159.81-59.71,174.13c-18.38,7.06-99.57,23.07-123.59,24.68,0,0-5.88-4.78-4.45-24.2,0,0,85.07-31.23,97.15-48.22,18-25.27-11.16-103.26,11.41-127S3165.56,1123.66,3184.17,1158.21Z" transform="translate(-1095.99 -374.98)"/><path class="cls-14" d="M3181.3,1774.28v-35.15h54.86a2.7,2.7,0,0,0,2.69-2.69v-5.58a2.7,2.7,0,0,0-2.69-2.69H3181.3V1529.82a10.14,10.14,0,0,0-10.12-10.12h-10.85a10.14,10.14,0,0,0-10.12,10.12v198.35h-54.86a2.7,2.7,0,0,0-2.69,2.69v5.58a2.7,2.7,0,0,0,2.69,2.69h54.86v35.15c-39.7,3-71.49,17.29-80.41,35.76h191.91C3252.79,1791.57,3221,1777.28,3181.3,1774.28Z" transform="translate(-1095.99 -374.98)"/><path class="cls-15" d="M3176.6,1494.9a280.6,280.6,0,0,1-22,31.43c-24.17,30.51-50.47,55.66-55.06,79.44a106.37,106.37,0,0,1-4.24,15.22c-1.92,5.44-4.28,11.17-7,17.09-10.26,22.28-25.6,47.24-40.91,69.93-26.47,39.22-51.36,72-51.36,72l-45.64-2c1.82-4.57,21.73-58.73,48.37-124.91,10.81-26.87,22.31-55.45,33.41-83q2.22-5.52,4.42-11c3.39-8.44,6.73-16.74,10-24.83,25-62.14,44.92-111.62,44.92-111.62s99.95-37.87,110.33-13.33C3210.41,1429.57,3203.44,1449.38,3176.6,1494.9Z" transform="translate(-1095.99 -374.98)"/><path class="cls-5" d="M2994.63,1771.66s-2.24,37.85-9.53,38.39c-1,.07-83.36,0-83.36,0s.66-11.45,14.09-13.79,35.91-11.78,44-29.53C2968.43,1748.06,2994.63,1771.66,2994.63,1771.66Z" transform="translate(-1095.99 -374.98)"/><path class="cls-5" d="M3100.32,1664.05s31.75,20.4,28.67,27c-.41.88-17.95,32.31-17.95,32.31l-22.63,40s-9.52-5.66-5-18.52,7.22-37.1-4.31-52.86C3067,1675.42,3100.32,1664.05,3100.32,1664.05Z" transform="translate(-1095.99 -374.98)"/><path class="cls-10" d="M3058.16,1404.26s-126.25,78.58-140.26,131.1,166.89,164.55,166.89,164.55,19.84-17.5,23.34-30.34c0,0-81.76-98-99.5-119.92-10.89-13.49,161.06-46.69,182.07-79.36s13.49-60.17,13.49-60.17Z" transform="translate(-1095.99 -374.98)"/><rect class="cls-11" x="1932.04" y="1130.06" width="275.44" height="70.03" rx="9.34" ry="9.34"/><path class="cls-13" d="M3176.15,1128.05s-49.83,27.86-79.89,20.08a71,71,0,0,1,19.12-17.31c-.66-2.93-1.23-5.68-1.73-8.24a197.25,197.25,0,0,1-3.39-23.22l22.95-20.57,15.44,3.27c.3,1.52.62,3,1,4.44C3156.8,1115.06,3176.15,1128.05,3176.15,1128.05Z" transform="translate(-1095.99 -374.98)"/><path class="cls-7" d="M3208,1272.72c-4.31,57.91,1.35,146-3.53,161.22-4.22,13.16-52.24,5.33-71.41,1-7.1-1.63-15.69-4-24.56-6.7-24.76-7.67-51.74-18.61-54.64-26.74a8.84,8.84,0,0,1-.26-.94h0c0-.21-.08-.41-.11-.61a7.63,7.63,0,0,1,.16-2.78c1-4.14,4.68-8.62,5.12-18.88.49-11.45.42-24.94.85-39.44,0-1.63,0-3.42.22-5v-.59c0-.32,0-.62,0-.93.41-16.17,1.26-33.18,2.24-50,.62-10.6,1.35-21.09,2.17-31.13,2.16-25.94,5.07-49,8.92-63.59,6.3-23.77,20.17-39.28,32.81-50.64l9.14-7.84c10.19,2.23,22.25.75,33.15-4.41,11.79-5.6,15.87-9.62,17.93-8.1C3193.46,1137.51,3213.06,1201.94,3208,1272.72Z" transform="translate(-1095.99 -374.98)"/><path class="cls-6" d="M3108.48,1428.19c-24.76-7.67-51.74-18.61-54.64-26.74a8.84,8.84,0,0,1-.26-.94h0a1.92,1.92,0,0,0-.11-.61,7.63,7.63,0,0,1,.16-2.78c1-4.14,4.68-8.62,5.12-18.88.49-11.45.42-24.94.85-39.44,0-1.63,0-3.42.22-5v-.59c0-.32,0-.62,0-.93l93.52-42.42S3158.76,1365.19,3108.48,1428.19Z" transform="translate(-1095.99 -374.98)"/><path class="cls-16" d="M3149.64,1086.5c-3.4,8.58-13.57,28.83-36,36.08a197.25,197.25,0,0,1-3.39-23.22l22.95-20.57,15.44,3.27C3149,1083.58,3149.27,1085.05,3149.64,1086.5Z" transform="translate(-1095.99 -374.98)"/><path class="cls-13" d="M3101.18,1099.14s49.25,5.55,52.24-25.17,11.36-50.7-20-55.55-38.58,6.28-42.07,16.3S3088.45,1096.9,3101.18,1099.14Z" transform="translate(-1095.99 -374.98)"/><path class="cls-12" d="M3153.21,1076.09s-3.12-40.79-48-45c-30.71-2.89-13.58-29.33-10.31-33.54,0,0,23.53,3.23,47.64,7.21C3193.2,1013.11,3158.18,1069.74,3153.21,1076.09Z" transform="translate(-1095.99 -374.98)"/><polygon class="cls-17" points="1938.87 988.44 1816.83 991.05 1782.13 884.26 1777.82 885.66 1814.5 998.55 1939.03 995.89 1938.87 988.44"/><path class="cls-13" d="M3021.49,1356.65s-19.33,7.32-32.4,4.91-34.14,6.27-37.13,11.27-1.51,6.69,4.92,7.58,29.64,7.89,43.6.81,32.93-9.39,32.93-9.39Z" transform="translate(-1095.99 -374.98)"/><path class="cls-7" d="M3174.25,1164.77s-4.73,161.31-40.16,179.65c-17.48,9-96.41,33.9-120.1,38.15,0,0-6.38-4.09-7.09-23.56,0,0,81.1-40.42,91.24-58.63,15.09-27.11-22.48-101.4-2.67-127.49S3151.94,1132.48,3174.25,1164.77Z" transform="translate(-1095.99 -374.98)"/><path class="cls-9" d="M1837.93,1178.68l-50,595.1s-5.24,36.07,21.59,36.13c44.12.11,219.59,0,219.59,0s-33.2-7.5-32.8-24.4c.48-19.92,58.5-612.46,58.5-612.46Z" transform="translate(-1095.99 -374.98)"/><path class="cls-11" d="M2043.3,1799.12c-8.68,0-176.27.55-219.24,0-18.72-.24-22-16.65-22.16-27.27a52.73,52.73,0,0,1,.57-8.86l1.3-15.47,3.32-39.42,2.93-34.83,3.76-44.76,3.17-37.77,35.56-422.86,216.83-5.63s-24.44,248-41.72,428.49c-1.93,20.11-3.77,39.39-5.46,57.39-.56,5.75-1.08,11.37-1.6,16.84-1.6,17.08-3.07,32.76-4.34,46.61-.67,7.3-1.29,14.08-1.85,20.29-2.21,24.34-3.5,39.89-3.52,42.84a25.22,25.22,0,0,0,.42,4.82C2014.83,1798.5,2040,1799.12,2043.3,1799.12Z" transform="translate(-1095.99 -374.98)"/><polygon class="cls-11" points="215.37 479.88 337.28 969.56 353.97 1036.63 410.75 1264.71 1465.63 1264.71 1256.35 479.88 215.37 479.88"/><polygon class="cls-11" points="215.37 479.87 198.47 485.51 388.29 1281.75 410.75 1264.71 215.37 479.87"/><polygon class="cls-9" points="388.29 1281.75 1436.68 1281.75 1465.63 1264.71 410.75 1264.71 388.29 1281.75"/><rect class="cls-11" x="756.45" y="1424.37" width="226.99" height="10.79"/><polygon class="cls-18" points="1414.53 1120.09 1243.36 490.25 213.68 490.25 213.68 479.87 1256.35 479.87 1426.94 1118.69 1414.53 1120.09"/><polygon class="cls-9" points="925.74 1281.74 924.57 1289.99 711.1 1333.12 714.03 1298.29 715.42 1281.74 925.74 1281.74"/><path class="cls-19" d="M2043.3,1799.12c-8.68,0-176.27.55-219.24,0-18.72-.24-22-16.65-22.16-27.27l212.47-40c-2.21,24.34-3.5,39.89-3.52,42.84a25.22,25.22,0,0,0,.42,4.82C2014.83,1798.5,2040,1799.12,2043.3,1799.12Z" transform="translate(-1095.99 -374.98)"/><polygon class="cls-19" points="874.15 1105.83 410.75 1264.71 353.97 1036.63 874.15 1105.83"/><polygon class="cls-18" points="215.37 479.87 1256.35 479.87 1425.25 1110.64 367.04 1110.64 215.37 479.87"/><path class="cls-9" d="M2062.15,1565.35c-3-15.47-18-28-33.45-28s-25.58,12.54-22.57,28,18,28,33.45,28S2065.16,1580.82,2062.15,1565.35Z" transform="translate(-1095.99 -374.98)"/><polygon class="cls-20" points="1376.15 1083.3 401.48 1083.3 291.1 643.59 282.64 609.87 275.42 581.1 258.49 513.66 1219.12 513.66 1237.71 581.1 1245.64 609.87 1254.93 643.59 1376.15 1083.3"/><polygon class="cls-21" points="1237.71 581.1 275.42 581.1 258.49 513.66 1219.12 513.66 1237.71 581.1"/><path class="cls-20" d="M1400.55,910.69c-4.66,0-7.49,3.78-6.33,8.43a11.51,11.51,0,0,0,10.53,8.43c4.66,0,7.49-3.77,6.33-8.43A11.52,11.52,0,0,0,1400.55,910.69Z" transform="translate(-1095.99 -374.98)"/><path class="cls-20" d="M1428.56,910.69c-4.65,0-7.49,3.78-6.33,8.43a11.52,11.52,0,0,0,10.54,8.43c4.65,0,7.49-3.77,6.33-8.43A11.53,11.53,0,0,0,1428.56,910.69Z" transform="translate(-1095.99 -374.98)"/><path class="cls-20" d="M1469.26,919.12a11.53,11.53,0,0,0-10.53-8.43c-4.66,0-7.49,3.78-6.33,8.43a11.5,11.5,0,0,0,10.53,8.43C1467.59,927.55,1470.42,923.78,1469.26,919.12Z" transform="translate(-1095.99 -374.98)"/><path class="cls-13" d="M2166.75,1153.08c-7-28.22-35.75-51.18-64-51.18-13.62,0-25.23,5.26-32.68,14.8-7.77,9.94-10.1,23.22-6.57,37.38,7,28.23,35.75,51.19,64,51.19,13.63,0,25.23-5.26,32.69-14.8C2168,1180.53,2170.28,1167.25,2166.75,1153.08Zm-9.83,34.84c-6.65,8.52-17.1,13.21-29.43,13.21-26.46,0-53.37-21.55-60-48.05-3.22-12.9-1.15-24.92,5.82-33.84,6.65-8.51,17.1-13.21,29.42-13.21,26.47,0,53.38,21.56,60,48C2166,1167,2163.89,1179,2156.92,1187.92Z" transform="translate(-1095.99 -374.98)"/><polygon class="cls-13" points="1025.63 790.16 1020.48 754.18 1020.08 752.55 1005.59 752.55 1005.99 754.18 1018.79 790.16 1025.63 790.16"/><polygon class="cls-13" points="1017.2 796.51 1020.45 809.53 1033.63 809.53 1030.38 796.51 1017.2 796.51"/><path class="cls-13" d="M2198.21,1275.31c-7-28.22-35.74-51.18-64-51.18-13.62,0-25.23,5.25-32.69,14.79-7.77,9.95-10.1,23.22-6.57,37.39,7,28.22,35.75,51.18,64,51.18,13.62,0,25.23-5.25,32.68-14.79C2199.41,1302.75,2201.74,1289.48,2198.21,1275.31Zm-9.82,34.84c-6.66,8.52-17.11,13.21-29.43,13.21-26.47,0-53.38-21.56-60-48-3.22-12.91-1.16-24.92,5.81-33.84,6.66-8.52,17.11-13.21,29.43-13.21,26.46,0,53.37,21.56,60,48C2197.42,1289.22,2195.35,1301.23,2188.39,1310.15Z" transform="translate(-1095.99 -374.98)"/><polygon class="cls-13" points="1057.09 912.38 1051.95 876.41 1051.54 874.78 1037.05 874.78 1037.46 876.41 1050.25 912.38 1057.09 912.38"/><polygon class="cls-13" points="1048.66 918.73 1051.91 931.76 1065.1 931.76 1061.85 918.73 1048.66 918.73"/><path class="cls-21" d="M2306.07,1137.37c3.2,0,5.17-2.62,4.37-5.83a8,8,0,0,0-7.27-5.82H2199.44c-3.2,0-5.17,2.62-4.37,5.82a8,8,0,0,0,7.27,5.83Z" transform="translate(-1095.99 -374.98)"/><path class="cls-21" d="M2293.23,1054.63a8,8,0,0,0-7.28-5.83H2182.23c-3.21,0-5.17,2.62-4.37,5.83a8,8,0,0,0,7.27,5.82h103.73C2292.06,1060.45,2294,1057.83,2293.23,1054.63Z" transform="translate(-1095.99 -374.98)"/><path class="cls-21" d="M2311.6,1159.56c3.21,0,5.17-2.63,4.37-5.83a8,8,0,0,0-7.27-5.82H2205c-3.2,0-5.17,2.62-4.37,5.82a8,8,0,0,0,7.28,5.83Z" transform="translate(-1095.99 -374.98)"/><path class="cls-21" d="M2321.51,1175.92a8,8,0,0,0-7.28-5.83H2210.5c-3.2,0-5.17,2.63-4.37,5.83a8,8,0,0,0,7.28,5.82h103.72C2320.34,1181.74,2322.3,1179.12,2321.51,1175.92Z" transform="translate(-1095.99 -374.98)"/><path class="cls-21" d="M2337.53,1259.59c3.21,0,5.18-2.62,4.38-5.82a8,8,0,0,0-7.28-5.82H2230.9c-3.2,0-5.17,2.62-4.37,5.82a8,8,0,0,0,7.28,5.82Z" transform="translate(-1095.99 -374.98)"/><path class="cls-21" d="M2343.07,1281.78c3.2,0,5.17-2.62,4.37-5.82a8,8,0,0,0-7.28-5.83H2236.44c-3.21,0-5.17,2.62-4.38,5.83a8,8,0,0,0,7.28,5.82Z" transform="translate(-1095.99 -374.98)"/><path class="cls-21" d="M2353,1298.15a8,8,0,0,0-7.28-5.83H2242c-3.21,0-5.17,2.62-4.37,5.83a8,8,0,0,0,7.27,5.82H2348.6C2351.8,1304,2353.77,1301.35,2353,1298.15Z" transform="translate(-1095.99 -374.98)"/><path class="cls-21" d="M2288.86,1030.14l-7.24-29c-1.32-5.33-6.77-9.69-12.09-9.69H1438.15c-5.33,0-8.6,4.36-7.27,9.69l7.24,29c1.33,5.33,6.77,9.68,12.09,9.68H2281.6C2286.92,1039.82,2290.19,1035.47,2288.86,1030.14Z" transform="translate(-1095.99 -374.98)"/><path class="cls-13" d="M2027.5,991.42l12.07,48.4H1450.21c-5.32,0-10.76-4.35-12.09-9.68l-7.24-29c-1.33-5.33,1.94-9.69,7.27-9.69Z" transform="translate(-1095.99 -374.98)"/><polygon class="cls-17" points="1037.38 631.74 1038.31 635.46 1047.5 635.46 1042.7 651.31 1047.57 651.31 1052.28 634.99 1051.47 631.74 1037.38 631.74"/><path class="cls-17" d="M2158.47,1006.39c-5.2,0-7.61,4.44-6.2,10.12s6,10.12,11.19,10.12,7.62-4.45,6.2-10.12S2163.65,1006.39,2158.47,1006.39Zm4.08,16.35c-2.6,0-5-2.65-5.86-6.23s.12-6.24,2.7-6.24,5,2.69,5.86,6.24S2165.15,1022.74,2162.55,1022.74Z" transform="translate(-1095.99 -374.98)"/><path class="cls-17" d="M2195.32,1021.51a6.43,6.43,0,0,0-6-5c-2.85,0-4.22,2.24-3.53,5a6.43,6.43,0,0,0,6,5C2194.63,1026.52,2196,1024.25,2195.32,1021.51Zm-4.12,2.46c-1.12,0-2.13-1.14-2.45-2.46s0-2.46,1.17-2.46,2.13,1.15,2.46,2.46S2192.38,1024,2191.2,1024Z" transform="translate(-1095.99 -374.98)"/><polygon class="cls-17" points="1090.35 631.74 1080.94 651.31 1084.27 651.31 1093.68 631.74 1090.35 631.74"/><path class="cls-17" d="M2180.8,1011.5a6.43,6.43,0,0,0-6-5c-2.85,0-4.22,2.24-3.53,5a6.43,6.43,0,0,0,6,5C2180.12,1016.51,2181.48,1014.24,2180.8,1011.5Zm-6.57,0c-.34-1.34,0-2.46,1.17-2.46s2.13,1.15,2.46,2.46,0,2.46-1.17,2.46S2174.55,1012.82,2174.23,1011.5Z" transform="translate(-1095.99 -374.98)"/><path class="cls-21" d="M1988.55,1249.6c6,0,9.72-4.89,8.21-10.93h0c-1.51-6-7.62-10.94-13.66-10.94H1498.32c-6,0-9.72,4.9-8.21,10.94h0c1.51,6,7.62,10.93,13.66,10.93Z" transform="translate(-1095.99 -374.98)"/><path class="cls-21" d="M1997.6,1285.91c6,0,9.72-4.9,8.21-10.94s-7.62-10.93-13.66-10.93H1507.37c-6,0-9.71,4.89-8.21,10.93s7.63,10.94,13.67,10.94Z" transform="translate(-1095.99 -374.98)"/><path class="cls-21" d="M2015.27,1312.89c-1.51-6-7.63-10.93-13.67-10.93H1516.83c-6,0-9.72,4.89-8.21,10.93s7.62,10.94,13.66,10.94h484.78C2013.1,1323.83,2016.77,1318.93,2015.27,1312.89Z" transform="translate(-1095.99 -374.98)"/><path class="cls-21" d="M1723.27,1190.59c1.89,7.59,9.58,13.74,17.17,13.74h54.07c7.59,0,12.21-6.15,10.32-13.74l-26.14-104.83c-1.89-7.59-9.58-13.74-17.17-13.74h-54.07c-7.59,0-12.21,6.15-10.32,13.74Z" transform="translate(-1095.99 -374.98)"/><path class="cls-21" d="M1816.85,1190.59c1.9,7.59,9.58,13.74,17.18,13.74h54.07c7.59,0,12.21-6.15,10.32-13.74l-26.14-104.83c-1.89-7.59-9.58-13.74-17.17-13.74H1801c-7.6,0-12.22,6.15-10.32,13.74Z" transform="translate(-1095.99 -374.98)"/><path class="cls-21" d="M1908.69,1190.59c1.89,7.59,9.58,13.74,17.17,13.74h54.07c7.6,0,12.21-6.15,10.32-13.74l-26.13-104.83c-1.9-7.59-9.58-13.74-17.18-13.74h-54.07c-7.59,0-12.21,6.15-10.31,13.74Z" transform="translate(-1095.99 -374.98)"/><path class="cls-21" d="M1704.94,1181.29l-21.5-86.23c-3.17-12.73-16.06-23-28.78-23H1471.6c-12.73,0-20.47,10.31-17.3,23l21.51,86.23c3.17,12.73,16.06,23,28.78,23h183.06C1700.37,1204.33,1708.11,1194,1704.94,1181.29Z" transform="translate(-1095.99 -374.98)"/><path class="cls-17" d="M1652.35,1105.1c2.88,0,4.65-2.36,3.93-5.25h0a7.18,7.18,0,0,0-6.55-5.24h-171a4,4,0,0,0-3.94,5.24h0a7.19,7.19,0,0,0,6.55,5.25Z" transform="translate(-1095.99 -374.98)"/><path class="cls-17" d="M1657.38,1125.27c2.88,0,4.65-2.36,3.93-5.25h0a7.19,7.19,0,0,0-6.55-5.24h-171a4,4,0,0,0-3.94,5.24h0a7.19,7.19,0,0,0,6.55,5.25Z" transform="translate(-1095.99 -374.98)"/><path class="cls-17" d="M1666.34,1140.19a7.19,7.19,0,0,0-6.55-5.24h-171a4,4,0,0,0-3.94,5.24,7.19,7.19,0,0,0,6.55,5.25h171A4,4,0,0,0,1666.34,1140.19Z" transform="translate(-1095.99 -374.98)"/><path class="cls-17" d="M1534.73,1157.54h-40.35a4,4,0,0,0-3.94,5.24A7.19,7.19,0,0,0,1497,1168h40.36c2.88,0,4.65-2.36,3.93-5.25A7.18,7.18,0,0,0,1534.73,1157.54Z" transform="translate(-1095.99 -374.98)"/><path class="cls-21" d="M2418.15,1411.55l-11.28-45.23c-1.66-6.68-8.42-12.09-15.1-12.09h-96c-6.67,0-10.73,5.41-9.07,12.09l11.28,45.23c1.67,6.68,8.42,12.09,15.1,12.09h96C2415.75,1423.64,2419.81,1418.23,2418.15,1411.55Z" transform="translate(-1095.99 -374.98)"/><path class="cls-17" d="M2390.56,1371.58a2.08,2.08,0,0,0,2.07-2.75,3.78,3.78,0,0,0-3.44-2.75h-89.72a2.08,2.08,0,0,0-2.06,2.75,3.76,3.76,0,0,0,3.44,2.75Z" transform="translate(-1095.99 -374.98)"/><path class="cls-17" d="M2393.2,1382.16a2.09,2.09,0,0,0,2.07-2.75,3.78,3.78,0,0,0-3.44-2.75h-89.72a2.08,2.08,0,0,0-2.06,2.75,3.75,3.75,0,0,0,3.43,2.75Z" transform="translate(-1095.99 -374.98)"/><path class="cls-17" d="M2397.9,1390a3.76,3.76,0,0,0-3.43-2.75h-89.72a2.09,2.09,0,0,0-2.07,2.75,3.77,3.77,0,0,0,3.44,2.75h89.72A2.08,2.08,0,0,0,2397.9,1390Z" transform="translate(-1095.99 -374.98)"/><path class="cls-17" d="M2328.87,1399.09H2307.7a2.08,2.08,0,0,0-2.06,2.75h0a3.76,3.76,0,0,0,3.44,2.75h21.16a2.09,2.09,0,0,0,2.07-2.75A3.78,3.78,0,0,0,2328.87,1399.09Z" transform="translate(-1095.99 -374.98)"/><path class="cls-13" d="M1752.33,1378.45a3.12,3.12,0,0,0,3.1-4.12h0a5.65,5.65,0,0,0-5.16-4.13H1567.42a3.12,3.12,0,0,0-3.1,4.13h0a5.65,5.65,0,0,0,5.15,4.12Z" transform="translate(-1095.99 -374.98)"/><path class="cls-13" d="M1755.74,1392.15a3.12,3.12,0,0,0,3.1-4.13h0a5.63,5.63,0,0,0-5.15-4.12H1570.83a3.11,3.11,0,0,0-3.09,4.12h0a5.62,5.62,0,0,0,5.15,4.13Z" transform="translate(-1095.99 -374.98)"/><path class="cls-13" d="M1757.25,1398.2H1574.4a3.12,3.12,0,0,0-3.1,4.12,5.65,5.65,0,0,0,5.16,4.13h182.85a3.12,3.12,0,0,0,3.1-4.13A5.65,5.65,0,0,0,1757.25,1398.2Z" transform="translate(-1095.99 -374.98)"/><path class="cls-13" d="M1988.31,1378.45a3.12,3.12,0,0,0,3.1-4.12h0a5.65,5.65,0,0,0-5.16-4.13H1803.4a3.12,3.12,0,0,0-3.1,4.13h0a5.65,5.65,0,0,0,5.16,4.12Z" transform="translate(-1095.99 -374.98)"/><path class="cls-13" d="M1991.72,1392.15a3.12,3.12,0,0,0,3.1-4.13h0a5.62,5.62,0,0,0-5.15-4.12H1806.81a3.11,3.11,0,0,0-3.09,4.12h0a5.62,5.62,0,0,0,5.15,4.13Z" transform="translate(-1095.99 -374.98)"/><path class="cls-13" d="M1993.23,1398.2H1810.38a3.12,3.12,0,0,0-3.1,4.12,5.65,5.65,0,0,0,5.16,4.13h182.85a3.12,3.12,0,0,0,3.1-4.13A5.65,5.65,0,0,0,1993.23,1398.2Z" transform="translate(-1095.99 -374.98)"/><path class="cls-13" d="M2217,1378.45a3.12,3.12,0,0,0,3.1-4.12h0a5.65,5.65,0,0,0-5.16-4.13H2032.12a3.12,3.12,0,0,0-3.1,4.13h0a5.65,5.65,0,0,0,5.16,4.12Z" transform="translate(-1095.99 -374.98)"/><path class="cls-13" d="M2220.45,1392.15a3.12,3.12,0,0,0,3.09-4.13h0a5.62,5.62,0,0,0-5.15-4.12H2035.53a3.11,3.11,0,0,0-3.09,4.12h0a5.62,5.62,0,0,0,5.15,4.13Z" transform="translate(-1095.99 -374.98)"/><path class="cls-13" d="M2227.11,1402.32a5.65,5.65,0,0,0-5.16-4.12H2039.1a3.12,3.12,0,0,0-3.1,4.12,5.65,5.65,0,0,0,5.16,4.13H2224A3.12,3.12,0,0,0,2227.11,1402.32Z" transform="translate(-1095.99 -374.98)"/><path class="cls-13" d="M2262.48,1429.89H1557.33c-6.23,0-12.56-5.05-14.1-11.25l-14.08-56.48a10,10,0,0,1,1.59-8.71,9.48,9.48,0,0,1,7.68-3.54h705.15c6.23,0,12.56,5,14.11,11.25l14.08,56.48a10.05,10.05,0,0,1-1.6,8.71A9.48,9.48,0,0,1,2262.48,1429.89Zm-724.06-75.84A5.44,5.44,0,0,0,1534,1356a5.91,5.91,0,0,0-.84,5.17l14.08,56.48c1.1,4.4,5.72,8.11,10.09,8.11h705.15a5.44,5.44,0,0,0,4.42-1.94,5.91,5.91,0,0,0,.85-5.17l-14.09-56.48c-1.09-4.4-5.71-8.11-10.09-8.11Z" transform="translate(-1095.99 -374.98)"/><path class="cls-21" d="M1532.84,567.44a1.45,1.45,0,0,0-1.64-1.23l-15.81,2.21a16.5,16.5,0,0,0-8.08-12.45l-1-.56a16.49,16.49,0,0,0-15.44-.56l-6.25-15.67a1.45,1.45,0,1,0-2.69,1.07l6.42,16.1a15.94,15.94,0,0,0-4.58,5l-1.74,3-14.53-8.44a1.45,1.45,0,1,0-1.46,2.51l14.53,8.44-1,1.7a16.16,16.16,0,0,0-1.92,5.1l-19.87,2.78a1.44,1.44,0,0,0-1.23,1.63,1.45,1.45,0,0,0,1.43,1.26l.2,0,19.17-2.68a16.55,16.55,0,0,0,8.19,14.47l1,.56a16.57,16.57,0,0,0,16,.28l6.81,17.09a1.45,1.45,0,0,0,1.35.91,1.47,1.47,0,0,0,.54-.1,1.46,1.46,0,0,0,.81-1.89l-7-17.63a16.45,16.45,0,0,0,4-4.64l1-1.7,14.53,8.44a1.39,1.39,0,0,0,.73.2,1.45,1.45,0,0,0,.73-2.7l-14.54-8.45,1.74-3a15.27,15.27,0,0,0,1.29-2.79,16.25,16.25,0,0,0,.89-4.38l16.14-2.26A1.45,1.45,0,0,0,1532.84,567.44Z" transform="translate(-1095.99 -374.98)"/><path class="cls-22" d="M1513.28,578.51l-4.18,7.2a16.55,16.55,0,0,1-22.54,6l-1-.56a16.53,16.53,0,0,1-6-22.54l4.18-7.2a16.12,16.12,0,0,1,1.78-2.5l29,16.83A15.27,15.27,0,0,1,1513.28,578.51Z" transform="translate(-1095.99 -374.98)"/><path class="cls-21" d="M1201.36,756.88l-18.26-5.18a16.31,16.31,0,0,0-1.22-6l-.74-1.81,15.55-6.37a1.45,1.45,0,1,0-1.1-2.69L1180,741.17l-1.31-3.2a17.1,17.1,0,0,0-1.42-2.72,16.73,16.73,0,0,0-2.94-3.38l8.06-14.17a1.45,1.45,0,1,0-2.53-1.43L1172,730.15a16.49,16.49,0,0,0-14.79-1.19l-1,.42a16.53,16.53,0,0,0-9.86,11.89l-16.23-4.6a1.45,1.45,0,0,0-.79,2.79l16.67,4.73a17.05,17.05,0,0,0,.31,3.76,15.79,15.79,0,0,0,.9,2.94l1.31,3.2-15.56,6.37a1.47,1.47,0,0,0-.79,1.9,1.45,1.45,0,0,0,1.34.9,1.5,1.5,0,0,0,.55-.11l15.56-6.37.74,1.82a16.44,16.44,0,0,0,2.88,4.62l-9.92,17.44a1.45,1.45,0,0,0,.55,2,1.4,1.4,0,0,0,.71.19,1.43,1.43,0,0,0,1.26-.73l9.57-16.83a16.52,16.52,0,0,0,16.46,2.33l1-.42a16.5,16.5,0,0,0,10-12.53l17.7,5a1.39,1.39,0,0,0,.4.06,1.45,1.45,0,0,0,.39-2.85Z" transform="translate(-1095.99 -374.98)"/><path class="cls-22" d="M1178.73,738l3.15,7.7a16.53,16.53,0,0,1-9,21.51l-1,.42a16.54,16.54,0,0,1-21.51-9l-3.15-7.71a15.79,15.79,0,0,1-.9-2.94l31-12.7A17.1,17.1,0,0,1,1178.73,738Z" transform="translate(-1095.99 -374.98)"/><path class="cls-21" d="M1824.5,773.53l-18.26-5.18a16.64,16.64,0,0,0-1.22-6l-.75-1.82,15.56-6.37a1.45,1.45,0,0,0-1.1-2.68l-15.56,6.37-1.31-3.2a15.57,15.57,0,0,0-1.42-2.72,16.16,16.16,0,0,0-2.93-3.38l8-14.17a1.45,1.45,0,0,0-2.52-1.44l-7.89,13.88a16.48,16.48,0,0,0-14.8-1.18l-1,.42a16.48,16.48,0,0,0-9.87,11.89l-16.22-4.61a1.45,1.45,0,1,0-.8,2.79l16.68,4.73a16.05,16.05,0,0,0,.31,3.77,15.25,15.25,0,0,0,.89,2.94l1.31,3.2-15.55,6.37a1.45,1.45,0,0,0,.55,2.79,1.27,1.27,0,0,0,.54-.11l15.56-6.37.74,1.82a16.38,16.38,0,0,0,2.88,4.62l-9.92,17.45a1.46,1.46,0,0,0,.55,2,1.4,1.4,0,0,0,.71.19,1.47,1.47,0,0,0,1.27-.74l9.56-16.82a16.54,16.54,0,0,0,16.46,2.33l1-.42a16.5,16.5,0,0,0,10-12.53l17.71,5a1.31,1.31,0,0,0,.39,0,1.45,1.45,0,0,0,.4-2.84Z" transform="translate(-1095.99 -374.98)"/><path class="cls-22" d="M1801.86,754.62l3.16,7.7a16.55,16.55,0,0,1-9,21.51l-1,.42a16.54,16.54,0,0,1-21.51-9l-3.15-7.7a15.25,15.25,0,0,1-.89-2.94l31-12.7A15.57,15.57,0,0,1,1801.86,754.62Z" transform="translate(-1095.99 -374.98)"/><path class="cls-23" d="M1414.55,1481.12c-.12.08-.25.19-.41.31-6.08,4.65-47.43,32.86-140.32,20.37q-1,5.35-1.78,10.6c-.28,1.75-.56,3.49-.81,5.22s-.52,3.41-.75,5.1l0,.09c-.24,1.7-.48,3.38-.7,5.07s-.45,3.36-.66,5-.41,3.31-.61,5v.08c-.19,1.63-.38,3.26-.55,4.88s-.34,3.25-.51,4.88-.32,3.22-.46,4.82-.29,3.18-.41,4.76c-.1,1.16-.2,2.3-.28,3.45-.08,1-.15,1.9-.21,2.84s-.11,1.6-.16,2.4c0,.42-.06.84-.08,1.26-.09,1.35-.17,2.68-.25,4s-.15,2.86-.22,4.28c0,.27,0,.54,0,.81,0,1.06-.09,2.12-.13,3.16,0,.84-.07,1.66-.09,2.49-.09,2.66-.16,5.28-.2,7.88,0,1.2,0,2.39-.05,3.57,0,1.4,0,2.78,0,4.16v.32c0,1.35,0,2.69,0,4,0,1.11,0,2.21,0,3.31,0,.94,0,1.88.06,2.81,0,.32,0,.65,0,1,0,1,0,1.94.08,2.9s.07,2.07.11,3.09.1,2.21.16,3.29c0,1.29.12,2.56.19,3.83,0,.11,0,.23,0,.34.07,1.25.16,2.49.24,3.72s.18,2.59.28,3.86.21,2.56.32,3.82.22,2.52.35,3.76.24,2.37.37,3.55c0,.14,0,.28,0,.42.13,1.15.25,2.29.39,3.42s.29,2.39.45,3.58c0,0,0,0,0,.09.16,1.18.3,2.35.47,3.51s.33,2.33.51,3.49c0,0,0,.06,0,.1.18,1.13.35,2.25.53,3.37a.13.13,0,0,1,0,.06c.18,1.14.38,2.26.57,3.39s.4,2.26.6,3.37c.25,1.38.51,2.74.77,4.09.17.84.33,1.68.51,2.52.21,1.05.43,2.09.65,3.11,0,.14.07.27.1.41.2,1,.42,1.94.64,2.9s.48,2.09.74,3.14c.51,2.14,1,4.25,1.58,6.32.25,1,.5,1.88.76,2.82s.54,1.94.81,2.9c.2.71.41,1.41.61,2.12s.41,1.38.62,2.08c.16.54.34,1.08.5,1.63l.88,2.81q.92,2.81,1.85,5.52c.31.9.63,1.8,1,2.69s.64,1.78,1,2.65c.89,2.39,1.8,4.74,2.74,7q.4,1,.84,2,.6,1.47,1.23,2.91.48,1.13,1,2.25,2.68,6,5.54,11.59c.37.74.74,1.45,1.12,2.17q1.35,2.54,2.71,5l1,1.71.91,1.56,1,1.8c.82,1.36,1.63,2.69,2.46,4,.28.46.57.9.85,1.34.89,1.4,1.79,2.76,2.69,4.1.32.48.64,1,1,1.42q3.18,4.64,6.36,8.72c.39.51.79,1,1.18,1.51q3.06,3.87,6.07,7.3c.63.72,1.27,1.44,1.9,2.13l.17.18c.38.41.75.83,1.13,1.23,2.27,2.45,4.48,4.69,6.63,6.75.35.34.7.68,1.06,1,.7.68,1.4,1.32,2.09,1.94s1.3,1.18,1.93,1.73l.1.09,1.84,1.59c1,.88,2.06,1.72,3,2.51l.82.64c1.78,1.41,3.44,2.65,5,3.74l1.33.94c1.28.88,2.43,1.64,3.44,2.27.31.21.6.39.88.56l1.66,1,.32.18.31.18c1.12.65,1.73.94,1.73.94q8.91-2.89,17.25-6.39c35.13-14.71,62.92-37,84.91-62.91l.17-.21c47.33-55.8,67.68-128,76.38-175.81,1-5.3,1.78-10.29,2.47-14.93C1445.42,1528.25,1417.47,1486,1414.55,1481.12Z" transform="translate(-1095.99 -374.98)"/><path class="cls-7" d="M1522.94,1571.56c-7.92,43.59-26.48,109.42-69.63,160.28l-.16.2c-20.05,23.59-45.38,43.94-77.41,57.35q-7.6,3.18-15.72,5.83s-.56-.27-1.58-.86l-.28-.17-.29-.16-1.51-.91c-.26-.16-.53-.32-.8-.51-.93-.58-2-1.27-3.14-2.07l-1.22-.86c-1.39-1-2.9-2.12-4.52-3.41l-.74-.58c-.89-.72-1.82-1.48-2.77-2.29l-1.68-1.45-.09-.08c-.57-.5-1.16-1-1.76-1.58s-1.26-1.15-1.9-1.76l-1-.93c-2-1.87-4-3.92-6-6.15l-1-1.12a1.07,1.07,0,0,0-.14-.16l-1.74-2q-2.73-3.12-5.54-6.65l-1.07-1.37q-2.9-3.75-5.8-8c-.29-.42-.59-.86-.88-1.3-.82-1.21-1.64-2.46-2.46-3.73-.25-.4-.52-.81-.77-1.22-.75-1.19-1.5-2.4-2.24-3.64-.32-.54-.64-1.08-1-1.64s-.55-1-.83-1.43-.6-1-.88-1.55c-.84-1.49-1.66-3-2.47-4.55-.35-.65-.69-1.3-1-2q-2.6-5-5.05-10.57c-.31-.68-.6-1.36-.9-2.05-.38-.88-.75-1.76-1.12-2.65-.26-.62-.52-1.24-.77-1.86q-1.27-3.13-2.49-6.41c-.3-.8-.59-1.61-.88-2.42s-.58-1.62-.86-2.45c-.57-1.65-1.14-3.33-1.69-5-.27-.85-.53-1.7-.8-2.56-.15-.5-.31-1-.46-1.49-.19-.64-.38-1.26-.56-1.9s-.38-1.28-.56-1.93c-.25-.87-.5-1.75-.74-2.65s-.47-1.7-.69-2.56q-.75-2.84-1.45-5.77c-.23-1-.45-1.9-.67-2.86s-.4-1.76-.58-2.64l-.09-.37c-.2-.94-.4-1.88-.6-2.84-.15-.77-.3-1.53-.46-2.3-.24-1.23-.47-2.47-.7-3.72-.19-1-.37-2-.55-3.08s-.35-2-.52-3.09a.07.07,0,0,0,0,0l-.48-3.08s0-.06,0-.09c-.16-1-.32-2.11-.46-3.18s-.29-2.13-.44-3.2a.19.19,0,0,0,0-.08c-.14-1.09-.27-2.17-.4-3.27s-.24-2.06-.36-3.11c0-.13,0-.26,0-.38-.12-1.08-.23-2.15-.33-3.24s-.22-2.28-.32-3.43-.2-2.31-.29-3.48-.18-2.34-.26-3.52-.15-2.25-.21-3.39c0-.1,0-.21,0-.32q-.1-1.73-.18-3.48c0-1-.1-2-.14-3s-.07-1.87-.1-2.82-.06-1.76-.08-2.65c0-.29,0-.6,0-.89,0-.85,0-1.7,0-2.56s0-2,0-3c0-1.22,0-2.44,0-3.67v-.29c0-1.26,0-2.52,0-3.8,0-1.07,0-2.16,0-3.25,0-2.37.1-4.76.18-7.19,0-.75,0-1.5.08-2.26l.12-2.89c0-.25,0-.49,0-.74.06-1.29.13-2.59.2-3.89s.15-2.44.22-3.66c0-.38.05-.76.08-1.15q.06-1.1.15-2.19c0-.86.11-1.72.18-2.59.08-1,.17-2.09.26-3.14.12-1.44.24-2.9.38-4.34s.27-2.93.42-4.4.29-3,.46-4.44.33-3,.5-4.46v-.07c.18-1.5.36-3,.56-4.52s.39-3.06.6-4.59.42-3.08.64-4.63v-.08q.33-2.31.69-4.65c.23-1.57.48-3.16.74-4.76.5-3.18,1-6.41,1.62-9.66,84.69,11.38,122.38-14.33,127.93-18.57.15-.11.26-.21.37-.28,2.66,4.41,28.14,43,113.27,62.33C1524.56,1562.18,1523.81,1566.74,1522.94,1571.56Z" transform="translate(-1095.99 -374.98)"/><path class="cls-6" d="M1412.3,1495.31l-53.86,299c-.56-.32-1.26-.73-2.08-1.24-.26-.16-.53-.32-.8-.51-.93-.58-2-1.27-3.14-2.07l-1.22-.86c-1.39-1-2.9-2.12-4.52-3.41l-.74-.58c-.89-.72-1.82-1.48-2.77-2.29l-1.68-1.45-.09-.08c-.57-.5-1.16-1-1.76-1.58s-1.26-1.15-1.9-1.76l-1-.93c-2-1.87-4-3.92-6-6.15l-1-1.12a1.07,1.07,0,0,0-.14-.16l-1.74-2q-2.73-3.12-5.54-6.65l-1.07-1.37q-2.9-3.75-5.8-8c-.29-.42-.59-.86-.88-1.3-.82-1.21-1.64-2.46-2.46-3.73-.25-.4-.52-.81-.77-1.22-.75-1.19-1.5-2.4-2.24-3.64-.32-.54-.64-1.08-1-1.64s-.55-1-.83-1.43-.6-1-.88-1.55c-.84-1.49-1.66-3-2.47-4.55-.35-.65-.69-1.3-1-2q-2.6-5-5.05-10.57c-.31-.68-.6-1.36-.9-2.05-.38-.88-.75-1.76-1.12-2.65-.26-.62-.52-1.24-.77-1.86q-1.27-3.13-2.49-6.41c-.3-.8-.59-1.61-.88-2.42s-.58-1.62-.86-2.45c-.57-1.65-1.14-3.33-1.69-5-.27-.85-.53-1.7-.8-2.56-.15-.5-.31-1-.46-1.49-.19-.64-.38-1.26-.56-1.9s-.38-1.28-.56-1.93c-.25-.87-.5-1.75-.74-2.65s-.47-1.7-.69-2.56q-.75-2.84-1.45-5.77c-.23-1-.45-1.9-.67-2.86s-.4-1.76-.58-2.64l-.09-.37c-.2-.94-.4-1.88-.6-2.84-.15-.77-.3-1.53-.46-2.3-.24-1.23-.47-2.47-.7-3.72-.19-1-.37-2-.55-3.08s-.35-2-.52-3.09a.07.07,0,0,0,0,0l-.48-3.08s0-.06,0-.09c-.16-1-.32-2.11-.46-3.18s-.29-2.13-.44-3.2a.19.19,0,0,0,0-.08c-.14-1.09-.27-2.17-.4-3.27s-.24-2.06-.36-3.11c0-.13,0-.26,0-.38-.12-1.08-.23-2.15-.33-3.24s-.22-2.28-.32-3.43-.2-2.31-.29-3.48-.18-2.34-.26-3.52-.15-2.25-.21-3.39c0-.1,0-.21,0-.32q-.1-1.73-.18-3.48c0-1-.1-2-.14-3s-.07-1.87-.1-2.82-.06-1.76-.08-2.65c0-.29,0-.6,0-.89,0-.85,0-1.7,0-2.56s0-2,0-3c0-1.22,0-2.44,0-3.67v-.29c0-1.26,0-2.52,0-3.8,0-1.07,0-2.16,0-3.25,0-2.37.1-4.76.18-7.19,0-.75,0-1.5.08-2.26l.12-2.89c0-.25,0-.49,0-.74.06-1.29.13-2.59.2-3.89s.15-2.44.22-3.66c0-.38.05-.76.08-1.15q.06-1.1.15-2.19c0-.86.11-1.72.18-2.59.08-1,.17-2.09.26-3.14.12-1.44.24-2.9.38-4.34s.27-2.93.42-4.4.29-3,.46-4.44.33-3,.5-4.46v-.07c.18-1.5.36-3,.56-4.52s.39-3.06.6-4.59.42-3.08.64-4.63v-.08q.33-2.31.69-4.65c.23-1.57.48-3.16.74-4.76.5-3.18,1-6.41,1.62-9.66C1375.79,1526.86,1412.3,1495.31,1412.3,1495.31Z" transform="translate(-1095.99 -374.98)"/><path class="cls-24" d="M1460.14,1591.71,1381,1653.53l-33.62-43-19.29,15.06,48.69,62.34,98.45-76.88Z" transform="translate(-1095.99 -374.98)"/><path class="cls-18" d="M2267.05,530.2a117.47,117.47,0,0,0,50,96.27,9.7,9.7,0,0,1,.5,15.57l-.15.12a9.67,9.67,0,0,1-11.52.36A137,137,0,0,1,2247.5,530.2c0-75.34,62.36-136.5,137.55-137.15v19.56C2320.65,413.25,2267.05,465.65,2267.05,530.2Z" transform="translate(-1095.99 -374.98)"/><path class="cls-18" d="M2388.64,375.57l35.93,24.57a3.32,3.32,0,0,1,0,5.48l-35.93,24.57a3.31,3.31,0,0,1-5.18-2.73V378.3A3.31,3.31,0,0,1,2388.64,375.57Z" transform="translate(-1095.99 -374.98)"/><path class="cls-18" d="M2504.93,529.61a117.45,117.45,0,0,0-50-96.27,9.71,9.71,0,0,1-.49-15.58l.14-.11a9.67,9.67,0,0,1,11.52-.36,137,137,0,0,1,58.43,112.32c0,75.34-62.26,136.5-137.45,137.14V647.2C2451.43,646.56,2504.93,594.16,2504.93,529.61Z" transform="translate(-1095.99 -374.98)"/><path class="cls-18" d="M2383.34,684.24l-35.94-24.58a3.32,3.32,0,0,1,0-5.47l35.94-24.58a3.32,3.32,0,0,1,5.18,2.74v49.16A3.31,3.31,0,0,1,2383.34,684.24Z" transform="translate(-1095.99 -374.98)"/><path class="cls-13" d="M2447,514.67l-58.86,48.81-14.84,12.3a19.49,19.49,0,0,1-12.42,4.47,18.86,18.86,0,0,1-2.25-.13,19.51,19.51,0,0,1-13.26-7.63L2322.47,542a15.61,15.61,0,1,1,25-18.73l15.45,20.6.13-.1,64-53.11a15.61,15.61,0,0,1,19.92,24Z" transform="translate(-1095.99 -374.98)"/><path class="cls-13" d="M2447,514.67l-58.86,48.81a79.08,79.08,0,0,1-25.1-19.73l64-53.11a15.61,15.61,0,0,1,19.92,24Z" transform="translate(-1095.99 -374.98)"/></svg>