<svg id="Слой_2" data-name="Слой 2" xmlns="http://www.w3.org/2000/svg" viewBox="0 0 6718.56 7189.24"><defs><style>.cls-1{fill:#f1f2f7;}.cls-2{fill:#010117;}.cls-3{fill:#bed2fa;}.cls-4{fill:#ff9a33;}.cls-5{fill:#060632;}.cls-6{fill:#006fce;}.cls-7{fill:#008aff;}.cls-8{fill:#fc9290;}.cls-19,.cls-9{fill:#e75755;}.cls-10{fill:#ffc933;}.cls-11{fill:#ea8888;}.cls-12{fill:#0b0754;}.cls-13{fill:#fa7269;}.cls-14{fill:#120e59;}.cls-15{fill:#fa3;}.cls-16{fill:#ed6966;}.cls-17{fill:#3662c1;}.cls-18{fill:#6d89cf;}.cls-19{opacity:0.4;}.cls-20{fill:#dee9fd;}.cls-21{fill:#c1d4fa;}.cls-22{fill:#9e332e;}.cls-23{fill:#364aa3;}.cls-24{fill:#fff;}.cls-25{fill:#2196f3;}.cls-26{fill:#fafafa;}.cls-27{fill:#90caf9;}.cls-28{fill:#afb6bb;}.cls-29{fill:#ebba16;}.cls-30{fill:#e7eced;}.cls-31{fill:#dd352e;}.cls-32{fill:#366db6;}</style></defs><title>optimized website-2</title><path class="cls-1" d="M6042.7,9567.26s673.08,54.78,880.38-354.19c308.21-608.08-290.83-1098.24-725.39-1010-946.93,192.28-718.9-1928.93-2238.6-1496-427.31,121.73-1581.87-601.4-1903.87,558.08-76.57,275.71-347.86,306.08-741.68,481C542.8,8088.56,895.22,9573,1445.94,9578.87S6042.7,9567.26,6042.7,9567.26Z" transform="translate(-289.3 -2390.82)"/><path class="cls-2" d="M6204,9572.1H1631.26a4.09,4.09,0,0,1-4.08-4.09h0a4.09,4.09,0,0,1,4.08-4.08H6204a4.1,4.1,0,0,1,4.08,4.08h0A4.1,4.1,0,0,1,6204,9572.1Z" transform="translate(-289.3 -2390.82)"/><path class="cls-3" d="M4049.47,7564l-98-2.25c31.49,40.81,38.56,78.41,19,110.22-19.6,32.46-66.52,59.13-136.57,79.37,53-141.06,79.69-289.85,79.69-442.48,0-170.95-33.42-336.77-99.62-492.62a1271.67,1271.67,0,0,0-673.53-673.85c-156.17-65.87-322-99.29-492.61-99.29-171,0-336.77,33.42-492.94,99.29-18.64,8-37.27,16.39-55.27,25.07l-.16.08c-54.44-16.61-107.47-30.23-158.63-40.6-258.26-52.41-441.54-16.19-516,102-70.85,112.4-32.28,281.6,108.3,478.93a.41.41,0,0,0,0,.09c-19,35-36,71-51.74,108.29-11.89,28-22.49,55.92-32.13,84.52C1185,6916.47,1043.65,6963,992.23,7047.15c-59.77,98,21.85,229.54,283.1,357.44,36,17.67,74.55,35,115,52.38a1238.06,1238.06,0,0,0,90.94,344.47,1268.8,1268.8,0,0,0,673.53,673.85c156.17,65.88,322,99.3,492.94,99.3,170.63,0,336.44-33.42,492.61-99.3a1268.56,1268.56,0,0,0,668.39-662c128.86-26.67,213.69-68.44,247.43-123.71C4079.67,7651.38,4076.78,7609,4049.47,7564Zm-302.39,207.27c-85.79,15.42-192.8,24.42-317.8,25.71-194,2.36-416.73-13-651.49-43.9q29.63-64.5,58-132.38c72.85,24.37,143.55,43.67,211,57.36,77.24,15.68,147.73,23.42,210.65,23.42,147.48,0,253.15-42.58,305.33-125.42a216.1,216.1,0,0,0,21-43.39h-75.18c-1.24,2.28-2.57,4.55-3.95,6.75-38.77,61.53-125.39,93.32-247,93.29-58.17,0-124.4-7.26-197.18-22-63.44-12.87-130-30.94-198.56-53.71q27.17-67.93,52.7-138.31c45.83-126.36,85.06-251.62,116.8-371.9,144.64,21.32,299.87,32,464.83,32q154.05,0,319.19-12.44A1199,1199,0,0,1,3840,7308.83C3840,7469.18,3808.78,7624.71,3747.08,7771.24Zm-1566.32,627.5c-36.56-13.26-55.12-65.74-64.26-107.43-14.43-65.88-17-158.43-7.54-267.62,4.8-55.22,12.52-113.94,22.91-175.35a3256.56,3256.56,0,0,1,442.81,153.22c-32.55,56.13-65.47,108.18-98.38,155.36-62.71,89.89-124,159.25-177.35,200.56C2265.22,8383.63,2217.33,8412,2180.76,8398.74Zm427-455.94a3322.36,3322.36,0,0,0-463.88-160.64q8.31-42.77,18.2-87,65.54,14.9,132.84,28.8c131.25,26.84,262.2,49.64,390.37,68.08Q2647.25,7870.86,2607.79,7942.8Zm-283.92-266.36q-76.08-15.64-149.81-32.66c23.12-96.21,51.52-196.53,84.69-298.74,172.38,106,347.69,192.17,513.68,253.35q-31.23,74.56-64.06,145.11C2582.29,7725.41,2453.29,7703,2323.87,7676.44Zm-421-1298.8a786.18,786.18,0,0,0,46.6,82c87.15,134.68,202.25,232.31,283.46,290.5A1387.79,1387.79,0,0,0,2382,6843c-48.14,104.91-94,216.87-136.16,333.13q-11.79,32.51-23,64.9c-251.84-163.93-465-352-604.92-534.06l-.06-.08a1198.24,1198.24,0,0,1,120.13-169.26c18.64-21.85,37.92-43.06,58.17-63.63l8.35-8.35A1202.57,1202.57,0,0,1,1902.84,6377.64ZM2979.67,6196c36.56,13.26,55.13,65.74,64.26,107.43,14.43,65.89,17,158.43,7.55,267.62-10.4,119.53-34.33,255.28-69.95,399.82q-64.53-11.1-126-25.18c-141.38-32.51-270.26-77-385.35-132.84,68.68-143.22,141.3-270.94,213.9-375,62.71-89.9,124-159.25,177.35-200.57,27.82-21.55,65.26-44.63,98-44.63A58.89,58.89,0,0,1,2979.67,6196ZM2836,7010q62.82,14.58,128.9,26c-30.91,116.31-69,237.45-113.35,359.77q-25.65,70.72-53,139.05c-166.64-61.19-343.52-148.7-517.41-256.79q13.49-39.42,27.84-79.05c41.22-113.64,85.95-223,132.86-325.44C2560,6930.81,2691.78,6976.49,2836,7010Zm654.7-544.34c109.57,109.58,195.69,237.15,255.78,379.18a1185.7,1185.7,0,0,1,53.31,155.38c-274.83,20.1-526.67,13.79-751.79-18.79,35.72-146,59.78-283.27,70.32-404.56,11.65-133.92,10.23-292.56-44.07-381.83q18.89,7.24,37.58,15.15A1183.69,1183.69,0,0,1,3490.66,6465.63Zm-842.88-349.3a1194.21,1194.21,0,0,1,243.23,24.8c-93.66,40.77-189.29,154.25-261.87,258.31-74.3,106.49-148.49,236.83-218.54,382.73a1323.32,1323.32,0,0,1-134-83.23c-139.34-98.86-222.81-202.37-268.31-271.8a704.31,704.31,0,0,1-50.81-90.8,1191.22,1191.22,0,0,1,154.11-93h.05q32.83-16.57,66.87-31.09c1.64-.7,3.27-1.42,4.92-2.12.37-.16.77-.31,1.14-.48q7.26-3.06,14.55-6l3.91-1.56C2344.11,6145.25,2493.85,6116.33,2647.78,6116.33ZM1482.94,6265.55c38.76-61.54,125.39-93.29,247-93.29,58.17,0,124.39,7.26,197.17,22q41.44,8.39,84.56,19.74l.08,0a1244.68,1244.68,0,0,0-259.25,199.83c-16.38,16.07-32.13,32.78-47.55,50.13-19.28,21.21-37.6,43.38-55.28,65.88a1277.23,1277.23,0,0,0-78.4,112.15l-.06.09C1463.75,6482.56,1431.44,6347.25,1482.94,6265.55Zm65.85,579.26c10.61-24.42,21.53-48.52,33.42-72l0-.06c147.28,184.09,364.36,372.27,618,535.48-36,109.46-66.65,217-91.41,320.12-184.52-44.64-355.53-95.16-505.4-149.23-31.49-11.25-62-22.82-91.26-34.38-17.35-6.75-34.38-13.82-51.09-20.89-2.57-25.71-4.5-51.74-5.14-77.77-.33-12.53-.65-24.74-.65-37.27,0-14.46.32-29.25.65-43.7a1205.75,1205.75,0,0,1,54.62-316.2c5.47-17.36,11.25-34.39,17.68-51.42C1534.65,6879.84,1541.4,6862.16,1548.79,6844.81Zm-215,521.86C1106,7255.48,1001.87,7148.16,1048.47,7072c37.59-61.7,174.48-103.47,384-118.9a1230.52,1230.52,0,0,0-47.56,267.36c-1.93,27-2.89,54-3.21,81.3v7.07c0,27.31,1,54.63,2.57,81.62C1366.91,7382.74,1350.2,7374.7,1333.82,7366.67Zm172.88,136.57c30.85,11.57,62.34,23.14,94.79,34.38,149.2,51.7,316.44,99.75,495.34,142.38q-9.75,43.47-18,85.67-21.93-5.31-43.89-10.35C1787.62,7699,1602,7687.58,1516,7685.64a1165.64,1165.64,0,0,1-46.9-196.86Zm42.09,269.61q-4-9.57-7.87-19.19c91.76,3.69,261.86,17.59,479.15,67q23.33,5.32,46.61,11c-11.18,65.23-19.43,127.56-24.53,186.14-9.65,111-10.34,239,20.62,330.37A1189.87,1189.87,0,0,1,1804.58,8152C1695,8042.45,1608.88,7914.88,1548.79,7772.85Zm1563,634.64c-147.17,62.34-303,93.83-464,93.83-124,0-245.17-18.7-361.56-55.78,88.2-46.24,176.83-152.41,245.08-250.25,35.2-50.47,70.38-106.31,105.11-166.59a3370.24,3370.24,0,0,1,573.64,331.87Q3162.17,8386.16,3111.79,8407.49ZM3490.66,8152a1183.81,1183.81,0,0,1-216.88,171.9A3439.67,3439.67,0,0,0,2669.33,7970c29.07-53.28,57.72-109.55,85.7-168.29,193.57,25.66,379.67,41.05,549.57,45,44.34,1.29,87.4,1.29,129.18,1,108.29-1.29,204.69-7.72,287.28-19.28C3663.22,7948.3,3585.77,8056.91,3490.66,8152Z" transform="translate(-289.3 -2390.82)"/><path class="cls-4" d="M4797.88,7994.4s146,143.68,152.67,197.85-66.21,138.93-66.21,138.93Z" transform="translate(-289.3 -2390.82)"/><path class="cls-5" d="M4745.19,9486.64s-4.73,76.38-19.51,77.48c-2,.14-75,.14-75,.14l-93.16-.54s.61-22.44,27.84-27.19,72.82-23.88,89.31-59.88C4692.08,9438.78,4745.19,9486.64,4745.19,9486.64Z" transform="translate(-289.3 -2390.82)"/><path class="cls-5" d="M4952.7,9486.64s-4.73,76.38-19.51,77.48c-2,.14-74.95.14-74.95.14l-93.16-.54s.61-22.44,27.84-27.19,72.81-23.88,89.31-59.88C4899.59,9438.78,4952.7,9486.64,4952.7,9486.64Z" transform="translate(-289.3 -2390.82)"/><path class="cls-6" d="M4642,8665.78s24.36,155.84,115.26,432.48,103.28,396.43,103.28,396.43l97.51-2.73s.84-302.33-41.06-441.45-9-501.51-9-501.51Z" transform="translate(-289.3 -2390.82)"/><path class="cls-7" d="M4594.56,8557.54s-3.45,234.84,37.19,523.18,26.85,410.74,26.85,410.74l97.32,3.23s58.16-288.45,41.48-432.77S4877,8566.69,4877,8566.69Z" transform="translate(-289.3 -2390.82)"/><path class="cls-8" d="M4783,8008l-45.9,34-66.33-14c.92-6.05,5.3-31.12,9.28-53.83.24-1.34.49-2.68.71-4,3.42-19.32,6.37-35.92,6.37-35.92l61.95-30.88,23.1-11.51c-.06.4-1.79,21.44-2,24.51C4765.77,7970.93,4783,8008,4783,8008Z" transform="translate(-289.3 -2390.82)"/><path class="cls-9" d="M4675.36,7990.83c1.45-.62,90.24-26.81,99.88-23.63S4790.6,7989,4790.6,7989l-145.22,32.84S4656.81,7998.64,4675.36,7990.83Z" transform="translate(-289.3 -2390.82)"/><path class="cls-10" d="M4914.43,8586.53c-15.05,68.65-265.5,76.79-330.06,14.47-7.34-7.1-7.71-40.15-4.94-84.7,5.42-87.06,22.82-218,23.49-284.92.34-32.31,4.78-65.36,10.69-95.37a774.34,774.34,0,0,1,31.77-114.14s122.33-39.55,145.22-32.82C4900.87,8021.45,4929.48,8517.87,4914.43,8586.53Z" transform="translate(-289.3 -2390.82)"/><path class="cls-4" d="M4579.43,8516.3c5.42-87.06,22.82-218,23.49-284.92.34-32.31,4.78-65.36,10.69-95.37l73.59-13S4759.14,8416.9,4579.43,8516.3Z" transform="translate(-289.3 -2390.82)"/><path class="cls-8" d="M4619.28,8395s5,12-5.51,20-17.37,21.09-15,30.62,25.52,25.08,33.53,22.58,24.31-15.06,22.56-20.09,11-44.12-8.56-59.17S4619.28,8395,4619.28,8395Z" transform="translate(-289.3 -2390.82)"/><path class="cls-10" d="M4701.42,8006.63s-71.62,11.06-128.81,95.33-94.8,146.93-84.27,177.3S4594.9,8415,4611.45,8415s43.27-12,44.77-39.13c0,0-67.6-101.32-54.28-116.49,5.69-6.49,87.76-73.12,99.48-43C4720.81,8266.13,4701.42,8006.63,4701.42,8006.63Z" transform="translate(-289.3 -2390.82)"/><path class="cls-11" d="M4765.45,7917.35c-13.6,26-64.3,48.55-85.45,56.83.24-1.34.49-2.68.71-4,3.42-19.32,6.37-35.92,6.37-35.92l61.95-30.88C4762.73,7903.18,4771.06,7906.64,4765.45,7917.35Z" transform="translate(-289.3 -2390.82)"/><path class="cls-8" d="M4657,7930.64s111.77,34.87,132.41-35.07,49-112.55-21.51-137.77-92.3-2.64-104.87,19S4628.43,7919.77,4657,7930.64Z" transform="translate(-289.3 -2390.82)"/><path class="cls-12" d="M4680.53,7772.76s6.45,84,23.35,80.18,32.22-6.63,29.54,18.72-26.31,54.8,25.64,58.84,127.83-134.71,113.76-160.74C4832.24,7694.66,4621.73,7681.22,4680.53,7772.76Z" transform="translate(-289.3 -2390.82)"/><path class="cls-13" d="M5469.28,8540.2s-42.88,11-70.13,2.8-74.16,5.27-81.71,15.21-4.78,13.89,8.7,17.32,61.23,23.79,92.62,12,72.31-12.22,72.31-12.22Z" transform="translate(-289.3 -2390.82)"/><path class="cls-6" d="M5839.8,8167.78s-48.17,342.3-127.91,373c-39.35,15.13-213.25,49.42-264.7,52.86,0,0-12.6-10.22-9.53-51.83,0,0,182.2-66.89,208.08-103.27,38.53-54.14-23.91-221.18,24.43-272S5799.92,8093.78,5839.8,8167.78Z" transform="translate(-289.3 -2390.82)"/><path class="cls-14" d="M5833.64,9487.32V9412h117.5a5.78,5.78,0,0,0,5.77-5.76v-12a5.78,5.78,0,0,0-5.77-5.76h-117.5V8963.72a21.73,21.73,0,0,0-21.67-21.67h-23.25a21.74,21.74,0,0,0-21.68,21.67v424.84H5649.55a5.78,5.78,0,0,0-5.77,5.76v12a5.78,5.78,0,0,0,5.77,5.76H5767v75.28c-85,6.42-153.12,37.05-172.23,76.59h411.06C5986.77,9524.37,5918.66,9493.74,5833.64,9487.32Z" transform="translate(-289.3 -2390.82)"/><path class="cls-15" d="M5823.56,8888.93c-14,23.84-30.29,46.17-47,67.31-51.76,65.35-108.11,119.23-117.93,170.16a228.81,228.81,0,0,1-9.09,32.59c-4.1,11.67-9.17,23.94-15,36.62-22,47.71-54.81,101.17-87.61,149.77-56.69,84-110,154.11-110,154.11l-97.77-4.17c3.92-9.79,46.56-125.79,103.61-267.55,23.16-57.54,47.79-118.75,71.56-177.78l9.46-23.52c7.27-18.06,14.42-35.84,21.4-53.16,53.56-133.11,96.23-239.1,96.23-239.1s214.08-81.09,236.31-28.55C5896,8749,5881.06,8791.44,5823.56,8888.93Z" transform="translate(-289.3 -2390.82)"/><path class="cls-5" d="M5433.81,9481.71s-4.79,81.07-20.4,82.22c-2.07.16-178.55,0-178.55,0s1.41-24.51,30.17-29.52,76.91-25.23,94.34-63.25C5377.7,9431.16,5433.81,9481.71,5433.81,9481.71Z" transform="translate(-289.3 -2390.82)"/><path class="cls-5" d="M5660.2,9251.23s68,43.7,61.41,57.89c-.88,1.89-38.46,69.2-38.46,69.2L5634.68,9464s-20.39-12.12-10.75-39.68,15.47-79.45-9.23-113.2C5588.71,9275.57,5660.2,9251.23,5660.2,9251.23Z" transform="translate(-289.3 -2390.82)"/><path class="cls-10" d="M5569.89,8694.79s-270.41,168.31-300.41,280.8S5626.93,9328,5626.93,9328s42.5-37.49,50-65c0,0-175.14-209.82-213.12-256.85-23.34-28.89,345-100,390-170s28.89-128.88,28.89-128.88Z" transform="translate(-289.3 -2390.82)"/><rect class="cls-11" x="5216.06" y="6519.83" width="589.95" height="149.99" rx="20" ry="20"/><path class="cls-13" d="M5822.6,8103.2s-106.71,59.65-171.1,43a152,152,0,0,1,40.95-37.09c-1.41-6.26-2.64-12.16-3.7-17.65-6.16-31.44-7.26-49.72-7.26-49.72l49.16-44.05,33.05,7c.64,3.25,1.34,6.4,2.13,9.49C5781.17,8075.36,5822.6,8103.2,5822.6,8103.2Z" transform="translate(-289.3 -2390.82)"/><path class="cls-7" d="M5890.78,8413.06c-9.22,124,2.91,312.63-7.55,345.3-9,28.19-111.9,11.43-153,2-15.2-3.49-33.61-8.46-52.61-14.35-53-16.42-110.82-39.86-117-57.27a14.83,14.83,0,0,1-.56-2v0c-.1-.44-.18-.89-.24-1.31a16.34,16.34,0,0,1,.35-6c2.06-8.87,10-18.47,11-40.44,1.05-24.52.9-53.41,1.82-84.46.05-3.51.09-7.33.47-10.8v-1.27c0-.67,0-1.32.05-2,.9-34.63,2.72-71.06,4.81-107.16,1.33-22.69,2.88-45.16,4.65-66.68,4.63-55.56,10.86-105,19.11-136.19,13.48-50.92,43.2-84.13,70.27-108.47l19.56-16.78c21.84,4.77,47.66,1.6,71-9.46,25.27-12,34-20.6,38.4-17.35C5859.67,8123.46,5901.67,8261.45,5890.78,8413.06Z" transform="translate(-289.3 -2390.82)"/><path class="cls-6" d="M5677.66,8746c-53-16.42-110.82-39.86-117-57.27a14.83,14.83,0,0,1-.56-2v0a4.08,4.08,0,0,0-.24-1.31,16.34,16.34,0,0,1,.35-6c2.06-8.87,10-18.47,11-40.44,1.05-24.52.9-53.41,1.82-84.46.05-3.51.09-7.33.47-10.8v-1.27c0-.67,0-1.32.05-2l200.32-90.85S5785.36,8611.1,5677.66,8746Z" transform="translate(-289.3 -2390.82)"/><path class="cls-16" d="M5765.83,8014.18c-7.28,18.4-29.07,61.77-77.08,77.28-6.16-31.44-7.26-49.72-7.26-49.72l49.16-44.05,33.05,7C5764.34,8007.94,5765,8011.09,5765.83,8014.18Z" transform="translate(-289.3 -2390.82)"/><path class="cls-13" d="M5662,8041.26s105.49,11.9,111.89-53.91,24.32-108.6-42.76-119-82.63,13.46-90.11,34.91S5634.76,8036.47,5662,8041.26Z" transform="translate(-289.3 -2390.82)"/><path class="cls-12" d="M5773.48,7991.89s-6.69-87.36-102.72-96.4c-65.78-6.2-29.1-62.81-22.09-71.84,0,0,50.39,6.91,102.05,15.44C5859.13,7857,5784.12,7978.29,5773.48,7991.89Z" transform="translate(-289.3 -2390.82)"/><polygon class="cls-17" points="5230.69 6216.5 4969.29 6222.09 4894.97 5993.36 4885.73 5996.36 4964.3 6238.15 5231.03 6232.46 5230.69 6216.5"/><path class="cls-13" d="M5491.34,8592.82s-41.4,15.67-69.39,10.52-73.12,13.42-79.54,24.12-3.22,14.33,10.56,16.26,63.48,16.9,93.37,1.72,70.54-20.11,70.54-20.11Z" transform="translate(-289.3 -2390.82)"/><path class="cls-7" d="M5818.54,8181.83s-10.13,345.52-86,384.78c-37.44,19.38-206.5,72.63-257.25,81.73,0,0-13.65-8.78-15.19-50.47,0,0,173.71-86.57,195.43-125.58,32.32-58.06-48.15-217.19-5.72-273.06S5770.75,8112.67,5818.54,8181.83Z" transform="translate(-289.3 -2390.82)"/><path class="cls-9" d="M2956.32,8211.64,2849.13,9486.25s-11.24,77.26,46.24,77.4c94.49.23,470.33,0,470.33,0s-71.12-16.08-70.26-52.27c1-42.66,125.29-1311.8,125.29-1311.8Z" transform="translate(-289.3 -2390.82)"/><path class="cls-11" d="M3396.19,9540.53c-18.58,0-377.55,1.18-469.58,0-40.1-.5-47.13-35.66-47.47-58.42a114.51,114.51,0,0,1,1.22-19l2.79-33.13,7.11-84.44,6.27-74.6,8.07-95.86,6.79-80.91,76.17-905.7L3452,8176.45s-52.34,531.13-89.37,917.75c-4.13,43.07-8.06,84.38-11.7,122.93q-1.77,18.48-3.41,36.07c-3.43,36.58-6.57,70.17-9.3,99.83-1.44,15.63-2.77,30.15-4,43.46-4.73,52.14-7.49,85.44-7.53,91.77a53.27,53.27,0,0,0,.9,10.31C3335.22,9539.2,3389.22,9540.53,3396.19,9540.53Z" transform="translate(-289.3 -2390.82)"/><polygon class="cls-11" points="1539.17 5127.22 1800.29 6176.06 1836.04 6319.71 1957.66 6808.23 4217.07 6808.23 3768.82 5127.22 1539.17 5127.22"/><polygon class="cls-11" points="1539.17 5127.22 1502.98 5139.28 1909.55 6844.72 1957.66 6808.24 1539.17 5127.22"/><polygon class="cls-9" points="1909.55 6844.72 4155.05 6844.72 4217.06 6808.24 1957.66 6808.24 1909.55 6844.72"/><rect class="cls-11" x="2698.1" y="7150.21" width="486.19" height="23.1"/><polygon class="cls-18" points="4107.61 6498.48 3740.99 5149.44 1535.56 5149.44 1535.56 5127.22 3768.82 5127.22 4134.21 6495.48 4107.61 6498.48"/><polygon class="cls-9" points="3060.7 6844.71 3058.18 6862.37 2600.95 6954.75 2607.23 6880.15 2610.22 6844.71 3060.7 6844.71"/><path class="cls-19" d="M3396.19,9540.53c-18.58,0-377.55,1.18-469.58,0-40.1-.5-47.13-35.66-47.47-58.42l455.08-85.62c-4.73,52.14-7.49,85.44-7.53,91.77a53.27,53.27,0,0,0,.9,10.31C3335.22,9539.2,3389.22,9540.53,3396.19,9540.53Z" transform="translate(-289.3 -2390.82)"/><polygon class="cls-19" points="2950.18 6467.93 1957.66 6808.24 1836.04 6319.71 2950.18 6467.93"/><polygon class="cls-18" points="1539.17 5127.22 3768.82 5127.22 4130.58 6478.22 1864.02 6478.22 1539.17 5127.22"/><path class="cls-9" d="M3436.57,9039.83c-6.44-33.13-38.53-60-71.66-60s-54.77,26.86-48.33,60,38.52,60,71.65,60S3443,9073,3436.57,9039.83Z" transform="translate(-289.3 -2390.82)"/><polygon class="cls-20" points="4025.42 6419.68 1937.8 6419.68 1701.38 5477.86 1683.26 5405.64 1667.79 5344.03 1631.53 5199.58 3689.07 5199.58 3728.88 5344.03 3745.87 5405.64 3765.78 5477.86 4025.42 6419.68"/><polygon class="cls-21" points="3728.88 5344.03 1667.79 5344.03 1631.53 5199.58 3689.07 5199.58 3728.88 5344.03"/><path class="cls-20" d="M2019.51,7637.63c-10,0-16,8.08-13.56,18.06s12.59,18.06,22.56,18.06,16-8.09,13.56-18.06S2029.48,7637.63,2019.51,7637.63Z" transform="translate(-289.3 -2390.82)"/><path class="cls-20" d="M2079.51,7637.63c-10,0-16.05,8.08-13.56,18.06s12.59,18.06,22.56,18.06,16-8.09,13.56-18.06S2089.48,7637.63,2079.51,7637.63Z" transform="translate(-289.3 -2390.82)"/><path class="cls-20" d="M2166.67,7655.69c-2.48-10-12.58-18.06-22.56-18.06s-16,8.08-13.55,18.06,12.59,18.06,22.56,18.06S2169.16,7665.66,2166.67,7655.69Z" transform="translate(-289.3 -2390.82)"/><path class="cls-13" d="M3660.6,8156.8c-15.07-60.45-76.56-109.63-137.07-109.63-29.17,0-54,11.26-70,31.7-16.64,21.29-21.63,49.73-14.07,80.07,15.07,60.45,76.56,109.64,137.07,109.64,29.17,0,54-11.26,70-31.7C3663.17,8215.58,3668.16,8187.15,3660.6,8156.8Zm-21,74.63c-14.26,18.24-36.64,28.29-63,28.29-56.69,0-114.33-46.17-128.47-102.92-6.9-27.64-2.48-53.38,12.44-72.48,14.26-18.24,36.64-28.29,63-28.29,56.69,0,114.33,46.17,128.48,102.91C3658.9,8186.59,3654.48,8212.33,3639.56,8231.43Z" transform="translate(-289.3 -2390.82)"/><polygon class="cls-13" points="3274.64 5791.8 3263.62 5714.74 3262.75 5711.26 3231.72 5711.26 3232.58 5714.74 3259.99 5791.8 3274.64 5791.8"/><polygon class="cls-13" points="3256.58 5805.4 3263.54 5833.29 3291.78 5833.29 3284.82 5805.4 3256.58 5805.4"/><path class="cls-13" d="M3728,8418.6c-15.07-60.45-76.56-109.63-137.07-109.63-29.17,0-54,11.25-70,31.69-16.64,21.3-21.63,49.73-14.07,80.08,15.07,60.45,76.56,109.63,137.07,109.63,29.17,0,54-11.26,70-31.7C3730.56,8477.38,3735.56,8448.94,3728,8418.6Zm-21,74.62c-14.26,18.24-36.64,28.29-63,28.29-56.69,0-114.33-46.17-128.47-102.91-6.9-27.65-2.47-53.39,12.45-72.48,14.25-18.25,36.63-28.3,63-28.3,56.7,0,114.33,46.17,128.48,102.92C3726.29,8448.38,3721.87,8474.12,3707,8493.22Z" transform="translate(-289.3 -2390.82)"/><polygon class="cls-13" points="3342.03 6053.6 3331.01 5976.54 3330.14 5973.05 3299.11 5973.05 3299.98 5976.54 3327.38 6053.6 3342.03 6053.6"/><polygon class="cls-13" points="3323.97 6067.19 3330.93 6095.09 3359.17 6095.09 3352.22 6067.19 3323.97 6067.19"/><path class="cls-21" d="M3959,8123.14c6.86,0,11.08-5.61,9.37-12.47s-8.73-12.48-15.59-12.48H3730.62c-6.86,0-11.07,5.62-9.36,12.48s8.72,12.47,15.58,12.47Z" transform="translate(-289.3 -2390.82)"/><path class="cls-21" d="M3931.51,7945.92c-1.71-6.86-8.72-12.47-15.58-12.47H3693.76c-6.86,0-11.08,5.61-9.37,12.47s8.73,12.48,15.59,12.48h222.17C3929,7958.4,3933.22,7952.79,3931.51,7945.92Z" transform="translate(-289.3 -2390.82)"/><path class="cls-21" d="M3970.86,8170.67c6.86,0,11.08-5.62,9.37-12.48s-8.73-12.47-15.59-12.47H3742.47c-6.86,0-11.07,5.61-9.36,12.47s8.72,12.48,15.58,12.48Z" transform="translate(-289.3 -2390.82)"/><path class="cls-21" d="M3992.07,8205.71c-1.71-6.86-8.72-12.47-15.58-12.47H3754.32c-6.86,0-11.07,5.61-9.36,12.47s8.72,12.48,15.58,12.48h222.17C3989.57,8218.19,3993.78,8212.57,3992.07,8205.71Z" transform="translate(-289.3 -2390.82)"/><path class="cls-21" d="M4026.4,8384.94c6.86,0,11.08-5.62,9.37-12.48S4027,8360,4020.19,8360H3798c-6.86,0-11.08,5.61-9.37,12.47s8.73,12.48,15.59,12.48Z" transform="translate(-289.3 -2390.82)"/><path class="cls-21" d="M4038.25,8432.46c6.86,0,11.08-5.61,9.37-12.48s-8.73-12.47-15.59-12.47H3809.86c-6.86,0-11.07,5.61-9.36,12.47s8.72,12.48,15.58,12.48Z" transform="translate(-289.3 -2390.82)"/><path class="cls-21" d="M4059.46,8467.51c-1.7-6.87-8.72-12.48-15.58-12.48H3821.71c-6.86,0-11.07,5.61-9.36,12.48s8.72,12.47,15.58,12.47H4050.1C4057,8480,4061.18,8474.37,4059.46,8467.51Z" transform="translate(-289.3 -2390.82)"/><path class="cls-21" d="M3922.16,7893.48l-15.51-62.19c-2.84-11.41-14.5-20.74-25.91-20.74H2100c-11.41,0-18.42,9.33-15.57,20.74l15.5,62.19c2.85,11.41,14.51,20.74,25.91,20.74H3906.59C3918,7914.22,3925,7904.89,3922.16,7893.48Z" transform="translate(-289.3 -2390.82)"/><path class="cls-13" d="M3362.35,7810.55l25.85,103.67H2125.88c-11.4,0-23.06-9.33-25.91-20.74l-15.5-62.19c-2.85-11.41,4.16-20.74,15.57-20.74Z" transform="translate(-289.3 -2390.82)"/><polygon class="cls-17" points="3299.81 5452.5 3301.79 5460.46 3321.49 5460.46 3311.22 5494.41 3321.64 5494.41 3331.72 5459.44 3329.99 5452.5 3299.81 5452.5"/><path class="cls-17" d="M3642.88,7842.6c-11.14,0-16.31,9.52-13.28,21.68s12.77,21.68,24,21.68,16.31-9.52,13.28-21.68S3654,7842.6,3642.88,7842.6Zm8.73,35c-5.57,0-10.64-5.69-12.55-13.35s.27-13.35,5.77-13.35,10.66,5.75,12.56,13.35S3657.18,7877.63,3651.61,7877.63Z" transform="translate(-289.3 -2390.82)"/><path class="cls-17" d="M3721.79,7875c-1.49-6-6.75-10.72-12.79-10.72s-9.05,4.79-7.57,10.72,6.74,10.72,12.79,10.72S3723.25,7880.87,3721.79,7875Zm-8.81,5.27c-2.39,0-4.56-2.46-5.26-5.27s0-5.27,2.52-5.27,4.56,2.45,5.26,5.27S3715.5,7880.27,3713,7880.27Z" transform="translate(-289.3 -2390.82)"/><polygon class="cls-17" points="3413.27 5452.5 3393.12 5494.41 3400.25 5494.41 3420.39 5452.5 3413.27 5452.5"/><path class="cls-17" d="M3690.69,7853.56c-1.49-6-6.74-10.72-12.79-10.72s-9,4.79-7.57,10.72,6.75,10.72,12.8,10.72S3692.16,7859.43,3690.69,7853.56Zm-14.07,0c-.71-2.88,0-5.27,2.52-5.27s4.56,2.46,5.27,5.27,0,5.27-2.52,5.27S3677.32,7856.37,3676.62,7853.56Z" transform="translate(-289.3 -2390.82)"/><path class="cls-21" d="M3278.93,8363.54c12.93,0,20.8-10.49,17.58-23.43h0c-3.22-12.93-16.33-23.42-29.26-23.42H2228.92c-12.94,0-20.81,10.49-17.59,23.42h0c3.23,12.94,16.33,23.43,29.27,23.43Z" transform="translate(-289.3 -2390.82)"/><path class="cls-21" d="M3298.32,8441.3c12.93,0,20.8-10.49,17.58-23.42s-16.33-23.43-29.27-23.43H2248.31c-12.94,0-20.81,10.49-17.59,23.43s16.33,23.42,29.27,23.42Z" transform="translate(-289.3 -2390.82)"/><path class="cls-21" d="M3336.15,8499.1c-3.22-12.94-16.33-23.43-29.26-23.43H2268.56c-12.94,0-20.81,10.49-17.59,23.43s16.33,23.42,29.27,23.42H3318.57C3331.5,8522.52,3339.38,8512,3336.15,8499.1Z" transform="translate(-289.3 -2390.82)"/><path class="cls-21" d="M2710.73,8237.13c4.05,16.26,20.52,29.45,36.78,29.45h115.81c16.26,0,26.16-13.19,22.1-29.45l-56-224.52c-4.05-16.26-20.52-29.44-36.78-29.44H2676.85c-16.26,0-26.16,13.18-22.1,29.44Z" transform="translate(-289.3 -2390.82)"/><path class="cls-21" d="M2911.18,8237.13c4.05,16.26,20.52,29.45,36.78,29.45h115.81c16.26,0,26.15-13.19,22.1-29.45l-56-224.52c-4-16.26-20.52-29.44-36.78-29.44H2877.3c-16.26,0-26.16,13.18-22.11,29.44Z" transform="translate(-289.3 -2390.82)"/><path class="cls-21" d="M3107.88,8237.13c4,16.26,20.52,29.45,36.78,29.45h115.81c16.26,0,26.15-13.19,22.1-29.45l-56-224.52c-4.05-16.26-20.52-29.44-36.78-29.44H3074c-16.26,0-26.16,13.18-22.1,29.44Z" transform="translate(-289.3 -2390.82)"/><path class="cls-21" d="M2671.47,8217.23l-46-184.71c-6.8-27.26-34.4-49.35-61.65-49.35H2171.68c-27.25,0-43.84,22.09-37,49.35l46.05,184.71c6.8,27.25,34.4,49.35,61.65,49.35h392.09C2661.68,8266.58,2678.27,8244.48,2671.47,8217.23Z" transform="translate(-289.3 -2390.82)"/><path class="cls-17" d="M2558.82,8054c6.18,0,10-5.06,8.43-11.23h0c-1.54-6.18-7.85-11.23-14-11.23H2186.87c-6.18,0-10,5-8.44,11.23h0c1.54,6.17,7.86,11.23,14,11.23Z" transform="translate(-289.3 -2390.82)"/><path class="cls-17" d="M2569.59,8097.22c6.18,0,10-5.05,8.43-11.23h0c-1.54-6.18-7.85-11.23-14-11.23H2197.64c-6.18,0-10,5.05-8.44,11.23h0c1.55,6.18,7.86,11.23,14,11.23Z" transform="translate(-289.3 -2390.82)"/><path class="cls-17" d="M2588.8,8129.19c-1.54-6.18-7.86-11.23-14-11.23H2208.41c-6.18,0-10,5.05-8.43,11.23s7.85,11.23,14,11.23h366.35C2586.54,8140.42,2590.34,8135.37,2588.8,8129.19Z" transform="translate(-289.3 -2390.82)"/><path class="cls-17" d="M2306.9,8166.34h-86.43c-6.18,0-10,5.06-8.43,11.24s7.86,11.23,14,11.23h86.43c6.18,0,10-5.05,8.44-11.23S2313.08,8166.34,2306.9,8166.34Z" transform="translate(-289.3 -2390.82)"/><path class="cls-21" d="M4199.07,8710.41l-24.15-96.89c-3.57-14.29-18.05-25.88-32.34-25.88H3936.92c-14.3,0-23,11.59-19.43,25.88l24.16,96.89c3.56,14.3,18,25.88,32.33,25.88h205.66C4193.94,8736.29,4202.64,8724.71,4199.07,8710.41Z" transform="translate(-289.3 -2390.82)"/><path class="cls-17" d="M4140,8624.8c3.24,0,5.23-2.65,4.42-5.89a8.08,8.08,0,0,0-7.36-5.89H3944.88c-3.24,0-5.23,2.65-4.42,5.89a8.08,8.08,0,0,0,7.36,5.89Z" transform="translate(-289.3 -2390.82)"/><path class="cls-17" d="M4145.64,8647.46c3.24,0,5.22-2.65,4.42-5.89a8.08,8.08,0,0,0-7.36-5.89H3950.53c-3.24,0-5.23,2.65-4.42,5.89a8.08,8.08,0,0,0,7.36,5.89Z" transform="translate(-289.3 -2390.82)"/><path class="cls-17" d="M4155.71,8664.23a8.08,8.08,0,0,0-7.36-5.89H3956.18c-3.24,0-5.23,2.65-4.42,5.89a8.08,8.08,0,0,0,7.36,5.89h192.17C4154.53,8670.12,4156.51,8667.47,4155.71,8664.23Z" transform="translate(-289.3 -2390.82)"/><path class="cls-17" d="M4007.85,8683.72h-45.34c-3.24,0-5.23,2.65-4.42,5.89h0a8.08,8.08,0,0,0,7.36,5.89h45.33c3.24,0,5.23-2.65,4.43-5.89A8.08,8.08,0,0,0,4007.85,8683.72Z" transform="translate(-289.3 -2390.82)"/><path class="cls-13" d="M2773,8639.51c4.88,0,7.85-4,6.63-8.83h0c-1.21-4.88-6.15-8.84-11-8.84H2376.91c-4.87,0-7.84,4-6.63,8.84h0c1.22,4.88,6.16,8.83,11,8.83Z" transform="translate(-289.3 -2390.82)"/><path class="cls-13" d="M2780.29,8668.84c4.88,0,7.84-4,6.63-8.83h0c-1.22-4.88-6.16-8.84-11-8.84H2384.23c-4.88,0-7.85,4-6.63,8.84h0a12,12,0,0,0,11,8.83Z" transform="translate(-289.3 -2390.82)"/><path class="cls-13" d="M2783.52,8681.81H2391.87c-4.88,0-7.85,4-6.64,8.83s6.16,8.84,11,8.84h391.65c4.88,0,7.85-4,6.64-8.84S2788.4,8681.81,2783.52,8681.81Z" transform="translate(-289.3 -2390.82)"/><path class="cls-13" d="M3278.41,8639.51c4.88,0,7.85-4,6.64-8.83h0c-1.22-4.88-6.16-8.84-11-8.84H2882.35c-4.87,0-7.84,4-6.63,8.84h0c1.22,4.88,6.16,8.83,11,8.83Z" transform="translate(-289.3 -2390.82)"/><path class="cls-13" d="M3285.72,8668.84c4.88,0,7.85-4,6.64-8.83h0c-1.22-4.88-6.16-8.84-11-8.84H2889.67c-4.88,0-7.85,4-6.64,8.84h0c1.22,4.88,6.16,8.83,11,8.83Z" transform="translate(-289.3 -2390.82)"/><path class="cls-13" d="M3289,8681.81H2897.31c-4.88,0-7.85,4-6.63,8.83s6.15,8.84,11,8.84h391.65c4.88,0,7.85-4,6.64-8.84S3293.84,8681.81,3289,8681.81Z" transform="translate(-289.3 -2390.82)"/><path class="cls-13" d="M3768.3,8639.51c4.88,0,7.85-4,6.63-8.83h0c-1.21-4.88-6.15-8.84-11-8.84H3372.24c-4.88,0-7.85,4-6.63,8.84h0c1.22,4.88,6.16,8.83,11,8.83Z" transform="translate(-289.3 -2390.82)"/><path class="cls-13" d="M3775.61,8668.84c4.88,0,7.85-4,6.64-8.83h0c-1.22-4.88-6.16-8.84-11-8.84H3379.56c-4.88,0-7.85,4-6.64,8.84h0c1.22,4.88,6.16,8.83,11,8.83Z" transform="translate(-289.3 -2390.82)"/><path class="cls-13" d="M3789.88,8690.64a12,12,0,0,0-11-8.83H3387.2c-4.88,0-7.85,4-6.64,8.83s6.16,8.84,11,8.84h391.65C3788.13,8699.48,3791.1,8695.52,3789.88,8690.64Z" transform="translate(-289.3 -2390.82)"/><path class="cls-13" d="M3865.65,8749.68H2355.31c-13.35,0-26.9-10.81-30.21-24.09l-30.16-121c-1.72-6.88-.47-13.69,3.42-18.66s9.65-7.57,16.45-7.57H3825.15c13.34,0,26.9,10.8,30.21,24.09l30.16,121c1.72,6.88.47,13.68-3.42,18.66S3872.45,8749.68,3865.65,8749.68ZM2314.81,8587.24a11.63,11.63,0,0,0-9.47,4.17c-2.23,2.85-2.87,6.79-1.8,11.07l30.16,121c2.34,9.42,12.24,17.38,21.61,17.38H3865.65a11.63,11.63,0,0,0,9.47-4.17c2.23-2.86,2.87-6.79,1.8-11.07l-30.15-121c-2.35-9.42-12.25-17.38-21.62-17.38Z" transform="translate(-289.3 -2390.82)"/><path class="cls-21" d="M2501.47,6333.72a5.07,5.07,0,0,0-5.72-4.32l-55.3,7.73a57.67,57.67,0,0,0-28.27-43.54l-3.35-1.95a57.69,57.69,0,0,0-54-2l-21.85-54.8a5.08,5.08,0,0,0-9.43,3.76l22.45,56.3a56.6,56.6,0,0,0-9.77,8.89,55.62,55.62,0,0,0-6.24,8.73l-6.08,10.47-50.84-29.53a5.07,5.07,0,0,0-5.09,8.78l50.83,29.52-3.45,5.94a57.35,57.35,0,0,0-6.69,17.84l-69.5,9.72a5.07,5.07,0,0,0,.7,10.1,5.78,5.78,0,0,0,.71-.05l67-9.38a57.81,57.81,0,0,0,28.64,50.61l3.35,1.94a57.76,57.76,0,0,0,56.06,1l23.83,59.78a5.08,5.08,0,0,0,4.72,3.19,5,5,0,0,0,1.88-.36,5.07,5.07,0,0,0,2.83-6.59l-24.59-61.67a57.12,57.12,0,0,0,14.11-16.23l3.45-5.94,50.84,29.53a5,5,0,0,0,2.54.69,5.08,5.08,0,0,0,2.55-9.47L2427,6382.88l6.07-10.46a56.61,56.61,0,0,0,7.62-25.08l56.45-7.89A5.07,5.07,0,0,0,2501.47,6333.72Z" transform="translate(-289.3 -2390.82)"/><path class="cls-22" d="M2433.08,6372.42l-14.62,25.18a57.84,57.84,0,0,1-78.84,20.9l-3.35-1.94a57.85,57.85,0,0,1-20.9-78.84l14.63-25.18a55.62,55.62,0,0,1,6.24-8.73l101.35,58.87A57.05,57.05,0,0,1,2433.08,6372.42Z" transform="translate(-289.3 -2390.82)"/><path class="cls-21" d="M1342.16,6996.26l-63.86-18.11a57,57,0,0,0-4.27-21.08l-2.6-6.36,54.4-22.28A5.07,5.07,0,1,0,1322,6919l-54.41,22.28-4.58-11.19a56.69,56.69,0,0,0-15.24-21.33l28.17-49.56a5.07,5.07,0,1,0-8.82-5l-27.59,48.54a57.66,57.66,0,0,0-51.75-4.15l-3.58,1.47a57.67,57.67,0,0,0-34.5,41.58l-56.76-16.1a5.07,5.07,0,0,0-2.77,9.76l58.31,16.55a56.91,56.91,0,0,0,1.09,13.16,55.63,55.63,0,0,0,3.12,10.28l4.58,11.19-54.4,22.28a5.08,5.08,0,0,0,1.93,9.78,5.21,5.21,0,0,0,1.92-.38l54.4-22.29,2.6,6.36a57,57,0,0,0,10.06,16.17l-34.68,61a5.07,5.07,0,1,0,8.82,5l33.46-58.85a57.81,57.81,0,0,0,57.57,8.16l3.59-1.47a57.75,57.75,0,0,0,35-43.83L1339.4,7006a5.08,5.08,0,0,0,2.76-9.77Z" transform="translate(-289.3 -2390.82)"/><path class="cls-22" d="M1263,6930.13l11,26.94a57.83,57.83,0,0,1-31.5,75.23l-3.59,1.47a57.85,57.85,0,0,1-75.23-31.51l-11-26.94a55.63,55.63,0,0,1-3.12-10.28L1258,6920.61A57.28,57.28,0,0,1,1263,6930.13Z" transform="translate(-289.3 -2390.82)"/><path class="cls-21" d="M3521.54,7054.48l-63.87-18.12a57.27,57.27,0,0,0-4.26-21.08l-2.61-6.35,54.41-22.29a5.07,5.07,0,1,0-3.85-9.39l-54.4,22.29-4.59-11.2a56.68,56.68,0,0,0-15.23-21.33l28.17-49.56a5.08,5.08,0,0,0-8.83-5L3418.89,6961a57.69,57.69,0,0,0-51.75-4.15l-3.58,1.47a57.68,57.68,0,0,0-34.49,41.58l-56.76-16.1a5.08,5.08,0,1,0-2.77,9.77l58.31,16.54a56.29,56.29,0,0,0,4.2,23.44l4.59,11.2-54.4,22.28a5.07,5.07,0,0,0,1.92,9.77,5,5,0,0,0,1.92-.38l54.41-22.28,2.6,6.35a57.34,57.34,0,0,0,10,16.18l-34.68,61a5.08,5.08,0,0,0,8.83,5l33.45-58.85a57.8,57.8,0,0,0,57.58,8.16l3.58-1.47a57.74,57.74,0,0,0,35-43.83l61.91,17.56a5,5,0,0,0,6.27-3.5A5.08,5.08,0,0,0,3521.54,7054.48Z" transform="translate(-289.3 -2390.82)"/><path class="cls-22" d="M3442.37,6988.34l11,26.94a57.84,57.84,0,0,1-31.51,75.23l-3.58,1.47a57.84,57.84,0,0,1-75.23-31.51l-11-26.94a56.31,56.31,0,0,1-3.12-10.27l108.47-44.43A56.75,56.75,0,0,1,3442.37,6988.34Z" transform="translate(-289.3 -2390.82)"/><path class="cls-23" d="M2049.49,8859.42c-.24.17-.52.4-.87.65-13,10-101.59,70.39-300.56,43.63q-2,11.47-3.81,22.71c-.6,3.75-1.19,7.48-1.74,11.18s-1.09,7.3-1.61,10.92l0,.2c-.52,3.64-1,7.25-1.5,10.86s-1,7.2-1.42,10.8-.87,7.08-1.29,10.61l0,.17c-.4,3.51-.81,7-1.18,10.47s-.74,7-1.09,10.44-.68,6.9-1,10.33-.62,6.81-.89,10.2c-.21,2.47-.42,4.93-.6,7.39-.17,2-.32,4.05-.44,6.07-.13,1.71-.25,3.43-.36,5.15-.06.9-.12,1.8-.17,2.7-.18,2.88-.36,5.73-.52,8.59-.17,3.05-.32,6.11-.48,9.15,0,.59-.05,1.16-.07,1.75-.1,2.27-.21,4.53-.29,6.77-.07,1.79-.15,3.55-.19,5.32-.2,5.7-.34,11.31-.43,16.89,0,2.57-.09,5.11-.11,7.64,0,3,0,6,0,8.91,0,.24,0,.46,0,.69,0,2.89,0,5.76,0,8.61q0,3.57.09,7.08c0,2,.07,4,.12,6,0,.69,0,1.41,0,2.1q.09,3.14.18,6.22c.08,2.23.16,4.42.24,6.61.11,2.37.22,4.73.33,7.06.12,2.75.26,5.47.42,8.19,0,.24,0,.5,0,.74.15,2.67.33,5.32.5,8s.39,5.55.61,8.28.44,5.47.68,8.17.47,5.4.75,8.06.51,5.08.78,7.6c0,.3.07.61.1.91.27,2.46.54,4.88.84,7.31s.62,5.12,1,7.67a1.12,1.12,0,0,1,0,.2c.34,2.51.66,5,1,7.52s.7,5,1.09,7.47a1.12,1.12,0,0,1,0,.2c.38,2.42.75,4.83,1.13,7.23a.25.25,0,0,1,0,.12c.39,2.44.81,4.85,1.22,7.26s.85,4.84,1.29,7.24c.54,2.94,1.08,5.85,1.65,8.74.37,1.8.72,3.6,1.09,5.39.46,2.26.93,4.48,1.4,6.68.07.29.14.58.2.87.44,2.08.92,4.16,1.38,6.2.5,2.27,1,4.5,1.57,6.73,1.1,4.59,2.22,9.1,3.4,13.55.52,2,1.07,4,1.62,6s1.15,4.16,1.75,6.22c.42,1.52.86,3,1.3,4.53s.87,3,1.33,4.45c.35,1.17.71,2.33,1.08,3.5q.93,3,1.88,6c1.29,4,2.62,7.93,4,11.81q1,2.91,2,5.77c.68,1.9,1.37,3.8,2.06,5.67q2.87,7.69,5.85,15c.59,1.48,1.2,2.93,1.81,4.38.86,2.1,1.74,4.17,2.63,6.23.7,1.61,1.4,3.22,2.12,4.81q5.76,13,11.86,24.85c.81,1.57,1.6,3.09,2.41,4.62,1.92,3.63,3.85,7.18,5.81,10.68.67,1.23,1.38,2.45,2.07,3.66s1.3,2.25,2,3.35l2.25,3.85c1.76,2.91,3.5,5.75,5.27,8.54.6,1,1.21,1.94,1.82,2.88,1.91,3,3.84,5.91,5.77,8.78.69,1,1.37,2,2.07,3,4.54,6.61,9.08,12.82,13.62,18.69l2.52,3.22q6.59,8.31,13,15.63c1.36,1.55,2.73,3.08,4.08,4.58a4.12,4.12,0,0,1,.35.37c.81.88,1.62,1.78,2.43,2.64,4.85,5.24,9.6,10.05,14.19,14.46.76.73,1.52,1.46,2.28,2.17,1.5,1.44,3,2.81,4.47,4.15s2.79,2.52,4.14,3.71l.2.17,4,3.43c2.23,1.88,4.4,3.68,6.49,5.36l1.75,1.38c3.8,3,7.36,5.68,10.62,8l2.86,2c2.73,1.88,5.2,3.51,7.37,4.87.65.43,1.28.82,1.88,1.19,1.34.81,2.51,1.54,3.55,2.14.23.14.47.27.68.38s.45.28.67.4c2.4,1.38,3.71,2,3.71,2q19.07-6.21,36.93-13.7c75.25-31.5,134.77-79.32,181.88-134.74a4.94,4.94,0,0,0,.35-.45c101.39-119.51,145-274.17,163.6-376.56,2-11.34,3.81-22,5.3-32C2115.61,8960.36,2055.76,8869.78,2049.49,8859.42Z" transform="translate(-289.3 -2390.82)"/><path class="cls-7" d="M2281.65,9053.13c-17,93.35-56.72,234.35-149.15,343.3-.1.15-.21.27-.32.41-42.95,50.53-97.21,94.13-165.81,122.84q-16.29,6.84-33.67,12.49s-1.2-.57-3.39-1.83c-.2-.11-.39-.24-.6-.36s-.41-.22-.62-.35c-.95-.55-2-1.21-3.24-1.95-.55-.34-1.12-.69-1.72-1.09-2-1.24-4.23-2.73-6.72-4.44l-2.6-1.84c-3-2.12-6.22-4.54-9.69-7.29-.53-.43-1-.84-1.59-1.26q-2.87-2.31-5.92-4.89l-3.6-3.12-.19-.16q-1.85-1.64-3.77-3.39t-4.08-3.78c-.69-.65-1.39-1.31-2.08-2-4.18-4-8.51-8.4-12.93-13.18-.74-.78-1.48-1.6-2.22-2.4a2.61,2.61,0,0,0-.32-.34c-1.23-1.36-2.47-2.76-3.72-4.17q-5.85-6.69-11.85-14.26c-.77-1-1.55-2-2.31-2.93-4.14-5.35-8.27-11-12.42-17-.62-.91-1.25-1.83-1.88-2.78q-2.64-3.9-5.26-8c-.55-.86-1.12-1.74-1.66-2.63-1.61-2.54-3.2-5.14-4.8-7.79l-2-3.5c-.6-1-1.19-2-1.78-3.06s-1.28-2.22-1.88-3.34q-2.68-4.77-5.3-9.73c-.74-1.4-1.47-2.79-2.2-4.22q-5.55-10.81-10.81-22.65c-.66-1.45-1.3-2.92-1.94-4.38q-1.21-2.82-2.4-5.68c-.55-1.33-1.11-2.65-1.64-4q-2.74-6.71-5.34-13.72c-.63-1.7-1.25-3.44-1.88-5.17s-1.25-3.49-1.85-5.26q-1.83-5.29-3.61-10.76-.87-2.73-1.72-5.5c-.33-1.07-.66-2.13-1-3.19-.43-1.36-.83-2.69-1.22-4.06s-.8-2.74-1.18-4.13c-.55-1.88-1.08-3.76-1.6-5.67s-1-3.65-1.48-5.5q-1.61-6.07-3.09-12.35c-.5-2-1-4.07-1.44-6.14-.42-1.86-.86-3.76-1.25-5.65-.06-.26-.12-.53-.19-.79-.43-2-.86-4-1.28-6.09-.34-1.63-.65-3.27-1-4.92-.51-2.64-1-5.29-1.5-8-.4-2.18-.8-4.38-1.17-6.59s-.76-4.4-1.12-6.62a.5.5,0,0,0,0-.12c-.34-2.19-.69-4.37-1-6.58a1.11,1.11,0,0,0,0-.19q-.52-3.39-1-6.81c-.33-2.28-.62-4.56-.93-6.86a1,1,0,0,0,0-.18c-.3-2.33-.59-4.65-.87-7s-.52-4.42-.76-6.67c0-.27-.07-.55-.09-.82-.25-2.3-.49-4.6-.72-6.93s-.47-4.88-.67-7.35-.43-4.94-.63-7.45-.38-5-.55-7.55-.32-4.81-.46-7.25c0-.22,0-.46,0-.68-.15-2.48-.28-5-.39-7.46-.1-2.13-.2-4.27-.3-6.44-.07-2-.15-4-.21-6s-.12-3.77-.17-5.68l0-1.91c-.06-1.82-.11-3.65-.12-5.49q-.06-3.2-.08-6.45c0-2.6,0-5.22,0-7.85,0-.22,0-.42,0-.63,0-2.69,0-5.39,0-8.13,0-2.3.06-4.62.1-7,.08-5.08.21-10.2.39-15.4,0-1.61.11-3.22.17-4.85.08-2,.18-4.1.27-6.17,0-.54,0-1.06.07-1.59.14-2.78.28-5.56.44-8.35q.21-3.9.47-7.83c0-.82.1-1.64.15-2.46.1-1.57.21-3.13.33-4.7.11-1.84.25-3.69.4-5.53.17-2.25.35-4.48.54-6.74.25-3.09.53-6.2.81-9.3s.59-6.26.91-9.41.63-6.34,1-9.52.71-6.35,1.07-9.55l0-.15c.38-3.22.76-6.43,1.18-9.67s.84-6.56,1.29-9.85.89-6.58,1.37-9.9l0-.18c.47-3.31,1-6.62,1.47-10s1-6.77,1.58-10.19q1.62-10.23,3.47-20.7c181.4,24.39,262.14-30.69,274-39.78.31-.23.56-.44.79-.59,5.71,9.44,60.27,92,242.6,133.51C2285.12,9033,2283.51,9042.79,2281.65,9053.13Z" transform="translate(-289.3 -2390.82)"/><path class="cls-6" d="M2044.66,8889.81l-115.35,640.53c-1.19-.69-2.69-1.57-4.46-2.66-.55-.34-1.12-.69-1.72-1.09-2-1.24-4.23-2.73-6.72-4.44l-2.6-1.84c-3-2.12-6.22-4.54-9.69-7.29-.53-.43-1-.84-1.59-1.26q-2.87-2.31-5.92-4.89l-3.6-3.12-.19-.16q-1.85-1.64-3.77-3.39t-4.08-3.78c-.69-.65-1.39-1.31-2.08-2-4.18-4-8.51-8.4-12.93-13.18-.74-.78-1.48-1.6-2.22-2.4a2.61,2.61,0,0,0-.32-.34c-1.23-1.36-2.47-2.76-3.72-4.17q-5.85-6.69-11.85-14.26c-.77-1-1.55-2-2.31-2.93-4.14-5.35-8.27-11-12.42-17-.62-.91-1.25-1.83-1.88-2.78q-2.64-3.9-5.26-8c-.55-.86-1.12-1.74-1.66-2.63-1.61-2.54-3.2-5.14-4.8-7.79l-2-3.5c-.6-1-1.19-2-1.78-3.06s-1.28-2.22-1.88-3.34q-2.68-4.77-5.3-9.73c-.74-1.4-1.47-2.79-2.2-4.22q-5.55-10.81-10.81-22.65c-.66-1.45-1.3-2.92-1.94-4.38q-1.21-2.82-2.4-5.68c-.55-1.33-1.11-2.65-1.64-4q-2.74-6.71-5.34-13.72c-.63-1.7-1.25-3.44-1.88-5.17s-1.25-3.49-1.85-5.26q-1.83-5.29-3.61-10.76-.87-2.73-1.72-5.5c-.33-1.07-.66-2.13-1-3.19-.43-1.36-.83-2.69-1.22-4.06s-.8-2.74-1.18-4.13c-.55-1.88-1.08-3.76-1.6-5.67s-1-3.65-1.48-5.5q-1.61-6.07-3.09-12.35c-.5-2-1-4.07-1.44-6.14-.42-1.86-.86-3.76-1.25-5.65-.06-.26-.12-.53-.19-.79-.43-2-.86-4-1.28-6.09-.34-1.63-.65-3.27-1-4.92-.51-2.64-1-5.29-1.5-8-.4-2.18-.8-4.38-1.17-6.59s-.76-4.4-1.12-6.62a.5.5,0,0,0,0-.12c-.34-2.19-.69-4.37-1-6.58a1.11,1.11,0,0,0,0-.19q-.52-3.39-1-6.81c-.33-2.28-.62-4.56-.93-6.86a1,1,0,0,0,0-.18c-.3-2.33-.59-4.65-.87-7s-.52-4.42-.76-6.67c0-.27-.07-.55-.09-.82-.25-2.3-.49-4.6-.72-6.93s-.47-4.88-.67-7.35-.43-4.94-.63-7.45-.38-5-.55-7.55-.32-4.81-.46-7.25c0-.22,0-.46,0-.68-.15-2.48-.28-5-.39-7.46-.1-2.13-.2-4.27-.3-6.44-.07-2-.15-4-.21-6s-.12-3.77-.17-5.68l0-1.91c-.06-1.82-.11-3.65-.12-5.49q-.06-3.2-.08-6.45c0-2.6,0-5.22,0-7.85,0-.22,0-.42,0-.63,0-2.69,0-5.39,0-8.13,0-2.3.06-4.62.1-7,.08-5.08.21-10.2.39-15.4,0-1.61.11-3.22.17-4.85.08-2,.18-4.1.27-6.17,0-.54,0-1.06.07-1.59.14-2.78.28-5.56.44-8.35q.21-3.9.47-7.83c0-.82.1-1.64.15-2.46.1-1.57.21-3.13.33-4.7.11-1.84.25-3.69.4-5.53.17-2.25.35-4.48.54-6.74.25-3.09.53-6.2.81-9.3s.59-6.26.91-9.41.63-6.34,1-9.52.71-6.35,1.07-9.55l0-.15c.38-3.22.76-6.43,1.18-9.67s.84-6.56,1.29-9.85.89-6.58,1.37-9.9l0-.18c.47-3.31,1-6.62,1.47-10s1-6.77,1.58-10.19q1.62-10.23,3.47-20.7C1966.47,8957.39,2044.66,8889.81,2044.66,8889.81Z" transform="translate(-289.3 -2390.82)"/><path class="cls-24" d="M2167.78,9062.45,1985,9205.22l-77.66-99.43-44.54,34.79,112.44,144L2202.56,9107Z" transform="translate(-289.3 -2390.82)"/><path class="cls-3" d="M6223.4,7722.23a18,18,0,0,1-15.41-27.4c20.49-33.87,40.65-68.68,59.87-103.48a18.06,18.06,0,0,1,31.61,17.46c-19.46,35.21-39.85,70.44-60.61,104.71A18,18,0,0,1,6223.4,7722.23Zm-5213.28-3.06a18,18,0,0,1-15.47-8.72c-20.82-34.49-41.17-69.75-60.49-104.8a18.06,18.06,0,1,1,31.63-17.43c19.08,34.65,39.19,69.49,59.76,103.57a18.05,18.05,0,0,1-15.43,27.38Zm5329.61-207.43a18.08,18.08,0,0,1-16.12-26.16c17.72-35.31,35.05-71.6,51.49-107.88a18.06,18.06,0,0,1,32.9,14.9c-16.66,36.72-34.18,73.45-52.12,109.18A18.06,18.06,0,0,1,6339.73,7511.74ZM894,7508.5a18.08,18.08,0,0,1-16.16-10c-18-35.93-35.47-72.69-52-109.27a18.05,18.05,0,0,1,32.9-14.86c16.33,36.14,33.63,72.47,51.39,108A18.05,18.05,0,0,1,894,7508.5Zm5545-215.79a18.05,18.05,0,0,1-16.72-24.85c14.88-36.66,29.26-74.21,42.76-111.62a18,18,0,1,1,33.95,12.23c-13.64,37.86-28.19,75.88-43.27,113A18,18,0,0,1,6439,7292.71Zm-5644-3.42a18.06,18.06,0,0,1-16.74-11.3c-15.11-37.33-29.63-75.38-43.15-113.06a18.05,18.05,0,0,1,34-12.19c13.36,37.23,27.71,74.82,42.63,111.72A18.08,18.08,0,0,1,795,7289.29Zm5725.57-222.78a18.07,18.07,0,0,1-17.21-23.5c12-38,23.35-76.54,33.74-114.66a18.06,18.06,0,0,1,34.85,9.49c-10.53,38.59-22,77.64-34.17,116.05A18,18,0,0,1,6520.55,7066.51Zm-5806.88-3.63a18.06,18.06,0,0,1-17.21-12.64c-12.05-38.3-23.5-77.38-34-116.14a18.05,18.05,0,1,1,34.85-9.45c10.39,38.3,21.7,76.91,33.62,114.75a18.07,18.07,0,0,1-17.23,23.48Zm5870.19-228.34a18.52,18.52,0,0,1-4.08-.47,18.06,18.06,0,0,1-13.52-21.65c8.87-38.51,17.13-77.86,24.52-117a18,18,0,0,1,35.47,6.7c-7.48,39.59-15.82,79.42-24.83,118.39A18,18,0,0,1,6583.86,6834.54Zm-5933.23-3.82a18.08,18.08,0,0,1-17.58-14c-9-39.14-17.26-79-24.67-118.47a18,18,0,1,1,35.48-6.66c7.32,39,15.53,78.39,24.39,117.06a18.07,18.07,0,0,1-13.56,21.64A18.86,18.86,0,0,1,650.63,6830.72Zm5977.91-232.45a18.78,18.78,0,0,1-2.68-.19,18.07,18.07,0,0,1-15.2-20.5c5.83-39.23,10.92-79.12,15.18-118.55a18.06,18.06,0,0,1,35.91,3.87c-4.32,39.92-9.48,80.28-15.38,120A18,18,0,0,1,6628.54,6598.27Zm-6022.29-4a18.07,18.07,0,0,1-17.84-15.43c-5.83-39.72-10.95-80.12-15.22-120.06A18.06,18.06,0,0,1,609.1,6455c4.22,39.46,9.27,79.39,15,118.65a18.05,18.05,0,0,1-17.89,20.67Zm6048.13-235c-.41,0-.84,0-1.25,0a18.07,18.07,0,0,1-16.78-19.25c2.72-39.4,4.67-79.58,5.82-119.39a17.79,17.79,0,0,1,18.58-17.52,18.05,18.05,0,0,1,17.52,18.57c-1.17,40.29-3.16,80.94-5.9,120.82A18.06,18.06,0,0,1,6654.38,6359.25Zm-6073.69-4.18a18.06,18.06,0,0,1-18-16.84c-2.68-40-4.62-80.67-5.73-120.89a18.06,18.06,0,0,1,17.53-18.56c10.53.09,18.28,7.59,18.55,17.54,1.11,39.77,3,80,5.67,119.49A18,18,0,0,1,581.93,6355C581.52,6355.06,581.1,6355.07,580.69,6355.07Zm6080.74-236.2a18.05,18.05,0,0,1-18.05-17.88c-.37-39.84-1.52-80.05-3.44-119.49a18.06,18.06,0,0,1,36.07-1.76c1.93,39.92,3.1,80.6,3.47,120.91a18,18,0,0,1-17.87,18.22ZM574,6114.53h-.2a18,18,0,0,1-17.85-18.24c.43-40.07,1.66-80.74,3.65-120.92a18.05,18.05,0,1,1,36.06,1.79c-2,39.71-3.2,79.91-3.62,119.52A18,18,0,0,1,574,6114.53Zm6075.81-235.82a18.07,18.07,0,0,1-18-16.48c-3.44-39.35-7.74-79.33-12.78-118.85a18.06,18.06,0,0,1,35.83-4.55c5.08,40,9.43,80.43,12.93,120.25a18.06,18.06,0,0,1-16.41,19.56C6650.85,5878.69,6650.32,5878.71,6649.79,5878.71ZM586,5874.35c-.54,0-1.08,0-1.62-.07A18.05,18.05,0,0,1,568,5854.69c3.57-40,8-80.51,13.1-120.23a18.05,18.05,0,0,1,35.81,4.61c-5.06,39.27-9.43,79.25-13,118.83A18.06,18.06,0,0,1,586,5874.35Zm6033.39-234.14a18.06,18.06,0,0,1-17.78-15.07c-6.6-39.28-14-78.8-22.15-117.46a18.06,18.06,0,0,1,35.35-7.4c8.19,39.14,15.71,79.13,22.39,118.88a18.05,18.05,0,0,1-14.81,20.8A19.17,19.17,0,0,1,6619.36,5640.21Zm-6002.62-4.33a17.25,17.25,0,0,1-3-.25,18,18,0,0,1-14.79-20.8c6.69-39.56,14.28-79.55,22.55-118.85a18.06,18.06,0,0,1,35.34,7.44c-8.19,38.84-15.68,78.35-22.3,117.42A18.05,18.05,0,0,1,616.74,5635.88Zm5953.43-231a18,18,0,0,1-17.48-13.67c-9.67-38.5-20.24-77.3-31.39-115.33a18.05,18.05,0,0,1,34.65-10.16c11.29,38.47,22,77.74,31.74,116.7a18,18,0,0,1-13.1,21.91A18.64,18.64,0,0,1,6570.17,5404.84ZM666.28,5400.6a18.09,18.09,0,0,1-17.51-22.47c9.82-38.91,20.57-78.17,31.93-116.68a18.05,18.05,0,0,1,34.63,10.21c-11.24,38.07-21.85,76.86-31.55,115.29A18.08,18.08,0,0,1,666.28,5400.6Zm5836.13-226.48a18.07,18.07,0,0,1-17.11-12.28c-12.72-37.7-26.36-75.64-40.58-112.77a18.06,18.06,0,0,1,33.72-12.92c14.38,37.6,28.21,76,41.08,114.14a18.07,18.07,0,0,1-17.11,23.83Zm-5768-4.14a17.68,17.68,0,0,1-5.79-1,18,18,0,0,1-11.3-22.88c12.84-37.91,26.67-76.18,41.11-113.78a18.05,18.05,0,0,1,33.7,13c-14.27,37.13-27.93,75-40.63,112.4A18.07,18.07,0,0,1,734.37,5170Zm5681.91-221A18,18,0,0,1,6399.7,4938c-15.55-36.24-32.18-73-49.4-109.12a18,18,0,1,1,32.58-15.53c17.44,36.59,34.26,73.74,50,110.41a18.06,18.06,0,0,1-16.59,25.18Zm-5595.85-3.14a18.07,18.07,0,0,1-16.57-25.2c15.84-36.8,32.63-73.77,49.9-109.88a18,18,0,1,1,32.56,15.58C869.26,4862,852.67,4898.53,837,4934.9A18.07,18.07,0,0,1,820.43,4945.82ZM6312.56,4731.5a18.06,18.06,0,0,1-16-9.65c-18.52-35.16-38-70.42-57.88-104.8a18,18,0,1,1,31.25-18.07c20.12,34.78,39.83,70.46,58.59,106.05a18.07,18.07,0,0,1-16,26.47Zm-5388.63-2.13A18.06,18.06,0,0,1,908,4702.89c18.67-35.39,38.34-70.94,58.46-105.66a18,18,0,1,1,31.23,18.1c-19.88,34.31-39.31,69.44-57.76,104.4A18,18,0,0,1,923.93,4729.37Zm5268-206.31a18.06,18.06,0,0,1-15.27-8.4c-21.1-33.36-43.29-67-65.95-99.86a18,18,0,1,1,29.73-20.47c22.93,33.28,45.38,67.27,66.73,101a18,18,0,0,1-5.61,24.9A17.85,17.85,0,0,1,6192,4523.06Zm-5147.69-1.42a18,18,0,0,1-15.22-27.71c21.43-33.83,43.84-67.73,66.64-100.77a18,18,0,0,1,29.71,20.5c-22.53,32.65-44.68,66.16-65.86,99.59A18.06,18.06,0,0,1,1044.28,4521.64Zm5011.09-196.77a18,18,0,0,1-14.47-7.22c-23.6-31.52-48.37-63.26-73.57-94.31a18,18,0,1,1,28-22.76c25.51,31.43,50.57,63.53,74.46,95.42a18,18,0,0,1-14.44,28.87Zm-4874.66-.94a18.06,18.06,0,0,1-14.44-28.88c24.07-32.09,49.1-64.13,74.41-95.27a18,18,0,0,1,28,22.77c-25,30.77-49.75,62.44-73.53,94.16A18,18,0,0,1,1180.71,4323.93Zm4722.94-185.77a18,18,0,0,1-13.55-6.12c-26.32-29.93-53.49-59.6-80.74-88.2a18.05,18.05,0,0,1,26.14-24.91c27.58,29,55.07,59,81.71,89.25a18.05,18.05,0,0,1-13.56,30Zm-4571.33-.7a18,18,0,0,1-13.54-30c26.48-30.07,54-60.08,81.69-89.18a18,18,0,1,1,26.13,24.9c-27.39,28.77-54.56,58.42-80.72,88.13A18,18,0,0,1,1332.32,4137.46ZM5737.81,3964a18,18,0,0,1-12.58-5.09c-28.5-27.67-57.9-55.12-87.36-81.57a18,18,0,1,1,24.11-26.86c29.83,26.75,59.56,54.52,88.41,82.52a18.05,18.05,0,0,1-12.58,31Zm-4239.65-.57a18,18,0,0,1-12.57-31c28.86-28,58.63-55.78,88.47-82.54a18.05,18.05,0,1,1,24.11,26.88c-29.5,26.44-58.92,53.89-87.44,81.56A17.94,17.94,0,0,1,1498.16,3963.4Zm4060.74-160a18,18,0,0,1-11.53-4.15c-30.33-25.17-61.78-50.2-93.45-74.42a18,18,0,1,1,21.92-28.68c32.05,24.51,63.87,49.84,94.58,75.31a18,18,0,0,1-11.52,31.94Zm-3881.65-.63a18,18,0,0,1-11.52-31.95c30.88-25.59,62.75-50.94,94.71-75.36a18.05,18.05,0,0,1,21.91,28.7c-31.58,24.12-63.07,49.17-93.59,74.46A18,18,0,0,1,1677.25,3802.79ZM5368,3657.48a18,18,0,0,1-10.37-3.29c-32.43-22.84-65.73-45.31-99-66.81a18.05,18.05,0,0,1,19.61-30.32c33.64,21.75,67.34,44.5,100.15,67.61a18,18,0,0,1-10.41,32.81Zm-3499.53-.78a18.05,18.05,0,0,1-10.41-32.82c32.78-23.06,66.56-45.84,100.39-67.69a18.05,18.05,0,1,1,19.59,30.33c-33.44,21.6-66.81,44.1-99.2,66.89A18,18,0,0,1,1868.48,3656.7Zm3297.86-129.64a18,18,0,0,1-9.18-2.52c-34.08-20.19-69-40-103.86-58.77a18,18,0,0,1,17.15-31.76c35.24,19,70.62,39,105.11,59.47a18.05,18.05,0,0,1-9.22,33.58Zm-3095.66-1a18.05,18.05,0,0,1-9.21-33.59c34.67-20.49,70.16-40.53,105.49-59.57a18.05,18.05,0,0,1,17.13,31.78c-34.92,18.81-70,38.63-104.23,58.87A18.09,18.09,0,0,1,2070.68,3526.08Zm2884.46-113a18.08,18.08,0,0,1-7.93-1.85c-35.61-17.45-72-34.39-108.1-50.33a18.05,18.05,0,0,1,14.57-33c36.57,16.15,73.37,33.29,109.43,51a18.06,18.06,0,0,1-8,34.27Zm-2672.46-1.2a18.05,18.05,0,0,1-7.94-34.27c36.22-17.71,73.21-34.89,109.94-51.06a18.05,18.05,0,0,1,14.56,33c-36.3,16-72.86,32.95-108.64,50.44A18,18,0,0,1,2282.68,3411.83Zm2453.08-95.71a18.07,18.07,0,0,1-6.64-1.27c-37.1-14.66-74.78-28.68-112-41.69a18.06,18.06,0,0,1,11.91-34.09c37.68,13.18,75.82,27.38,113.38,42.2a18.06,18.06,0,0,1-6.64,34.85Zm-2232.53-1.43a18.06,18.06,0,0,1-6.62-34.86c37.44-14.73,75.69-28.92,113.72-42.16a18.05,18.05,0,0,1,11.88,34.09c-37.58,13.09-75.39,27.1-112.37,41.67A18.11,18.11,0,0,1,2503.23,3314.69Zm2005.54-78a17.94,17.94,0,0,1-5.27-.8c-38-11.62-76.69-22.6-115-32.66a18.05,18.05,0,0,1,9.18-34.92c38.78,10.18,77.92,21.3,116.37,33a18.06,18.06,0,0,1-5.28,35.33Zm-1777.83-1.33a18.06,18.06,0,0,1-5.24-35.33c38.45-11.69,77.61-22.75,116.42-32.87a18,18,0,0,1,9.12,34.92c-38.34,10-77,20.94-115,32.49A18.26,18.26,0,0,1,2730.94,3235.39Zm1545.3-59.77a18.08,18.08,0,0,1-3.91-.43c-38.85-8.56-78.27-16.44-117.2-23.42a18,18,0,1,1,6.37-35.53c39.38,7.05,79.29,15,118.61,23.7a18.05,18.05,0,0,1-3.87,35.68Zm-1312.65-1a18.05,18.05,0,0,1-3.84-35.69c39.32-8.62,79.24-16.53,118.66-23.53a18.05,18.05,0,1,1,6.31,35.55c-38.94,6.92-78.4,14.74-117.25,23.24A17.81,17.81,0,0,1,2963.59,3174.65Zm1076-41.45a17.7,17.7,0,0,1-2.5-.17c-39.34-5.46-79.27-10.2-118.67-14.07a18.05,18.05,0,1,1,3.51-35.93c39.89,3.92,80.31,8.71,120.12,14.23a18.06,18.06,0,0,1-2.46,35.94Zm-839.22-.63a18,18,0,0,1-2.43-35.93c39.82-5.46,80.23-10.19,120.12-14.07a18.06,18.06,0,0,1,3.5,35.95c-39.43,3.82-79.37,8.49-118.72,13.88A17.29,17.29,0,0,1,3200.35,3132.57Zm600-23c-.35,0-.73,0-1.08,0-39.59-2.33-79.79-3.93-119.49-4.73a18.05,18.05,0,0,1,.38-36.1h.37c40.14.82,80.81,2.43,120.85,4.79a18.05,18.05,0,0,1-1,36.07Zm-360.65-.25a18,18,0,0,1-1-36.07c40-2.32,80.64-3.87,120.85-4.62a18,18,0,0,1,.69,36.09c-39.75.75-80,2.28-119.45,4.57Z" transform="translate(-289.3 -2390.82)"/><circle class="cls-24" cx="5826.04" cy="2105.94" r="594.76"/><path class="cls-18" d="M5573.29,4518.8c0,180.55,89.7,340.14,227,436.64,24.18,17,25.47,52.35,2.24,70.64l-.66.51a43.81,43.81,0,0,1-52.24,1.64c-160.24-112.53-265-298.76-265-509.43,0-341.71,282.85-619.11,623.87-622v88.7C5816.4,3988.37,5573.29,4226.05,5573.29,4518.8Z" transform="translate(-289.3 -2390.82)"/><path class="cls-18" d="M6124.77,3817.46l163,111.47a15,15,0,0,1,0,24.82l-163,111.47a15,15,0,0,1-23.53-12.4v-223A15,15,0,0,1,6124.77,3817.46Z" transform="translate(-289.3 -2390.82)"/><path class="cls-18" d="M6652.18,4516.12c0-180.54-89.71-340.13-227-436.64-24.19-17-25.47-52.34-2.24-70.63l.65-.51a43.83,43.83,0,0,1,52.25-1.64c160.25,112.53,265,298.75,265,509.42,0,341.71-282.36,619.11-623.39,622v-88.7C6409.52,5046.56,6652.18,4808.89,6652.18,4516.12Z" transform="translate(-289.3 -2390.82)"/><path class="cls-18" d="M6100.7,5217.47l-163-111.47a15,15,0,0,1,0-24.82l163-111.48a15,15,0,0,1,23.52,12.41v222.94A15,15,0,0,1,6100.7,5217.47Z" transform="translate(-289.3 -2390.82)"/><path class="cls-13" d="M6389.36,4448.35l-266.95,221.38-67.3,55.82a88.06,88.06,0,0,1-126.68-15l-103.8-138.37a70.79,70.79,0,0,1,113.26-84.94l70.08,93.44.56-.46L6299,4339.37a70.78,70.78,0,0,1,90.35,109Z" transform="translate(-289.3 -2390.82)"/><path class="cls-13" d="M6389.36,4448.35l-266.95,221.38a358.55,358.55,0,0,1-113.88-89.47L6299,4339.37a70.78,70.78,0,0,1,90.35,109Z" transform="translate(-289.3 -2390.82)"/><path class="cls-25" d="M4193.36,2565.18,3616.23,2392a28.82,28.82,0,0,0-16.56,0l-577.14,173.14a28.85,28.85,0,0,0-20.6,27.64v634.85c0,255.15,389.1,482.14,597.45,547a28.88,28.88,0,0,0,17.31,0c208.12-64.87,597.22-291.86,597.22-547V2592.82A28.86,28.86,0,0,0,4193.36,2565.18Z" transform="translate(-289.3 -2390.82)"/><path class="cls-26" d="M3607.92,3654.23a28.86,28.86,0,0,1-28.86-28.86V3054.53a28.86,28.86,0,0,1,28.86-28.86h461.71a28.86,28.86,0,0,1,28.85,28.86v173.14c0,148.21-253.36,342.82-480.81,424.83A29.44,29.44,0,0,1,3607.92,3654.23Z" transform="translate(-289.3 -2390.82)"/><path class="cls-27" d="M3607.92,3083.39H3146.21a28.86,28.86,0,0,1-28.85-28.86V2678.7a28.85,28.85,0,0,1,20.54-27.65l461.71-138.51a28.86,28.86,0,0,1,37.17,27.65v514.34A28.86,28.86,0,0,1,3607.92,3083.39Z" transform="translate(-289.3 -2390.82)"/><path class="cls-28" d="M506.47,4337.15,356.13,4721.36l133.63-100.22,104,20.57c41.59-108.91,89.56-203.83,141.73-286.79Z" transform="translate(-289.3 -2390.82)"/><path class="cls-28" d="M1174.65,5005.32,790.44,5155.66,890.65,5022l-20.57-104c108.91-41.59,203.83-89.55,286.79-141.73Z" transform="translate(-289.3 -2390.82)"/><path class="cls-29" d="M669.35,4869.69l-27.24-27.25c-68.84-52-170.17-21.74-206.26,57.63L289.3,5222.49l322.42-146.55C691.09,5039.85,721.35,4938.52,669.35,4869.69Z" transform="translate(-289.3 -2390.82)"/><path class="cls-30" d="M1725.93,3785.87S924.09,3719,573.3,4637.82l117.86,117.87,65,65L874,4938.52C1792.73,4587.7,1725.93,3785.87,1725.93,3785.87Z" transform="translate(-289.3 -2390.82)"/><polygon class="cls-28" points="694.06 2137.61 527.01 2137.61 317.38 2514.28 694.06 2286.33 694.06 2137.61"/><path class="cls-31" d="M1228.66,3890l393.13,393.14c123.2-267.41,104.11-497.27,104.11-497.27S1496.07,3766.81,1228.66,3890Z" transform="translate(-289.3 -2390.82)"/><circle class="cls-32" cx="918.63" cy="1912.91" r="188.98"/><path class="cls-24" d="M1208.06,4423a119.22,119.22,0,0,1-84.35-203.56c46.5-46.5,122.2-46.5,168.68,0a24.78,24.78,0,0,1-35.05,35.05,69.71,69.71,0,1,0,0,98.58,24.78,24.78,0,0,1,35.05,35.05A118.91,118.91,0,0,1,1208.06,4423Z" transform="translate(-289.3 -2390.82)"/></svg>