<svg id="_лой_1" data-name="‘лой_1" xmlns="http://www.w3.org/2000/svg" viewBox="0 0 2408.13 1707.29"><defs><style>.cls-1{fill:#f1f2f7;}.cls-2{opacity:0.4;}.cls-3{fill:#d7e5ff;}.cls-4{fill:#aec3ff;}.cls-5{fill:#739af0;}.cls-6{fill:#dfebfd;}.cls-7,.cls-8{fill:#ebf3fa;}.cls-24,.cls-7{opacity:0.5;}.cls-9{fill:#f99746;}.cls-10{fill:#fff;}.cls-11{fill:#ffb27d;}.cls-12{fill:#233862;}.cls-13{fill:#00131f;}.cls-14{fill:#363736;}.cls-15{fill:#ed975d;}.cls-16{fill:#008aff;}.cls-17{fill:#006fce;}.cls-18{fill:#1c4b8e;}.cls-19{fill:#ffc933;}.cls-20{fill:#f4904d;}.cls-21{fill:#fca56b;}.cls-22{fill:#163560;}.cls-23{fill:#1f4d84;}.cls-25{fill:#b3cff9;}.cls-26{fill:#82b378;}.cls-27{fill:#a8d29f;}.cls-28{fill:#ffa561;}.cls-29{fill:#f9ddbf;}.cls-30{fill:#2a4e96;}.cls-31{fill:#f4a269;}.cls-32{fill:#1f4a91;}.cls-33{fill:#2e3552;}.cls-34{fill:#95b3ef;}</style></defs><title>SEO</title><path class="cls-1" d="M354.73,1822.58s-297.79-314.37-108.14-684,444.12-183.65,431.95-614S1264.09,57.4,1454.3,182.25s207,205.26,599.76,155.67,575.44,316.71,446.36,570.87c-150.77,296.86,303.39,325.62-41.7,914.53Z" transform="translate(-183.41 -119.63)"/><g class="cls-2"><path class="cls-3" d="M2412.54,717.56a311.88,311.88,0,0,1-5,55.79,308,308,0,0,1-48.88,118.82c-55.77,81.57-149.54,135.1-255.81,135.1-126.42,0-235.15-75.73-283.27-184.32a305.5,305.5,0,0,1-15.78-44.54,312,312,0,0,1-3.64-146.75c0-.25.1-.48.15-.73a310.39,310.39,0,0,1,120.89-184.24c6.36-4.62,12.93-9,19.65-13.13a308,308,0,0,1,162-45.72q11.8,0,23.4.88a307.82,307.82,0,0,1,153.39,54.52h0A310.76,310.76,0,0,1,2364.6,552q7.11,11.24,13.29,23.1a308.48,308.48,0,0,1,34.65,142.51Z" transform="translate(-183.41 -119.63)"/><path class="cls-4" d="M1997.61,578.92c-12.36,19.58,5.16,53.57-31.91,44.3s-59.74-13.4-61.8,7.2,27.81,20.6,27.81,42.23-13.4,28.78-34,18.51-26.52-25.21-50.47-15.94-37.85,3.09-43.26-15.45a26.92,26.92,0,0,0-3.84-8.11c0-.25.1-.48.15-.73a310.39,310.39,0,0,1,120.89-184.24c6.36-4.62,12.93-9,19.65-13.13,9.65.35,21.2,4,31,16.19,21.62,26.79,36,13.39,30.89,44.29s3.09,35,20.6,34,38.11-1,40.16,12.36S2010,559.35,1997.61,578.92Z" transform="translate(-183.41 -119.63)"/><path class="cls-4" d="M2125.84,764.31s-27.29,8.75-34.5-10.3,1-23.17-23.17-28.84-26.27-22.14-41.72-20.08-7.72,8.24-25.74,21.63-34.51,7.21-34,31.92,27.29,28.59,32.7,44.81-3.86,23.17,7.72,35.53,33.22,6.95,23.18,23.94-25.49,30.13-17.77,56.39,2.32,27.81,15.45,46.35,38.62,24.72,42.48,12.36-17.76-28.58-10.81-40.94,18.54-3.86,23.17-22.4,23.43-18.54,25-31.41-22.66-32.45-13.39-40.69,27.81,14.94,42.23-5.66,4.63-37.08,19.56-56.65S2136.14,753,2125.84,764.31Z" transform="translate(-183.41 -119.63)"/><path class="cls-4" d="M2412.54,717.56a311.88,311.88,0,0,1-5,55.79,308,308,0,0,1-48.88,118.82,35.39,35.39,0,0,1-24.76-.67c-38.62-15.45-10-57.16,5.41-78s-24-11.58-52.53-30.89,3.09-71.07-26.26-62.57-64.89,19.31-81.88-9.27,15.45-33.22.77-57.16,8.5-37.85,37.85-40.17,25.49-23.17,61.8-26.26,35.53,43.26,75.7,40.17,38.36,6.18,38.36,6.18a18.59,18.59,0,0,1,8.38,1.76A310.18,310.18,0,0,1,2412.54,717.56Z" transform="translate(-183.41 -119.63)"/><path class="cls-4" d="M2377.89,575.05c-33.4,16.25-46.81-27.95-75.36-14.66-28.78,13.39-23.75-12.36-46.4-28.85s-68,13.4-65.92-12.36,36.05-18.54,43.26-39.13,40.17-15.45,40.17-15.45a22.55,22.55,0,0,1,6-1.36h0A310.76,310.76,0,0,1,2364.6,552Q2371.71,563.19,2377.89,575.05Z" transform="translate(-183.41 -119.63)"/><path class="cls-4" d="M2096.49,486.23s17.51-25.26-10.3-32.72-27.29,2.31-48.92,0-30.13,14.44-13.91,32.72,29.36,53.36,44,34.66S2079.24,488,2096.49,486.23Z" transform="translate(-183.41 -119.63)"/></g><path class="cls-4" d="M2213.92,670.58v964c0,16.86-12.17,30.54-27.19,30.54H795.83c-15,0-27.18-13.68-27.18-30.54v-964c0-16.88,12.17-30.55,27.18-30.55h1390.9C2201.75,640,2213.92,653.7,2213.92,670.58Z" transform="translate(-183.41 -119.63)"/><path class="cls-5" d="M2213.92,667.22V740H768.65V667.22A27.18,27.18,0,0,1,795.83,640h1390.9A27.18,27.18,0,0,1,2213.92,667.22Z" transform="translate(-183.41 -119.63)"/><path class="cls-6" d="M812.86,690a12.66,12.66,0,1,1,12.65,12.66A12.65,12.65,0,0,1,812.86,690Z" transform="translate(-183.41 -119.63)"/><path class="cls-6" d="M862.73,690a12.66,12.66,0,1,1,12.66,12.66A12.66,12.66,0,0,1,862.73,690Z" transform="translate(-183.41 -119.63)"/><path class="cls-6" d="M913.86,690a12.66,12.66,0,1,1,12.66,12.66A12.66,12.66,0,0,1,913.86,690Z" transform="translate(-183.41 -119.63)"/><rect class="cls-7" x="1362.9" y="1245.41" width="152.43" height="152.43"/><polygon class="cls-5" points="1374.35 1380.43 1419.37 1299.26 1452.48 1344.41 1469.01 1326.34 1504.04 1380.43 1374.35 1380.43"/><path class="cls-5" d="M1624.24,1407.23a11.65,11.65,0,1,1,11.65,11.65A11.66,11.66,0,0,1,1624.24,1407.23Z" transform="translate(-183.41 -119.63)"/><rect class="cls-7" x="1362.9" y="966.38" width="380.06" height="220.29"/><polygon class="cls-5" points="1510.04 1020.09 1510.04 1132.96 1595.81 1076.53 1510.04 1020.09"/><path class="cls-8" d="M2100.25,922a91.2,91.2,0,0,1-25.93,63.85,87,87,0,0,1-62.35,26.54H983.49C931,1012.38,888,971.71,888,922c0-24.85,10.73-47.45,28-63.83a97.83,97.83,0,0,1,67.41-26.55H2012C2060.53,831.61,2100.25,872.28,2100.25,922Z" transform="translate(-183.41 -119.63)"/><path class="cls-9" d="M2100.25,922a91.2,91.2,0,0,1-25.93,63.85,87,87,0,0,1-62.35,26.54H1825.86V831.61H2012C2060.53,831.61,2100.25,872.28,2100.25,922Z" transform="translate(-183.41 -119.63)"/><path class="cls-10" d="M1982.46,954.85a47.33,47.33,0,0,1-6.9-.51A46.07,46.07,0,0,1,1955,871.75h0a46.07,46.07,0,1,1,27.51,83.1Zm-23-77a38.48,38.48,0,1,0,53.82,8,38.52,38.52,0,0,0-53.82-8Z" transform="translate(-183.41 -119.63)"/><rect class="cls-10" x="1919.33" y="921.2" width="7.59" height="62.87" transform="translate(1361.27 -1279.5) rotate(53.49)"/><path class="cls-10" d="M1880.3,984.33h0a6.77,6.77,0,0,1,1.41-9.47l29.76-22a6.77,6.77,0,0,1,9.48,1.41h0a6.78,6.78,0,0,1-1.42,9.48l-29.75,22A6.78,6.78,0,0,1,1880.3,984.33Z" transform="translate(-183.41 -119.63)"/><path class="cls-11" d="M1192.25,797.43a6.86,6.86,0,0,0-1.23,7.36.06.06,0,0,0,0,0c1.78,4.91,7.65,10.39,14.46,15.87.87.7,1.65,1.34,2.32,1.93l.52.47.4.36c6.36,5.86,4,7.21,15.38,19.1,13,13.55,22,13.8,24.53,12.57,2.16-1-2.22-8.24-7.08-16.32l-.7-1.18c-.65-1.07-1.29-2.16-1.93-3.24-5.69-9.72-4.23-14.28-2.87-28.75,1.1-11.75,18.31-65.66,18.31-65.66l-25-4.31s-7.53,42.93-15.81,49.54c-4.43,3.52-9.38,3.56-13.64,6.18l-.88.55A32.8,32.8,0,0,0,1192.25,797.43Z" transform="translate(-183.41 -119.63)"/><path class="cls-12" d="M1192.25,797.43a6.86,6.86,0,0,0-1.23,7.36.06.06,0,0,0,0,0c2.18,4.9,7.9,10.36,14.48,15.82.87.71,1.62,1.37,2.3,2l.52.47.4.36c6.36,5.86,4,7.21,15.38,19.1,13,13.55,22,13.8,24.53,12.57,2.16-1-2.22-8.24-7.08-16.32a55.57,55.57,0,0,1-23.2-17.11c-7.55-9.64-12.68-21.93-17.82-29.48l-1.46-.28A32.8,32.8,0,0,0,1192.25,797.43Z" transform="translate(-183.41 -119.63)"/><path class="cls-11" d="M1393.46,781.91c1.54,7.71,12.52,6.43,24.79,3.43s9.35.57,26.81-1.36,22.75-8.43,23.28-11c.48-2.3-8.15-3.11-17.4-4.18l-3.5-.42c-10.45-1.32-18.09-8.06-27.58-13.6-9-5.25-22.39-26.62-22.39-26.62l-24,1.89s12.56,19.09,17.42,27.39c2.85,4.88,2.7,11.33,2.34,16.31A31.21,31.21,0,0,0,1393.46,781.91Z" transform="translate(-183.41 -119.63)"/><path class="cls-12" d="M1418.25,785.34c12.27-3,9.35.57,26.81-1.36s22.75-8.43,23.28-11c.48-2.3-8.15-3.11-17.4-4.18l-.08.17a49.3,49.3,0,0,1-25,7.77c-11.84.28-24.39-3.12-32.57-3a31.21,31.21,0,0,0,.18,8.19C1395,789.62,1406,788.34,1418.25,785.34Z" transform="translate(-183.41 -119.63)"/><path class="cls-13" d="M1301.76,628.79,1279.36,689l-29.25,78.63a47.31,47.31,0,0,1-15.52-1.43c-7-2-15-7.31-15-7.31s8.14-84.43,23.3-132.9c3.88-12.44,8.23-22.5,13-28.16C1279.38,570.12,1301.76,628.79,1301.76,628.79Z" transform="translate(-183.41 -119.63)"/><path class="cls-14" d="M1279,533.13c-12.74-4.11-46-.08-82,6.44a24.48,24.48,0,0,1-25.25-11.41h0L1081,521s-30,66.39-13.59,108.71c2.41,6.21,7.7,10.1,15.86,10.23h0s54.83.1,72.37.1c45.12,0,95.51-31,102-32.29,10.67-2.13,14.93,19.21,25.59,41.61s100.23,99.24,100.23,99.24,13.77.14,19.46-2c6.12-2.29,8.36-5.27,8.36-5.27S1312.1,543.81,1279,533.13Z" transform="translate(-183.41 -119.63)"/><path class="cls-12" d="M1162.2,261.69a32.15,32.15,0,0,0-17.33-4.52,47.84,47.84,0,0,1-8.37-.51c-34.63-5.09-55.5,45.21-56.73,60.41-2.25,27.9-17,32.15-37.8,49.62-41.68,35-29.47,75.75-6.7,90.89,13.67,9.08,37.77,0,37.77,0,.34.24,65.9-36.62,98.22-54.4C1219.7,396.32,1181.66,273.28,1162.2,261.69Z" transform="translate(-183.41 -119.63)"/><path class="cls-11" d="M1144.18,388c.15.09-15.9,5.56-26.62.81-10.09-4.47-17.73-21.07-17.58-21.08,4.59-.21,9.63-4.22,13.52-30.55l2,.7,32.86,11.84s-2.39,10.54-3.93,20.58C1143.09,378.77,1142.39,386.84,1144.18,388Z" transform="translate(-183.41 -119.63)"/><path class="cls-15" d="M1148.32,349.76s-1.32,5.69-3.23,16.31c-18.88-3.4-27-17.94-29.63-28.15Z" transform="translate(-183.41 -119.63)"/><path class="cls-11" d="M1153.21,360.23s-45-6.06-40.77-34,1.23-47.54,30.11-44.86,32.85,14.18,33.72,23.85S1165,361.08,1153.21,360.23Z" transform="translate(-183.41 -119.63)"/><path class="cls-12" d="M1174.63,289.9s-28.79,24.8-48.37,26.79-27-4.29-27-4.29a76.5,76.5,0,0,0,18.49-25,13.79,13.79,0,0,1,11.36-8.11C1143.1,278.05,1169.6,277.5,1174.63,289.9Z" transform="translate(-183.41 -119.63)"/><path class="cls-12" d="M1156.64,287.68s9.63,9.31,12.66,16.22c2.92,6.66,3.79,22.6,1.46,28.93,0,0,15-29.17,6.52-43.34C1168.28,274.45,1156.64,287.68,1156.64,287.68Z" transform="translate(-183.41 -119.63)"/><path class="cls-10" d="M1182,454.29c-1.39,91-.4,72-10.36,80.63-2.4,2.08-9.14,3.31-18,3.9-27.91,1.84-77-2.78-78.83-7.93-6.43-17.85-1.88-23.4-7.25-50.72-.55-2.91-1.25-6.05-2.06-9.48-4.47-18.76-8.83-25.15,7.07-55.29,14.42-27.31,29.39-49.47,30.74-48.67,38,22.58,41.08,3.62,41.08,3.62S1182.7,409.89,1182,454.29Z" transform="translate(-183.41 -119.63)"/><path class="cls-14" d="M1279.36,689l-29.25,78.63a47.31,47.31,0,0,1-15.52-1.43c-7-2-15-7.31-15-7.31s8.14-84.43,23.3-132.9Z" transform="translate(-183.41 -119.63)"/><path class="cls-10" d="M1144.39,370.34s39.11,6.65,43.7,23.49,19.67,119.06,19.67,119.06-11,10.77-20.22,1.58-28.87-95.65-28.87-95.65Z" transform="translate(-183.41 -119.63)"/><path class="cls-16" d="M1153.64,538.82c-27.91,1.84-77-2.78-78.83-7.93-6.43-17.85-1.88-23.4-7.25-50.72l13.48-37.9s-2.24,42.21,10.2,53.32,51,21.44,57,30.72C1151.17,530.77,1153.09,535.23,1153.64,538.82Z" transform="translate(-183.41 -119.63)"/><path class="cls-11" d="M1121.67,521.05s27.54-6.12,32-3.67,15.3,11.34,16.66,14.44-9.89-2.35-13.55-3.34c-2.37-.63-8.61,1.53-11.7,2.56-13,4.33-21,2.1-21,2.1Z" transform="translate(-183.41 -119.63)"/><path class="cls-10" d="M1103.29,366.71s-37,2.27-49.78,20.11c-18,25.13-53.8,132.2-33.32,146.49,23.06,16.09,105,4.25,105,4.25s2.73-12.75-1.06-18.91-65.42-16.14-68.27-19,35.58-55.46,35.58-64S1103.29,366.71,1103.29,366.71Z" transform="translate(-183.41 -119.63)"/><path class="cls-11" d="M1155,525s5.77,7.44,7.66,8.33a5.64,5.64,0,0,0,3.11.67l-3.88-7Z" transform="translate(-183.41 -119.63)"/><path class="cls-11" d="M1153.65,517.38l16.77,8.15a3,3,0,0,1-2.78,1.07c-2.06-.1-7.27-2-7.27-2Z" transform="translate(-183.41 -119.63)"/><polygon class="cls-12" points="1113.46 416.95 938.25 416.89 938.25 420.75 1111.91 420.81 1113.46 416.95"/><polygon class="cls-12" points="979.22 420.77 1111.91 420.81 1151.85 321.58 1019.38 321.53 979.22 420.77"/><path class="cls-10" d="M1261.84,490.8c1-3.49-1-6.32-4.5-6.32a9.05,9.05,0,0,0-8.13,6.32c-1,3.49,1,6.32,4.5,6.32A9.05,9.05,0,0,0,1261.84,490.8Z" transform="translate(-183.41 -119.63)"/><rect class="cls-9" x="739.18" y="986.97" width="257.62" height="21.86" rx="9.03" ry="9.03"/><path class="cls-5" d="M1048.26,1203.61H930.05a7.46,7.46,0,0,1-7.46-7.46h0a7.46,7.46,0,0,1,7.46-7.46h118.21a7.46,7.46,0,0,1,7.45,7.46h0A7.46,7.46,0,0,1,1048.26,1203.61Z" transform="translate(-183.41 -119.63)"/><rect class="cls-5" x="739.18" y="1037.79" width="223.11" height="14.92" rx="6.94" ry="6.94"/><rect class="cls-5" x="982.63" y="1037.79" width="208.34" height="14.92" rx="6.71" ry="6.71"/><path class="cls-5" d="M1195.69,1203.61h-118.2a7.46,7.46,0,0,1-7.46-7.46h0a7.46,7.46,0,0,1,7.46-7.46h118.2a7.46,7.46,0,0,1,7.46,7.46h0A7.46,7.46,0,0,1,1195.69,1203.61Z" transform="translate(-183.41 -119.63)"/><rect class="cls-9" x="1030.9" y="986.97" width="257.62" height="21.86" rx="9.03" ry="9.03"/><rect class="cls-9" x="739.18" y="1378.31" width="257.62" height="21.86" rx="9.03" ry="9.03"/><path class="cls-5" d="M1048.26,1595H930.05a7.46,7.46,0,0,1-7.46-7.45h0a7.46,7.46,0,0,1,7.46-7.46h118.21a7.46,7.46,0,0,1,7.45,7.46h0A7.46,7.46,0,0,1,1048.26,1595Z" transform="translate(-183.41 -119.63)"/><rect class="cls-5" x="739.18" y="1429.13" width="223.11" height="14.92" rx="6.94" ry="6.94"/><rect class="cls-5" x="982.63" y="1429.13" width="208.34" height="14.92" rx="6.71" ry="6.71"/><path class="cls-5" d="M1195.69,1595h-118.2a7.46,7.46,0,0,1-7.46-7.45h0a7.46,7.46,0,0,1,7.46-7.46h118.2a7.46,7.46,0,0,1,7.46,7.46h0A7.46,7.46,0,0,1,1195.69,1595Z" transform="translate(-183.41 -119.63)"/><rect class="cls-9" x="1030.9" y="1378.31" width="257.62" height="21.86" rx="9.03" ry="9.03"/><rect class="cls-9" x="739.18" y="1182.64" width="257.62" height="21.86" rx="9.03" ry="9.03"/><path class="cls-5" d="M1048.26,1399.28H930.05a7.46,7.46,0,0,1-7.46-7.46h0a7.46,7.46,0,0,1,7.46-7.45h118.21a7.46,7.46,0,0,1,7.45,7.45h0A7.46,7.46,0,0,1,1048.26,1399.28Z" transform="translate(-183.41 -119.63)"/><rect class="cls-5" x="739.18" y="1233.46" width="223.11" height="14.92" rx="6.94" ry="6.94"/><rect class="cls-5" x="982.63" y="1233.46" width="208.34" height="14.92" rx="6.71" ry="6.71"/><path class="cls-5" d="M1195.69,1399.28h-118.2a7.46,7.46,0,0,1-7.46-7.46h0a7.46,7.46,0,0,1,7.46-7.45h118.2a7.46,7.46,0,0,1,7.46,7.45h0A7.46,7.46,0,0,1,1195.69,1399.28Z" transform="translate(-183.41 -119.63)"/><rect class="cls-9" x="1030.9" y="1182.64" width="257.62" height="21.86" rx="9.03" ry="9.03"/><path class="cls-11" d="M790.09,1218.88s2.7-6.08,4.45-9,9.23-11.3,10.5-9.39,6.36,14.75,3.66,18.35.17,9.85-13.27,13.64Z" transform="translate(-183.41 -119.63)"/><path class="cls-17" d="M640.66,1180.51s68.84,57.46,95.68,52.14c21-4.16,53.19-15.2,53.19-15.2l6.45,16.47s-28.89,39.19-59,39.44c-47.07.41-81.85-20.38-81.85-20.38Z" transform="translate(-183.41 -119.63)"/><path class="cls-18" d="M519.94,1786.57s2,32.24,8.24,32.7c.83.06,31.63.06,31.63.06l39.32-.23s-.26-9.47-11.76-11.47-30.73-10.08-37.69-25.27C542.36,1766.38,519.94,1786.57,519.94,1786.57Z" transform="translate(-183.41 -119.63)"/><path class="cls-19" d="M517.68,1788.81s12,4,21.28,4a78,78,0,0,0,19.87-2.84s2.25-21.76,14.63-69.71c6.5-25.13,15.77-57.44,29-97.59,36.47-111,47.56-175.9,48.57-182,0-.33.08-.49.08-.49l-.12-.05-112.13-49.23s13.86,152.94-3.82,211.65a246.25,246.25,0,0,0-6.42,28.12C517.42,1694.4,517.68,1788.81,517.68,1788.81Z" transform="translate(-183.41 -119.63)"/><path class="cls-20" d="M573.46,1720.26c6.5-25.13,15.77-57.44,29-97.59,36.47-111,47.56-175.9,48.57-182,0-.19,0-.36,0-.54l-112.13-49.23s13.86,152.94-3.82,211.65C532.52,1610.71,573.46,1720.26,573.46,1720.26Z" transform="translate(-183.41 -119.63)"/><path class="cls-18" d="M607.52,1786.57s2,32.24,8.23,32.7c.83.06,31.63.06,31.63.06l39.32-.23s-.26-9.47-11.75-11.47-30.73-10.08-37.69-25.27C629.93,1766.38,607.52,1786.57,607.52,1786.57Z" transform="translate(-183.41 -119.63)"/><path class="cls-19" d="M671.09,1394.46s1.45,99.11-15.69,220.8-11.34,173.34-11.34,173.34-11.78,3.82-16.54,4.21c-12.11,1-24.53-2.84-24.53-2.84s-24.54-121.73-17.51-182.64-33.61-209-33.61-209Z" transform="translate(-183.41 -119.63)"/><path class="cls-11" d="M591.58,1162.53l21.89,14.35,19.93-5.63c3.65-5.2,4.61-15.23,4.67-23.91a148.42,148.42,0,0,0-.79-15.91l-29.52-13-11-4.85c0,.17.86,9,1,10.34C599.77,1146.89,591.58,1162.53,591.58,1162.53Z" transform="translate(-183.41 -119.63)"/><path class="cls-16" d="M671.59,1422c-27.24,26.31-130.34,21.88-136.7-7.1s6.93-246.69,53.47-260.37c9.65-2.84,61.28,13.85,61.28,13.85a327.15,327.15,0,0,1,13.41,48.17c1,5.25,4,60.89,6.3,112.94,1,24.34,1.94,47.91,2.39,65.16C672.16,1410.82,672.18,1421.44,671.59,1422Z" transform="translate(-183.41 -119.63)"/><path class="cls-21" d="M599.92,1124.29c6,10.13,27,19,38.15,23a148.42,148.42,0,0,0-.79-15.91l-29.52-13C601.23,1118.31,597.25,1119.76,599.92,1124.29Z" transform="translate(-183.41 -119.63)"/><path class="cls-11" d="M648.42,1129.63s-47.58,14.84-56.36-14.93-20.85-47.91,9.16-58.64,39.29-1.13,44.64,8.1S660.57,1125,648.42,1129.63Z" transform="translate(-183.41 -119.63)"/><path class="cls-22" d="M644,1061.29s-3,34.64-10.2,33.14-15-4.72-14,5.72-7,28.35-17.3,28.3c-22.16-.09-46.23-56.94-40.17-67.73C579.82,1029.62,669.28,1023.34,644,1061.29Z" transform="translate(-183.41 -119.63)"/><path class="cls-17" d="M637,1155.29c-.61-.26-35.42-15.87-39.49-14.53s-9.14,13.78-9.14,13.78l61.28,13.86S644.82,1158.59,637,1155.29Z" transform="translate(-183.41 -119.63)"/><path class="cls-23" d="M853.67,1323.9l-195.1,183.7c-3.82,3.6-8.65,4.74-10.72,2.55l-6.58-7c-2.07-2.2-.64-6.94,3.19-10.54l195.1-183.7c3.83-3.6,8.65-4.74,10.72-2.55l6.58,7C858.93,1315.56,857.5,1320.3,853.67,1323.9Z" transform="translate(-183.41 -119.63)"/><path class="cls-5" d="M744.19,1427l-85.62,80.61c-3.82,3.6-8.65,4.74-10.72,2.55l-6.58-7c-2.07-2.2-.64-6.94,3.19-10.54L730.07,1412Z" transform="translate(-183.41 -119.63)"/><path class="cls-23" d="M808.83,1254.55a152.93,152.93,0,1,0,253.47-153.68c-.79-.78-1.59-1.56-2.4-2.32a152.93,152.93,0,0,0-251.07,156Zm43.71-141.14a140.86,140.86,0,1,1,6.07,199.1A140.66,140.66,0,0,1,852.54,1113.41Z" transform="translate(-183.41 -119.63)"/><g class="cls-24"><path class="cls-25" d="M1057.7,1306.43a140.86,140.86,0,1,1-6.07-199.09A140.31,140.31,0,0,1,1057.7,1306.43Z" transform="translate(-183.41 -119.63)"/></g><path class="cls-17" d="M671.74,1394.66c-107.5-76.6-98.56-178.83-98.56-178.83,39.29,22.17,78.28,71.17,96.17,113.67C670.4,1353.84,671.29,1377.41,671.74,1394.66Z" transform="translate(-183.41 -119.63)"/><path class="cls-11" d="M777.84,1359.78c7.59-1.75,12.68-7.49,13.74-8.49,0,0,3.23.22-.54,7.12-.31.58-1,2.06-1.54,3.11a.67.67,0,0,0,.57,1c4.37.33,8.77-1.4,17.2.36,1.16.24,1.5,3,1.45,4.21-.07,2,.07,4.27-2.26,7.35-1.36,1.79-5.15,3.72-13.59,7.11-3.21,1.29-12.4.32-21-2.64l-6.88-3.19,2.14-12.79,1.73.36C771.58,1363.83,775,1360.48,777.84,1359.78Z" transform="translate(-183.41 -119.63)"/><path class="cls-16" d="M606.54,1168.4s-96.6,18.39,28.42,158.27c20,22.37,128,51.5,128,51.5s11-9.32,5.44-16.87c0,0-74.38-54-90.74-62.59-7.37-3.87-28.58-86.21-40.58-106S606.54,1168.4,606.54,1168.4Z" transform="translate(-183.41 -119.63)"/><path class="cls-11" d="M792.71,1220.57s3.16-6,3.78-9.22,4.59-12.47,6.23-14.11c.66-.66,2.82.19,3.08,3,.11,1.22-.49,3.45-1.55,6.11-1.73,4.32-1.45,10.18-2,12.14C800.7,1223.36,792.71,1220.57,792.71,1220.57Z" transform="translate(-183.41 -119.63)"/><polygon class="cls-12" points="1900.84 916.57 1846.15 929.3 1819.11 978.51 1798.46 866.37 1900.84 916.57"/><rect class="cls-12" x="2035.06" y="1035.27" width="10" height="57.84" transform="translate(-412.06 1328.37) rotate(-37.15)"/><path class="cls-26" d="M1903.93,1554.49s22.61-26.55,1.26-43.29c0,0-15.58-9.37-28.26-8.57,0,0,18.06,30.08,12.26,33.1s-17.72-35-17.72-35-35.4-3.32-46.77,2.19c0,0,30.34,24.67,24,26.16s-39.13-22.71-39.13-22.71-32.93,5.71-31.11,25.81,13.19,26.26,18.18,25.71,34.14-11.79,34.79-7.7-16.88,17.5-29.18,18.16c0,0,23.31,25.54,38.72,18.1s16.69-19.16,26.3-23.59,17.82-4.44,13.86.06-21.35,8.9-26.83,18.66-10.38,16.33,5.58,13.87,41.88-14.22,43-27.6Z" transform="translate(-183.41 -119.63)"/><path class="cls-26" d="M1794.62,1532.7s89.47-3.74,109.31,21.79c0,0,4.41,13.08,17.89,25l2.12,5.71s-15.56-16.3-21.11-17.27C1902.83,1567.88,1911.41,1536.15,1794.62,1532.7Z" transform="translate(-183.41 -119.63)"/><path class="cls-26" d="M1921.82,1579.44s19.26,14.14,20.67,39.52l-3.49.32s-6.21-26.22-17.33-36.45S1921.82,1579.44,1921.82,1579.44Z" transform="translate(-183.41 -119.63)"/><path class="cls-27" d="M2023.9,1484.47s-36.17-20.1-19.41-47.59c0,0,13.43-16.89,27.85-21.27,0,0-7.57,40.94.14,41.88s5.15-46.23,5.15-46.23,38-18.41,52.89-17c0,0-23.46,40-15.76,39s34-41.51,34-41.51,39-7.34,45.29,15.74-3.74,34.67-9.51,36.13-42.83,1.1-41.85,5.91,26,12.43,40,8.06c0,0-15.28,38.07-35.5,36.21s-26.52-14.36-39-15.28-21.65,2.48-15.38,5.83,27.44,1,37.57,9.57,18.34,13.83-.42,17.74-52.46,1.61-59.25-12.8Z" transform="translate(-183.41 -119.63)"/><path class="cls-26" d="M2136.31,1414.8s-101,33-112.41,69.67c0,0,.53,16.36-9.52,35.16l0,7.22s10.51-24.58,16.27-28C2030.68,1498.89,2008,1467.19,2136.31,1414.8Z" transform="translate(-183.41 -119.63)"/><path class="cls-26" d="M2014.38,1519.63s-15.51,23.72-6.53,52.51l4-1.09s-4-31.72,4.12-47.71S2014.38,1519.63,2014.38,1519.63Z" transform="translate(-183.41 -119.63)"/><path class="cls-27" d="M1966.38,1456.77s47.5-26.8,25.18-62.89c0,0-17.84-22.16-36.89-27.8,0,0,10.32,53.89.18,55.19s-7.18-60.88-7.18-60.88-50.2-24-69.86-22c0,0,31.26,52.56,21.1,51.33s-45.22-54.42-45.22-54.42-51.42-9.36-59.57,21.12,5.22,45.67,12.84,47.55,56.47,1.09,55.22,7.44-34.21,16.6-52.63,10.95c0,0,20.46,50.06,47.1,47.44s34.84-19.15,51.33-20.47,28.56,3.08,20.33,7.55-36.16,1.57-49.45,12.94-24,18.38.71,23.38,69.16,1.68,78-17.38Z" transform="translate(-183.41 -119.63)"/><path class="cls-26" d="M1817.62,1365.88s133.38,42.72,148.76,90.89c0,0-.57,21.57,12.83,46.28l0,9.51s-14.06-32.31-21.68-36.73C1957.56,1475.83,1987.24,1433.86,1817.62,1365.88Z" transform="translate(-183.41 -119.63)"/><path class="cls-26" d="M1979.21,1503.05s20.65,31.13,9.06,69.15l-5.29-1.4s5-41.85-5.82-62.86S1979.21,1503.05,1979.21,1503.05Z" transform="translate(-183.41 -119.63)"/><path class="cls-28" d="M2347.36,1821.74H1859.67c-68-77.78-50-182.85,40.21-271.47,11.35-11.14,33.12-19,56.59-24.62,43.27-10.27,92.33-12.64,92.71-12.84.14-.06,25.93-21,41.44-39.75,48.2-58.35,89.2-53.34,89.2-53.34,49.13-9.56,91-12.36,122.11,4.93v0c28.78,16,48.27,49.35,55.56,110.57q2.07,17.35,2.82,37.79c1.78,49.68,11.57,93.88,17.39,131.3h0C2386.13,1758.54,2392.09,1799.76,2347.36,1821.74Z" transform="translate(-183.41 -119.63)"/><path class="cls-20" d="M2277.58,1487.06c-29.81,16.24-33.11,69.73-79.76,83.55S2072,1583.17,2027,1631.9c-43.34,47-91.14-72.6-70.56-106.25,43.27-10.27,92.33-12.64,92.71-12.84.14-.06,25.93-21,41.44-39.75,48.2-58.35,89.2-53.34,89.2-53.34,49.13-9.56,91-12.36,122.11,4.93v0C2336.16,1460,2307.39,1470.82,2277.58,1487.06Z" transform="translate(-183.41 -119.63)"/><path class="cls-29" d="M1954.92,1718.34s8.58,22.77,6.8,31.24,1.19,24.84-2.25,32.19-9.58,18-3.64,20.69c2.25,1,28.38-19.38,29.87-25.38s2.59-23.7,7.57-33.31.76-17.35-6.5-20.86-17.42-22.82-17.42-22.82Z" transform="translate(-183.41 -119.63)"/><path class="cls-12" d="M2094.59,1502.45s-142.69-8.81-161.08,10.11c-19.37,19.94,12.19,216.08,12.19,216.08s38.7,1.11,41.74-9.14c0,0-7.26-95-1.22-111.39s2.21-39.15,2.21-39.15,75.71,11.3,99.72,5.54S2094.59,1502.45,2094.59,1502.45Z" transform="translate(-183.41 -119.63)"/><path class="cls-11" d="M2129.16,1397.71c0,.12-21,49.08-31.29,54.3s-47.39,47.92-55.36,47.18,8.23,8.72,8.23,8.72,66-32.2,69.79-34.08,23.65-34.59,26.37-51.2S2129.16,1397.71,2129.16,1397.71Z" transform="translate(-183.41 -119.63)"/><path class="cls-29" d="M1928.57,1755.93s-8.13,22.93-15,28.25-15.12,19.75-22.49,23.14-19,7.58-16.14,13.46c1.07,2.23,34.2,3.51,39.2-.12s17.27-16.43,27.29-20.56,11.77-12.77,8.48-20.13,1.42-28.67,1.42-28.67Z" transform="translate(-183.41 -119.63)"/><path class="cls-22" d="M2172.14,1376c-3-3.52,74.22,5.16,84.5,44.63,0,0,59.35-46.78,4.91-86.2-18.85-13.65-20.75-28.22-23.48-41.55s-21.55-51.65-54.17-32.62c0,0-14.91.07-24.34,8.25C2138.11,1287.07,2114.71,1405.23,2172.14,1376Z" transform="translate(-183.41 -119.63)"/><path class="cls-30" d="M2157.1,1509.37S2002,1525.2,1988.34,1541s-67.15,221.77-67.15,221.77,15.84,8.82,30.23.56c0,0,41-69.86,59.17-91.8s24.92-89.64,27.92-90.34,100.22,13.54,133.69-12.17S2157.1,1509.37,2157.1,1509.37Z" transform="translate(-183.41 -119.63)"/><path class="cls-10" d="M2243.45,1368.56s-37-16.52-83.94-8.94c-9.58,1.55-18.22,4.7-25.07,16-9.69,16-14.22,24.53-14.22,24.53s.94,7.39,14.17,13.28c-3.6,13.23,3.31,36.33-3,45.3s-45.78,31.21-47.72,43.57c-3.58,22.72,67.39,63.88,88.55,59.48C2233.06,1549.11,2274.36,1386,2243.45,1368.56Z" transform="translate(-183.41 -119.63)"/><path class="cls-22" d="M2222.49,1321.76s7.29-14.35,8.26-26.13c.68-8.41-6.43-38.66-36.81-31.34a42.08,42.08,0,0,0-16.74,8.21c-6.26,5.15-15,15.81-1.66,41.54l3.65,8.77Z" transform="translate(-183.41 -119.63)"/><path class="cls-11" d="M2180.85,1370.19c-3.07,3.24-1.86,14,12.52,13.21,9.44-.54,29.67-12.21,27.77-20.28-.9-3.83-8.16-13.72-9.87-36.47l-1.72.48-28.81,8.11s1.39,9.16,2.09,17.84C2183.43,1360.36,2182.12,1368.85,2180.85,1370.19Z" transform="translate(-183.41 -119.63)"/><path class="cls-31" d="M2180.74,1335.24s1.39,9.16,2.09,17.84c16.35-1.76,23.83-17.38,26.72-25.95Z" transform="translate(-183.41 -119.63)"/><path class="cls-11" d="M2180.13,1348.56s37.7-9.49,31.42-32.88-5.63-40.37-30-35.3-26.61,15.25-26.41,23.57S2170.16,1350.43,2180.13,1348.56Z" transform="translate(-183.41 -119.63)"/><path class="cls-22" d="M2164.33,1284.42s12.66,24.12,36.55,26.71c14,1.52,17.81,10.72,17.81,10.72s-4.2-26.32-11.23-42.43C2207.46,1279.42,2168.56,1269.27,2164.33,1284.42Z" transform="translate(-183.41 -119.63)"/><path class="cls-22" d="M2168.65,1287.61s-8.26,8.43-10.8,14.37c-3.77,8.8,3.59,27.33,6.63,31.33,0,0-17.56-29.77-11.7-42.66C2159,1277,2168.65,1287.61,2168.65,1287.61Z" transform="translate(-183.41 -119.63)"/><path class="cls-11" d="M2053.72,1504.79s-7.51,8-8.42,8.39c-5,2.32-11.24,1-14.27,1.73s-2.51-1.12-.27-2.65,7.73-.94,5.49-1.5-14.39-2.81-19-1.59c-7.24,1.94-13-.33-13.4-1.07s16.52-9,21.37-8.76,18.79-.4,18.79-.4Z" transform="translate(-183.41 -119.63)"/><path class="cls-11" d="M2256.21,1383.22S2303,1488.84,2290,1504.35s-102.94-3.3-102.94-3.3l2.78-9.81s66.21-4,70.93-5.39c6.78-1.92-33.55-76-33.55-76Z" transform="translate(-183.41 -119.63)"/><path class="cls-10" d="M2238.76,1366.83c1.12,0,15.1,4.61,25.15,24.48,9.87,19.52,13.46,29,13.46,29s-43.74,33.91-61.14,21.44S2222.71,1366.41,2238.76,1366.83Z" transform="translate(-183.41 -119.63)"/><path class="cls-11" d="M2197.57,1490.76s-7.52-4.88-10.56-7.55-20.66-4.83-20.65-3,10.26,4.2,11.38,6,7.39,9.11,12.73,9.1A7.64,7.64,0,0,0,2197.57,1490.76Z" transform="translate(-183.41 -119.63)"/><path class="cls-32" d="M2177,1506.63l-20.18-2.87a8.79,8.79,0,0,1-6.83-5.62l-11.14-39.4c-.76-2.68,1.07-4.5,4.08-4.07l20.18,2.86c3,.43,6.08,3,6.83,5.63l11.15,39.4C2181.87,1505.24,2180,1507.06,2177,1506.63Z" transform="translate(-183.41 -119.63)"/><path class="cls-12" d="M2172.83,1506l-20.18-2.87a8.82,8.82,0,0,1-6.83-5.63l-11.14-39.4c-.76-2.68,1.07-4.5,4.08-4.07l20.18,2.87c3,.43,6.08,2.94,6.83,5.62l11.15,39.4C2177.67,1504.64,2175.84,1506.46,2172.83,1506Z" transform="translate(-183.41 -119.63)"/><path class="cls-32" d="M2138.12,1459.1c-.31-1.12.45-1.87,1.7-1.7a3.69,3.69,0,0,1,2.84,2.34c.31,1.11-.45,1.87-1.7,1.69A3.68,3.68,0,0,1,2138.12,1459.1Z" transform="translate(-183.41 -119.63)"/><path class="cls-11" d="M2187.06,1501.05s-13.65.19-17.07-.62-12.17-11.67-9.84-14.38c1.47-1.72,9.63,1.35,13.51,1.34s14-5.63,20.89,5.87C2195.33,1494.56,2187.06,1501.05,2187.06,1501.05Z" transform="translate(-183.41 -119.63)"/><path class="cls-28" d="M2245.65,1527s-14.69,13.77-76.19,15.75-141.68,69.94-142.43,89.13,123.84,48.34,125.76,45.59,79-69,79-69Z" transform="translate(-183.41 -119.63)"/><path class="cls-20" d="M2377.7,1704.33c-68.42-85.41-209,31-245.34,27.73-33.44-3,65.21-119.75,187.54-137.12,49.46-7,37.61-58.12,37.59-59.7q2.07,17.35,2.82,37.79C2362.09,1622.71,2371.88,1666.91,2377.7,1704.33Z" transform="translate(-183.41 -119.63)"/><path class="cls-33" d="M2556.46,1826.91l-2332.69-.8a2.84,2.84,0,0,1-2.84-2.85v-1.45a2.84,2.84,0,0,1,2.84-2.84l2332.69.8a2.85,2.85,0,0,1,2.84,2.84v1.46A2.85,2.85,0,0,1,2556.46,1826.91Z" transform="translate(-183.41 -119.63)"/><polygon class="cls-34" points="1409.45 408.79 1542.69 436.36 1457.27 369.99 1451.51 389.19 1418.45 393.08 1409.45 408.79"/><polygon class="cls-29" points="1542.69 436.36 1434.41 371.7 1325.11 359.34 1542.69 436.36"/><polygon class="cls-29" points="1457.27 369.99 1542.69 436.36 1479.55 337.02 1457.27 369.99"/><polygon class="cls-34" points="572.19 783.77 438.95 811.33 524.37 744.96 530.13 764.17 563.19 768.05 572.19 783.77"/><polygon class="cls-29" points="438.95 811.33 547.23 746.67 656.53 734.32 438.95 811.33"/><polygon class="cls-29" points="524.37 744.96 438.95 811.33 502.09 711.99 524.37 744.96"/><path class="cls-5" d="M973.91,941.89l3.9-4.63c3.53,3,7.06,4.79,11.64,4.79,4,0,6.53-1.84,6.53-4.74,0-2.63-1.48-4.06-8.32-5.69-7.85-1.84-12.27-4.16-12.27-11.06,0-6.32,5.26-10.69,12.58-10.69a20.39,20.39,0,0,1,13.38,4.64l-3.48,4.89c-3.31-2.47-6.63-3.79-10-3.79-3.79,0-6,1.95-6,4.48,0,2.84,1.69,4.11,8.75,5.79,7.79,1.9,11.85,4.69,11.85,10.9,0,6.9-5.43,11-13.17,11A22.73,22.73,0,0,1,973.91,941.89Z" transform="translate(-183.41 -119.63)"/><path class="cls-5" d="M1007.83,933.36c0-8,5.63-14.48,13.58-14.48,8.85,0,13.33,7,13.33,15a16.07,16.07,0,0,1-.11,1.79H1014.2a7.76,7.76,0,0,0,8,7.06,10.12,10.12,0,0,0,7.54-3.32l3.73,3.32a14,14,0,0,1-11.37,5.21C1014,947.89,1007.83,942.05,1007.83,933.36Zm20.59-2c-.42-4.11-2.85-7.32-7.06-7.32-3.9,0-6.63,3-7.21,7.32Z" transform="translate(-183.41 -119.63)"/><path class="cls-5" d="M1058.17,947.26v-3.42a11.23,11.23,0,0,1-9,4c-5.27,0-9.9-3-9.9-8.69,0-6.16,4.79-9.11,11.27-9.11a23.43,23.43,0,0,1,7.68,1.16v-.53c0-3.84-2.42-5.95-6.84-5.95a19.36,19.36,0,0,0-8,1.74l-1.74-5.11a23.82,23.82,0,0,1,10.58-2.32c8.22,0,12.22,4.32,12.22,11.75v16.48Zm.16-11.64a18.26,18.26,0,0,0-6.37-1.1c-4,0-6.37,1.63-6.37,4.42,0,2.63,2.37,4.11,5.37,4.11,4.21,0,7.37-2.37,7.37-5.85Z" transform="translate(-183.41 -119.63)"/><path class="cls-5" d="M1072.07,919.46h6.38v6.26c1.74-4.16,5-7,9.84-6.79v6.74h-.36c-5.59,0-9.48,3.63-9.48,11v10.58h-6.38Z" transform="translate(-183.41 -119.63)"/><path class="cls-5" d="M1091.35,933.41a14.34,14.34,0,0,1,14.43-14.53,13.89,13.89,0,0,1,11.11,4.79l-4,4.26c-2-2-4-3.47-7.21-3.47-4.64,0-8,4-8,8.95s3.43,9,8.32,9c3,0,5.22-1.42,7.22-3.47l3.84,3.79a14.58,14.58,0,0,1-25.75-9.27Z" transform="translate(-183.41 -119.63)"/><path class="cls-5" d="M1123,908.82h6.37v14.95c1.79-2.63,4.37-4.89,8.69-4.89,6.27,0,9.9,4.21,9.9,10.69v17.69h-6.37v-15.8c0-4.31-2.16-6.79-6-6.79s-6.27,2.58-6.27,6.9v15.69H1123Z" transform="translate(-183.41 -119.63)"/><path class="cls-5" d="M1155.18,940.05h7v7.21h-7Z" transform="translate(-183.41 -119.63)"/><path class="cls-5" d="M1169.34,940.05h7v7.21h-7Z" transform="translate(-183.41 -119.63)"/><path class="cls-5" d="M1183.51,940.05h7v7.21h-7Z" transform="translate(-183.41 -119.63)"/><path class="cls-5" d="M1197.68,940.05h7v7.21h-7Z" transform="translate(-183.41 -119.63)"/><path class="cls-3" d="M1566.06,1286.43a6.83,6.83,0,1,1,6.82,6.82A6.82,6.82,0,0,1,1566.06,1286.43Z" transform="translate(-183.41 -119.63)"/><path class="cls-3" d="M1883.23,1288.26H1574.72a1.84,1.84,0,0,1-1.84-1.83h0a1.84,1.84,0,0,1,1.84-1.84h308.51a1.83,1.83,0,0,1,1.83,1.84h0A1.83,1.83,0,0,1,1883.23,1288.26Z" transform="translate(-183.41 -119.63)"/></svg>