<svg id="Layer_1" data-name="Layer 1" xmlns="http://www.w3.org/2000/svg" viewBox="0 0 644.12 438.29"><defs><style>.cls-1{fill:#e9eced;}.cls-2{fill:#22282d;}.cls-3{fill:#33383d;}.cls-4{fill:#439ad5;}.cls-5{fill:#fff;}.cls-11,.cls-12,.cls-13,.cls-15,.cls-16,.cls-17,.cls-19,.cls-6,.cls-8,.cls-9{fill:none;stroke-miterlimit:10;}.cls-6{stroke:#b9bbbd;stroke-width:1.2px;}.cls-7{fill:#d1d2d3;}.cls-19,.cls-8,.cls-9{stroke:#fff;}.cls-16,.cls-17,.cls-8,.cls-9{stroke-width:10.17px;}.cls-16,.cls-8{opacity:0.5;isolation:isolate;}.cls-10{fill:#d2502a;}.cls-11,.cls-12,.cls-13{stroke:#d1d2d3;}.cls-11,.cls-12,.cls-13,.cls-19{stroke-width:7.16px;}.cls-12{stroke-dasharray:28.36 28.36;}.cls-13{stroke-dasharray:33.28 33.28;}.cls-14{fill:#ffc627;}.cls-15{stroke:#bbbdbf;stroke-width:23.86px;}.cls-16{stroke:#a6a8ac;}.cls-17{stroke:#4f83c3;}.cls-18{fill:#85a648;}</style></defs><title>wordpress_large_dash-1</title><rect id="_Rectangle_2-2" data-name=" Rectangle 2-2" class="cls-1" x="145.16" y="49.15" width="498.96" height="388.56"/><rect id="_Rectangle_2-3" data-name=" Rectangle 2-3" class="cls-2" width="644.12" height="49.15"/><rect id="_Rectangle_3" data-name=" Rectangle 3" class="cls-2" y="49.15" width="145.51" height="388.56"/><rect id="_Rectangle_4" data-name=" Rectangle 4" class="cls-3" y="49.14" width="145.51" height="115.01"/><rect id="_Rectangle_5" data-name=" Rectangle 5" class="cls-4" y="49.15" width="145.51" height="47.72"/><path class="cls-5" d="M77.57,77.16A5,5,0,0,1,76.15,81,5.84,5.84,0,0,1,72,82.32H69.17V72.19h3.18A5.31,5.31,0,0,1,76.2,73.5,4.83,4.83,0,0,1,77.57,77.16Zm-2.23.06q0-3.25-2.88-3.26H71.31v6.6h.92c2.07,0,3.11-1.12,3.11-3.35Z" transform="translate(-54.4 -1.4)"/><path class="cls-5" d="M85.87,82.32l-.73-2.41h-3.7l-.73,2.41H78.39L82,72.15h2.6l3.59,10.17Zm-1.25-4.21c-.67-2.19-1.05-3.42-1.15-3.71a3.47,3.47,0,0,1-.18-.68c-.15.59-.59,2.06-1.31,4.39Z" transform="translate(-54.4 -1.4)"/><path class="cls-5" d="M95.44,79.51a2.63,2.63,0,0,1-1,2.16,4.29,4.29,0,0,1-2.75.79,6.47,6.47,0,0,1-2.87-.61v-2a11.68,11.68,0,0,0,1.74.64,5.17,5.17,0,0,0,1.3.19A1.83,1.83,0,0,0,93,80.41a.94.94,0,0,0,.38-.8.9.9,0,0,0-.17-.53,1.91,1.91,0,0,0-.49-.45,10.91,10.91,0,0,0-1.31-.69A6.08,6.08,0,0,1,90,77.11a3.08,3.08,0,0,1-.74-.94A2.79,2.79,0,0,1,89,74.93a2.62,2.62,0,0,1,.91-2.11A3.76,3.76,0,0,1,92.38,72a5.9,5.9,0,0,1,1.51.19,10.29,10.29,0,0,1,1.5.53l-.69,1.71A10.45,10.45,0,0,0,93.36,74a4.22,4.22,0,0,0-1-.13,1.38,1.38,0,0,0-.94.28.92.92,0,0,0-.33.74.87.87,0,0,0,.13.5,1.49,1.49,0,0,0,.42.41,13.49,13.49,0,0,0,1.36.71,5.41,5.41,0,0,1,2,1.36A2.66,2.66,0,0,1,95.44,79.51Z" transform="translate(-54.4 -1.4)"/><path class="cls-5" d="M105.58,82.32h-2.14V78h-4v4.37H97.27V72.19h2.15v4h4v-4h2.14V82.32Z" transform="translate(-54.4 -1.4)"/><path class="cls-5" d="M108.13,72.19h3.15a6,6,0,0,1,3.13.61,2.14,2.14,0,0,1,1,2,2.47,2.47,0,0,1-.43,1.49,1.69,1.69,0,0,1-1.13.7h0a2.25,2.25,0,0,1,1.39.8,2.93,2.93,0,0,1-.57,3.73,4.32,4.32,0,0,1-2.72.78h-3.79V72.19Zm2.15,4h1.25a2.3,2.3,0,0,0,1.26-.27,1,1,0,0,0,.39-.89.87.87,0,0,0-.43-.83A2.74,2.74,0,0,0,111.4,74h-1.13V76.2Zm0,1.7v2.64h1.4a2,2,0,0,0,1.31-.34,1.26,1.26,0,0,0,.42-1q0-1.26-1.8-1.26h-1.33Z" transform="translate(-54.4 -1.4)"/><path class="cls-5" d="M126.86,77.24a5.49,5.49,0,0,1-1.25,3.87,5.41,5.41,0,0,1-7.15,0,5.52,5.52,0,0,1-1.25-3.88,5.42,5.42,0,0,1,1.25-3.86A4.66,4.66,0,0,1,122.05,72a4.61,4.61,0,0,1,3.57,1.34A5.51,5.51,0,0,1,126.86,77.24Zm-7.39,0a4.2,4.2,0,0,0,.64,2.56,2.25,2.25,0,0,0,1.93.86c1.71,0,2.57-1.14,2.57-3.42s-.85-3.42-2.56-3.42a2.25,2.25,0,0,0-1.93.86A4.2,4.2,0,0,0,119.47,77.24Z" transform="translate(-54.4 -1.4)"/><path class="cls-5" d="M135.16,82.32l-.73-2.41h-3.69L130,82.32h-2.31l3.58-10.17h2.63l3.59,10.17h-2.33Zm-1.25-4.21c-.67-2.19-1-3.42-1.15-3.71a3.47,3.47,0,0,1-.18-.68c-.15.59-.59,2.06-1.31,4.39Z" transform="translate(-54.4 -1.4)"/><path class="cls-5" d="M140.9,78.43v3.89h-2.15V72.19h3a5.07,5.07,0,0,1,3.06.75,3,3,0,0,1,.5,3.87,3.25,3.25,0,0,1-1.39,1.09q2.29,3.42,3,4.41h-2.38L142,78.43Zm0-1.75h.69a2.64,2.64,0,0,0,1.5-.34,1.2,1.2,0,0,0,.48-1.07,1.11,1.11,0,0,0-.5-1,3,3,0,0,0-1.53-.3h-.64v2.71Z" transform="translate(-54.4 -1.4)"/><path class="cls-5" d="M156.52,77.16A5,5,0,0,1,155.1,81a5.81,5.81,0,0,1-4.1,1.32h-2.87V72.19h3.18a5.31,5.31,0,0,1,3.85,1.31A4.82,4.82,0,0,1,156.52,77.16Zm-2.23.06q0-3.25-2.88-3.26h-1.14v6.6h.92c2.07,0,3.1-1.12,3.1-3.35Z" transform="translate(-54.4 -1.4)"/><line id="_Path_2-2" data-name=" Path 2-2" class="cls-6" y1="49.15" x2="644.12" y2="49.15"/><rect id="_Rectangle_7" data-name=" Rectangle 7" class="cls-7" x="183.05" y="76.98" width="461.07" height="49.32"/><line id="_Path_3-2" data-name=" Path 3-2" class="cls-8" x1="13.49" y1="124.23" x2="75.81" y2="124.23"/><line id="_Path_4-2" data-name=" Path 4-2" class="cls-9" x1="58.12" y1="23.8" x2="176.94" y2="23.8"/><line id="_Path_5" data-name=" Path 5" class="cls-8" x1="13.49" y1="148.67" x2="91.72" y2="148.67"/><line id="_Path_6" data-name=" Path 6" class="cls-8" x1="13.49" y1="173.11" x2="83.76" y2="173.11"/><line id="_Path_7" data-name=" Path 7" class="cls-8" x1="13.49" y1="197.55" x2="63.21" y2="197.55"/><line id="_Path_8" data-name=" Path 8" class="cls-8" x1="13.49" y1="221.99" x2="110.81" y2="221.99"/><line id="_Path_9" data-name=" Path 9" class="cls-8" x1="13.49" y1="246.43" x2="83.76" y2="246.43"/><line id="_Path_10" data-name=" Path 10" class="cls-8" x1="13.49" y1="270.87" x2="55.13" y2="270.87"/><line id="_Path_11" data-name=" Path 11" class="cls-8" x1="13.49" y1="295.31" x2="83.76" y2="295.31"/><line id="_Path_12" data-name=" Path 12" class="cls-8" x1="13.49" y1="319.75" x2="63.21" y2="319.75"/><line id="_Path_13" data-name=" Path 13" class="cls-8" x1="13.49" y1="344.19" x2="83.76" y2="344.19"/><circle id="_Path_14" data-name=" Path 14" class="cls-10" cx="117.53" cy="121.4" r="9.98"/><circle id="_Path_15" data-name=" Path 15" class="cls-10" cx="117.53" cy="270.87" r="9.98"/><rect id="_Rectangle_8" data-name=" Rectangle 8" class="cls-5" x="183.05" y="68.63" width="460.4" height="49.32"/><rect id="_Rectangle_9" data-name=" Rectangle 9" class="cls-5" x="174.47" y="197.55" width="317.55" height="176.42"/><rect id="_Rectangle_9-2" data-name=" Rectangle 9-2" class="cls-5" x="174.47" y="396.55" width="320.06" height="40.49"/><g id="_Group_2" data-name=" Group 2"><line class="cls-11" x1="515.65" y1="373.97" x2="515.65" y2="359.65"/><line class="cls-12" x1="515.65" y1="331.29" x2="515.65" y2="232.05"/><line class="cls-12" x1="515.65" y1="438.29" x2="515.65" y2="350.05"/><polyline class="cls-11" points="515.65 217.87 515.65 203.55 529.97 203.55"/><line class="cls-13" x1="563.25" y1="203.55" x2="613.16" y2="203.55"/><line class="cls-11" x1="629.8" y1="203.55" x2="644.12" y2="203.55"/></g><rect id="_Rectangle_10" data-name=" Rectangle 10" class="cls-14" x="174.48" y="68.63" width="8.58" height="57.67"/><line id="_Path_16" data-name=" Path 16" class="cls-15" x1="174.47" y1="164.15" x2="372" y2="164.15"/><line id="_Path_17" data-name=" Path 17" class="cls-16" x1="196.74" y1="220.26" x2="428.49" y2="220.26"/><line id="_Path_18" data-name=" Path 18" class="cls-16" x1="196.74" y1="236.88" x2="406.02" y2="236.88"/><line id="_Path_19" data-name=" Path 19" class="cls-16" x1="196.74" y1="253.51" x2="428.49" y2="253.51"/><line id="_Path_20" data-name=" Path 20" class="cls-16" x1="196.74" y1="270.13" x2="389.94" y2="270.13"/><line id="_Path_21" data-name=" Path 21" class="cls-16" x1="196.74" y1="286.76" x2="406.02" y2="286.76"/><line id="_Path_22" data-name=" Path 22" class="cls-17" x1="196.74" y1="303.38" x2="372" y2="303.38"/><line id="_Path_23" data-name=" Path 23" class="cls-17" x1="196.74" y1="96.87" x2="372" y2="96.87"/><rect id="_Rectangle_11" data-name=" Rectangle 11" class="cls-18" x="196.74" y="324.46" width="145.15" height="33.41"/><line id="_Path_24" data-name=" Path 24" class="cls-19" x1="207.89" y1="341.17" x2="302.1" y2="341.17"/><g id="_Group_2-2" data-name=" Group 2-2"><path id="_Compound_Path_" data-name=" Compound Path " class="cls-5" d="M71.43,25.56A11.74,11.74,0,0,0,78,36.1L72.4,20.79A11.51,11.51,0,0,0,71.43,25.56ZM91.06,25a6.17,6.17,0,0,0-1-3.23A5.42,5.42,0,0,1,88.93,19a2,2,0,0,1,1.92-2h.23a11.7,11.7,0,0,0-16.54.72,11,11,0,0,0-1.16,1.48h.75c1.23,0,3.12-.15,3.12-.15a.5.5,0,1,1,.07,1H76l4.27,12.73L82.79,25,81,20a7.3,7.3,0,0,1-1.23-.11.51.51,0,0,1-.47-.54.5.5,0,0,1,.54-.46h0s1.89.11,3,.11H86a.5.5,0,1,1,.07,1H84.76L89,32.62l1.16-4A11,11,0,0,0,91,25Zm-7.7,1.62L79.83,36.8a11.73,11.73,0,0,0,7.2-.19.8.8,0,0,1-.08-.16ZM93.43,20a9.67,9.67,0,0,1,.08,1.2,11.06,11.06,0,0,1-.89,4.2L89,35.67a11.72,11.72,0,0,0,4.43-15.73Z" transform="translate(-54.4 -1.4)"/><g id="_Group_3" data-name=" Group 3"><path id="_Compound_Path_2" data-name=" Compound Path 2" class="cls-5" d="M69.48,25.56A13.66,13.66,0,1,0,83.14,11.9h0A13.67,13.67,0,0,0,69.48,25.56Zm.63,0a13,13,0,1,1,13,13h0a13,13,0,0,1-13-13Z" transform="translate(-54.4 -1.4)"/></g></g></svg>