<svg id="Layer_1" data-name="Layer 1" xmlns="http://www.w3.org/2000/svg" viewBox="0 0 737.34 446.62"><defs><style>.cls-1{fill:#cfd1d2;}.cls-2{fill:#d0d2d3;}.cls-3{fill:#e5e6e7;}.cls-4{fill:#fff;}.cls-5{fill:#e9eced;}.cls-6{fill:#22282d;}.cls-7{fill:#33383d;}.cls-8{fill:#439ad5;}.cls-12,.cls-20,.cls-9{isolation:isolate;}.cls-10,.cls-12,.cls-13,.cls-15,.cls-16,.cls-17,.cls-19,.cls-20,.cls-21,.cls-23{fill:none;stroke-miterlimit:10;}.cls-10{stroke:#b9bbbd;stroke-width:1.2px;}.cls-11{fill:#d1d2d3;}.cls-12,.cls-13,.cls-23{stroke:#fff;}.cls-12,.cls-13,.cls-20,.cls-21{stroke-width:10.17px;}.cls-12,.cls-20{opacity:0.5;}.cls-14{fill:#d2502a;}.cls-15,.cls-16,.cls-17{stroke:#d1d2d3;}.cls-15,.cls-16,.cls-17,.cls-23{stroke-width:7.16px;}.cls-16{stroke-dasharray:28.36 28.36;}.cls-17{stroke-dasharray:33.28 33.28;}.cls-18{fill:#ffc627;}.cls-19{stroke:#bbbdbf;stroke-width:23.86px;}.cls-20{stroke:#a6a8ac;}.cls-21{stroke:#4f83c3;}.cls-22{fill:#85a648;}</style></defs><title>wordpress_large_dash</title><g id="_Group_" data-name=" Group "><path id="_Path_" data-name=" Path " class="cls-1" d="M737.27,242.08l0.07-214.22A20.39,20.39,0,0,0,717,7.53H697.58L55,7.35H22.85A20.39,20.39,0,0,0,2.52,27.67v2.44h0L2.45,241.89,2.38,426.11A20.39,20.39,0,0,0,22.7,446.44h2.44l689.11,0.18h2.62A20.39,20.39,0,0,0,737.2,426.3v-2.44h0Z" transform="translate(0 0)"/><path id="_Path_2" data-name=" Path 2" class="cls-2" d="M732,233.81V20.44A20.3,20.3,0,0,0,711.78.19H692.46L52.33,0H20.4A20.3,20.3,0,0,0,.15,20.24v2.43h0L0.08,233.61,0,417a20.3,20.3,0,0,0,20.24,20.25h2.43l686.39,0.19h2.6a20.3,20.3,0,0,0,20.29-20.28v-2.43h0V233.81H732Z" transform="translate(0 0)"/><path id="_Path_3" data-name=" Path 3" class="cls-3" d="M695.34,438.62h19.37A20.3,20.3,0,0,0,735,418.39l0.09-396.72A20.3,20.3,0,0,0,714.85,1.42H695.49Z" transform="translate(0 0)"/><path id="_Path_4" data-name=" Path 4" class="cls-3" d="M52.33,1.21H20.4A20.3,20.3,0,0,0,.15,21.45L0,418.19a20.3,20.3,0,0,0,20.24,20.25H52.18Z" transform="translate(0 0)"/><circle id="_Ellipse_" data-name=" Ellipse " class="cls-4" cx="28.81" cy="217.83" r="14.63"/><rect id="_Rectangle_" data-name=" Rectangle " class="cls-4" x="709.42" y="187.1" width="9.4" height="61.64" rx="2.79" ry="2.79"/><rect id="_Rectangle_2" data-name=" Rectangle 2" class="cls-4" x="54.2" y="1.39" width="638.26" height="437.56"/></g><rect id="_Rectangle_2-2" data-name=" Rectangle 2-2" class="cls-5" x="199.56" y="50.55" width="498.96" height="388.56"/><rect id="_Rectangle_2-3" data-name=" Rectangle 2-3" class="cls-6" x="54.4" y="1.4" width="644.12" height="49.15"/><rect id="_Rectangle_3" data-name=" Rectangle 3" class="cls-6" x="54.4" y="50.55" width="145.51" height="388.56"/><rect id="_Rectangle_4" data-name=" Rectangle 4" class="cls-7" x="54.4" y="50.54" width="145.51" height="115.01"/><rect id="_Rectangle_5" data-name=" Rectangle 5" class="cls-8" x="54.4" y="50.55" width="145.51" height="47.72"/><g class="cls-9"><path class="cls-4" d="M77.57,77.16A5,5,0,0,1,76.15,81,5.81,5.81,0,0,1,72,82.32H69.17V72.19h3.18A5.36,5.36,0,0,1,76.2,73.5,4.82,4.82,0,0,1,77.57,77.16Zm-2.23.06q0-3.26-2.88-3.26H71.31v6.6h0.92Q75.34,80.55,75.34,77.21Z" transform="translate(0 0)"/><path class="cls-4" d="M85.87,82.32l-0.73-2.41H81.44l-0.73,2.41H78.39L82,72.15H84.6l3.59,10.17H85.87Zm-1.25-4.21q-1-3.28-1.15-3.71t-0.18-.68q-0.23.89-1.31,4.39h2.64Z" transform="translate(0 0)"/><path class="cls-4" d="M95.44,79.51a2.62,2.62,0,0,1-1,2.16,4.29,4.29,0,0,1-2.75.79,6.46,6.46,0,0,1-2.87-.61v-2a11.89,11.89,0,0,0,1.74.64,5.13,5.13,0,0,0,1.3.19A1.85,1.85,0,0,0,93,80.41a0.93,0.93,0,0,0,.38-0.8,0.89,0.89,0,0,0-.17-0.53,1.88,1.88,0,0,0-.49-0.45,12.78,12.78,0,0,0-1.31-.69A6.23,6.23,0,0,1,90,77.11a3.15,3.15,0,0,1-.74-0.94A2.67,2.67,0,0,1,89,74.93a2.62,2.62,0,0,1,.91-2.11A3.79,3.79,0,0,1,92.38,72a5.93,5.93,0,0,1,1.51.19,10.25,10.25,0,0,1,1.5.53L94.7,74.43A10.18,10.18,0,0,0,93.36,74a4.36,4.36,0,0,0-1-.13,1.38,1.38,0,0,0-.94.28,0.94,0.94,0,0,0-.33.74,0.91,0.91,0,0,0,.13.5,1.45,1.45,0,0,0,.42.41,13.11,13.11,0,0,0,1.36.71,5.41,5.41,0,0,1,1.95,1.36A2.66,2.66,0,0,1,95.44,79.51Z" transform="translate(0 0)"/><path class="cls-4" d="M105.58,82.32h-2.14V77.95h-4v4.37H97.27V72.19h2.15v4h4v-4h2.14V82.32Z" transform="translate(0 0)"/><path class="cls-4" d="M108.13,72.19h3.15a6.07,6.07,0,0,1,3.13.61,2.13,2.13,0,0,1,1,2,2.46,2.46,0,0,1-.43,1.49,1.7,1.7,0,0,1-1.13.7V77a2.23,2.23,0,0,1,1.39.8,2.62,2.62,0,0,1,.43,1.57,2.58,2.58,0,0,1-1,2.16,4.33,4.33,0,0,1-2.72.78h-3.79V72.19Zm2.15,4h1.25a2.28,2.28,0,0,0,1.26-.27,1,1,0,0,0,.39-0.89,0.89,0.89,0,0,0-.43-0.83,2.75,2.75,0,0,0-1.35-.25h-1.13V76.2Zm0,1.7v2.64h1.4a2.07,2.07,0,0,0,1.31-.34,1.25,1.25,0,0,0,.42-1q0-1.26-1.8-1.26h-1.33Z" transform="translate(0 0)"/><path class="cls-4" d="M126.86,77.24a5.5,5.5,0,0,1-1.25,3.87,5.4,5.4,0,0,1-7.15,0,5.52,5.52,0,0,1-1.25-3.88,5.44,5.44,0,0,1,1.25-3.86A4.67,4.67,0,0,1,122.05,72a4.61,4.61,0,0,1,3.57,1.34A5.51,5.51,0,0,1,126.86,77.24Zm-7.39,0a4.23,4.23,0,0,0,.64,2.56,2.25,2.25,0,0,0,1.93.86q2.57,0,2.57-3.42t-2.56-3.42a2.27,2.27,0,0,0-1.93.86A4.21,4.21,0,0,0,119.47,77.24Z" transform="translate(0 0)"/><path class="cls-4" d="M135.16,82.32l-0.73-2.41h-3.69L130,82.32h-2.31l3.58-10.17h2.63l3.59,10.17h-2.31Zm-1.25-4.21q-1-3.28-1.15-3.71t-0.18-.68q-0.23.89-1.31,4.39h2.64Z" transform="translate(0 0)"/><path class="cls-4" d="M140.9,78.43v3.89h-2.15V72.19h3a5.05,5.05,0,0,1,3.06.75,3,3,0,0,1,.5,3.87,3.25,3.25,0,0,1-1.39,1.09q2.29,3.42,3,4.41h-2.38L142,78.43H140.9Zm0-1.75h0.69a2.65,2.65,0,0,0,1.5-.34,1.21,1.21,0,0,0,.48-1.07,1.11,1.11,0,0,0-.5-1,3,3,0,0,0-1.53-.3H140.9v2.74Z" transform="translate(0 0)"/><path class="cls-4" d="M156.52,77.16A5,5,0,0,1,155.1,81,5.81,5.81,0,0,1,151,82.32h-2.87V72.19h3.18a5.36,5.36,0,0,1,3.85,1.31A4.82,4.82,0,0,1,156.52,77.16Zm-2.23.06q0-3.26-2.88-3.26h-1.14v6.6h0.92Q154.29,80.55,154.29,77.21Z" transform="translate(0 0)"/></g><line id="_Path_2-2" data-name=" Path 2-2" class="cls-10" x1="54.4" y1="50.55" x2="698.52" y2="50.55"/><rect id="_Rectangle_7" data-name=" Rectangle 7" class="cls-11" x="237.45" y="78.38" width="461.07" height="49.32"/><line id="_Path_3-2" data-name=" Path 3-2" class="cls-12" x1="67.89" y1="125.63" x2="130.21" y2="125.63"/><line id="_Path_4-2" data-name=" Path 4-2" class="cls-13" x1="112.52" y1="25.2" x2="231.34" y2="25.2"/><line id="_Path_5" data-name=" Path 5" class="cls-12" x1="67.89" y1="150.07" x2="146.12" y2="150.07"/><line id="_Path_6" data-name=" Path 6" class="cls-12" x1="67.89" y1="174.51" x2="138.16" y2="174.51"/><line id="_Path_7" data-name=" Path 7" class="cls-12" x1="67.89" y1="198.95" x2="117.61" y2="198.95"/><line id="_Path_8" data-name=" Path 8" class="cls-12" x1="67.89" y1="223.39" x2="165.21" y2="223.39"/><line id="_Path_9" data-name=" Path 9" class="cls-12" x1="67.89" y1="247.83" x2="138.16" y2="247.83"/><line id="_Path_10" data-name=" Path 10" class="cls-12" x1="67.89" y1="272.27" x2="109.53" y2="272.27"/><line id="_Path_11" data-name=" Path 11" class="cls-12" x1="67.89" y1="296.71" x2="138.16" y2="296.71"/><line id="_Path_12" data-name=" Path 12" class="cls-12" x1="67.89" y1="321.15" x2="117.61" y2="321.15"/><line id="_Path_13" data-name=" Path 13" class="cls-12" x1="67.89" y1="345.59" x2="138.16" y2="345.59"/><circle id="_Path_14" data-name=" Path 14" class="cls-14" cx="171.93" cy="122.8" r="9.98"/><circle id="_Path_15" data-name=" Path 15" class="cls-14" cx="171.93" cy="272.27" r="9.98"/><rect id="_Rectangle_8" data-name=" Rectangle 8" class="cls-4" x="237.45" y="70.03" width="460.4" height="49.32"/><rect id="_Rectangle_9" data-name=" Rectangle 9" class="cls-4" x="228.87" y="198.95" width="317.55" height="176.42"/><rect id="_Rectangle_9-2" data-name=" Rectangle 9-2" class="cls-4" x="228.87" y="397.95" width="320.06" height="40.49"/><g id="_Group_2" data-name=" Group 2"><line class="cls-15" x1="570.05" y1="375.37" x2="570.05" y2="361.05"/><line class="cls-16" x1="570.05" y1="332.69" x2="570.05" y2="233.45"/><line class="cls-16" x1="570.05" y1="439.69" x2="570.05" y2="351.45"/><polyline class="cls-15" points="570.05 219.27 570.05 204.95 584.37 204.95"/><line class="cls-17" x1="617.65" y1="204.95" x2="667.56" y2="204.95"/><line class="cls-15" x1="684.2" y1="204.95" x2="698.52" y2="204.95"/></g><rect id="_Rectangle_10" data-name=" Rectangle 10" class="cls-18" x="228.88" y="70.03" width="8.58" height="57.67"/><line id="_Path_16" data-name=" Path 16" class="cls-19" x1="228.87" y1="165.55" x2="426.4" y2="165.55"/><line id="_Path_17" data-name=" Path 17" class="cls-20" x1="251.14" y1="221.66" x2="482.89" y2="221.66"/><line id="_Path_18" data-name=" Path 18" class="cls-20" x1="251.14" y1="238.28" x2="460.42" y2="238.28"/><line id="_Path_19" data-name=" Path 19" class="cls-20" x1="251.14" y1="254.91" x2="482.89" y2="254.91"/><line id="_Path_20" data-name=" Path 20" class="cls-20" x1="251.14" y1="271.53" x2="444.34" y2="271.53"/><line id="_Path_21" data-name=" Path 21" class="cls-20" x1="251.14" y1="288.16" x2="460.42" y2="288.16"/><line id="_Path_22" data-name=" Path 22" class="cls-21" x1="251.14" y1="304.78" x2="426.4" y2="304.78"/><line id="_Path_23" data-name=" Path 23" class="cls-21" x1="251.14" y1="98.27" x2="426.4" y2="98.27"/><rect id="_Rectangle_11" data-name=" Rectangle 11" class="cls-22" x="251.14" y="325.86" width="145.15" height="33.41"/><line id="_Path_24" data-name=" Path 24" class="cls-23" x1="262.29" y1="342.57" x2="356.5" y2="342.57"/><g id="_Group_2-2" data-name=" Group 2-2"><path id="_Compound_Path_" data-name=" Compound Path " class="cls-4" d="M71.43,25.56A11.72,11.72,0,0,0,78,36.1L72.4,20.79A11.67,11.67,0,0,0,71.43,25.56ZM91.06,25a6.17,6.17,0,0,0-1-3.23A5.49,5.49,0,0,1,88.93,19,2,2,0,0,1,90.85,17h0.23a11.71,11.71,0,0,0-17.7,2.2h0.75c1.23,0,3.12-.15,3.12-0.15a0.5,0.5,0,1,1,.07,1H76l4.27,12.73L82.79,25,81,20a7.76,7.76,0,0,1-1.23-.11,0.5,0.5,0,1,1,.07-1S81.73,19,82.89,19H86a0.5,0.5,0,1,1,.07,1H84.76L89,32.62l1.16-4A10.91,10.91,0,0,0,91,25h0.06Zm-7.7,1.62L79.83,36.8a11.72,11.72,0,0,0,7.2-.19,1.12,1.12,0,0,1-.08-0.16Zm10.07-6.65a9,9,0,0,1,.08,1.2,11.06,11.06,0,0,1-.89,4.2L89,35.67A11.72,11.72,0,0,0,93.43,19.94Z" transform="translate(0 0)"/><g id="_Group_3" data-name=" Group 3"><path id="_Compound_Path_2" data-name=" Compound Path 2" class="cls-4" d="M69.48,25.56A13.66,13.66,0,1,0,83.14,11.9h0A13.66,13.66,0,0,0,69.48,25.56Zm0.63,0a13,13,0,1,1,13,13,13,13,0,0,1-13-13h0Z" transform="translate(0 0)"/></g></g></svg>